<?xml version="1.0" encoding="UTF-8" ?>
<svg version="1.1" width="10" height="14" xmlns="http://www.w3.org/2000/svg" shape-rendering="crispEdges">
<rect x="2" y="0" width="1" height="1" fill="#B22A37" />
<rect x="3" y="0" width="1" height="1" fill="#981420" />
<rect x="1" y="1" width="1" height="1" fill="#37946E" />
<rect x="2" y="1" width="1" height="1" fill="#B22A37" />
<rect x="3" y="1" width="1" height="1" fill="#37946E" />
<rect x="4" y="1" width="1" height="1" fill="#37946E" />
<rect x="5" y="1" width="1" height="1" fill="#37946E" />
<rect x="6" y="1" width="1" height="1" fill="#37946E" />
<rect x="7" y="1" width="1" height="1" fill="#37946E" />
<rect x="0" y="2" width="1" height="1" fill="#1F533E" />
<rect x="1" y="2" width="1" height="1" fill="#37946E" />
<rect x="2" y="2" width="1" height="1" fill="#B22A37" />
<rect x="3" y="2" width="1" height="1" fill="#37946E" />
<rect x="4" y="2" width="1" height="1" fill="#37946E" />
<rect x="5" y="2" width="1" height="1" fill="#37946E" />
<rect x="6" y="2" width="1" height="1" fill="#4B692F" />
<rect x="7" y="2" width="1" height="1" fill="#37946E" />
<rect x="0" y="3" width="1" height="1" fill="#1F533E" />
<rect x="1" y="3" width="1" height="1" fill="#37946E" />
<rect x="2" y="3" width="1" height="1" fill="#B22A37" />
<rect x="3" y="3" width="1" height="1" fill="#4B692F" />
<rect x="4" y="3" width="1" height="1" fill="#4B692F" />
<rect x="5" y="3" width="1" height="1" fill="#4B692F" />
<rect x="6" y="3" width="1" height="1" fill="#37946E" />
<rect x="7" y="3" width="1" height="1" fill="#37946E" />
<rect x="0" y="4" width="1" height="1" fill="#1F533E" />
<rect x="1" y="4" width="1" height="1" fill="#37946E" />
<rect x="2" y="4" width="1" height="1" fill="#37946E" />
<rect x="3" y="4" width="1" height="1" fill="#4B692F" />
<rect x="4" y="4" width="1" height="1" fill="#83BD4D" />
<rect x="5" y="4" width="1" height="1" fill="#4B692F" />
<rect x="6" y="4" width="1" height="1" fill="#37946E" />
<rect x="7" y="4" width="1" height="1" fill="#37946E" />
<rect x="0" y="5" width="1" height="1" fill="#1F533E" />
<rect x="1" y="5" width="1" height="1" fill="#37946E" />
<rect x="2" y="5" width="1" height="1" fill="#4B692F" />
<rect x="3" y="5" width="1" height="1" fill="#4B692F" />
<rect x="4" y="5" width="1" height="1" fill="#4B692F" />
<rect x="5" y="5" width="1" height="1" fill="#4B692F" />
<rect x="6" y="5" width="1" height="1" fill="#37946E" />
<rect x="7" y="5" width="1" height="1" fill="#37946E" />
<rect x="0" y="6" width="1" height="1" fill="#1F533E" />
<rect x="1" y="6" width="1" height="1" fill="#37946E" />
<rect x="2" y="6" width="1" height="1" fill="#4B692F" />
<rect x="3" y="6" width="1" height="1" fill="#83BD4D" />
<rect x="4" y="6" width="1" height="1" fill="#83BD4D" />
<rect x="5" y="6" width="1" height="1" fill="#4B692F" />
<rect x="6" y="6" width="1" height="1" fill="#4B692F" />
<rect x="7" y="6" width="1" height="1" fill="#37946E" />
<rect x="0" y="7" width="1" height="1" fill="#1F533E" />
<rect x="1" y="7" width="1" height="1" fill="#37946E" />
<rect x="2" y="7" width="1" height="1" fill="#4B692F" />
<rect x="3" y="7" width="1" height="1" fill="#4B692F" />
<rect x="4" y="7" width="1" height="1" fill="#4B692F" />
<rect x="5" y="7" width="1" height="1" fill="#4B692F" />
<rect x="6" y="7" width="1" height="1" fill="#4B692F" />
<rect x="7" y="7" width="1" height="1" fill="#37946E" />
<rect x="0" y="8" width="1" height="1" fill="#1F533E" />
<rect x="1" y="8" width="1" height="1" fill="#37946E" />
<rect x="2" y="8" width="1" height="1" fill="#37946E" />
<rect x="3" y="8" width="1" height="1" fill="#4B692F" />
<rect x="4" y="8" width="1" height="1" fill="#37946E" />
<rect x="5" y="8" width="1" height="1" fill="#4B692F" />
<rect x="6" y="8" width="1" height="1" fill="#37946E" />
<rect x="7" y="8" width="1" height="1" fill="#37946E" />
<rect x="0" y="9" width="1" height="1" fill="#1F533E" />
<rect x="1" y="9" width="1" height="1" fill="#37946E" />
<rect x="2" y="9" width="1" height="1" fill="#37946E" />
<rect x="3" y="9" width="1" height="1" fill="#37946E" />
<rect x="4" y="9" width="1" height="1" fill="#37946E" />
<rect x="5" y="9" width="1" height="1" fill="#37946E" />
<rect x="6" y="9" width="1" height="1" fill="#37946E" />
<rect x="7" y="9" width="1" height="1" fill="#37946E" />
<rect x="0" y="10" width="1" height="1" fill="#1F533E" />
<rect x="1" y="10" width="1" height="1" fill="#E2B27E" />
<rect x="2" y="10" width="1" height="1" fill="#E2B27E" />
<rect x="3" y="10" width="1" height="1" fill="#E2B27E" />
<rect x="4" y="10" width="1" height="1" fill="#E2B27E" />
<rect x="5" y="10" width="1" height="1" fill="#E2B27E" />
<rect x="6" y="10" width="1" height="1" fill="#E2B27E" />
<rect x="7" y="10" width="1" height="1" fill="#E2B27E" />
<rect x="0" y="11" width="1" height="1" fill="#1F533E" />
<rect x="1" y="11" width="1" height="1" fill="#F6D896" />
<rect x="2" y="11" width="1" height="1" fill="#F6D896" />
<rect x="3" y="11" width="1" height="1" fill="#F6D896" />
<rect x="4" y="11" width="1" height="1" fill="#F6D896" />
<rect x="5" y="11" width="1" height="1" fill="#F6D896" />
<rect x="6" y="11" width="1" height="1" fill="#F6D896" />
<rect x="7" y="11" width="1" height="1" fill="#F6D896" />
<rect x="1" y="12" width="1" height="1" fill="#0D241B" />
<rect x="2" y="12" width="1" height="1" fill="#0D241B" />
<rect x="3" y="12" width="1" height="1" fill="#0D241B" />
<rect x="4" y="12" width="1" height="1" fill="#0D241B" />
<rect x="5" y="12" width="1" height="1" fill="#0D241B" />
<rect x="6" y="12" width="1" height="1" fill="#0D241B" />
<rect x="7" y="12" width="1" height="1" fill="#0D241B" />
</svg>