<?xml version="1.0" encoding="UTF-8" ?>
<svg version="1.1" width="10" height="14" xmlns="http://www.w3.org/2000/svg" shape-rendering="crispEdges">
<rect x="1" y="1" width="1" height="1" fill="#429C27" />
<rect x="2" y="1" width="1" height="1" fill="#429C27" />
<rect x="3" y="1" width="1" height="1" fill="#78CD5E" />
<rect x="4" y="1" width="1" height="1" fill="#78CD5E" />
<rect x="5" y="1" width="1" height="1" fill="#78CD5E" />
<rect x="6" y="1" width="1" height="1" fill="#429C27" />
<rect x="7" y="1" width="1" height="1" fill="#429C27" />
<rect x="0" y="2" width="1" height="1" fill="#4E5129" />
<rect x="1" y="2" width="1" height="1" fill="#429C27" />
<rect x="2" y="2" width="1" height="1" fill="#CB2937" />
<rect x="3" y="2" width="1" height="1" fill="#78CD5E" />
<rect x="4" y="2" width="1" height="1" fill="#CB2937" />
<rect x="5" y="2" width="1" height="1" fill="#B5BD5E" />
<rect x="6" y="2" width="1" height="1" fill="#78CD5E" />
<rect x="7" y="2" width="1" height="1" fill="#429C27" />
<rect x="0" y="3" width="1" height="1" fill="#571218" />
<rect x="1" y="3" width="1" height="1" fill="#78CD5E" />
<rect x="2" y="3" width="1" height="1" fill="#78CD5E" />
<rect x="3" y="3" width="1" height="1" fill="#78CD5E" />
<rect x="4" y="3" width="1" height="1" fill="#B5BD5E" />
<rect x="5" y="3" width="1" height="1" fill="#CB2937" />
<rect x="6" y="3" width="1" height="1" fill="#B5BD5E" />
<rect x="7" y="3" width="1" height="1" fill="#78CD5E" />
<rect x="0" y="4" width="1" height="1" fill="#345729" />
<rect x="1" y="4" width="1" height="1" fill="#78CD5E" />
<rect x="2" y="4" width="1" height="1" fill="#B5BD5E" />
<rect x="3" y="4" width="1" height="1" fill="#B5BD5E" />
<rect x="4" y="4" width="1" height="1" fill="#B5BD5E" />
<rect x="5" y="4" width="1" height="1" fill="#78CD5E" />
<rect x="6" y="4" width="1" height="1" fill="#B5BD5E" />
<rect x="7" y="4" width="1" height="1" fill="#78CD5E" />
<rect x="0" y="5" width="1" height="1" fill="#571218" />
<rect x="1" y="5" width="1" height="1" fill="#78CD5E" />
<rect x="2" y="5" width="1" height="1" fill="#CB2937" />
<rect x="3" y="5" width="1" height="1" fill="#B5BD5E" />
<rect x="4" y="5" width="1" height="1" fill="#CB2937" />
<rect x="5" y="5" width="1" height="1" fill="#CB2937" />
<rect x="6" y="5" width="1" height="1" fill="#CB2937" />
<rect x="7" y="5" width="1" height="1" fill="#78CD5E" />
<rect x="0" y="6" width="1" height="1" fill="#571218" />
<rect x="1" y="6" width="1" height="1" fill="#78CD5E" />
<rect x="2" y="6" width="1" height="1" fill="#B5BD5E" />
<rect x="3" y="6" width="1" height="1" fill="#CB2937" />
<rect x="4" y="6" width="1" height="1" fill="#78CD5E" />
<rect x="5" y="6" width="1" height="1" fill="#B5BD5E" />
<rect x="6" y="6" width="1" height="1" fill="#78CD5E" />
<rect x="7" y="6" width="1" height="1" fill="#78CD5E" />
<rect x="0" y="7" width="1" height="1" fill="#4E5129" />
<rect x="1" y="7" width="1" height="1" fill="#78CD5E" />
<rect x="2" y="7" width="1" height="1" fill="#78CD5E" />
<rect x="3" y="7" width="1" height="1" fill="#CB2937" />
<rect x="4" y="7" width="1" height="1" fill="#78CD5E" />
<rect x="5" y="7" width="1" height="1" fill="#CB2937" />
<rect x="6" y="7" width="1" height="1" fill="#78CD5E" />
<rect x="7" y="7" width="1" height="1" fill="#78CD5E" />
<rect x="0" y="8" width="1" height="1" fill="#345729" />
<rect x="1" y="8" width="1" height="1" fill="#429C27" />
<rect x="2" y="8" width="1" height="1" fill="#B5BD5E" />
<rect x="3" y="8" width="1" height="1" fill="#B5BD5E" />
<rect x="4" y="8" width="1" height="1" fill="#78CD5E" />
<rect x="5" y="8" width="1" height="1" fill="#B5BD5E" />
<rect x="6" y="8" width="1" height="1" fill="#B5BD5E" />
<rect x="7" y="8" width="1" height="1" fill="#429C27" />
<rect x="0" y="9" width="1" height="1" fill="#571218" />
<rect x="1" y="9" width="1" height="1" fill="#429C27" />
<rect x="2" y="9" width="1" height="1" fill="#429C27" />
<rect x="3" y="9" width="1" height="1" fill="#78CD5E" />
<rect x="4" y="9" width="1" height="1" fill="#78CD5E" />
<rect x="5" y="9" width="1" height="1" fill="#78CD5E" />
<rect x="6" y="9" width="1" height="1" fill="#429C27" />
<rect x="7" y="9" width="1" height="1" fill="#429C27" />
<rect x="0" y="10" width="1" height="1" fill="#571218" />
<rect x="1" y="10" width="1" height="1" fill="#DFAF7C" />
<rect x="2" y="10" width="1" height="1" fill="#DFAF7C" />
<rect x="3" y="10" width="1" height="1" fill="#DFAF7C" />
<rect x="4" y="10" width="1" height="1" fill="#DFAF7C" />
<rect x="5" y="10" width="1" height="1" fill="#DFAF7C" />
<rect x="6" y="10" width="1" height="1" fill="#DFAF7C" />
<rect x="7" y="10" width="1" height="1" fill="#DFAF7C" />
<rect x="0" y="11" width="1" height="1" fill="#4E5129" />
<rect x="1" y="11" width="1" height="1" fill="#F5D593" />
<rect x="2" y="11" width="1" height="1" fill="#CD1744" />
<rect x="3" y="11" width="1" height="1" fill="#F5D593" />
<rect x="4" y="11" width="1" height="1" fill="#CD1744" />
<rect x="5" y="11" width="1" height="1" fill="#F5D593" />
<rect x="6" y="11" width="1" height="1" fill="#F5D593" />
<rect x="7" y="11" width="1" height="1" fill="#F5D593" />
<rect x="1" y="12" width="1" height="1" fill="#2F3B1D" />
<rect x="2" y="12" width="1" height="1" fill="#CD1744" />
<rect x="3" y="12" width="1" height="1" fill="#460E12" />
<rect x="4" y="12" width="1" height="1" fill="#CD1744" />
<rect x="5" y="12" width="1" height="1" fill="#2F3B1D" />
<rect x="6" y="12" width="1" height="1" fill="#460E12" />
<rect x="7" y="12" width="1" height="1" fill="#40371D" />
<rect x="2" y="13" width="1" height="1" fill="#CD1744" />
<rect x="4" y="13" width="1" height="1" fill="#CD1744" />
</svg>