<svg xmlns="http://www.w3.org/2000/svg" viewBox="0 -0.5 96 64" shape-rendering="crispEdges">
<metadata>Made with Pixels to Svg https://codepen.io/shshaw/pen/XbxvNj</metadata>
<path stroke="#5e3219" d="M9 5h4M17 5h6M54 5h3M61 5h3M8 6h1M13 6h1M16 6h1M23 6h1M53 6h1M57 6h1M60 6h1M64 6h1M8 7h1M13 7h1M16 7h1M20 7h1M22 7h2M53 7h1M57 7h1M59 7h1M65 7h1M8 8h1M13 8h1M16 8h2M22 8h1M54 8h1M57 8h1M59 8h1M65 8h1M8 9h1M13 9h1M16 9h1M21 9h1M39 9h1M54 9h1M58 9h1M60 9h1M66 9h1M8 10h1M13 10h1M16 10h1M21 10h1M32 10h2M39 10h1M54 10h1M58 10h2M61 10h2M66 10h1M88 10h1M8 11h1M14 11h1M16 11h1M21 11h1M31 11h1M34 11h1M36 11h2M39 11h1M54 11h2M59 11h1M62 11h1M66 11h4M73 11h2M78 11h2M82 11h3M87 11h1M89 11h1M7 12h1M14 12h2M21 12h1M25 12h1M28 12h1M30 12h1M35 12h1M38 12h1M55 12h1M59 12h1M63 12h1M66 12h1M70 12h1M72 12h1M75 12h1M77 12h1M80 12h2M85 12h1M87 12h1M90 12h1M14 13h2M17 13h1M21 13h1M24 13h1M31 13h2M39 13h1M55 13h1M59 13h1M63 13h1M66 13h1M70 13h1M72 13h1M76 13h2M85 13h2M90 13h1M10 14h1M14 14h1M17 14h1M21 14h1M23 14h1M30 14h2M38 14h1M55 14h1M59 14h1M63 14h1M67 14h1M70 14h1M72 14h1M76 14h1M86 14h2M90 14h1M10 15h1M16 15h1M21 15h2M26 15h1M30 15h1M32 15h1M36 15h2M39 15h1M55 15h1M63 15h1M66 15h1M70 15h1M72 15h1M76 15h2M81 15h2M86 15h2M89 15h1M7 16h1M10 16h1M16 16h1M21 16h1M26 16h1M30 16h1M32 16h1M36 16h1M39 16h1M59 16h1M66 16h2M72 16h1M76 16h2M81 16h1M83 16h1M86 16h1M88 16h1M9 17h2M20 17h1M24 17h3M32 17h1M36 17h1M39 17h1M55 17h1M59 17h1M63 17h1M66 17h2M70 17h1M76 17h2M81 17h1M83 17h1M87 17h1M9 18h2M15 18h2M23 18h1M32 18h1M35 18h1M55 18h1M60 18h1M63 18h1M65 18h1M67 18h1M70 18h1M72 18h1M76 18h2M81 18h1M83 18h1M87 18h1M6 19h1M11 19h1M15 19h2M22 19h1M30 19h1M32 19h1M35 19h1M56 19h1M60 19h1M62 19h1M65 19h1M67 19h1M70 19h1M72 19h2M76 19h1M78 19h1M81 19h1M83 19h1M87 19h1M89 19h1M6 20h1M11 20h1M14 20h1M16 20h1M20 20h2M30 20h1M32 20h1M35 20h1M56 20h1M61 20h2M64 20h1M67 20h1M70 20h1M72 20h2M76 20h1M78 20h1M81 20h1M83 20h1M87 20h2M90 20h1M6 21h1M9 21h1M11 21h1M14 21h1M16 21h1M20 21h2M30 21h1M32 21h1M35 21h1M38 21h1M57 21h1M64 21h1M67 21h1M71 21h2M77 21h2M81 21h1M83 21h1M87 21h2M91 21h1M9 22h1M11 22h1M13 22h1M20 22h2M30 22h2M35 22h1M38 22h1M57 22h1M63 22h1M67 22h1M77 22h2M81 22h1M83 22h1M87 22h1M92 22h1M8 23h1M11 23h1M13 23h1M30 23h2M35 23h1M38 23h1M42 23h1M58 23h1M62 23h1M67 23h1M77 23h2M81 23h1M83 23h1M87 23h2M91 23h1M5 24h1M11 24h2M21 24h1M30 24h2M35 24h1M38 24h1M42 24h1M58 24h1M62 24h1M68 24h1M73 24h1M78 24h1M81 24h1M83 24h1M87 24h1M89 24h1M91 24h1M5 25h1M21 25h1M25 25h3M29 25h1M31 25h1M35 25h1M38 25h1M42 25h1M44 25h1M58 25h1M61 25h1M64 25h2M69 25h1M74 25h1M76 25h1M78 25h1M81 25h1M83 25h1M87 25h1M90 25h1M5 26h1M17 26h3M22 26h3M28 26h1M32 26h3M40 26h2M45 26h1M58 26h1M62 26h2M66 26h1M70 26h2M75 26h1M79 26h3M84 26h3M7 27h1M58 27h1M66 27h1M58 28h1M65 28h1M5 29h2M59 29h6M2 35h10M18 35h1M40 35h5M1 36h1M12 36h1M17 36h1M19 36h1M38 36h3M45 36h1M0 37h1M16 37h1M19 37h1M37 37h1M46 37h1M0 38h1M13 38h1M15 38h1M19 38h1M36 38h1M47 38h1M0 39h1M13 39h2M19 39h1M36 39h1M47 39h1M1 40h4M8 40h2M13 40h3M19 40h1M36 40h1M47 40h1M4 41h1M7 41h1M10 41h3M15 41h1M19 41h1M36 41h1M47 41h1M52 41h1M59 41h2M65 41h2M70 41h2M75 41h6M82 41h3M91 41h2M3 42h1M6 42h1M15 42h1M20 42h1M27 42h2M36 42h1M46 42h1M51 42h1M53 42h1M58 42h1M61 42h2M65 42h1M67 42h1M69 42h1M72 42h1M74 42h1M78 42h1M81 42h2M85 42h1M90 42h1M92 42h1M3 43h1M6 43h1M15 43h1M21 43h1M26 43h1M29 43h1M36 43h1M45 43h1M50 43h1M54 43h1M57 43h1M63 43h1M65 43h1M67 43h1M69 43h1M72 43h2M86 43h1M89 43h1M93 43h1M3 44h1M6 44h1M15 44h1M22 44h1M25 44h1M30 44h1M36 44h1M45 44h1M49 44h1M54 44h1M56 44h1M63 44h1M65 44h1M67 44h1M69 44h1M72 44h2M87 44h2M94 44h1M2 45h1M6 45h1M14 45h1M23 45h1M25 45h1M30 45h1M36 45h1M44 45h1M49 45h1M55 45h1M58 45h2M65 45h1M67 45h1M69 45h1M72 45h2M78 45h1M87 45h2M94 45h1M2 46h1M6 46h1M14 46h1M23 46h2M30 46h1M36 46h1M43 46h1M48 46h1M55 46h1M58 46h1M60 46h1M62 46h2M67 46h1M69 46h1M72 46h1M74 46h1M77 46h1M79 46h1M83 46h1M87 46h2M94 46h1M2 47h1M6 47h1M14 47h1M18 47h2M23 47h1M30 47h1M36 47h1M44 47h1M48 47h1M54 47h2M58 47h1M61 47h2M69 47h1M72 47h1M74 47h1M77 47h1M79 47h1M82 47h3M87 47h2M93 47h1M2 48h1M6 48h1M14 48h1M18 48h1M20 48h1M23 48h1M29 48h1M36 48h1M44 48h1M48 48h1M53 48h1M55 48h1M59 48h3M63 48h1M67 48h1M69 48h1M72 48h1M74 48h1M77 48h1M79 48h1M82 48h1M84 48h1M87 48h2M93 48h1M2 49h1M6 49h1M14 49h1M18 49h1M20 49h1M23 49h1M28 49h1M36 49h1M40 49h2M45 49h1M48 49h1M53 49h1M55 49h1M63 49h2M67 49h1M69 49h1M72 49h1M74 49h1M77 49h1M79 49h1M82 49h1M84 49h1M88 49h1M92 49h1M2 50h1M6 50h1M12 50h1M14 50h1M18 50h1M20 50h1M23 50h1M28 50h1M36 50h1M40 50h3M45 50h1M48 50h1M52 50h1M56 50h2M64 50h1M67 50h1M69 50h1M72 50h1M74 50h1M77 50h1M79 50h1M82 50h1M84 50h1M88 50h1M92 50h1M2 51h1M6 51h1M11 51h1M13 51h2M18 51h1M20 51h1M22 51h2M27 51h1M36 51h1M40 51h1M42 51h1M46 51h3M52 51h1M58 51h3M64 51h1M67 51h1M69 51h1M72 51h1M74 51h1M77 51h1M79 51h1M82 51h1M84 51h1M88 51h1M92 51h1M2 52h1M7 52h1M10 52h2M13 52h2M17 52h1M20 52h1M22 52h2M26 52h1M28 52h2M36 52h1M40 52h1M42 52h1M48 52h1M52 52h2M57 52h1M61 52h1M64 52h1M68 52h2M73 52h2M77 52h1M79 52h1M82 52h1M84 52h1M88 52h1M92 52h2M2 53h1M8 53h2M13 53h1M17 53h1M20 53h1M22 53h2M27 53h1M30 53h1M36 53h1M40 53h1M42 53h1M48 53h1M55 53h2M58 53h1M61 53h1M64 53h1M74 53h1M77 53h1M79 53h1M82 53h1M84 53h1M88 53h2M94 53h1M2 54h1M12 54h2M17 54h1M19 54h1M21 54h1M23 54h1M30 54h1M36 54h1M40 54h1M43 54h1M47 54h1M49 54h1M55 54h2M59 54h3M64 54h2M74 54h1M77 54h1M79 54h1M82 54h1M84 54h1M88 54h2M95 54h1M2 55h1M11 55h1M13 55h1M17 55h2M21 55h1M23 55h1M29 55h1M35 55h1M41 55h1M43 55h1M47 55h1M49 55h1M54 55h1M56 55h1M63 55h1M65 55h1M70 55h1M73 55h2M77 55h1M79 55h1M82 55h1M84 55h1M88 55h1M90 55h1M95 55h1M3 56h1M10 56h1M13 56h1M16 56h2M20 56h1M24 56h1M28 56h1M35 56h1M41 56h1M44 56h1M46 56h1M50 56h1M54 56h1M57 56h2M62 56h1M66 56h1M68 56h3M72 56h1M75 56h1M77 56h1M79 56h1M82 56h1M88 56h1M91 56h1M94 56h1M4 57h1M9 57h1M13 57h1M16 57h2M19 57h1M25 57h1M27 57h1M35 57h2M40 57h1M44 57h1M46 57h1M51 57h3M59 57h3M67 57h2M70 57h2M76 57h1M80 57h2M84 57h4M92 57h2M5 58h4M14 58h2M17 58h2M26 58h1M36 58h4M44 58h2" />
<path stroke="#613921" d="M42 5h1M40 6h2M43 6h1M43 7h1M43 8h1M43 9h1M43 10h1M46 10h2M43 11h1M45 11h1M48 11h1M39 12h1M43 12h2M43 13h1M48 13h1M39 14h1M43 14h1M47 14h1M46 15h1M46 16h1M45 17h1M39 18h1M45 18h1M39 19h1M42 19h1M46 19h1M38 20h2M43 20h1M47 20h1M42 21h1M44 21h1M47 21h1M42 22h1M44 22h1M48 22h1M44 23h1M48 23h1M44 24h1M48 24h1M48 25h1M39 26h1M46 26h2" />
<path stroke="#62391c" d="M9 6h1" />
<path stroke="#81614d" d="M10 6h1" />
<path stroke="#4c2e19" d="M11 6h1" />
<path stroke="#633a23" d="M12 6h1M9 7h1M37 48h1" />
<path stroke="#825235" d="M17 6h1M22 6h1" />
<path stroke="#764b36" d="M18 6h1" />
<path stroke="#8d5b47" d="M19 6h1" />
<path stroke="#764527" d="M20 6h1" />
<path stroke="#7e4f36" d="M21 6h1M84 23h1M50 45h1M57 49h1M3 53h1" />
<path stroke="#7f4f35" d="M42 6h1M11 15h1M12 40h1M40 48h1" />
<path stroke="#8b5c3f" d="M54 6h1" />
<path stroke="#8b5c3c" d="M55 6h1" />
<path stroke="#8c5c3e" d="M56 6h1" />
<path stroke="#7e5035" d="M61 6h1M10 7h1M56 9h1M18 12h1M26 45h1M80 52h1M26 56h1M51 56h1" />
<path stroke="#885536" d="M62 6h1M73 13h1" />
<path stroke="#7e5036" d="M63 6h1M84 12h1M44 14h1M44 15h1M34 16h1M44 19h1M44 20h1M70 24h1M20 45h1M37 53h1M90 53h1M92 53h1M53 54h1M27 55h1" />
<path stroke="#633b20" d="M11 7h1M86 19h1M76 24h1M71 25h1M85 25h2M65 26h1M65 27h1M64 28h1M38 37h2M37 38h1M37 39h1M37 41h1M37 42h1M59 42h1M76 42h2M83 42h1M62 43h1M74 43h1M56 45h1M63 45h1M85 49h1M85 50h1M85 51h1M85 52h1M84 56h1" />
<path stroke="#805032" d="M12 7h1M12 8h1M55 8h1M10 9h1M83 12h1M64 18h1M16 43h1M86 45h1M67 54h1M67 56h1" />
<path stroke="#4e2d18" d="M17 7h1" />
<path stroke="#643a23" d="M18 7h1" />
<path stroke="#643b24" d="M19 7h1" />
<path stroke="#7f5038" d="M21 7h1" />
<path stroke="#653a1f" d="M40 7h1" />
<path stroke="#653820" d="M41 7h1" />
<path stroke="#7f5035" d="M42 7h1M42 8h1M25 15h1M28 16h1M28 17h1M28 18h1M25 19h1M28 25h1M78 43h1M52 47h1M3 54h1" />
<path stroke="#8b5e45" d="M54 7h1" />
<path stroke="#75482d" d="M55 7h1" />
<path stroke="#824f32" d="M56 7h1M61 23h1" />
<path stroke="#925b3c" d="M60 7h1M60 21h1" />
<path stroke="#824f37" d="M61 7h1" />
<path stroke="#7f4e31" d="M62 7h1M71 50h1M71 56h1" />
<path stroke="#7e4f33" d="M63 7h1M26 13h1M84 25h1M9 37h1M60 49h1M14 55h1" />
<path stroke="#825031" d="M64 7h1M86 46h1M86 47h1M86 48h1M86 49h1M86 50h1M86 51h1M86 52h1" />
<path stroke="#7e4f34" d="M9 8h1M89 23h1M19 43h1M91 43h1M89 50h1" />
<path stroke="#814f33" d="M10 8h1M5 51h1" />
<path stroke="#7b5033" d="M11 8h1M63 8h1M19 13h1" />
<path stroke="#7d4e33" d="M18 8h1M17 22h1" />
<path stroke="#804f2f" d="M19 8h1M5 53h1" />
<path stroke="#885333" d="M20 8h1" />
<path stroke="#7e5133" d="M21 8h1M40 12h1M29 44h1M38 53h1" />
<path stroke="#263225" d="M23 8h1M53 8h1M23 9h1M53 9h1M59 9h1M60 10h1M61 11h1M61 12h2M48 14h1M8 41h1M46 43h1M12 44h1M29 49h1M12 55h1M29 57h1M16 58h1M35 58h1M69 58h1M67 59h1M60 60h1" />
<path stroke="#673f2b" d="M39 8h1" />
<path stroke="#624935" d="M40 8h1" />
<path stroke="#70452c" d="M41 8h1" />
<path stroke="#814e30" d="M56 8h1" />
<path stroke="#905b3a" d="M60 8h1" />
<path stroke="#804e33" d="M61 8h1M74 17h1M44 36h1M8 37h1M29 45h1M91 52h1M60 56h1" />
<path stroke="#824e33" d="M62 8h1M22 48h1" />
<path stroke="#82513b" d="M64 8h1" />
<path stroke="#7d5033" d="M9 9h1M32 23h1M37 49h1M51 49h1" />
<path stroke="#7c4e2f" d="M11 9h1" />
<path stroke="#7d4e31" d="M12 9h1M36 12h1M38 52h1" />
<path stroke="#754932" d="M17 9h1" />
<path stroke="#805033" d="M18 9h1M58 17h1M44 37h1M29 47h1M44 50h1M44 52h1M44 53h1M92 54h1M66 55h1" />
<path stroke="#7e4e33" d="M19 9h1M71 51h1" />
<path stroke="#855435" d="M20 9h1M6 36h1M8 36h1M2 37h1M5 37h1M1 38h1M1 39h1" />
<path stroke="#192519" d="M22 9h1M23 10h1M53 10h1M22 11h2M53 11h1M22 12h1M54 12h1M54 13h1M60 13h1M54 14h1M61 14h2M31 15h1M54 15h1M62 15h1M90 15h1M25 16h1M38 16h1M54 16h1M87 16h1M90 16h1M31 17h1M90 17h1M21 18h1M31 18h1M38 18h1M66 18h1M90 18h1M10 19h1M21 19h1M26 19h1M36 19h2M55 19h1M66 19h1M77 19h1M82 19h1M10 20h1M26 20h1M36 20h1M55 20h1M66 20h1M77 20h1M10 21h1M25 21h2M36 21h1M55 21h1M66 21h1M10 22h1M15 22h1M55 22h1M65 22h1M15 23h1M56 23h1M65 23h1M92 23h1M14 24h1M56 24h1M64 24h1M67 24h1M88 24h1M92 24h1M9 25h1M11 25h1M14 25h1M30 25h1M57 25h1M67 25h1M77 25h1M88 25h1M91 25h2M9 26h1M11 26h1M13 26h1M21 26h1M30 26h2M35 26h1M38 26h1M57 26h1M67 26h1M77 26h2M83 26h1M87 26h1M92 26h1M8 27h1M11 27h1M13 27h1M28 27h1M30 27h2M35 27h1M38 27h1M42 27h1M67 27h1M77 27h2M81 27h1M83 27h1M87 27h2M91 27h1M11 28h2M21 28h1M28 28h1M30 28h2M35 28h1M38 28h1M42 28h1M66 28h1M68 28h1M72 28h2M78 28h1M81 28h1M83 28h1M87 28h1M89 28h1M91 28h1M21 29h1M25 29h5M31 29h1M35 29h1M38 29h1M42 29h1M44 29h1M58 29h1M65 29h2M72 29h1M74 29h1M76 29h1M78 29h1M81 29h1M83 29h1M87 29h1M90 29h1M4 30h2M17 30h3M22 30h3M27 30h3M32 30h3M40 30h2M45 30h1M58 30h1M62 30h2M66 30h1M70 30h2M75 30h1M79 30h3M84 30h3M4 31h1M7 31h1M58 31h1M66 31h1M58 32h1M65 32h1M5 33h2M59 33h6M41 39h3M0 40h1M0 41h1M14 41h1M0 42h1M13 42h2M47 42h1M0 43h1M13 43h2M47 43h1M1 44h2M8 44h2M13 44h2M47 44h1M7 45h1M10 45h3M47 45h1M68 45h1M46 46h1M51 46h1M68 46h1M78 46h1M90 46h1M26 47h1M45 47h1M63 47h1M68 47h1M73 47h1M94 47h1M30 48h1M45 48h1M54 48h1M68 48h1M73 48h1M94 48h1M30 49h1M68 49h1M73 49h1M78 49h1M94 49h1M30 50h1M55 50h1M68 50h1M73 50h1M83 50h1M94 50h1M19 51h1M30 51h1M54 51h2M68 51h1M73 51h1M83 51h1M93 51h1M18 52h1M55 52h1M59 52h2M18 53h1M41 53h1M18 54h1M42 54h1M48 54h1M22 55h1M30 55h1M42 55h1M48 55h1M64 55h1M2 56h1M11 56h1M22 56h2M29 56h2M42 56h1M48 56h1M64 56h1M73 56h2M95 56h1M2 57h1M20 57h1M22 57h2M30 57h1M41 57h2M48 57h1M55 57h2M58 57h1M64 57h1M74 57h1M77 57h1M79 57h1M82 57h1M88 57h2M94 57h2M2 58h1M12 58h2M19 58h1M21 58h1M23 58h1M30 58h1M40 58h2M43 58h1M47 58h1M49 58h1M55 58h2M59 58h3M64 58h2M74 58h1M77 58h1M79 58h1M82 58h1M84 58h1M88 58h2M95 58h1M2 59h1M11 59h1M13 59h1M17 59h2M21 59h1M23 59h1M29 59h1M35 59h1M41 59h1M43 59h1M47 59h1M49 59h1M54 59h1M56 59h1M63 59h1M65 59h1M70 59h1M73 59h2M77 59h1M79 59h1M82 59h1M84 59h1M88 59h1M90 59h1M95 59h1M3 60h1M10 60h1M13 60h1M16 60h2M20 60h1M24 60h1M28 60h1M35 60h1M41 60h1M44 60h1M46 60h1M50 60h1M54 60h1M57 60h2M62 60h1M66 60h1M68 60h3M72 60h1M75 60h1M77 60h1M79 60h1M82 60h1M88 60h1M91 60h1M94 60h1M4 61h1M9 61h1M13 61h1M16 61h2M19 61h1M25 61h1M27 61h1M36 61h1M40 61h1M44 61h1M46 61h1M51 61h3M59 61h3M67 61h2M70 61h2M76 61h1M80 61h2M84 61h4M92 61h2M5 62h4M14 62h2M17 62h2M26 62h1M37 62h3M44 62h2" />
<path stroke="#7e5031" d="M40 9h1M76 23h1" />
<path stroke="#714629" d="M41 9h1" />
<path stroke="#694127" d="M42 9h1" />
<path stroke="#7d5034" d="M55 9h1M33 22h1M84 42h1M66 48h1M85 54h1M25 55h1" />
<path stroke="#603b27" d="M57 9h1M67 47h1" />
<path stroke="#804f33" d="M61 9h1M89 49h1M80 50h1M15 53h1" />
<path stroke="#7d5032" d="M62 9h1M80 18h1M59 20h1M75 54h1" />
<path stroke="#815032" d="M63 9h1M58 19h1M66 42h1M37 45h1M16 48h1" />
<path stroke="#804f31" d="M64 9h1M38 13h1M59 27h1M64 27h1M75 45h1M71 47h1" />
<path stroke="#7c5232" d="M65 9h1" />
<path stroke="#814e31" d="M9 10h1" />
<path stroke="#825035" d="M10 10h1" />
<path stroke="#7c5033" d="M11 10h1M89 22h1" />
<path stroke="#7e4f31" d="M12 10h1M78 12h1M12 16h1M71 53h1M68 55h1M91 55h1" />
<path stroke="#744931" d="M17 10h1" />
<path stroke="#7f5036" d="M18 10h1M14 18h1M47 25h1M77 43h1M84 46h1M53 53h1" />
<path stroke="#804f34" d="M19 10h1M78 16h1M34 17h1M78 17h1M40 37h1M44 40h1M44 41h1M16 54h1M44 54h1M69 54h1M67 55h1" />
<path stroke="#875533" d="M20 10h1" />
<path stroke="#263326" d="M22 10h1M47 16h1M47 17h1M27 26h1M18 27h1M27 28h1M79 28h1M61 31h1M63 57h1M86 58h1M7 60h1M5 61h1" />
<path stroke="#7e5132" d="M40 10h1M40 14h1M40 15h1M40 16h1M40 17h1M80 19h1M12 21h1M40 24h1M40 38h1M66 43h1" />
<path stroke="#71452b" d="M41 10h1" />
<path stroke="#85563b" d="M42 10h1" />
<path stroke="#7e5135" d="M55 10h1M8 14h1M53 45h1M83 45h1M37 46h1M75 50h1" />
<path stroke="#794f36" d="M56 10h1" />
<path stroke="#4d2e1d" d="M57 10h1" />
<path stroke="#8a573a" d="M63 10h1" />
<path stroke="#8b573a" d="M64 10h1" />
<path stroke="#7f5233" d="M65 10h1" />
<path stroke="#6abe30" d="M70 10h1M68 12h1M58 14h1M65 14h1M56 16h1M74 16h1M64 17h1M53 18h1M71 24h1M73 27h1M69 29h1M73 31h1M69 32h1" />
<path stroke="#844f30" d="M9 11h1" />
<path stroke="#824e36" d="M10 11h1" />
<path stroke="#7d5031" d="M11 11h1M4 43h1M71 43h1" />
<path stroke="#7c5032" d="M12 11h1M11 12h1M80 24h1" />
<path stroke="#714e37" d="M13 11h1" />
<path stroke="#6e432d" d="M17 11h1" />
<path stroke="#7d4f34" d="M18 11h1" />
<path stroke="#7f5033" d="M19 11h1M36 13h1M74 21h1M84 21h1M12 37h1M38 41h1M57 47h1M43 50h1M26 55h1M8 56h1" />
<path stroke="#875438" d="M20 11h1" />
<path stroke="#7e5038" d="M32 11h2M31 12h4M73 16h1" />
<path stroke="#7f5130" d="M40 11h1" />
<path stroke="#664227" d="M41 11h1" />
<path stroke="#805737" d="M42 11h1" />
<path stroke="#825233" d="M46 11h1M47 12h1M44 13h1M47 13h1M23 20h1" />
<path stroke="#72452c" d="M47 11h1M46 12h1M48 12h1M44 17h1M42 18h1M42 20h1M34 22h1M41 22h1M47 23h1M47 24h1M41 25h1" />
<path stroke="#835134" d="M56 11h1M49 51h1" />
<path stroke="#5a3a2a" d="M57 11h1" />
<path stroke="#5c3c28" d="M58 11h1" />
<path stroke="#2b392b" d="M60 11h1M68 26h1M22 27h1M68 27h1" />
<path stroke="#8f5537" d="M63 11h1" />
<path stroke="#54301a" d="M64 11h1" />
<path stroke="#7f5030" d="M65 11h1M61 26h1M75 53h1" />
<path stroke="#4b692f" d="M70 11h1M26 12h1M69 12h1M25 13h1M29 13h1M67 13h2M18 14h1M25 14h1M28 14h1M66 14h1M17 15h1M19 15h1M24 15h1M28 15h1M56 15h4M64 15h2M67 15h1M8 16h1M17 16h1M20 16h1M23 16h1M29 16h1M55 16h1M60 16h1M63 16h1M68 16h1M70 16h1M16 17h1M21 17h2M30 17h1M54 17h1M61 17h2M69 17h1M71 17h3M20 18h1M30 18h1M54 18h1M74 18h1M9 19h1M20 19h1M31 19h1M54 19h1M74 19h1M8 20h2M19 20h1M31 20h1M54 20h1M74 20h1M7 21h1M17 21h2M31 21h1M54 21h1M75 21h1M19 22h1M54 22h1M74 22h1M20 23h1M55 23h1M73 23h1M15 24h1M55 24h1M72 24h1M15 25h1M54 25h1M72 25h1M6 26h1M16 26h1M20 26h1M54 26h1M72 26h1M17 27h1M54 27h1M71 27h1M4 28h1M17 28h1M19 28h1M70 28h1M4 29h1M16 29h1M70 29h1M69 30h1M72 30h1M70 31h2" />
<path stroke="#623924" d="M88 11h1M88 12h1" />
<path stroke="#7e5137" d="M8 12h1" />
<path stroke="#805135" d="M9 12h1M29 24h1M82 43h1" />
<path stroke="#856248" d="M10 12h1" />
<path stroke="#623c21" d="M12 12h1" />
<path stroke="#805134" d="M13 12h1M13 18h1M20 46h1M5 47h1" />
<path stroke="#4d2b16" d="M16 12h1" />
<path stroke="#764830" d="M17 12h1" />
<path stroke="#815034" d="M19 12h1M64 14h1M5 49h1" />
<path stroke="#885337" d="M20 12h1" />
<path stroke="#5e331f" d="M27 12h1" />
<path stroke="#8b5941" d="M37 12h1" />
<path stroke="#68442a" d="M41 12h1" />
<path stroke="#8a6854" d="M42 12h1" />
<path stroke="#6c442a" d="M45 12h1" />
<path stroke="#7c4e36" d="M56 12h1" />
<path stroke="#3a2316" d="M57 12h1" />
<path stroke="#553621" d="M58 12h1" />
<path stroke="#2a382a" d="M60 12h1M60 31h1" />
<path stroke="#7b5136" d="M64 12h1" />
<path stroke="#774d2f" d="M65 12h1" />
<path stroke="#935e3d" d="M67 12h1" />
<path stroke="#825037" d="M73 12h1" />
<path stroke="#7d5037" d="M74 12h1M37 50h1" />
<path stroke="#7a4f36" d="M79 12h1" />
<path stroke="#633620" d="M82 12h1" />
<path stroke="#814e36" d="M89 12h1" />
<path stroke="#ac3232" d="M6 13h1M5 14h1M7 14h1M6 15h1" />
<path stroke="#9b1c1c" d="M7 13h1M5 15h1" />
<path stroke="#653d25" d="M8 13h1" />
<path stroke="#683d20" d="M9 13h1" />
<path stroke="#57331a" d="M10 13h1" />
<path stroke="#613e29" d="M11 13h1" />
<path stroke="#643d26" d="M12 13h1M10 38h1" />
<path stroke="#805038" d="M13 13h1" />
<path stroke="#814d2f" d="M16 13h1" />
<path stroke="#7e4f35" d="M18 13h1M89 13h1M37 40h1M20 44h1M80 53h1M38 54h1M16 55h1M50 55h1M38 56h1M37 57h2" />
<path stroke="#895334" d="M20 13h1" />
<path stroke="#84512f" d="M27 13h1" />
<path stroke="rgba(126,80,53,0.7529411764705882)" d="M28 13h1" />
<path stroke="#845230" d="M33 13h1" />
<path stroke="#7d5136" d="M34 13h1M16 46h1" />
<path stroke="#7e5033" d="M35 13h1M64 13h1M56 14h1M69 15h1M8 19h1M24 24h1M38 39h1M46 40h1M27 43h1M4 48h1M38 50h1M59 50h1M46 54h1" />
<path stroke="#814f31" d="M37 13h1M19 25h1" />
<path stroke="#7e5134" d="M40 13h1M18 24h1M78 44h1M15 48h1M62 52h1M27 54h1M57 55h1" />
<path stroke="#70442a" d="M41 13h1" />
<path stroke="#815031" d="M42 13h1M58 16h1M51 52h1M86 53h1" />
<path stroke="#472d1e" d="M45 13h1" />
<path stroke="#663f25" d="M46 13h1" />
<path stroke="#7f5135" d="M56 13h1M29 18h1M85 21h1M28 24h1M5 48h1" />
<path stroke="#3f2417" d="M57 13h1" />
<path stroke="#66452a" d="M58 13h1" />
<path stroke="#253225" d="M61 13h1M37 17h2M43 21h1M26 22h1M56 22h1M64 22h1M43 23h1M63 24h1M62 25h1M8 26h1M91 26h1M26 27h1M7 28h1M7 29h1M18 29h2M40 29h1M61 30h1M59 31h1M64 31h1M5 32h1M59 32h1M42 40h2M42 41h2M8 42h1M46 45h1M91 46h1M51 47h1M59 47h1M78 47h1M51 48h1M83 48h1M29 51h1M53 51h1M56 51h2M59 53h1M43 56h1M90 56h1M43 57h1M69 57h1M73 57h1M75 57h1M3 58h1M25 58h1M62 58h1M67 58h1M73 58h1M92 58h2M3 59h1M5 59h1M26 59h1M46 59h1M66 59h1M72 59h1M93 59h1M8 60h1M19 60h1M37 60h1M40 60h1M67 60h1M71 60h1M18 61h1" />
<path stroke="#243125" d="M62 13h1M12 26h1M76 26h1M70 27h1M72 27h1M74 27h1M32 28h1M71 58h1M75 58h1M71 59h1" />
<path stroke="#754e35" d="M65 13h1" />
<path stroke="#754b35" d="M69 13h1" />
<path stroke="#7b4f33" d="M74 13h1" />
<path stroke="#7f5235" d="M75 13h1" />
<path stroke="#7f5034" d="M78 13h1M83 13h2M19 14h1M26 14h1M77 14h2M83 14h3M18 15h1M78 15h1M83 15h3M19 16h1M84 16h2M19 17h1M43 17h1M84 17h2M26 18h1M34 18h1M84 18h2M43 19h1M84 19h2M63 20h1M84 20h2M23 21h1M43 37h1M44 38h1M44 39h1M16 41h1M51 43h1M51 44h1M85 44h1M18 45h1M85 45h1M56 46h1M85 46h1M20 47h1M25 47h1M43 47h1M50 47h1M56 47h1M85 47h1M25 48h1M43 48h1M85 48h1M25 49h1M43 49h1M50 49h1M3 50h1M25 50h2M90 50h1M25 51h2M25 52h1M43 52h1M16 53h1M25 53h2M43 53h1M85 53h1M14 54h1M25 54h2M62 54h1M3 55h1M19 56h1M18 57h1" />
<path stroke="#815434" d="M79 13h1" />
<path stroke="#784d31" d="M80 13h1" />
<path stroke="#774c30" d="M81 13h1" />
<path stroke="#8d583c" d="M82 13h1" />
<path stroke="#814f32" d="M87 13h1M61 22h1M93 54h1" />
<path stroke="#482b19" d="M88 13h1" />
<path stroke="#fbf236" d="M6 14h1" />
<path stroke="#653c23" d="M9 14h1" />
<path stroke="#7e4f32" d="M11 14h1M12 17h1M22 24h1M38 38h1M16 39h1M74 44h1M16 52h1" />
<path stroke="#7f4f32" d="M12 14h1M26 23h1M18 25h1M71 48h1M80 51h1M5 55h1" />
<path stroke="#815135" d="M13 14h1M13 20h1" />
<path stroke="#5f3922" d="M15 14h1" />
<path stroke="#7d4f30" d="M16 14h1M70 46h1M75 46h1" />
<path stroke="#865436" d="M20 14h1" />
<path stroke="#7f5032" d="M24 14h1M18 16h1M80 17h1M24 19h1M24 20h1M24 21h1M24 22h1M7 25h1M40 25h1M18 44h1M59 49h1M62 49h1M46 55h1M40 56h1" />
<path stroke="#845132" d="M27 14h1M27 15h1M27 16h1M27 17h1M27 18h1M27 19h1M27 20h1" />
<path stroke="#7f5236" d="M29 14h1M33 17h1" />
<path stroke="#7b4e31" d="M32 14h1" />
<path stroke="#754a32" d="M33 14h1" />
<path stroke="#5f3b25" d="M34 14h1M93 46h1" />
<path stroke="#824e34" d="M35 14h1" />
<path stroke="#8c593a" d="M36 14h1" />
<path stroke="#7c4e34" d="M37 14h1M79 17h1M64 19h1M22 50h1M5 54h1" />
<path stroke="#71442c" d="M41 14h1M41 15h1M41 16h1M21 44h1" />
<path stroke="#7f5031" d="M42 14h1M42 15h1M42 16h1M42 17h1M7 24h1M70 43h1M91 45h1" />
<path stroke="#6c4429" d="M45 14h1" />
<path stroke="#7c4f32" d="M46 14h1" />
<path stroke="#643a25" d="M57 14h1" />
<path stroke="#8f5f43" d="M68 14h1" />
<path stroke="#b27754" d="M69 14h1" />
<path stroke="#7e5034" d="M73 14h1M46 21h1M84 22h1M3 39h1M52 44h1M91 44h1M93 44h1M3 46h1M5 46h1M27 48h1M56 48h1M27 49h1M16 50h1M16 51h1M62 53h1" />
<path stroke="#7a4f33" d="M74 14h1M80 16h1" />
<path stroke="#956141" d="M75 14h1" />
<path stroke="#7a4e31" d="M79 14h1" />
<path stroke="#976544" d="M80 14h1" />
<path stroke="#8d5b3f" d="M81 14h1" />
<path stroke="#8c5940" d="M82 14h1" />
<path stroke="#5e3b25" d="M88 14h1" />
<path stroke="#814e38" d="M89 14h1" />
<path stroke="#37946e" d="M7 15h1M7 17h1M6 18h1M6 22h1M16 22h1M5 23h1M16 23h1M8 24h1M8 25h1M7 26h1M5 27h1M20 27h1" />
<path stroke="#5e3926" d="M8 15h1" />
<path stroke="#6f4227" d="M9 15h1" />
<path stroke="#683d27" d="M12 15h1" />
<path stroke="#7f5238" d="M13 15h1M15 16h1" />
<path stroke="#784b33" d="M14 15h1" />
<path stroke="#5f3822" d="M15 15h1" />
<path stroke="#885335" d="M20 15h1M4 54h1" />
<path stroke="#6d462e" d="M23 15h1" />
<path stroke="#805136" d="M29 15h1M87 49h1M87 50h1" />
<path stroke="#5f3722" d="M33 15h1" />
<path stroke="#6b432a" d="M34 15h1" />
<path stroke="#764d34" d="M35 15h1" />
<path stroke="#1b261b" d="M43 15h1M48 15h1M43 16h1M48 17h1M47 18h1M43 24h1M42 26h1M44 26h1M48 26h1M44 27h1M48 27h1M44 28h1M48 28h1M48 29h1M39 30h1M46 30h2" />
<path stroke="#71422b" d="M45 15h1" />
<path stroke="#212c21" d="M47 15h1M48 16h1M47 27h1M47 28h1M41 29h1M63 32h1M59 59h1M76 59h1" />
<path stroke="#925d3e" d="M68 15h1" />
<path stroke="#805034" d="M73 15h1M7 23h1M42 37h1M5 50h1" />
<path stroke="#7d5035" d="M74 15h1M37 54h1M19 55h1M36 55h1M18 56h1" />
<path stroke="#936041" d="M75 15h1" />
<path stroke="#835337" d="M79 15h1" />
<path stroke="#7f5037" d="M80 15h1M8 55h1" />
<path stroke="#5f3b27" d="M88 15h1M17 40h1" />
<path stroke="#754b30" d="M9 16h1" />
<path stroke="#623920" d="M11 16h1" />
<path stroke="#805238" d="M13 16h1" />
<path stroke="#7a4b33" d="M14 16h1" />
<path stroke="#263126" d="M31 16h1M69 28h1M72 57h1" />
<path stroke="#5e371e" d="M33 16h1" />
<path stroke="#754c34" d="M35 16h1" />
<path stroke="#2b362a" d="M37 16h1" />
<path stroke="#663f29" d="M44 16h1M45 19h1" />
<path stroke="#6d452a" d="M45 16h1" />
<path stroke="#96603f" d="M57 16h1" />
<path stroke="#825132" d="M64 16h1" />
<path stroke="#7e5136" d="M65 16h1M77 44h1M12 52h1" />
<path stroke="#7d4f36" d="M69 16h1M8 17h1M59 44h1" />
<path stroke="#955e3f" d="M75 16h1M89 21h1M70 22h1" />
<path stroke="#835336" d="M79 16h1" />
<path stroke="#1c271c" d="M82 16h1M88 26h1M76 28h1M71 29h1M85 29h2M65 30h1M65 31h1M64 32h1M11 44h1M59 46h1M11 58h1M84 60h1" />
<path stroke="#273226" d="M89 16h1M89 18h1M80 58h1M80 59h1" />
<path stroke="#36432f" d="M6 17h1M5 18h1" />
<path stroke="#7b5137" d="M11 17h1" />
<path stroke="#7e5237" d="M13 17h1M72 53h1" />
<path stroke="#814e35" d="M14 17h1" />
<path stroke="#7c5037" d="M15 17h1M91 51h1" />
<path stroke="#754831" d="M17 17h1" />
<path stroke="#754c33" d="M18 17h1" />
<path stroke="#805235" d="M29 17h1" />
<path stroke="#463725" d="M35 17h1" />
<path stroke="#71442b" d="M41 17h1" />
<path stroke="#1d281d" d="M46 17h1M86 59h1" />
<path stroke="#794e36" d="M56 17h1" />
<path stroke="#95613d" d="M57 17h1" />
<path stroke="#653f27" d="M65 17h1" />
<path stroke="#945d3e" d="M68 17h1" />
<path stroke="#805337" d="M75 17h1" />
<path stroke="#2a372a" d="M82 17h1M86 27h1M33 28h1" />
<path stroke="#8e593d" d="M86 17h1" />
<path stroke="#141c15" d="M88 17h1" />
<path stroke="#253125" d="M89 17h1M65 20h1M12 25h1M12 27h1M24 27h1M32 27h1M76 27h1M85 27h1M89 27h1M16 28h1M18 28h1M22 28h1M24 28h2M40 28h1M84 29h1M9 41h1M40 42h1M46 44h1M91 47h1M78 48h1M83 49h1M27 52h1M56 52h1M60 53h1M89 55h1M12 56h1M47 56h1M63 56h1M47 57h1M62 57h1M90 57h1M27 58h1M46 58h1M53 58h1M85 58h1M14 59h1M16 59h1M19 59h1M25 59h1M27 59h1M36 59h1M50 59h1M57 59h1M68 59h1M87 59h1M91 59h1M15 60h1M18 60h1M26 60h1M38 60h1M51 60h1M87 60h1M37 61h2" />
<path stroke="#76472d" d="M7 18h1" />
<path stroke="#5d3920" d="M8 18h1M24 18h1M23 19h1M33 19h1M22 20h1" />
<path stroke="#633b22" d="M11 18h1" />
<path stroke="#804f32" d="M12 18h1M58 18h1M93 55h1" />
<path stroke="#6b432d" d="M17 18h1" />
<path stroke="#89583b" d="M18 18h1" />
<path stroke="#785236" d="M19 18h1" />
<path stroke="#6e4426" d="M25 18h1M22 21h1M22 22h1M22 25h1M24 25h1" />
<path stroke="#7e5336" d="M33 18h1" />
<path stroke="#293729" d="M36 18h1M57 23h1M4 59h1" />
<path stroke="#253025" d="M37 18h1M15 21h1M64 23h1M22 54h1M50 57h1" />
<path stroke="#4e2e16" d="M40 18h1" />
<path stroke="#4c2f1a" d="M41 18h1" />
<path stroke="#643a24" d="M43 18h1" />
<path stroke="#633c22" d="M44 18h1" />
<path stroke="#243025" d="M46 18h1M89 26h1M79 27h1M80 28h1" />
<path stroke="#815030" d="M56 18h1" />
<path stroke="#94613f" d="M57 18h1" />
<path stroke="#6c422a" d="M59 18h1M59 19h1M4 51h1" />
<path stroke="#8f5f41" d="M68 18h1" />
<path stroke="#774e35" d="M69 18h1" />
<path stroke="#824f36" d="M73 18h1M64 26h1" />
<path stroke="#955f3e" d="M75 18h1" />
<path stroke="#7e4f38" d="M78 18h1" />
<path stroke="#825335" d="M79 18h1" />
<path stroke="#2b372a" d="M82 18h1" />
<path stroke="#8f593d" d="M86 18h1" />
<path stroke="#1b251c" d="M88 18h1" />
<path stroke="#724830" d="M7 19h1" />
<path stroke="#804f36" d="M12 19h1M5 43h1" />
<path stroke="#7f5133" d="M13 19h1M8 22h1M43 43h1M66 47h1" />
<path stroke="#7a4b35" d="M14 19h1" />
<path stroke="#734930" d="M17 19h1" />
<path stroke="#7c5034" d="M18 19h1M62 45h1" />
<path stroke="#7e5130" d="M19 19h1" />
<path stroke="#814f36" d="M28 19h1M29 23h1" />
<path stroke="#7f5136" d="M29 19h1M34 24h1M11 37h1" />
<path stroke="#633b23" d="M34 19h1" />
<path stroke="#7c5133" d="M40 19h1" />
<path stroke="#734428" d="M41 19h1" />
<path stroke="#8d5738" d="M57 19h1" />
<path stroke="#885538" d="M63 19h1" />
<path stroke="#88573a" d="M68 19h1" />
<path stroke="#784d32" d="M69 19h1" />
<path stroke="#946143" d="M75 19h1" />
<path stroke="#794c31" d="M79 19h1" />
<path stroke="#1c251c" d="M88 19h1M93 50h1M61 59h1" />
<path stroke="#6d432c" d="M7 20h1" />
<path stroke="#7f4e32" d="M12 20h1" />
<path stroke="#263226" d="M15 20h1M14 22h1M13 24h1M13 25h1M74 26h1M23 27h1M29 27h1M23 28h1M29 28h1M34 28h1M46 28h1M23 29h1M46 29h2M62 31h1M12 42h1M12 43h1M29 50h1M49 57h1M63 58h1M8 59h1M38 59h1M44 59h1M60 59h1M69 59h1M4 60h1M80 60h1M7 61h2M15 61h1M26 61h1" />
<path stroke="#805239" d="M17 20h1" />
<path stroke="#774b36" d="M18 20h1" />
<path stroke="#90725b" d="M28 20h1" />
<path stroke="#7e4e31" d="M29 20h1M70 21h1M75 51h1" />
<path stroke="#7d5036" d="M33 20h1M33 21h1M27 46h1" />
<path stroke="#613a24" d="M34 20h1" />
<path stroke="#a0948e" d="M40 20h1" />
<path stroke="#724529" d="M41 20h1" />
<path stroke="#6e4329" d="M45 20h1" />
<path stroke="#6f472d" d="M46 20h1" />
<path stroke="#87553a" d="M57 20h1" />
<path stroke="#814f34" d="M58 20h1M16 40h1M52 43h1M25 46h1M29 46h1M16 49h1M80 49h1M60 55h1M26 57h1" />
<path stroke="#815033" d="M60 20h1M4 56h1" />
<path stroke="#84563b" d="M68 20h1" />
<path stroke="#784c33" d="M69 20h1M69 22h1M45 40h1M45 52h1" />
<path stroke="#87583b" d="M75 20h1" />
<path stroke="#754e33" d="M79 20h1" />
<path stroke="#6b4328" d="M80 20h1M62 51h1" />
<path stroke="#8e593e" d="M86 20h1" />
<path stroke="#885635" d="M89 20h1" />
<path stroke="#774b30" d="M8 21h1" />
<path stroke="#805035" d="M13 21h1M38 51h1M43 51h1" />
<path stroke="#784a2d" d="M19 21h1" />
<path stroke="#845133" d="M27 21h1" />
<path stroke="#764b2f" d="M28 21h1" />
<path stroke="#744e33" d="M29 21h1" />
<path stroke="#603924" d="M34 21h1" />
<path stroke="#42301e" d="M39 21h1" />
<path stroke="#79492a" d="M40 21h1" />
<path stroke="#673e25" d="M41 21h1" />
<path stroke="#693f27" d="M45 21h1" />
<path stroke="#242f24" d="M56 21h1M69 27h1M70 58h1M45 61h1" />
<path stroke="#603d28" d="M58 21h1" />
<path stroke="#7f4f30" d="M59 21h1M42 36h1M16 38h1" />
<path stroke="#805036" d="M61 21h1M66 46h1" />
<path stroke="#7f4e33" d="M62 21h1M43 36h1M73 53h1" />
<path stroke="#824f30" d="M63 21h1" />
<path stroke="#1d271d" d="M65 21h1M43 22h1M6 31h1M10 42h1M10 59h1" />
<path stroke="#935f3d" d="M68 21h1" />
<path stroke="#774d33" d="M69 21h1M45 42h1" />
<path stroke="#7c4f31" d="M73 21h1" />
<path stroke="#8e745f" d="M76 21h1" />
<path stroke="#835236" d="M79 21h1" />
<path stroke="#6d4329" d="M80 21h1" />
<path stroke="#8e5b3d" d="M86 21h1" />
<path stroke="#814e37" d="M90 21h1M80 54h1" />
<path stroke="#714832" d="M7 22h1" />
<path stroke="#7e4f30" d="M12 22h1M70 47h1M71 55h1" />
<path stroke="#7c4b2f" d="M18 22h1" />
<path stroke="#845031" d="M23 22h1" />
<path stroke="#1f2b20" d="M25 22h1M22 29h1M24 29h1" />
<path stroke="#835232" d="M27 22h1" />
<path stroke="#7c5c4a" d="M28 22h1" />
<path stroke="#805132" d="M29 22h1" />
<path stroke="#915e3b" d="M32 22h1" />
<path stroke="#67422a" d="M39 22h1" />
<path stroke="#745e4e" d="M40 22h1" />
<path stroke="#6f432a" d="M45 22h1" />
<path stroke="#7e5032" d="M46 22h1M12 23h1M24 23h1M25 24h1M66 44h1M63 52h1" />
<path stroke="rgba(96,56,33,0.7529411764705882)" d="M47 22h1" />
<path stroke="#54341f" d="M58 22h1" />
<path stroke="#8c5839" d="M59 22h1" />
<path stroke="#935a3a" d="M60 22h1" />
<path stroke="#814c36" d="M62 22h1" />
<path stroke="#925e3f" d="M68 22h1" />
<path stroke="#966041" d="M71 22h1" />
<path stroke="#7a5337" d="M72 22h1" />
<path stroke="#7e4e36" d="M73 22h1" />
<path stroke="#965f43" d="M75 22h1" />
<path stroke="#7d4f31" d="M76 22h1M72 23h1" />
<path stroke="#815338" d="M79 22h1" />
<path stroke="#6d442a" d="M80 22h1" />
<path stroke="#855131" d="M85 22h1" />
<path stroke="#8f5b3d" d="M86 22h1" />
<path stroke="#633920" d="M88 22h1" />
<path stroke="#885034" d="M90 22h1" />
<path stroke="rgba(126,80,53,0.6274509803921569)" d="M91 22h1" />
<path stroke="#663e27" d="M6 23h1" />
<path stroke="#1f2829" d="M9 23h1M9 24h1M15 28h1M15 29h1M6 30h1M16 30h1M20 30h1M17 31h1M4 32h1M17 32h1M19 32h1M4 33h1M16 33h1" />
<path stroke="#253024" d="M14 23h1" />
<path stroke="#74482f" d="M17 23h1M17 45h1" />
<path stroke="#825032" d="M18 23h1" />
<path stroke="#855135" d="M19 23h1" />
<path stroke="#915b3d" d="M22 23h1" />
<path stroke="#815233" d="M23 23h1M23 24h1" />
<path stroke="#83502f" d="M25 23h1" />
<path stroke="#865134" d="M27 23h1" />
<path stroke="#815133" d="M28 23h1M80 56h1" />
<path stroke="#6a3d22" d="M33 23h1" />
<path stroke="#7d5038" d="M34 23h1M84 45h1M11 53h1" />
<path stroke="#6c4428" d="M39 23h1" />
<path stroke="#845438" d="M40 23h1" />
<path stroke="#734427" d="M41 23h1" />
<path stroke="#6d432a" d="M45 23h1" />
<path stroke="#885537" d="M46 23h1" />
<path stroke="#7e5030" d="M59 23h1M70 23h1" />
<path stroke="#915b3a" d="M60 23h1" />
<path stroke="#283528" d="M63 23h1M57 24h1M46 27h1M57 57h1M66 57h1M91 57h1M6 61h1" />
<path stroke="#935d3d" d="M68 23h1" />
<path stroke="#784b34" d="M69 23h1" />
<path stroke="#935f40" d="M71 23h1" />
<path stroke="#7e4f2f" d="M74 23h1" />
<path stroke="#976141" d="M75 23h1" />
<path stroke="#7a5134" d="M79 23h1" />
<path stroke="#6b442b" d="M80 23h1" />
<path stroke="#7e4c32" d="M85 23h1" />
<path stroke="#8e5a3e" d="M86 23h1" />
<path stroke="#7f4e2f" d="M90 23h1M75 49h1" />
<path stroke="#603e28" d="M6 24h1" />
<path stroke="#7e4e34" d="M16 24h1" />
<path stroke="#714831" d="M17 24h1" />
<path stroke="#7f4f36" d="M19 24h1M46 25h1M42 46h1M7 57h1" />
<path stroke="#8a5532" d="M20 24h1" />
<path stroke="rgba(125,77,53,0.3764705882352941)" d="M26 24h1" />
<path stroke="#845033" d="M27 24h1M52 45h1" />
<path stroke="#7d5030" d="M32 24h1" />
<path stroke="#8c5d3f" d="M33 24h1" />
<path stroke="#694226" d="M39 24h1" />
<path stroke="#71442a" d="M41 24h1" />
<path stroke="#6c4328" d="M45 24h1" />
<path stroke="#804f35" d="M46 24h1M72 52h1" />
<path stroke="#7d5133" d="M59 24h1M50 52h1" />
<path stroke="#8f5d3b" d="M60 24h1" />
<path stroke="#945f46" d="M61 24h1" />
<path stroke="#7e5138" d="M69 24h1" />
<path stroke="#945f42" d="M74 24h1" />
<path stroke="#c08867" d="M75 24h1" />
<path stroke="#825237" d="M79 24h1" />
<path stroke="#95603e" d="M84 24h1" />
<path stroke="#95603f" d="M85 24h1" />
<path stroke="#b67c5a" d="M86 24h1" />
<path stroke="#473a26" d="M90 24h1" />
<path stroke="#482b1c" d="M6 25h1" />
<path stroke="#6d4228" d="M16 25h1" />
<path stroke="#69452e" d="M17 25h1" />
<path stroke="#895333" d="M20 25h1" />
<path stroke="#815134" d="M23 25h1" />
<path stroke="#664024" d="M32 25h1" />
<path stroke="#6b4329" d="M33 25h1" />
<path stroke="#553420" d="M34 25h1" />
<path stroke="#4e3121" d="M39 25h1" />
<path stroke="#5f391f" d="M45 25h1" />
<path stroke="#875b40" d="M59 25h1" />
<path stroke="#8a5635" d="M60 25h1" />
<path stroke="#253325" d="M63 25h1" />
<path stroke="#2b392c" d="M68 25h1" />
<path stroke="#8e5d47" d="M70 25h1" />
<path stroke="#243024" d="M73 25h1M59 30h1M19 48h1M19 49h1M45 60h1" />
<path stroke="#966547" d="M75 25h1" />
<path stroke="#82543a" d="M79 25h1" />
<path stroke="#6f5c4d" d="M80 25h1" />
<path stroke="#2c3a2c" d="M89 25h1M74 28h1M84 28h2M20 58h1M50 58h1M15 59h1" />
<path stroke="#253226" d="M29 26h1M61 32h2M37 59h1" />
<path stroke="#7a4e33" d="M59 26h1" />
<path stroke="#906045" d="M60 26h1" />
<path stroke="#242f23" d="M69 26h1" />
<path stroke="#263125" d="M73 26h1M34 27h1M84 27h1M3 57h1M11 57h1" />
<path stroke="#283527" d="M90 26h1M4 58h1" />
<path stroke="#643e28" d="M6 27h1" />
<path stroke="#2e2a3a" d="M16 27h1M8 28h1M8 29h1M7 30h1M5 31h1M20 31h1" />
<path stroke="#273427" d="M19 27h1M27 27h1M2 41h2M1 42h1M1 43h1M9 60h1" />
<path stroke="#253326" d="M25 27h1M14 61h1" />
<path stroke="#1e291e" d="M33 27h1M7 42h1M8 43h1M24 57h1M24 58h1M68 58h1M24 59h1" />
<path stroke="#1f2a1f" d="M39 27h1M80 27h1M45 28h1M33 29h1M58 52h1" />
<path stroke="#273327" d="M40 27h1M79 29h1M52 58h1" />
<path stroke="#202d21" d="M41 27h1" />
<path stroke="#202b20" d="M45 27h1M28 59h1" />
<path stroke="#8f5d3a" d="M60 27h1" />
<path stroke="#824f33" d="M61 27h1M15 46h1M80 48h1M7 56h1" />
<path stroke="#815136" d="M62 27h1M63 54h1" />
<path stroke="#734a30" d="M63 27h1" />
<path stroke="#2d3b2d" d="M75 27h1M26 48h1" />
<path stroke="#243225" d="M90 27h1M89 56h1" />
<path stroke="#804e30" d="M5 28h1" />
<path stroke="#512f1c" d="M6 28h1" />
<path stroke="#273628" d="M20 28h1" />
<path stroke="rgba(37,48,36,0.7529411764705882)" d="M26 28h1" />
<path stroke="#1e291f" d="M39 28h1" />
<path stroke="#202c20" d="M41 28h1" />
<path stroke="#7f4e30" d="M59 28h1M75 48h1" />
<path stroke="#905a3c" d="M60 28h1" />
<path stroke="#815132" d="M61 28h1M37 55h1" />
<path stroke="#815131" d="M62 28h1" />
<path stroke="#71482f" d="M63 28h1" />
<path stroke="#2c3a2d" d="M71 28h1" />
<path stroke="#3c4b3c" d="M75 28h1" />
<path stroke="#384738" d="M86 28h1" />
<path stroke="rgba(44,57,44,0.7529411764705882)" d="M90 28h1" />
<path stroke="#1f2920" d="M17 29h1" />
<path stroke="#273527" d="M20 29h1" />
<path stroke="#1d281e" d="M32 29h1M76 60h1" />
<path stroke="#182119" d="M34 29h1" />
<path stroke="#171e17" d="M39 29h1" />
<path stroke="#1b251b" d="M45 29h1M13 41h1M54 58h1M75 59h1" />
<path stroke="#2e3b2e" d="M75 29h1" />
<path stroke="#262b26" d="M80 29h1" />
<path stroke="#2c382c" d="M60 30h1" />
<path stroke="#273326" d="M64 30h1M94 58h1M52 59h1" />
<path stroke="#222d22" d="M63 31h1M41 42h1" />
<path stroke="#192319" d="M6 32h1" />
<path stroke="#2b382a" d="M60 32h1" />
<path stroke="#774b2e" d="M2 36h1M7 36h1M1 37h1M4 38h1M2 39h1" />
<path stroke="#855235" d="M3 36h1M3 37h1" />
<path stroke="#925d41" d="M4 36h2M4 37h1M2 38h2M5 38h1M4 39h1" />
<path stroke="#855336" d="M9 36h1" />
<path stroke="#6a4126" d="M10 36h1" />
<path stroke="#82553a" d="M11 36h1" />
<path stroke="rgba(110,66,42,0.5019607843137255)" d="M18 36h1" />
<path stroke="#764b33" d="M41 36h1" />
<path stroke="#774c32" d="M6 37h1M66 54h1" />
<path stroke="#724b32" d="M7 37h1" />
<path stroke="#4f2f1c" d="M10 37h1" />
<path stroke="#5f3820" d="M13 37h1" />
<path stroke="rgba(94,56,34,0.5019607843137255)" d="M17 37h1" />
<path stroke="#684026" d="M18 37h1M81 52h1" />
<path stroke="#774a31" d="M41 37h1M41 45h1" />
<path stroke="#774c33" d="M45 37h1M45 53h1" />
<path stroke="#69442d" d="M6 38h1" />
<path stroke="#6a4027" d="M7 38h1M24 49h1" />
<path stroke="#7f5134" d="M8 38h1M37 43h1M59 43h1M15 47h1" />
<path stroke="#69422c" d="M9 38h1" />
<path stroke="#533320" d="M11 38h1" />
<path stroke="#7f5139" d="M12 38h1" />
<path stroke="#77482f" d="M17 38h1" />
<path stroke="#784e31" d="M18 38h1" />
<path stroke="#865535" d="M39 38h1" />
<path stroke="#744a30" d="M41 38h1M81 48h1" />
<path stroke="#774c34" d="M45 38h1M45 39h1M45 41h1" />
<path stroke="#7f4f34" d="M46 38h1M52 46h1M40 47h1M50 48h1M38 49h1M90 52h1M46 53h1M73 54h1M72 55h1" />
<path stroke="#855437" d="M5 39h1" />
<path stroke="#65412a" d="M6 39h1" />
<path stroke="#492d1b" d="M7 39h1" />
<path stroke="#6a3f26" d="M8 39h1" />
<path stroke="#8a695a" d="M9 39h1" />
<path stroke="#5b3320" d="M10 39h1" />
<path stroke="#754b33" d="M11 39h1" />
<path stroke="#7f5137" d="M12 39h1M49 53h1" />
<path stroke="#804e32" d="M15 39h1M91 42h1M37 56h1" />
<path stroke="#674226" d="M17 39h1" />
<path stroke="#85573b" d="M18 39h1" />
<path stroke="#8d5939" d="M39 39h1M39 46h1" />
<path stroke="#774a25" d="M40 39h1" />
<path stroke="#804e34" d="M46 39h1M12 51h1" />
<path stroke="#855335" d="M5 40h1M5 41h1" />
<path stroke="#5c3622" d="M6 40h1" />
<path stroke="#4d402e" d="M7 40h1" />
<path stroke="#4d2e1b" d="M10 40h1" />
<path stroke="#633921" d="M11 40h1" />
<path stroke="#8d593c" d="M18 40h1" />
<path stroke="#7d4f35" d="M38 40h1" />
<path stroke="#8b5a3b" d="M39 40h1" />
<path stroke="#8b583b" d="M40 40h1" />
<path stroke="#232e23" d="M41 40h1M41 41h1M11 43h1M45 46h1M41 51h1M41 52h1M66 58h1M45 59h1M85 60h1M92 60h1" />
<path stroke="#222e23" d="M1 41h1M2 43h1M53 60h1" />
<path stroke="#89583a" d="M6 41h1" />
<path stroke="#77482d" d="M17 41h1" />
<path stroke="#6b4a35" d="M18 41h1" />
<path stroke="#8c5938" d="M39 41h1" />
<path stroke="#2e3325" d="M40 41h1" />
<path stroke="#7f4f31" d="M46 41h1M60 42h1M75 47h1M71 52h1" />
<path stroke="#2c392c" d="M2 42h1" />
<path stroke="#453a29" d="M4 42h1" />
<path stroke="#906145" d="M5 42h1" />
<path stroke="#1f291f" d="M9 42h1" />
<path stroke="#182018" d="M11 42h1M51 59h1" />
<path stroke="#6c5445" d="M16 42h1" />
<path stroke="#76482c" d="M17 42h1" />
<path stroke="#69472e" d="M18 42h1" />
<path stroke="#252a1c" d="M19 42h1" />
<path stroke="#684f43" d="M38 42h1" />
<path stroke="#8e5838" d="M39 42h1" />
<path stroke="#6c4835" d="M44 42h1" />
<path stroke="#7d4e34" d="M52 42h1" />
<path stroke="#7a4f32" d="M70 42h1" />
<path stroke="#7c5131" d="M71 42h1" />
<path stroke="#7f4d30" d="M75 42h1" />
<path stroke="#925e3c" d="M79 42h1" />
<path stroke="rgba(128,80,50,0.7529411764705882)" d="M80 42h1" />
<path stroke="#151c15" d="M7 43h1" />
<path stroke="#2e362e" d="M9 43h1M14 60h1" />
<path stroke="#1a231a" d="M10 43h1" />
<path stroke="#653e2b" d="M17 43h1" />
<path stroke="#283428" d="M18 43h1" />
<path stroke="#975f3f" d="M20 43h1" />
<path stroke="#693d26" d="M28 43h1" />
<path stroke="#7e512d" d="M38 43h1" />
<path stroke="#8b5a3e" d="M39 43h1" />
<path stroke="#212e22" d="M40 43h1" />
<path stroke="#7f4f33" d="M44 43h1M53 47h1M38 48h1M57 48h1M60 50h1" />
<path stroke="#6b4029" d="M53 43h1" />
<path stroke="#583622" d="M58 43h1" />
<path stroke="#6f4733" d="M60 43h1" />
<path stroke="#5f3a21" d="M61 43h1" />
<path stroke="#875332" d="M75 43h1" />
<path stroke="#6c4730" d="M76 43h1" />
<path stroke="#865137" d="M79 43h1" />
<path stroke="#704630" d="M80 43h1" />
<path stroke="rgba(126,80,51,0.6274509803921569)" d="M81 43h1" />
<path stroke="#845232" d="M83 43h1" />
<path stroke="#885233" d="M84 43h1" />
<path stroke="#845137" d="M85 43h1" />
<path stroke="#693e20" d="M90 43h1" />
<path stroke="#522c17" d="M92 43h1" />
<path stroke="#895534" d="M4 44h1" />
<path stroke="#965e3f" d="M5 44h1" />
<path stroke="rgba(40,51,40,0.8784313725490196)" d="M7 44h1" />
<path stroke="#161e16" d="M10 44h1M65 56h1M10 58h1" />
<path stroke="#906142" d="M16 44h1" />
<path stroke="#784731" d="M17 44h1" />
<path stroke="#7a4e34" d="M19 44h1" />
<path stroke="#975e40" d="M26 44h1" />
<path stroke="#915f3f" d="M27 44h1" />
<path stroke="#673e26" d="M28 44h1" />
<path stroke="#926040" d="M37 44h1" />
<path stroke="#965f40" d="M38 44h1" />
<path stroke="#b07655" d="M39 44h1" />
<path stroke="#293629" d="M40 44h1M53 50h1M39 59h1M39 60h1M39 61h1" />
<path stroke="#975c3d" d="M42 44h1" />
<path stroke="#96603d" d="M43 44h1" />
<path stroke="#4f422e" d="M44 44h1" />
<path stroke="rgba(125,81,55,0.8784313725490196)" d="M50 44h1" />
<path stroke="#8f6349" d="M53 44h1" />
<path stroke="#3e2212" d="M57 44h1" />
<path stroke="#492f1d" d="M58 44h1" />
<path stroke="#80533c" d="M60 44h1" />
<path stroke="#52311b" d="M61 44h1" />
<path stroke="#866148" d="M62 44h1" />
<path stroke="#80512f" d="M70 44h1" />
<path stroke="#764f35" d="M71 44h1" />
<path stroke="#6c4930" d="M75 44h1" />
<path stroke="#71462f" d="M76 44h1M76 48h1M63 50h1M76 55h1" />
<path stroke="#845236" d="M79 44h1" />
<path stroke="#855b3f" d="M80 44h1" />
<path stroke="#835035" d="M81 44h1" />
<path stroke="#7b4f30" d="M82 44h1" />
<path stroke="#81502f" d="M83 44h1" />
<path stroke="#7d4d2f" d="M84 44h1" />
<path stroke="#784930" d="M86 44h1" />
<path stroke="#7d4f2e" d="M89 44h1M89 45h1" />
<path stroke="#8f654f" d="M90 44h1" />
<path stroke="#8e6a52" d="M92 44h1" />
<path stroke="#95735f" d="M3 45h1" />
<path stroke="#7f5132" d="M4 45h1M39 47h1M69 53h1" />
<path stroke="#8e6048" d="M5 45h1" />
<path stroke="#66462b" d="M15 45h1" />
<path stroke="#948274" d="M16 45h1" />
<path stroke="#7b4c33" d="M19 45h1" />
<path stroke="#794a37" d="M21 45h1" />
<path stroke="#764b2c" d="M22 45h1" />
<path stroke="#8b796f" d="M27 45h1" />
<path stroke="#683f26" d="M28 45h1" />
<path stroke="#695949" d="M38 45h1" />
<path stroke="#8d5a3a" d="M39 45h1" />
<path stroke="rgba(28,40,28,0.25098039215686274)" d="M40 45h1" />
<path stroke="#614b3d" d="M42 45h1" />
<path stroke="rgba(126,78,50,0.5019607843137255)" d="M43 45h1" />
<path stroke="#242e23" d="M45 45h1" />
<path stroke="#814f30" d="M51 45h1" />
<path stroke="#5b3b24" d="M54 45h1" />
<path stroke="#3c2213" d="M57 45h1M70 51h1" />
<path stroke="#905c3b" d="M60 45h1" />
<path stroke="#4f2c18" d="M61 45h1" />
<path stroke="#7e5131" d="M66 45h1M89 46h1" />
<path stroke="#7d4e2e" d="M70 45h1" />
<path stroke="#905b3d" d="M71 45h1" />
<path stroke="#7e5235" d="M74 45h1M62 48h1" />
<path stroke="#714630" d="M76 45h2M76 46h1M82 46h1M76 47h1M81 47h1M81 49h1M81 50h1M81 53h1M81 54h1M81 55h1M81 56h1" />
<path stroke="#855233" d="M79 45h1M49 49h1" />
<path stroke="#8c5d43" d="M80 45h1" />
<path stroke="#88583d" d="M81 45h1" />
<path stroke="#96603c" d="M82 45h1" />
<path stroke="#7c5134" d="M90 45h1" />
<path stroke="#7e4f37" d="M92 45h1" />
<path stroke="#633925" d="M93 45h1" />
<path stroke="#875336" d="M4 46h1" />
<path stroke="#744a31" d="M17 46h1" />
<path stroke="#63442d" d="M18 46h1" />
<path stroke="rgba(79,54,34,0.5333333333333333)" d="M19 46h1" />
<path stroke="#694a34" d="M21 46h1" />
<path stroke="#774f33" d="M22 46h1" />
<path stroke="#673f27" d="M28 46h1" />
<path stroke="#7c5035" d="M38 46h1" />
<path stroke="#814f35" d="M40 46h1" />
<path stroke="#774b31" d="M41 46h1" />
<path stroke="#212a21" d="M44 46h1" />
<path stroke="#875033" d="M49 46h1" />
<path stroke="#623923" d="M50 46h1" />
<path stroke="#8b593a" d="M53 46h1" />
<path stroke="#502e1b" d="M54 46h1" />
<path stroke="#53321f" d="M57 46h1" />
<path stroke="#643b25" d="M61 46h1" />
<path stroke="#59341b" d="M65 46h1" />
<path stroke="#6f4833" d="M71 46h1" />
<path stroke="#745743" d="M80 46h1" />
<path stroke="#875136" d="M81 46h1" />
<path stroke="#5f3721" d="M92 46h1" />
<path stroke="#714830" d="M3 47h1" />
<path stroke="#814e33" d="M4 47h1" />
<path stroke="#936143" d="M16 47h1" />
<path stroke="#5f3924" d="M17 47h1" />
<path stroke="#73442b" d="M21 47h1" />
<path stroke="#815130" d="M22 47h1" />
<path stroke="#66412a" d="M24 47h1" />
<path stroke="#3b3828" d="M27 47h1" />
<path stroke="#673f28" d="M28 47h1M28 48h1" />
<path stroke="#633a22" d="M37 47h1" />
<path stroke="#8a5839" d="M38 47h1" />
<path stroke="#774a32" d="M41 47h1M41 48h1" />
<path stroke="#804e38" d="M42 47h1M42 48h1" />
<path stroke="#835230" d="M49 47h1" />
<path stroke="#222b21" d="M60 47h1" />
<path stroke="#5a351f" d="M65 47h1" />
<path stroke="#925936" d="M80 47h1" />
<path stroke="#7d4f32" d="M89 47h1M71 54h1" />
<path stroke="#1d291e" d="M90 47h1" />
<path stroke="#603921" d="M92 47h1" />
<path stroke="#74472d" d="M3 48h1" />
<path stroke="#6e422a" d="M17 48h1" />
<path stroke="#61402d" d="M21 48h1" />
<path stroke="#664229" d="M24 48h1" />
<path stroke="#8b5a39" d="M39 48h1" />
<path stroke="#835131" d="M49 48h1" />
<path stroke="#643b22" d="M52 48h1M91 48h1" />
<path stroke="#6b432b" d="M58 48h1" />
<path stroke="#623d27" d="M65 48h1" />
<path stroke="#623b22" d="M70 48h1" />
<path stroke="#7f4d34" d="M89 48h1" />
<path stroke="#2e382d" d="M90 48h1" />
<path stroke="#7e5337" d="M92 48h1" />
<path stroke="#784d33" d="M3 49h1" />
<path stroke="#73472e" d="M4 49h1" />
<path stroke="#6e4129" d="M15 49h1" />
<path stroke="#75482f" d="M17 49h1" />
<path stroke="#70442f" d="M21 49h1" />
<path stroke="#613e24" d="M22 49h1" />
<path stroke="#303426" d="M26 49h1" />
<path stroke="#8d5938" d="M39 49h1" />
<path stroke="#804f38" d="M42 49h1" />
<path stroke="#65452d" d="M44 49h1" />
<path stroke="#643c25" d="M52 49h1" />
<path stroke="#1a231b" d="M54 49h1" />
<path stroke="#653b21" d="M56 49h1" />
<path stroke="#6a432a" d="M58 49h1" />
<path stroke="#502f1a" d="M61 49h1" />
<path stroke="#633c24" d="M65 49h1" />
<path stroke="#694027" d="M66 49h1M81 51h1M24 53h1" />
<path stroke="#623b20" d="M70 49h1" />
<path stroke="#7e4e32" d="M71 49h1" />
<path stroke="#70452f" d="M76 49h1" />
<path stroke="#5d442e" d="M90 49h1" />
<path stroke="#643c23" d="M91 49h1" />
<path stroke="#1d271c" d="M93 49h1" />
<path stroke="#6c4229" d="M4 50h1" />
<path stroke="#603b24" d="M15 50h1" />
<path stroke="#77482e" d="M17 50h1" />
<path stroke="rgba(27,37,28,0.7529411764705882)" d="M19 50h1" />
<path stroke="#6d462c" d="M21 50h1" />
<path stroke="#684027" d="M24 50h1" />
<path stroke="#463c2a" d="M27 50h1" />
<path stroke="#8e5a39" d="M39 50h1" />
<path stroke="#835034" d="M49 50h1" />
<path stroke="#694026" d="M50 50h1" />
<path stroke="#5e3a23" d="M51 50h1" />
<path stroke="#171f17" d="M54 50h1" />
<path stroke="#5e3c25" d="M58 50h1" />
<path stroke="#5c3924" d="M61 50h1" />
<path stroke="#794d32" d="M62 50h1" />
<path stroke="#5c3926" d="M65 50h1" />
<path stroke="#6c4228" d="M66 50h1" />
<path stroke="#613c24" d="M70 50h1" />
<path stroke="#694129" d="M76 50h1" />
<path stroke="#633d24" d="M91 50h1" />
<path stroke="#7b4f32" d="M3 51h1" />
<path stroke="#623a22" d="M15 51h1" />
<path stroke="#3e2f20" d="M17 51h1" />
<path stroke="#624028" d="M21 51h1" />
<path stroke="#684127" d="M24 51h1M24 54h1" />
<path stroke="#1e281e" d="M28 51h1" />
<path stroke="#7d4f38" d="M37 51h1" />
<path stroke="#89593a" d="M39 51h1" />
<path stroke="#815035" d="M44 51h1" />
<path stroke="rgba(115,74,55,0.8784313725490196)" d="M45 51h1" />
<path stroke="#693c25" d="M50 51h1" />
<path stroke="#5e3820" d="M51 51h1" />
<path stroke="#522e19" d="M61 51h1" />
<path stroke="#7c5132" d="M63 51h1" />
<path stroke="#3c2112" d="M65 51h1" />
<path stroke="#7f5237" d="M66 51h1" />
<path stroke="#71452e" d="M76 51h1" />
<path stroke="#744c2f" d="M87 51h1" />
<path stroke="#7d4f33" d="M89 51h1" />
<path stroke="#804d30" d="M90 51h1" />
<path stroke="#72482f" d="M3 52h1" />
<path stroke="#73462c" d="M4 52h1" />
<path stroke="#945e3f" d="M5 52h1" />
<path stroke="#784f37" d="M6 52h1" />
<path stroke="#693f25" d="M15 52h1" />
<path stroke="#6c462f" d="M21 52h1" />
<path stroke="#684328" d="M24 52h1" />
<path stroke="#7c4e33" d="M37 52h1" />
<path stroke="#805233" d="M39 52h1" />
<path stroke="rgba(125,80,53,0.3764705882352941)" d="M46 52h1M12 53h1" />
<path stroke="#7d5333" d="M47 52h1" />
<path stroke="#855032" d="M49 52h1" />
<path stroke="#4d2e1a" d="M65 52h1" />
<path stroke="#51301f" d="M66 52h1" />
<path stroke="#7c5236" d="M67 52h1" />
<path stroke="#633c25" d="M70 52h1" />
<path stroke="#7d502f" d="M75 52h1" />
<path stroke="#674028" d="M76 52h1" />
<path stroke="#90583b" d="M87 52h1" />
<path stroke="#804e2e" d="M89 52h1" />
<path stroke="#875437" d="M4 53h1" />
<path stroke="#5c3921" d="M6 53h1" />
<path stroke="#472d1f" d="M7 53h1" />
<path stroke="#52311c" d="M10 53h1" />
<path stroke="#64462b" d="M14 53h1" />
<path stroke="#623e29" d="M21 53h1" />
<path stroke="#362f1d" d="M28 53h1" />
<path stroke="#814d32" d="M29 53h1" />
<path stroke="#8d583b" d="M39 53h1" />
<path stroke="#7d5233" d="M47 53h1" />
<path stroke="#7b5135" d="M50 53h1" />
<path stroke="#7b5034" d="M51 53h1" />
<path stroke="#8c5637" d="M52 53h1" />
<path stroke="#552f1c" d="M54 53h1" />
<path stroke="#895535" d="M57 53h1" />
<path stroke="#825134" d="M63 53h1" />
<path stroke="#5d3720" d="M65 53h1" />
<path stroke="#895435" d="M66 53h1" />
<path stroke="#865537" d="M67 53h1" />
<path stroke="#8a5432" d="M68 53h1" />
<path stroke="#7a4f35" d="M70 53h1" />
<path stroke="#73482d" d="M76 53h1" />
<path stroke="#825436" d="M87 53h1" />
<path stroke="#895536" d="M91 53h1" />
<path stroke="#613a23" d="M93 53h1" />
<path stroke="rgba(159,104,72,0.12549019607843137)" d="M95 53h1" />
<path stroke="#573825" d="M6 54h1" />
<path stroke="#936040" d="M7 54h1" />
<path stroke="#935f41" d="M8 54h1" />
<path stroke="#99603b" d="M9 54h1" />
<path stroke="#4e3019" d="M10 54h1" />
<path stroke="#643920" d="M11 54h1" />
<path stroke="#824e31" d="M15 54h1" />
<path stroke="#955f41" d="M20 54h1" />
<path stroke="#6c432e" d="M28 54h1" />
<path stroke="#9a5d42" d="M29 54h1" />
<path stroke="#8a5a3b" d="M39 54h1M39 55h1M39 56h1M39 57h1" />
<path stroke="#774b33" d="M45 54h1" />
<path stroke="#945f41" d="M50 54h1" />
<path stroke="#975f3a" d="M51 54h1" />
<path stroke="#825338" d="M52 54h1" />
<path stroke="#5e3621" d="M54 54h1" />
<path stroke="#5f3e2c" d="M57 54h1" />
<path stroke="#583823" d="M58 54h1" />
<path stroke="#683a25" d="M68 54h1" />
<path stroke="#794e35" d="M70 54h1" />
<path stroke="#7d5238" d="M72 54h1" />
<path stroke="#74492c" d="M76 54h1" />
<path stroke="#844f31" d="M86 54h1" />
<path stroke="#83583d" d="M87 54h1" />
<path stroke="#7a542f" d="M90 54h1" />
<path stroke="#865237" d="M91 54h1" />
<path stroke="#824e35" d="M94 54h1" />
<path stroke="#8d5537" d="M4 55h1" />
<path stroke="#895a3d" d="M6 55h1" />
<path stroke="#866b58" d="M7 55h1" />
<path stroke="#4a2d1c" d="M9 55h1" />
<path stroke="#633e28" d="M10 55h1" />
<path stroke="#955f40" d="M15 55h1" />
<path stroke="#5b3d28" d="M20 55h1" />
<path stroke="#433523" d="M24 55h1" />
<path stroke="#6e4429" d="M28 55h1" />
<path stroke="#804f37" d="M38 55h1" />
<path stroke="#5d3825" d="M40 55h1" />
<path stroke="#814e34" d="M44 55h1" />
<path stroke="#764d33" d="M45 55h1" />
<path stroke="#523421" d="M51 55h1" />
<path stroke="#824d36" d="M52 55h1" />
<path stroke="#8b7669" d="M53 55h1" />
<path stroke="#553623" d="M58 55h1" />
<path stroke="#72472d" d="M59 55h1" />
<path stroke="#5f3a25" d="M61 55h1" />
<path stroke="#7a6457" d="M62 55h1" />
<path stroke="#59402b" d="M69 55h1" />
<path stroke="#5f381f" d="M75 55h1" />
<path stroke="#814f37" d="M80 55h1" />
<path stroke="#7e4d2f" d="M85 55h1" />
<path stroke="#663d25" d="M86 55h1" />
<path stroke="#7d5137" d="M87 55h1" />
<path stroke="#8f7669" d="M92 55h1" />
<path stroke="#8a573d" d="M94 55h1" />
<path stroke="#a57456" d="M5 56h1" />
<path stroke="#8c573b" d="M6 56h1" />
<path stroke="#864f34" d="M9 56h1" />
<path stroke="#8a6b59" d="M14 56h1" />
<path stroke="#7d5135" d="M15 56h1" />
<path stroke="#202a20" d="M21 56h1M28 58h1" />
<path stroke="#755b50" d="M25 56h1" />
<path stroke="#806d5f" d="M27 56h1" />
<path stroke="#684735" d="M36 56h1" />
<path stroke="#7a4a31" d="M45 56h1" />
<path stroke="#263426" d="M49 56h1" />
<path stroke="#744b34" d="M52 56h1" />
<path stroke="#523d28" d="M53 56h1" />
<path stroke="#754930" d="M59 56h1" />
<path stroke="#4a301b" d="M61 56h1" />
<path stroke="#673f25" d="M76 56h1" />
<path stroke="#774a30" d="M85 56h1" />
<path stroke="#784a30" d="M86 56h1" />
<path stroke="#694a32" d="M87 56h1" />
<path stroke="#774930" d="M92 56h1" />
<path stroke="#6f4730" d="M93 56h1" />
<path stroke="#824f35" d="M5 57h1" />
<path stroke="#87583a" d="M6 57h1" />
<path stroke="#7f4f37" d="M8 57h1" />
<path stroke="#172017" d="M10 57h1" />
<path stroke="rgba(36,48,36,0.7529411764705882)" d="M12 57h1" />
<path stroke="#6a492e" d="M14 57h1" />
<path stroke="#6a482f" d="M15 57h1" />
<path stroke="#1d261d" d="M21 57h1" />
<path stroke="rgba(29,40,29,0.7529411764705882)" d="M28 57h1" />
<path stroke="#794d35" d="M45 57h1" />
<path stroke="#182118" d="M54 57h1" />
<path stroke="#1a241a" d="M65 57h1" />
<path stroke="#2c3c2d" d="M9 58h1" />
<path stroke="#2f3c2e" d="M29 58h1" />
<path stroke="#2c3b2c" d="M51 58h1" />
<path stroke="#1d251d" d="M57 58h1" />
<path stroke="#1a221a" d="M58 58h1" />
<path stroke="#253126" d="M72 58h1" />
<path stroke="#212d22" d="M76 58h1" />
<path stroke="#222c21" d="M81 58h1M81 59h1M81 60h1" />
<path stroke="#283328" d="M87 58h1" />
<path stroke="#233025" d="M90 58h1" />
<path stroke="#283427" d="M91 58h1" />
<path stroke="#293529" d="M6 59h1" />
<path stroke="#2d342d" d="M7 59h1" />
<path stroke="#151d15" d="M9 59h1" />
<path stroke="#1b231c" d="M20 59h1" />
<path stroke="#1b241b" d="M40 59h1" />
<path stroke="#313631" d="M53 59h1" />
<path stroke="#192119" d="M58 59h1" />
<path stroke="#2a302a" d="M62 59h1" />
<path stroke="#243124" d="M85 59h1" />
<path stroke="#323832" d="M92 59h1" />
<path stroke="#2a3629" d="M94 59h1" />
<path stroke="#334034" d="M5 60h1" />
<path stroke="#2a3729" d="M6 60h1" />
<path stroke="#282e28" d="M25 60h1" />
<path stroke="#2d322d" d="M27 60h1" />
<path stroke="#202920" d="M36 60h1" />
<path stroke="#232d23" d="M52 60h1" />
<path stroke="#222e22" d="M59 60h1" />
<path stroke="#151d16" d="M61 60h1" />
<path stroke="#232f23" d="M86 60h1" />
<path stroke="#212b21" d="M93 60h1" />
</svg>