<svg xmlns="http://www.w3.org/2000/svg" viewBox="0 -0.5 65 128" shape-rendering="crispEdges">
<metadata>Made with Pixels to Svg https://codepen.io/shshaw/pen/XbxvNj</metadata>
<path stroke="#151812" d="M0 0h3M33 0h1M8 1h1M19 1h1M16 2h1M11 7h1M10 8h1M30 8h1M35 9h1M28 10h1M17 11h1M18 12h1M14 13h1M31 13h1M0 19h1M25 23h1M20 24h1M14 27h1M16 30h1M4 32h1M40 34h1M35 36h1M37 36h1M37 37h1M59 40h1M36 41h1M43 43h1M40 44h1M56 49h1M56 51h1M47 52h1M57 52h1M45 54h2M37 56h1M46 56h1M58 56h1M60 56h1M44 57h1M63 58h1M55 59h1M48 60h1M55 61h1M57 61h2M60 61h1M56 62h1M63 62h1M14 63h1M55 63h1M20 64h1M54 64h1M20 65h1M29 65h1M20 66h1M35 66h1M56 66h1M41 67h1M63 68h1M57 70h1M61 70h1M47 71h1M57 71h1M19 76h1M25 76h1M53 76h1M56 77h3M59 78h2M0 80h1M8 83h1M13 83h1M14 84h1M32 86h1M56 87h1M58 90h1M38 94h1M43 94h1M17 97h1M17 98h1M2 102h1M9 104h1M49 104h1M31 105h1M8 107h1M39 107h1M34 108h1M39 108h1M49 108h1M31 109h1M33 110h1M36 110h1M38 110h1M49 111h1M17 112h1M36 112h1M19 119h1M12 120h1M3 121h1" />
<path stroke="#090b08" d="M3 0h1M5 0h1M22 0h3M27 0h1M1 1h1M3 1h1M5 1h1M1 2h1M3 2h3M7 2h4M14 2h1M25 2h1M1 3h5M7 3h2M11 3h1M22 3h1M24 3h1M1 4h5M7 4h3M22 4h2M0 5h1M2 5h4M8 5h2M22 5h2M4 6h2M7 6h3M18 6h4M23 6h1M25 6h1M4 7h1M7 7h2M22 7h2M25 7h3M4 8h1M7 8h2M19 8h1M23 8h3M27 8h1M7 9h1M22 9h1M26 9h1M7 10h1M25 10h2M7 11h1M26 11h1M7 12h1M10 12h1M9 13h1M11 13h2M16 13h1M2 14h2M11 14h3M15 14h1M17 14h3M0 15h4M8 15h1M11 15h2M14 15h1M16 15h3M5 16h1M10 16h5M16 16h1M18 16h1M7 17h1M9 17h2M12 17h3M16 17h2M7 18h1M9 18h2M12 18h3M17 18h1M9 19h1M11 19h2M14 19h5M9 20h1M12 20h1M14 20h5M12 21h6M5 22h1M12 22h5M0 23h2M5 23h2M9 23h1M12 23h3M0 24h2M5 24h2M9 24h4M14 24h1M16 24h1M0 25h2M5 25h2M9 25h1M11 25h2M14 25h2M17 25h2M0 26h2M5 26h2M8 26h3M13 26h1M16 26h4M1 27h1M5 27h2M8 27h3M18 27h1M20 27h1M2 28h2M6 28h1M8 28h1M27 28h1M6 29h1M22 29h1M27 29h2M0 33h1M0 34h3M8 34h1M10 34h1M14 34h2M0 35h2M5 35h2M8 35h1M10 35h1M17 35h2M20 35h1M24 35h1M26 35h1M0 36h2M5 36h2M10 36h1M12 36h3M17 36h2M20 36h5M29 36h1M0 37h1M2 37h1M5 37h2M13 37h2M17 37h3M21 37h8M0 38h1M2 38h1M5 38h2M16 38h2M22 38h6M0 39h1M2 39h1M6 39h1M15 39h2M21 39h6M0 40h2M5 40h2M11 40h7M20 40h7M0 41h3M5 41h2M11 41h4M16 41h2M20 41h7M0 42h3M5 42h2M12 42h2M17 42h1M20 42h7M0 43h2M12 43h2M16 43h2M20 43h7M0 44h2M5 44h2M12 44h2M16 44h2M20 44h8M0 45h2M5 45h2M12 45h2M17 45h1M20 45h6M28 45h1M0 46h2M6 46h1M12 46h2M17 46h1M19 46h6M34 46h1M0 47h3M5 47h2M11 47h2M20 47h5M27 47h1M0 48h1M5 48h1M7 48h1M11 48h2M21 48h2M24 48h2M27 48h1M0 49h1M5 49h1M7 49h1M11 49h2M19 49h3M24 49h2M27 49h1M0 50h1M5 50h1M7 50h1M11 50h2M18 50h1M27 50h1M0 51h1M5 51h1M13 51h1M19 51h1M25 51h1M27 51h1M0 52h1M5 52h1M11 52h2M14 52h3M25 52h2M5 53h1M10 53h3M14 53h3M18 53h1M25 53h2M5 54h1M7 54h1M13 54h4M18 54h1M24 54h3M5 55h1M8 55h1M10 55h2M18 55h1M24 55h1M26 55h1M2 56h1M5 56h1M8 56h1M10 56h2M14 56h2M18 56h4M24 56h3M6 57h1M8 57h1M10 57h5M17 57h1M19 57h1M21 57h1M23 57h1M6 58h2M10 58h1M12 58h1M17 58h8M6 59h1M9 59h3M14 59h1M21 59h6M5 60h2M11 60h1M17 60h1M21 60h2M24 60h1M0 61h1M4 61h1M6 61h1M8 61h1M11 61h2M25 61h1M4 62h3M11 62h1M4 63h1M6 63h1M11 63h1M4 64h1M6 64h3M11 64h2M26 64h1M1 65h1M8 65h1M10 65h1M12 65h1M26 65h1M0 66h1M2 66h1M4 66h1M7 66h5M14 66h1M16 66h1M4 67h8M15 67h4M34 67h1M3 68h5M9 68h2M13 68h5M19 68h1M30 68h2M35 68h2M38 68h2M1 69h8M10 69h1M13 69h4M27 69h1M30 69h5M37 69h2M40 69h1M1 70h5M8 70h3M13 70h5M19 70h1M30 70h12M0 71h3M4 71h1M6 71h1M8 71h3M13 71h7M30 71h11M43 71h1M0 72h5M9 72h2M13 72h7M26 72h1M32 72h8M41 72h1M43 72h1M0 73h2M4 73h1M13 73h5M26 73h1M33 73h10M44 73h2M10 74h2M13 74h4M26 74h1M34 74h10M10 75h1M14 75h4M33 75h1M35 75h2M38 75h6M10 76h1M12 76h4M18 76h1M26 76h1M37 76h5M43 76h1M45 76h1M10 77h1M12 77h1M14 77h1M21 77h1M35 77h11M10 78h5M16 78h1M20 78h2M24 78h2M36 78h11M10 79h2M17 79h1M20 79h6M32 79h3M36 79h11M10 80h2M20 80h7M31 80h17M11 81h1M17 81h1M20 81h7M29 81h13M43 81h4M20 82h7M30 82h8M43 82h5M0 83h1M20 83h1M22 83h1M24 83h3M28 83h1M31 83h2M0 84h1M7 84h1M19 84h2M22 84h4M28 84h1M33 84h2M5 85h4M11 85h1M20 85h7M33 85h1M2 86h1M6 86h1M8 86h1M20 86h7M34 86h1M2 87h1M6 87h1M12 87h1M17 87h1M20 87h5M26 87h1M2 88h1M4 88h1M12 88h1M17 88h1M20 88h2M25 88h1M1 89h2M4 89h1M6 89h1M10 89h1M20 89h2M25 89h2M28 89h1M0 90h3M4 90h1M16 90h1M20 90h2M25 90h2M28 90h2M2 91h1M4 91h1M6 91h1M9 91h1M11 91h1M16 91h1M20 91h2M29 91h1M6 92h1M11 92h1M16 92h1M20 92h2M25 92h2M29 92h1M6 93h2M9 93h1M20 93h2M25 93h2M5 94h1M7 94h1M9 94h1M14 94h1M19 94h3M25 94h2M0 95h1M3 95h1M8 95h1M20 95h2M25 95h2M2 96h3M21 96h1M24 96h1M26 96h1M29 96h1M4 97h1M7 97h1M24 97h1M26 97h1M2 98h3M16 98h1M24 98h3M2 99h1M24 99h3M4 100h1M26 100h1M16 101h1M8 102h1M18 102h1M20 107h1M16 108h1M7 119h1" />
<path stroke="#181b15" d="M4 0h1M11 0h4M28 0h1M0 1h1M15 1h1M28 1h1M29 2h1M32 4h1M15 6h1M34 8h2M12 9h1M19 9h1M13 10h1M13 11h1M22 13h1M22 14h1M0 17h1M0 21h1M3 21h1M5 21h1M20 25h1M15 27h2M0 28h1M0 29h1M13 29h1M6 30h1M14 30h1M3 31h2M7 31h1M12 31h1M17 31h2M23 31h1M5 32h2M13 32h1M18 32h1M25 32h1M27 32h1M6 33h1M9 33h1M37 33h1M11 34h1M19 34h1M30 34h1M43 38h1M28 39h1M57 39h1M28 40h1M59 43h1M56 44h1M60 44h1M43 46h1M37 47h1M36 48h1M49 49h1M59 50h1M57 51h1M28 52h1M37 54h1M61 56h1M55 57h1M63 57h1M62 58h1M51 59h1M47 60h1M64 60h1M16 62h2M47 62h1M58 62h1M56 63h1M24 64h1M21 65h1M23 65h1M32 65h1M21 66h1M23 66h3M41 66h1M21 67h1M24 67h1M43 67h1M57 67h1M52 69h1M63 69h1M58 70h1M48 72h1M29 73h1M55 74h1M55 75h1M4 76h1M33 76h1M56 76h1M1 77h1M3 77h3M30 77h1M32 77h1M19 78h1M30 78h1M3 79h3M7 79h1M19 79h1M50 79h1M2 80h2M7 80h1M60 80h1M2 81h2M6 81h1M8 81h1M10 81h1M0 82h2M3 82h1M7 82h1M6 83h1M9 83h1M38 83h1M29 85h1M33 87h1M63 87h1M34 88h1M31 89h1M18 91h1M18 93h1M39 93h1M58 96h2M13 97h1M39 97h1M45 99h1M37 100h1M63 100h1M36 101h1M42 101h1M59 101h1M14 102h1M30 102h1M43 102h1M47 102h1M20 103h1M30 103h2M48 103h2M59 103h1M6 104h1M14 104h2M17 104h1M22 104h1M30 104h1M50 104h1M18 105h1M35 105h1M6 107h1M34 107h1M59 107h1M19 108h1M53 108h1M59 108h2M28 109h1M35 109h1M49 109h1M19 110h1M36 111h1M17 113h1M21 113h1M34 113h2M6 116h1M0 117h1M9 120h1M1 121h1M6 121h1M39 127h1" />
<path stroke="#151813" d="M6 0h1M6 1h1M10 1h1M20 1h1M29 1h1M13 2h1M20 2h2M19 3h1M12 6h1M35 6h1M39 6h1M31 8h1M14 9h1M36 14h1M43 17h1M20 18h1M20 19h1M3 20h1M26 21h1M29 21h1M19 22h1M23 22h1M18 23h1M43 23h1M44 25h1M35 27h2M33 28h1M10 29h1M28 30h1M15 31h1M0 32h1M7 32h1M16 32h1M4 33h1M16 33h1M5 34h1M58 35h1M58 39h1M57 42h1M28 43h1M59 44h1M40 45h1M41 47h1M56 47h1M48 48h1M55 48h1M36 49h1M35 51h1M56 52h1M56 53h1M36 54h1M55 54h1M47 55h2M56 55h1M53 56h1M56 56h1M46 57h1M61 57h1M35 59h1M52 59h1M62 59h1M46 60h1M57 60h1M62 60h1M14 61h2M53 61h2M56 61h1M59 61h1M14 62h2M20 62h1M57 62h1M64 62h1M15 63h2M20 63h1M45 63h1M14 64h2M29 64h1M31 64h1M45 64h1M62 64h1M15 65h1M31 66h1M25 67h1M36 67h1M55 67h1M43 68h1M46 68h1M55 68h1M57 68h1M54 70h1M63 70h1M52 71h1M56 71h1M55 73h1M4 75h1M25 75h1M0 76h1M3 76h1M28 76h1M54 76h1M34 77h1M50 77h1M59 77h1M62 77h1M31 78h1M2 79h1M59 80h1M19 81h1M50 83h1M63 83h1M40 84h1M64 84h1M29 87h1M48 88h1M56 88h1M61 88h1M64 89h1M13 93h1M63 93h1M13 94h1M28 94h1M49 94h1M54 95h1M33 96h1M32 97h1M51 97h1M34 98h1M48 99h1M50 99h1M53 99h1M63 99h1M35 100h2M40 100h1M37 102h1M59 102h1M6 103h1M45 103h1M8 104h1M26 104h1M13 105h1M27 105h1M33 105h1M39 105h1M12 106h1M32 106h1M5 107h1M7 107h1M9 107h1M27 107h1M33 107h1M30 110h1M51 111h3M0 116h2M20 117h1M2 122h1" />
<path stroke="#161914" d="M7 0h2M11 1h1M18 3h1M29 5h1M14 6h1M43 6h1M12 7h1M17 13h1M29 13h1M2 17h1M20 20h1M24 20h1M1 21h1M1 22h1M20 22h1M19 23h2M19 24h1M12 28h2M8 30h1M10 30h1M12 30h1M15 30h1M21 30h1M9 31h1M13 31h1M8 32h1M12 32h1M20 34h1M37 34h1M58 34h1M58 36h1M58 37h1M58 38h1M43 39h1M58 40h1M28 41h1M57 43h2M42 44h1M57 44h2M37 49h1M28 50h1M36 50h1M37 53h1M55 53h1M28 54h1M47 56h2M57 56h1M63 56h1M45 57h1M49 57h1M62 57h1M49 58h2M63 59h1M56 60h1M16 61h1M45 62h1M54 62h1M57 63h1M57 64h1M30 65h2M57 66h1M42 67h1M56 67h1M51 70h1M47 72h1M6 74h1M62 76h1M63 77h1M0 78h1M0 79h1M0 81h1M40 83h1M36 84h1M19 87h1M47 88h1M29 89h1M57 89h1M61 89h1M54 90h1M39 94h1M11 95h1M14 95h1M35 95h1M37 96h1M14 98h1M9 99h1M14 99h1M17 100h1M29 100h1M7 101h1M7 102h1M7 103h1M9 103h1M46 103h1M61 103h1M10 104h1M2 106h1M63 106h1M31 108h1M48 108h1M61 108h1M50 109h1M28 110h1M54 110h1M17 111h1M54 111h1M12 113h1M14 116h1M4 117h1M11 120h1M14 120h1M10 123h1" />
<path stroke="#0f110d" d="M9 0h1M31 0h1M36 1h2M37 2h1M36 5h1M39 5h1M10 6h1M19 7h1M21 7h1M31 7h1M21 9h1M35 16h1M40 16h1M31 17h5M29 18h1M30 19h1M32 19h1M2 20h1M29 20h1M38 20h1M40 21h1M40 22h1M41 23h2M39 24h1M43 25h1M14 26h1M19 29h1M8 33h1M9 34h1M33 34h1M41 37h1M33 39h1M34 40h1M37 40h1M33 41h1M48 47h1M44 49h1M47 49h1M38 50h1M40 51h1M44 51h2M34 52h1M34 57h1M27 59h1M34 59h1M39 59h1M43 59h3M33 60h1M43 60h2M33 61h1M44 61h1M40 63h1M40 64h1M42 64h2M45 65h1M40 66h1M48 67h1M50 73h1M64 73h1M27 75h1M50 76h1M22 77h1M27 78h1M49 78h1M13 80h1M6 82h1M11 83h1M27 83h1M49 84h1M52 84h1M35 85h2M27 86h1M47 87h1M5 88h1M51 89h1M53 89h1M5 90h1M27 90h1M35 90h1M51 90h1M53 90h1M5 91h1M35 91h1M64 91h1M34 92h1M52 92h3M27 93h1M52 93h1M18 94h1M17 95h1M36 95h1M56 95h1M36 96h1M34 97h1M9 98h1M27 98h1M31 98h1M20 101h1M38 101h1M13 102h1M29 102h1M40 102h2M10 103h1M12 103h1M36 103h1M42 103h1M3 104h1M5 104h1M12 104h1M24 104h1M29 104h1M32 104h1M34 104h1M43 104h2M47 104h2M2 105h1M9 105h1M14 105h1M36 105h1M43 105h2M49 105h1M61 105h1M55 106h1M30 108h1M43 108h1M13 109h1M17 109h2M14 110h1M20 112h1M22 116h1M6 118h1" />
<path stroke="#1a1e17" d="M10 0h1M29 0h1M13 1h1M30 1h1M30 2h3M31 3h2M30 4h1M14 7h1M33 7h1M13 8h2M15 9h1M22 10h2M18 11h1M23 11h1M15 12h1M19 12h1M23 12h4M23 13h2M26 13h1M35 13h1M27 14h1M35 14h1M35 15h1M37 15h1M42 16h1M0 18h2M22 19h1M6 20h1M8 21h1M3 22h1M9 22h1M24 22h1M34 22h1M23 23h1M24 24h3M32 24h1M23 25h1M25 25h1M27 25h1M24 26h1M26 26h3M30 26h1M27 27h1M17 28h1M34 28h1M38 28h1M16 29h1M37 29h3M0 30h1M38 30h1M1 31h1M21 31h1M2 32h1M21 32h1M31 32h1M3 33h1M23 33h4M28 33h1M26 34h1M25 35h1M31 36h1M57 40h1M44 47h1M55 47h1M57 49h1M38 51h1M58 51h1M37 52h1M54 53h1M53 54h1M46 55h1M28 56h1M47 57h2M53 57h1M37 58h1M37 59h2M41 59h1M49 59h1M17 63h1M21 63h1M22 64h2M43 66h3M55 66h1M47 67h1M58 68h1M60 68h1M30 74h1M6 76h1M30 76h3M61 76h1M33 77h1M3 78h1M50 78h1M51 79h1M5 80h1M50 80h1M52 81h1M54 81h1M29 86h1M31 86h1M37 86h1M55 86h1M60 86h1M31 87h1M38 87h1M30 88h1M33 88h1M57 88h1M62 88h1M30 89h1M30 90h1M57 90h1M51 91h1M58 91h1M35 92h1M59 92h1M35 93h1M58 93h1M64 93h1M35 94h1M55 94h1M37 95h1M49 96h1M37 97h1M41 97h1M49 97h1M55 97h1M37 98h2M64 98h1M18 99h1M61 99h1M9 100h1M64 100h1M1 101h1M45 102h1M50 103h1M2 104h1M16 104h1M18 104h1M21 104h1M38 104h1M16 105h1M19 105h1M24 105h1M26 105h1M45 105h2M1 106h1M20 106h2M36 106h1M43 106h1M48 106h1M15 107h1M28 107h1M49 107h1M55 107h1M25 108h1M27 108h1M33 108h1M35 108h1M45 108h2M50 108h1M57 108h1M8 109h1M27 109h1M47 109h2M53 109h1M16 110h2M29 110h1M18 111h1M35 111h1M22 113h1M24 113h1M30 113h1M18 116h1M1 117h1M13 117h1M21 118h2M31 118h1M21 119h1M8 120h1M53 120h1M0 121h1M5 121h1M7 121h2M11 121h1M6 122h1M48 125h1" />
<path stroke="#1e221a" d="M15 0h1M17 1h1M32 5h1M30 10h1M33 10h1M30 11h1M33 11h1M34 13h1M34 14h1M26 23h1M29 23h1M29 25h1M37 26h1M18 30h1M39 32h1M39 33h1M41 34h1M39 37h1M46 38h1M43 42h1M39 47h1M38 48h1M49 50h1M58 50h1M39 52h1M38 54h1M42 56h1M39 57h1M28 58h1M39 58h1M48 58h1M50 60h1M42 63h1M48 65h2M54 65h1M50 66h2M28 67h1M28 68h1M50 68h1M28 69h1M53 69h1M28 70h1M28 71h1M51 72h1M28 74h1M51 80h1M51 81h1M55 82h1M59 82h1M41 83h1M51 83h1M62 83h1M39 84h1M39 85h1M39 87h1M54 87h1M45 88h2M56 89h1M58 89h1M32 90h1M60 90h1M37 91h1M37 92h1M55 92h1M37 94h1M41 94h1M28 95h1M52 97h1M60 97h1M40 98h2M44 98h1M28 101h1M49 101h1M60 102h1M40 104h1M20 105h1M25 106h2M47 106h1M25 107h2M47 107h1M38 109h1M59 109h1M20 110h1M47 110h2M51 110h2M31 111h1M34 111h1M40 111h1M14 112h1M16 112h1M47 112h2M13 113h1M19 113h1M39 113h2M45 113h1M2 114h1M20 114h1M38 114h1M3 115h1M10 115h1M15 115h1M60 115h1M28 116h1M3 117h1M12 117h1M3 118h2M39 118h1M56 118h6M63 118h1M54 119h1M56 119h2M6 120h2M48 120h1M50 120h1M49 121h5M51 122h1M49 125h1M58 125h1M2 126h1M38 127h1" />
<path stroke="#1c2019" d="M16 0h1M41 3h1M32 6h1M15 7h1M16 8h2M30 9h2M18 10h1M21 10h1M34 10h2M22 11h1M25 14h1M41 16h1M3 19h2M7 21h1M24 21h1M7 22h1M25 22h1M28 22h3M27 24h1M29 24h1M26 25h1M28 25h1M32 25h3M32 26h1M46 26h1M30 27h1M20 30h1M38 33h1M27 34h1M29 34h1M27 35h1M29 35h1M33 36h1M46 37h1M45 38h1M37 42h1M38 43h1M38 46h2M38 47h1M40 50h1M57 50h1M38 52h1M38 53h1M46 53h1M63 53h1M39 54h1M51 54h1M38 56h2M38 57h1M47 58h1M50 59h1M41 60h1M59 62h1M41 64h1M28 65h1M28 66h1M46 66h1M46 67h1M49 67h1M59 67h1M48 68h1M59 68h1M49 69h1M59 69h1M50 71h1M63 71h1M50 72h1M56 73h1M56 74h1M31 75h1M56 75h1M51 77h1M34 78h1M60 84h1M13 85h1M38 86h1M53 86h1M61 86h1M60 87h1M31 88h1M55 88h1M32 89h1M37 90h1M60 92h1M60 93h1M52 94h1M59 94h1M18 95h1M47 95h1M49 95h1M18 96h1M55 96h1M63 97h1M18 98h1M41 99h2M64 99h1M10 100h1M10 101h1M44 101h1M46 102h1M48 102h2M63 102h2M3 103h1M57 103h1M20 104h1M39 104h1M21 105h1M25 105h1M14 106h1M24 106h1M33 106h1M42 106h1M45 106h2M3 107h2M24 107h1M31 107h1M36 107h1M62 107h1M38 108h1M19 109h1M33 109h1M39 109h2M43 109h3M54 109h2M13 110h1M26 110h1M44 110h1M46 110h1M26 111h4M41 111h1M25 112h1M35 112h1M14 113h2M44 113h1M16 114h1M35 114h2M44 114h1M20 115h1M3 116h1M9 116h1M21 117h2M52 117h1M9 118h1M20 118h1M9 119h2M12 119h2M17 119h1M4 120h1M37 120h1M15 121h1M10 122h1M5 123h1M50 125h1" />
<path stroke="#0b0d0a" d="M17 0h1M21 0h1M26 0h1M22 1h1M25 1h1M11 2h1M10 3h1M15 3h1M21 3h1M23 3h1M12 4h4M17 4h1M24 4h1M10 5h1M18 7h1M23 9h1M12 11h1M14 11h1M19 13h1M20 14h1M26 14h1M13 15h1M20 15h1M27 15h1M29 15h2M1 16h1M4 16h1M21 16h5M27 16h4M38 16h1M19 17h1M22 17h2M25 17h4M19 18h1M23 18h1M24 19h1M27 19h1M29 19h1M19 20h1M23 20h1M26 20h1M19 21h1M37 21h1M36 22h1M3 23h1M7 23h1M36 23h1M7 26h1M21 26h1M11 27h1M17 27h1M25 27h1M28 27h1M7 28h1M24 28h1M5 29h1M21 29h1M23 29h3M25 30h1M25 31h1M40 31h1M13 34h1M7 35h1M16 35h1M7 36h1M7 37h1M15 37h1M29 37h1M32 37h2M7 38h1M31 38h1M33 38h1M7 39h1M7 40h1M29 40h1M7 41h1M30 41h1M34 41h1M7 42h1M29 42h1M31 42h1M29 43h2M33 43h1M29 44h1M32 44h1M36 44h1M29 45h1M32 45h1M35 45h2M28 46h2M31 46h1M35 46h2M29 47h2M35 47h1M28 48h1M30 48h4M30 49h1M34 49h1M20 50h1M29 50h6M7 51h1M30 51h1M32 51h1M7 52h1M29 52h1M32 52h1M0 53h1M20 53h1M29 53h1M32 53h2M0 54h1M20 54h1M29 54h7M0 55h1M17 55h1M19 55h1M29 55h6M0 56h1M17 56h1M27 56h1M29 56h5M29 57h4M0 58h1M29 58h4M29 59h4M9 60h1M13 60h1M19 60h2M30 60h1M7 61h1M9 61h1M13 61h1M19 61h1M27 61h1M29 61h1M31 61h1M7 62h3M27 62h1M30 62h4M7 63h1M9 63h1M13 63h1M18 63h1M24 63h2M27 63h1M33 63h1M38 63h1M13 64h1M18 64h1M32 64h1M34 64h1M37 64h2M35 65h1M37 65h2M30 66h1M32 66h1M36 66h1M20 67h1M23 67h1M27 67h1M32 67h1M38 67h1M21 68h1M23 68h1M25 68h1M24 69h2M20 70h5M44 70h1M20 71h8M20 72h6M45 72h2M19 73h4M24 73h2M20 74h2M31 74h1M46 74h1M0 75h1M32 75h1M46 75h3M7 76h1M34 76h1M46 76h3M47 77h2M9 78h1M18 78h1M9 79h1M18 79h1M12 80h1M15 80h2M18 80h1M29 80h1M48 80h1M14 81h1M16 81h1M18 81h1M48 81h1M14 82h2M18 82h1M41 82h1M14 83h2M37 83h1M46 83h1M48 83h1M29 84h2M45 84h3M10 85h1M30 85h2M49 85h1M33 86h1M48 86h1M9 88h1M13 88h1M13 89h1M33 89h1M7 90h1M22 90h1M33 90h1M0 91h2M10 91h1M31 91h3M0 92h1M10 92h1M15 92h1M22 92h1M0 93h2M22 93h1M29 93h1M8 94h1M12 94h1M15 94h1M22 94h1M29 94h1M1 95h1M15 95h2M22 95h1M33 95h1M9 96h1M15 96h1M19 96h1M22 96h1M34 96h1M1 97h1M15 97h1M5 98h1M8 98h1M32 98h1M6 99h2M29 99h1M2 100h2M5 100h2M8 100h1M13 101h1M23 101h3M11 102h1M23 102h3M1 103h1M5 103h1M13 107h1M36 108h1M36 109h1M15 110h1" />
<path stroke="#10120e" d="M18 0h1M26 4h1M11 5h1M15 5h1M16 9h1M11 11h1M28 12h2M21 13h1M32 16h1M1 17h1M36 17h1M30 18h1M31 20h1M37 20h1M41 21h1M42 22h1M16 23h2M34 24h1M12 29h1M37 30h1M5 31h1M34 33h1M36 33h1M35 39h1M34 51h1M41 52h1M45 52h1M34 53h1M63 54h1M44 58h1M40 62h1M44 62h1M44 63h1M48 63h1M22 66h1M40 67h1M50 70h1M44 71h1M48 71h1M64 72h1M23 74h1M52 74h1M22 75h1M50 75h2M52 83h1M11 84h1M27 84h1M51 84h1M27 85h1M35 86h1M5 89h1M36 89h1M52 91h2M63 91h1M11 93h1M53 93h1M35 96h1M56 96h1M33 99h1M0 101h1M12 102h1M27 103h1M40 103h1M43 103h1M23 104h1M54 104h1M48 105h1M51 105h1M54 105h2M4 106h1M44 106h1M14 108h1M64 108h1M19 112h1M16 118h1" />
<path stroke="#0d0f0c" d="M19 0h1M23 1h1M26 1h1M33 1h3M23 2h1M34 2h1M25 3h1M34 3h1M38 3h1M29 4h1M13 5h1M37 5h1M28 6h1M29 7h2M33 8h1M8 11h2M39 16h1M29 17h1M39 17h1M21 18h1M32 18h1M34 19h1M21 20h1M34 20h1M39 20h2M27 21h1M36 21h1M38 21h2M6 22h1M8 22h1M35 22h1M39 22h1M40 23h1M41 24h2M26 27h1M29 27h1M15 29h1M32 29h2M1 30h1M7 30h1M32 30h1M35 30h1M16 31h1M22 31h1M26 31h1M29 31h1M32 31h1M35 31h1M37 31h1M26 32h1M32 32h1M34 32h1M38 32h1M34 35h1M36 36h1M29 39h4M37 39h1M31 40h1M36 40h1M32 41h1M32 42h2M28 44h1M37 44h2M37 45h3M42 45h1M35 48h1M29 49h1M36 55h1M27 58h1M33 59h1M36 60h1M32 61h1M36 62h2M39 62h1M37 63h1M39 63h1M47 63h1M39 64h1M22 65h1M41 65h1M39 66h1M45 70h3M46 71h1M27 73h1M27 74h1M3 75h1M19 75h1M27 77h1M32 78h1M13 79h1M49 79h1M6 80h1M13 81h1M49 83h1M12 84h1M50 84h1M13 86h1M28 86h1M51 86h1M5 87h1M27 87h1M34 87h2M14 88h2M36 88h1M51 88h1M14 89h2M34 89h1M52 89h1M15 90h1M34 90h1M34 93h1M17 94h1M27 94h1M33 94h1M10 95h1M27 95h1M10 96h1M12 96h1M27 96h1M32 96h1M0 97h1M10 97h1M27 97h1M19 98h1M22 98h1M33 98h1M11 99h1M23 99h1M31 99h2M35 99h1M13 100h1M20 100h2M30 100h5M21 101h2M30 101h6M0 102h1M5 102h1M20 102h1M27 102h1M32 102h4M23 103h1M32 103h2M38 103h1M33 104h1M37 104h1M38 105h1M5 106h1M50 106h1M52 106h2M58 106h1M52 107h1M57 107h1M15 109h1M2 115h1M19 117h1M15 118h1" />
<path stroke="#0c0e0a" d="M20 0h1M24 1h1M35 2h1M17 3h1M21 4h1M26 6h1M28 8h1M9 9h1M27 9h1M27 12h1M21 14h1M24 14h1M29 14h1M31 14h1M21 15h2M28 15h1M31 15h1M24 17h1M22 18h1M24 18h4M19 19h1M25 19h2M28 19h1M27 20h1M22 21h1M10 23h1M19 25h1M20 26h1M20 28h1M29 28h1M31 28h2M7 29h1M24 30h1M8 31h1M27 31h1M38 31h2M17 32h1M30 36h1M35 37h1M30 38h1M34 38h1M34 39h1M32 40h1M33 44h1M37 46h1M29 48h1M31 49h3M20 52h1M30 52h2M30 53h2M20 55h1M37 55h1M63 55h1M34 56h1M27 57h1M16 60h1M27 60h1M29 60h1M31 60h2M30 61h1M35 61h1M13 62h1M34 62h2M31 63h1M34 63h1M25 64h1M27 64h1M33 64h1M35 64h1M27 66h1M22 67h1M45 69h2M27 72h1M23 73h1M19 74h1M47 74h1M21 75h1M29 75h1M20 76h1M8 77h1M48 78h1M29 79h1M48 79h1M15 81h1M49 81h1M16 82h1M16 83h1M18 83h1M15 84h2M48 84h1M44 85h2M47 85h2M50 85h1M5 86h1M47 86h1M49 86h2M28 87h1M50 87h1M28 88h1M17 89h1M17 90h1M31 90h1M7 91h2M17 91h1M1 92h1M7 92h2M14 92h1M17 92h1M30 92h4M10 93h1M12 93h1M14 93h1M30 93h2M31 94h1M29 95h3M0 96h1M16 96h1M30 96h2M21 97h2M30 97h1M0 98h1M23 98h1M30 98h1M16 99h1M19 99h1M21 99h1M5 101h1M22 102h1M0 105h1M30 106h1M51 106h1M54 106h1M16 111h1" />
<path stroke="#0a0c09" d="M25 0h1M9 1h1M12 2h1M9 3h1M12 3h3M16 3h1M10 4h2M16 4h1M18 4h3M16 5h6M24 5h2M16 6h1M22 6h1M24 6h1M9 7h1M20 7h1M20 8h1M22 8h1M8 9h1M9 12h1M12 12h1M15 13h1M4 14h1M9 14h1M14 14h1M23 14h1M4 15h1M9 15h1M19 15h1M23 15h4M2 16h2M9 16h1M17 16h1M19 16h1M26 16h1M3 17h2M15 17h1M28 18h1M6 19h2M8 20h1M18 21h1M37 22h1M7 24h1M7 25h1M16 25h1M11 26h2M22 26h1M0 27h1M7 27h1M21 27h4M5 28h1M9 28h2M23 28h1M25 28h1M27 30h1M5 33h1M6 34h1M18 34h1M11 35h5M21 35h2M15 36h2M26 36h1M1 37h1M12 37h1M16 37h1M20 37h1M30 37h2M12 38h4M20 38h1M29 38h1M32 38h1M5 39h1M12 39h3M20 39h1M27 40h1M27 41h1M29 41h1M31 41h1M30 42h1M2 43h1M7 43h1M31 43h2M2 44h1M7 44h1M30 44h1M34 44h2M2 45h1M7 45h1M30 45h2M33 45h2M2 46h1M7 46h1M30 46h1M32 46h2M7 47h1M31 47h4M20 48h1M34 48h1M20 51h1M27 52h1M7 53h1M17 53h1M27 53h1M11 54h1M17 54h1M19 54h1M27 54h1M7 55h1M16 55h1M27 55h1M7 56h1M16 56h1M0 57h1M5 57h1M7 57h1M15 57h2M18 57h1M25 57h2M5 58h1M11 58h1M13 58h4M25 58h2M33 58h1M0 59h1M5 59h1M7 59h1M13 59h1M15 59h6M0 60h1M7 60h1M18 60h1M23 60h1M25 60h2M5 61h1M18 61h1M21 61h4M26 61h1M0 62h1M12 62h1M18 62h2M23 62h4M0 63h1M12 63h1M19 63h1M26 63h1M32 63h1M0 64h1M19 64h1M0 65h1M6 65h1M11 65h1M13 65h2M18 65h2M36 65h1M1 66h1M5 66h2M13 66h1M15 66h1M19 66h1M26 66h1M29 66h1M37 66h2M0 67h3M14 67h1M19 67h1M26 67h1M29 67h3M33 67h1M35 67h1M37 67h1M0 68h3M8 68h1M20 68h1M22 68h1M24 68h1M26 68h2M29 68h1M32 68h3M37 68h1M40 68h1M0 69h1M9 69h1M17 69h1M20 69h4M26 69h1M29 69h1M35 69h2M39 69h1M0 70h1M25 70h3M29 70h1M42 70h1M5 71h1M29 71h1M41 71h2M5 72h2M8 72h1M29 72h3M40 72h1M42 72h1M44 72h1M2 73h2M5 73h1M8 73h3M30 73h3M43 73h1M46 73h1M0 74h6M8 74h2M22 74h1M32 74h2M44 74h2M1 75h1M8 75h2M13 75h1M34 75h1M44 75h2M8 76h2M16 76h1M35 76h2M42 76h1M44 76h1M9 77h1M15 77h2M18 77h1M20 77h1M46 77h1M15 78h1M47 78h1M12 79h1M14 79h3M30 79h2M35 79h1M47 79h1M14 80h1M28 80h1M30 80h1M12 81h1M42 81h1M47 81h1M12 82h2M29 82h1M38 82h3M42 82h1M48 82h1M29 83h2M33 83h4M43 83h3M47 83h1M31 84h2M35 84h1M44 84h1M16 85h1M32 85h1M34 85h1M11 86h1M14 86h1M7 87h3M11 87h1M13 87h3M6 88h3M22 88h1M7 89h3M12 89h1M16 89h1M19 89h1M22 89h1M6 90h1M8 90h3M22 91h1M25 91h1M30 91h1M9 92h1M8 93h1M15 93h2M0 94h2M16 94h1M30 94h1M5 95h1M7 95h1M19 95h1M1 96h1M6 96h1M5 97h2M16 97h1M29 97h1M6 98h1M29 98h1M1 99h1M3 99h1M8 99h1M22 99h1M19 100h1M24 100h2M3 101h1M26 101h1M29 101h1M26 102h1M6 106h1M23 107h1" />
<path stroke="#1b1f18" d="M30 0h1M32 0h1M31 1h2M41 4h1M31 5h1M16 7h1M13 9h1M18 9h1M20 9h1M33 9h1M17 10h1M20 10h1M19 11h2M35 12h1M25 13h1M2 19h1M5 20h1M6 21h1M45 22h1M32 23h1M44 23h1M28 24h1M30 25h1M34 26h1M41 26h1M33 27h1M35 28h1M17 29h1M19 30h1M39 30h1M0 31h1M19 31h2M20 32h1M20 33h2M29 33h1M32 33h1M24 34h2M28 34h1M36 34h1M28 35h1M30 35h2M28 42h1M38 42h1M55 44h1M37 48h1M38 49h1M37 51h1M42 52h1M46 52h1M49 55h1M59 55h1M28 57h1M60 57h1M38 60h2M60 62h1M44 67h2M45 68h1M51 68h1M49 71h1M57 72h1M29 74h1M48 74h1M49 75h1M52 76h1M7 77h1M7 78h1M33 78h1M39 83h1M52 85h1M52 87h1M32 88h1M63 88h1M45 89h1M62 89h2M36 91h1M58 92h1M40 94h1M57 94h1M41 95h1M59 95h1M14 96h1M60 98h1M40 99h1M44 99h1M41 100h1M43 100h1M43 101h1M57 101h2M10 102h1M19 102h1M28 102h1M51 102h1M0 103h1M4 103h1M18 103h1M1 104h1M36 104h1M47 105h1M23 106h1M31 106h1M16 107h1M21 107h1M37 107h1M11 108h1M37 108h1M56 108h1M26 109h1M12 110h1M27 110h1M36 116h1M15 117h1M17 117h2M10 118h4M19 118h1M11 119h1M10 120h1M15 120h1M9 122h1" />
<path stroke="#11140f" d="M34 0h1M18 1h1M19 2h1M40 4h1M30 5h1M40 5h1M41 6h1M15 8h1M10 9h1M9 10h1M27 10h1M21 12h1M40 17h1M33 18h1M35 19h1M35 20h2M20 21h2M43 21h1M35 24h1M12 27h1M26 30h1M28 31h1M3 32h1M13 33h1M27 33h1M35 35h2M39 44h1M41 45h1M48 45h1M56 46h1M42 51h1M35 52h2M42 55h1M43 57h1M35 58h2M40 59h1M45 60h1M43 61h1M45 61h1M46 63h1M49 63h1M43 65h1M42 69h3M47 69h1M51 69h1M57 69h1M43 70h1M54 71h1M53 72h2M51 73h1M53 74h1M64 74h1M2 75h1M52 75h1M64 75h1M2 76h1M24 77h2M52 77h1M64 77h1M64 78h1M62 79h1M50 82h1M38 84h1M15 86h1M36 86h1M61 87h1M62 90h2M12 91h1M54 91h1M12 92h1M54 93h1M48 94h1M53 94h2M12 95h1M38 95h1M48 95h1M57 96h1M62 98h1M36 99h1M64 101h1M9 102h1M16 102h1M13 103h1M21 103h1M41 103h1M51 104h1M56 104h1M59 104h1M29 105h1M29 106h1M44 108h1M46 111h1M32 113h1M13 115h1M23 116h1M25 116h1M17 118h1M18 119h1" />
<path stroke="#131611" d="M35 0h1M4 1h1M27 1h1M38 1h1M18 2h1M12 5h1M27 6h1M38 6h1M17 7h1M21 8h1M28 9h1M10 10h1M20 16h1M33 16h1M37 18h1M37 19h1M23 21h1M34 21h1M17 24h2M33 24h1M11 28h1M19 28h1M34 29h1M22 30h1M42 32h1M16 34h1M36 37h1M36 42h1M35 43h2M45 48h1M37 50h1M54 51h2M54 55h1M54 58h1M37 60h1M46 61h1M61 61h1M61 62h2M21 64h1M46 64h1M55 64h1M64 64h1M50 65h1M63 65h1M17 66h1M63 66h2M42 68h1M49 68h1M64 68h1M56 69h1M62 71h1M62 72h2M54 73h1M24 74h1M23 76h1M64 76h1M57 78h1M62 78h1M61 79h1M63 79h1M63 80h1M64 81h1M63 82h2M10 83h1M64 83h1M37 87h1M19 88h1M61 90h1M17 96h1M38 97h1M62 97h1M11 98h1M0 100h1M58 100h1M41 101h1M6 102h1M57 102h1M56 103h1M11 104h1M13 104h1M11 105h1M11 106h1M28 106h1M37 106h1M41 108h1M24 109h1M37 110h1M37 111h1M45 111h1M31 113h1M5 116h1M14 118h1" />
<path stroke="#4c5743" d="M36 0h1M39 19h1M45 28h1M47 28h2M59 30h1M36 38h1M45 39h1M40 40h1M50 44h1M53 46h1M52 58h1" />
<path stroke="#4f5a45" d="M37 0h2M41 0h9M51 0h14M40 1h1M44 1h7M55 1h8M64 1h1M41 2h5M47 2h18M42 3h23M45 4h11M57 4h8M48 5h1M51 5h11M63 5h2M47 6h2M51 6h14M48 7h1M53 7h7M61 7h4M42 8h1M54 8h11M56 9h4M61 9h4M37 10h1M49 10h16M47 11h18M47 12h1M50 12h14M44 13h17M63 13h1M45 14h7M56 14h8M50 15h12M63 15h2M52 16h13M52 17h1M55 17h10M56 18h9M57 19h3M61 19h4M56 20h1M59 20h6M56 21h9M50 22h1M57 22h8M52 23h2M58 23h7M54 24h1M60 24h5M64 25h1M42 28h1M48 30h2M58 30h1M44 31h1M46 31h7M58 31h3M50 32h12M51 33h9M61 33h4M51 34h7M63 34h2M53 35h4M53 36h4M54 37h3M64 37h1M41 40h1M50 40h1M42 41h1M40 42h2M41 43h2M47 43h1M44 44h4M45 45h3M44 46h3M50 46h2M55 46h1M46 47h2M51 47h2M54 47h1" />
<path stroke="#515c46" d="M39 0h1M44 6h2M38 7h2M44 7h2M38 8h1M44 8h1M39 9h1M41 9h1M44 9h1M39 11h1M40 12h1M41 13h2M42 14h2M44 15h3M45 16h3M45 17h3M38 18h1M40 18h2M46 18h2M41 19h1M45 19h4M44 20h2M48 20h2M50 21h1M51 22h1M48 29h1M46 30h2M45 31h1M57 31h1M45 32h2M46 33h2M46 34h2M60 34h2M46 35h3M60 35h2M48 36h2M61 36h2M49 37h1M51 37h1M60 37h2M50 38h2M59 38h4M51 39h2M54 39h1M59 39h1M61 39h2M52 40h3M62 40h2M40 41h1M53 41h3M60 41h1M62 41h2M42 42h1M53 42h1M61 42h3M61 43h1M61 48h2M59 49h2M62 49h3M63 50h1M64 53h1M53 58h1" />
<path stroke="#505b46" d="M40 0h1M50 0h1M41 1h3M63 1h1M43 4h2M44 5h4M49 5h2M62 5h1M37 6h1M46 6h1M49 6h2M46 7h2M49 7h4M60 7h1M37 8h1M39 8h3M43 8h1M45 8h9M37 9h2M40 9h1M42 9h2M45 9h11M60 9h1M38 10h11M38 11h1M40 11h7M41 12h6M48 12h2M43 13h1M44 14h1M47 15h3M48 16h4M48 17h4M53 17h2M48 18h8M42 19h2M49 19h8M60 19h1M42 20h2M50 20h6M57 20h2M51 21h5M52 22h5M49 29h1M50 30h1M55 31h2M61 31h2M47 32h3M62 32h2M48 33h3M48 34h3M62 34h1M49 35h4M57 35h1M62 35h3M50 36h3M63 36h2M50 37h1M52 37h2M57 37h1M62 37h2M52 38h5M63 38h2M48 39h1M53 39h1M55 39h2M63 39h2M42 40h1M55 40h1M64 40h1M41 41h1M64 41h1M40 43h1M41 44h1M56 45h1" />
<path stroke="#141712" d="M2 1h1M39 1h1M17 2h1M22 2h1M27 2h1M20 3h1M29 3h1M40 3h1M27 4h2M28 5h1M10 7h1M11 8h1M11 10h1M13 12h2M34 16h1M20 17h1M36 18h1M33 21h1M2 22h1M18 22h1M21 22h1M23 26h1M43 26h1M13 27h1M37 27h1M15 28h1M8 29h1M20 29h1M35 29h1M11 30h1M43 31h1M43 32h1M35 42h1M57 47h1M56 48h1M28 49h1M48 49h1M46 50h1M46 51h1M28 53h1M36 53h1M55 55h1M44 56h2M54 56h1M36 57h1M42 58h1M54 59h1M15 60h1M35 60h1M42 60h1M54 60h2M40 61h1M42 61h1M62 61h1M55 62h1M64 63h1M30 64h1M47 64h1M52 64h1M56 64h1M63 64h1M55 65h2M62 65h1M64 65h1M63 67h2M47 68h1M52 68h1M54 68h1M56 68h1M55 69h1M64 69h1M52 70h1M55 70h2M64 70h1M53 71h1M55 71h1M61 71h1M64 71h1M55 72h1M6 73h1M25 74h1M54 74h1M24 75h1M54 75h1M1 76h1M24 76h1M58 78h1M61 78h1M58 79h3M57 80h1M61 80h1M63 81h1M1 83h1M41 84h1M61 84h1M18 86h1M18 87h1M55 89h1M63 92h2M43 93h1M47 93h1M36 94h1M47 94h1M39 95h1M39 96h2M57 97h1M12 98h2M36 98h1M50 98h1M0 99h1M7 100h1M18 100h1M55 100h1M37 101h1M39 101h1M56 101h1M38 102h1M58 102h1M28 103h1M60 103h1M27 104h1M35 104h1M58 104h1M7 105h1M34 105h1M0 106h1M10 106h1M64 106h1M10 107h1M32 107h1M64 107h1M30 109h1M52 109h1M32 110h1M50 111h1M21 112h1M18 113h1M14 117h1" />
<path stroke="#191c16" d="M7 1h1M28 2h1M28 3h1M42 5h1M14 10h3M15 11h1M18 13h1M20 13h1M27 13h1M5 19h1M21 19h1M0 20h1M4 21h1M25 21h1M30 21h1M26 22h1M22 23h1M22 25h1M32 27h1M16 28h1M37 28h1M1 29h2M2 30h1M36 30h1M6 31h1M10 31h1M41 31h1M22 32h2M10 33h2M19 33h1M23 34h1M35 34h1M23 35h1M44 38h1M58 41h1M56 43h1M57 46h1M58 47h1M59 48h1M58 49h1M36 51h1M28 55h1M61 55h1M55 56h1M36 59h1M41 62h1M46 62h1M17 65h1M24 65h1M33 65h1M42 66h1M47 66h1M62 66h1M44 68h1M49 73h1M5 76h1M29 76h1M0 77h1M1 78h1M4 78h2M6 79h1M8 79h1M4 80h1M8 80h2M19 80h1M2 82h1M4 82h1M12 83h1M8 84h1M13 84h1M15 85h1M16 86h1M38 88h1M18 90h1M13 91h1M55 93h1M34 94h1M50 96h1M61 96h1M36 97h1M50 97h1M39 100h1M14 101h1M63 101h1M54 102h1M14 103h1M17 103h1M29 103h1M7 104h1M15 105h1M56 105h1M46 107h1M53 107h1M26 108h1M52 108h1M58 108h1M32 109h1M55 110h2M55 111h1M16 113h1M20 113h1M0 114h1M2 116h1M18 118h1M20 119h1M13 120h1" />
<path stroke="#191d16" d="M12 1h1M15 2h1M30 3h1M31 6h1M13 7h1M12 8h1M18 8h1M24 10h1M16 11h1M24 11h2M29 11h1M16 12h1M20 12h1M22 12h1M30 12h1M28 14h1M30 14h1M36 16h1M2 18h2M1 19h1M1 20h1M2 21h1M44 21h1M22 22h1M24 23h1M22 24h2M24 25h1M45 25h1M25 26h1M36 26h1M45 26h1M31 27h1M18 28h1M36 29h1M17 30h1M2 31h1M1 32h1M19 32h1M24 32h1M30 32h1M1 33h2M18 33h1M22 33h1M22 34h1M33 35h1M32 36h1M40 39h1M57 45h1M58 46h1M43 47h1M59 47h1M58 48h1M39 50h1M55 50h2M28 51h1M41 53h1M41 54h1M37 57h1M50 57h1M48 59h1M53 59h1M22 62h1M22 63h2M51 64h1M25 65h1M33 66h1M58 71h1M49 72h1M47 73h1M49 74h1M55 76h1M59 76h2M6 77h1M2 78h1M6 78h1M4 81h1M11 82h1M58 82h1M12 85h1M30 86h1M30 87h1M32 87h1M57 87h1M64 87h1M52 88h1M64 88h1M18 92h1M59 93h1M46 94h1M51 96h1M40 97h1M58 97h1M39 98h1M63 98h1M15 99h1M37 99h1M39 99h1M54 99h1M15 100h1M57 100h1M15 101h1M15 102h1M17 102h1M16 103h1M35 103h1M53 104h1M22 105h1M19 106h1M27 106h1M35 106h1M38 106h1M0 107h1M54 107h1M63 107h1M1 108h1M28 108h1M42 108h1M47 108h1M62 108h1M32 111h1M23 113h1M25 113h1M43 114h1M19 115h1M17 116h1M26 116h1M16 117h1M4 122h1M2 125h1" />
<path stroke="#171a14" d="M14 1h1M27 3h1M31 4h1M41 5h1M13 6h1M29 6h2M42 6h1M11 9h1M12 10h1M29 10h1M17 12h1M30 13h1M42 17h1M38 19h1M7 20h1M4 22h1M31 22h1M44 22h1M21 23h1M21 24h1M31 26h1M14 28h1M36 28h1M3 29h1M14 29h1M3 30h2M9 30h1M13 30h1M11 31h1M14 31h1M9 32h3M14 32h2M28 32h2M7 33h1M12 33h1M14 33h1M17 33h1M35 33h1M3 34h1M7 34h1M34 34h1M28 38h1M58 42h1M39 43h1M40 46h1M45 50h1M59 51h1M45 55h1M62 56h1M56 57h1M45 58h2M51 58h1M55 58h2M46 59h2M58 60h1M63 60h1M17 61h1M38 61h1M63 61h1M21 62h1M62 63h2M16 64h2M16 65h1M59 70h1M56 72h1M48 73h1M6 75h1M58 76h1M2 77h1M19 77h1M1 79h1M1 80h1M1 81h1M5 81h1M7 81h1M50 81h1M5 82h1M8 82h2M10 84h1M37 84h1M53 84h1M14 85h1M60 85h1M51 87h1M29 88h1M37 89h1M46 93h1M13 95h1M11 96h1M13 96h1M14 97h1M35 97h1M35 98h1M42 98h1M51 98h1M10 99h1M12 99h1M43 99h1M12 100h1M14 100h1M38 100h1M42 100h1M12 101h1M44 102h1M2 103h1M15 103h1M44 103h1M31 104h1M32 105h1M62 105h1M11 107h1M35 107h1M43 107h1M40 108h1M51 109h1M53 110h1M34 112h1M2 117h1M3 122h1" />
<path stroke="#1f231b" d="M16 1h1M32 10h1M31 11h2M36 11h1M32 12h1M36 12h1M37 13h1M33 14h1M30 24h1M37 25h1M40 29h1M41 30h1M41 33h1M42 47h1M41 48h1M54 48h1M57 48h1M39 49h1M47 51h1M50 52h1M40 54h1M43 54h1M50 55h2M41 56h1M51 57h1M57 57h1M28 59h1M49 60h1M48 61h1M28 62h1M48 62h1M44 64h1M58 64h1M58 66h1M52 72h1M57 74h1M58 75h1M60 75h1M53 77h1M52 80h1M59 87h1M39 88h1M59 88h2M38 90h1M56 90h1M57 91h1M51 94h1M60 94h1M46 95h1M50 95h1M42 96h2M28 97h1M55 98h1M59 98h1M28 100h1M51 100h1M59 100h1M62 100h1M45 101h1M55 101h1M61 101h1M62 102h1M19 103h1M51 103h1M53 103h1M0 104h1M4 105h1M6 105h1M64 105h1M16 106h1M17 107h1M22 107h1M0 108h1M2 108h1M5 108h2M13 108h1M0 109h4M11 109h1M0 110h3M5 110h2M40 110h1M12 111h1M44 111h1M10 112h2M30 112h2M38 112h1M43 112h1M10 113h1M36 113h1M42 113h1M12 114h2M24 114h2M28 114h1M32 114h1M8 115h1M32 115h1M61 115h1M64 115h1M10 116h1M13 116h1M19 116h2M38 116h1M59 116h1M61 116h1M63 116h1M7 117h1M10 117h1M23 117h1M41 117h1M53 117h1M61 117h2M64 117h1M23 118h1M49 118h2M53 118h1M36 119h1M0 120h1M2 120h1M56 120h1M58 120h1M17 121h1M46 121h1M47 122h1M53 122h2M7 123h1M50 123h1M11 124h1M54 124h1M56 124h2M3 125h1M7 125h1M55 125h1M1 126h1M50 126h2M40 127h1" />
<path stroke="#0d0e0b" d="M21 1h1M35 3h2M34 4h5M28 7h1M34 9h1M28 11h1M28 13h1M21 17h1M31 18h1M31 19h1M38 22h1M29 26h1M22 28h1M30 28h1M29 29h3M23 30h1M29 30h3M33 30h2M31 31h1M33 31h2M33 32h1M37 32h1M40 32h1M35 38h1M27 39h1M30 40h1M34 43h1M37 43h1M41 46h1M28 47h1M35 49h1M35 50h1M31 51h1M33 51h1M33 52h1M35 53h1M35 55h1M33 57h1M34 58h1M34 60h1M20 61h1M34 61h1M36 61h1M38 62h1M29 63h1M35 63h2M36 64h1M27 65h1M34 65h1M39 67h1M45 71h1M20 75h1M49 76h1M49 77h1M27 80h1M49 80h1M27 81h1M49 82h1M7 83h1M18 84h1M28 85h1M46 85h1M51 85h1M46 86h1M16 87h1M48 87h2M16 88h1M50 88h1M27 89h1M13 90h2M14 91h2M34 91h1M5 93h1M17 93h1M32 93h1M10 94h1M32 94h1M32 95h1M34 95h1M20 96h1M8 97h1M19 97h2M31 97h1M33 97h1M1 98h1M20 98h1M20 99h1M30 99h1M22 100h1M4 101h1M21 102h1M31 102h1M8 103h1M22 103h1M24 103h2M30 105h1M37 105h1M9 106h1M16 109h1M18 112h1M24 116h1" />
<path stroke="#4e5944" d="M51 1h4M46 2h1M42 4h1M56 4h1M64 12h1M61 13h2M64 13h1M52 14h4M64 14h1M62 15h1M41 27h2M44 27h1M43 29h1M44 30h2M59 46h1M64 56h1" />
<path stroke="#090a08" d="M0 2h1M2 2h1M0 3h1M6 3h1M0 4h1M6 4h1M1 5h1M6 5h2M0 6h3M6 6h1M0 7h1M5 7h2M0 8h1M5 8h2M26 8h1M0 9h1M4 9h3M24 9h1M0 10h1M2 10h1M0 11h4M0 12h4M8 12h1M11 12h1M0 13h4M5 13h1M7 13h2M10 13h1M13 13h1M0 14h2M5 14h1M7 14h2M10 14h1M16 14h1M5 15h1M7 15h1M10 15h1M15 15h1M7 16h2M15 16h1M5 17h1M11 17h1M18 17h1M5 18h2M11 18h1M15 18h2M18 18h1M10 19h1M13 19h1M11 20h1M13 20h1M9 21h1M11 21h1M10 22h2M2 23h1M4 23h1M8 23h1M15 23h1M2 24h3M13 24h1M2 25h3M8 25h1M10 25h1M13 25h1M2 26h2M2 27h2M19 27h1M1 28h1M21 28h1M28 28h1M4 29h1M26 29h1M24 31h1M15 33h1M4 34h1M17 34h1M2 35h2M9 35h1M19 35h1M2 36h1M8 36h2M11 36h1M19 36h1M25 36h1M27 36h2M9 37h3M1 38h1M8 38h4M18 38h2M21 38h1M1 39h1M3 39h1M8 39h4M17 39h3M2 40h1M8 40h3M18 40h2M8 41h3M15 41h1M18 41h2M8 42h4M14 42h3M18 42h2M27 42h1M5 43h2M8 43h2M11 43h1M14 43h2M18 43h2M27 43h1M8 44h1M10 44h2M14 44h2M19 44h1M31 44h1M8 45h4M14 45h3M19 45h1M26 45h2M5 46h1M10 46h2M14 46h3M25 46h3M3 47h2M10 47h1M13 47h1M15 47h3M19 47h1M25 47h2M1 48h4M6 48h1M9 48h2M13 48h1M15 48h5M23 48h1M26 48h1M3 49h2M6 49h1M9 49h2M13 49h1M15 49h4M22 49h2M26 49h1M9 50h2M13 50h1M15 50h3M19 50h1M21 50h4M26 50h1M6 51h1M8 51h5M16 51h3M22 51h3M26 51h1M29 51h1M6 52h1M8 52h3M13 52h1M17 52h3M22 52h3M3 53h1M6 53h1M8 53h2M13 53h1M19 53h1M21 53h4M2 54h2M6 54h1M8 54h3M21 54h3M2 55h3M6 55h1M9 55h1M13 55h3M21 55h3M25 55h1M3 56h1M6 56h1M9 56h1M13 56h1M22 56h2M2 57h3M9 57h1M20 57h1M22 57h1M24 57h1M2 58h3M8 58h2M1 59h4M12 59h1M2 60h3M8 60h1M2 61h2M10 61h1M2 62h2M10 62h1M2 63h2M5 63h1M8 63h1M10 63h1M2 64h2M5 64h1M9 64h2M2 65h4M7 65h1M3 66h1M12 66h1M18 66h1M3 67h1M12 67h2M11 68h2M18 68h1M11 69h1M18 69h2M6 70h1M11 70h1M18 70h1M3 71h1M7 71h1M11 71h2M7 72h1M11 73h2M18 73h1M12 74h1M17 74h1M5 75h1M7 75h1M11 75h2M18 75h1M26 75h1M37 75h1M11 76h1M17 76h1M22 76h1M11 77h1M13 77h1M17 77h1M23 77h1M26 77h1M17 78h1M22 78h1M26 78h1M26 79h1M28 79h1M17 80h1M28 81h1M17 82h1M28 82h1M3 83h1M17 83h1M21 83h1M23 83h1M1 84h4M6 84h1M9 84h1M17 84h1M21 84h1M26 84h1M0 85h5M9 85h1M19 85h1M0 86h2M3 86h2M7 86h1M0 87h2M3 87h2M25 87h1M0 88h2M3 88h1M11 88h1M23 88h2M26 88h1M0 89h1M3 89h1M23 89h2M3 90h1M23 90h2M3 91h1M23 91h2M26 91h1M3 92h1M23 92h2M3 93h2M24 93h1M28 93h1M3 94h2M6 94h1M23 94h2M6 95h1M9 95h1M23 95h2M23 96h1M25 96h1M2 97h2M7 98h1M5 99h1M1 100h1M19 101h1M13 106h1M7 116h1M8 117h1" />
<path stroke="#080907" d="M6 2h1M24 2h1M3 6h1M1 7h3M1 8h3M1 9h3M25 9h1M1 10h1M3 10h2M6 10h1M5 11h2M4 12h2M6 13h1M6 14h1M37 16h1M6 17h1M8 17h1M8 18h1M8 19h1M10 20h1M11 23h1M8 24h1M21 25h1M4 26h1M15 26h1M4 28h1M26 28h1M4 35h1M3 36h2M3 37h2M8 37h1M3 38h2M3 40h2M3 41h2M3 42h2M3 43h2M10 43h1M3 44h1M9 44h1M18 44h1M3 45h1M18 45h1M3 46h2M8 46h2M18 46h1M8 47h2M14 47h1M18 47h1M8 48h1M14 48h1M2 49h1M8 49h1M14 49h1M2 50h3M6 50h1M8 50h1M14 50h1M25 50h1M2 51h3M14 51h2M21 51h1M2 52h3M21 52h1M2 53h1M4 53h1M4 54h1M4 56h1M12 56h1M1 58h1M8 59h1M1 60h1M10 60h1M12 60h1M1 61h1M1 62h1M1 63h1M1 64h1M12 69h1M7 70h1M12 70h1M11 72h2M7 73h1M18 74h1M28 77h1M23 78h1M19 82h1M2 83h1M19 83h1M5 84h1M17 85h1M9 86h1M12 86h1M17 86h1M18 88h1M18 89h1M2 92h1M4 92h1M23 93h1M4 95h1M5 96h1M8 96h1M9 97h1M23 97h1M25 97h1M8 101h1M17 101h1M5 105h1M7 106h1" />
<path stroke="#121510" d="M26 2h1M39 2h1M26 5h1M35 7h1M36 9h1M10 11h1M41 17h1M4 18h1M34 18h2M23 19h1M36 19h1M30 20h1M17 22h1M33 23h1M43 24h1M34 27h1M38 27h1M9 29h1M11 29h1M33 33h1M31 34h1M38 40h1M37 41h2M48 46h1M44 48h1M47 50h2M39 53h1M40 55h1M14 60h1M43 62h1M30 63h1M42 65h1M58 69h1M53 73h1M63 73h1M50 74h1M63 74h1M53 75h1M63 75h1M63 76h1M31 77h1M63 78h1M64 79h1M62 80h1M64 80h1M10 82h1M37 85h1M54 86h1M55 87h1M58 87h1M37 88h1M53 88h1M27 91h1M61 91h1M11 94h1M58 94h1M55 95h1M57 95h2M11 97h1M61 97h1M10 98h1M15 98h1M13 99h1M16 100h1M18 101h1M40 101h1M56 102h1M39 103h1M52 104h1M55 104h1M57 104h1M12 105h1M23 105h1M52 105h1M8 106h1M44 107h2M56 107h1M18 108h1M31 110h1M47 111h2M1 115h1M12 115h1" />
<path stroke="#0e100c" d="M33 2h1M36 2h1M33 3h1M37 3h1M25 4h1M39 4h1M27 5h1M38 5h1M17 6h1M8 10h1M27 11h1M32 14h1M32 15h3M31 16h1M30 17h1M33 19h1M22 20h1M25 20h1M28 20h1M33 20h1M35 21h1M42 21h1M0 22h1M39 23h1M40 24h1M41 25h2M30 31h1M35 32h2M41 32h1M12 34h1M21 34h1M40 37h1M36 39h1M33 40h1M35 40h1M34 42h1M43 44h1M42 46h1M36 47h1M38 55h1M35 56h1M37 61h1M49 64h1M39 65h2M41 69h1M48 70h1M23 75h1M27 76h1M8 78h1M27 79h1M27 82h1M4 83h1M45 86h1M46 87h1M27 88h1M35 88h1M35 89h1M12 90h1M52 90h1M5 92h1M33 93h1M12 97h1M21 98h1M27 99h1M34 99h1M11 100h1M23 100h1M27 100h1M2 101h1M11 101h1M27 101h1M1 102h1M4 102h1M36 102h1M39 102h1M11 103h1M26 103h1M34 103h1M25 104h1M28 104h1M42 104h1M10 105h1M50 105h1M3 106h1M12 107h1M14 107h1M51 107h1M17 108h1" />
<path stroke="#11130e" d="M38 2h1M26 3h1M39 3h1M14 5h1M11 6h1M40 6h1M32 7h1M9 8h1M29 8h1M32 8h1M29 9h1M32 9h1M0 16h1M32 20h1M28 21h1M41 22h1M43 22h1M38 23h1M5 30h1M36 31h1M30 33h1M34 37h1M41 38h1M41 39h1M35 41h1M43 45h1M44 55h1M36 56h1M35 57h1M42 59h1M44 65h1M34 66h1M41 68h1M48 69h1M50 69h1M49 70h1M53 70h1M51 74h1M21 76h1M51 76h1M9 81h1M18 85h1M36 87h1M54 88h1M50 89h1M54 89h1M36 90h1M64 90h1M60 91h1M62 91h1M27 92h1M62 92h1M56 94h1M38 96h1M38 99h1M62 99h1M42 102h1M37 103h1M47 103h1M41 104h1M45 104h2M60 104h1M1 105h1M8 105h1M17 105h1M28 105h1M42 105h1M53 105h1M49 106h1M38 107h1M58 107h1M15 108h1M29 109h1M35 110h1M11 113h1M2 121h1M4 121h1" />
<path stroke="#4b5542" d="M40 2h1M46 20h2M45 21h5M46 22h4M47 23h5M54 23h4M48 24h6M55 24h5M49 25h15M49 26h16M49 27h16M49 28h16M50 29h15M51 30h7M60 30h5M53 31h2M63 31h2M64 32h1M51 41h1M49 42h1M64 42h1M49 43h3M62 43h3M52 44h1M61 44h4M53 45h2M59 45h6M60 46h5M61 47h4M63 48h2M64 57h1M64 61h1" />
<path stroke="#1f221b" d="M33 4h1M31 10h1M34 11h2M33 12h2M32 13h2M41 15h1M32 21h1M30 23h1M31 24h1M36 25h1M39 27h1M42 31h1M40 33h1M38 34h2M42 34h1M37 35h1M34 36h1M40 47h1M63 52h1M49 54h1M62 55h1M40 56h1M40 57h1M28 60h1M29 62h1M42 62h1M28 63h1M51 65h1M58 65h1M48 66h1M59 66h1M51 67h1M28 73h1M57 73h1M55 77h1M60 77h1M29 78h1M35 78h1M51 78h1M60 81h1M52 82h2M60 82h1M42 83h1M59 83h1M61 85h1M64 86h1M53 87h1M58 88h1M39 89h1M46 89h1M59 90h1M43 91h1M55 91h1M38 92h1M43 92h1M45 92h1M61 92h1M37 93h1M41 93h1M42 94h1M50 94h1M42 95h3M51 95h1M28 96h1M41 96h1M60 96h1M59 97h1M64 97h1M52 98h1M51 99h2M49 100h2M56 100h1M61 100h1M46 101h1M3 102h1M55 102h1M58 103h1M4 104h1M40 105h1M57 105h1M15 106h1M22 106h1M34 106h1M57 106h1M62 106h1M1 107h2M29 107h2M7 108h2M10 108h1M12 108h1M54 108h1M6 109h1M34 109h1M37 109h1M41 109h1M56 109h1M18 110h1M49 110h2M58 110h1M13 111h3M39 111h1M12 112h2M22 112h1M24 112h1M33 112h1M50 112h1M9 113h1M41 113h1M47 113h2M52 113h1M1 114h1M9 114h3M14 114h1M17 114h3M21 114h3M31 114h1M33 114h1M39 114h1M14 115h1M17 115h2M21 115h3M31 115h1M59 115h1M62 115h2M8 116h1M11 116h2M15 116h1M21 116h1M62 116h1M38 117h1M54 117h2M58 117h3M63 117h1M0 118h3M29 118h1M32 118h1M52 118h1M54 118h2M62 118h1M64 118h1M0 119h7M14 119h3M33 119h1M49 119h4M58 119h1M1 120h1M3 120h1M17 120h1M49 120h1M51 120h1M59 120h1M12 121h1M16 121h1M47 121h2M48 122h3M52 122h1M11 123h1M47 123h3M55 124h1M58 124h1M1 125h1M5 125h2M8 125h1M51 125h4M3 126h1M5 126h1M49 126h1M6 127h1M52 127h1" />
<path stroke="#1d2119" d="M33 5h1M33 6h2M34 7h1M17 9h1M19 10h1M36 10h1M21 11h1M31 12h1M36 15h1M27 22h1M27 23h2M31 23h1M31 25h1M35 25h1M33 26h1M35 26h1M44 26h1M39 28h1M18 29h1M40 30h1M31 33h1M32 34h1M32 35h1M39 51h1M47 53h1M56 54h1M39 55h1M38 58h1M40 60h1M39 61h1M47 61h1M41 63h1M28 64h1M48 64h1M46 65h2M57 65h1M49 66h1M50 67h1M52 67h1M53 68h1M54 69h1M51 71h1M60 71h1M58 72h1M61 72h1M28 75h1M30 75h1M57 75h1M57 76h1M29 77h1M53 81h1M51 82h1M38 85h1M53 85h1M52 86h1M40 88h1M38 89h1M55 90h1M59 91h1M13 92h1M36 92h1M36 93h1M42 93h1M44 94h2M40 95h1M18 97h1M61 98h1M57 99h2M60 99h1M44 100h2M50 102h1M55 103h1M19 104h1M61 104h1M41 105h1M39 106h1M56 106h1M19 107h1M48 107h1M50 107h1M3 108h1M9 108h1M20 108h1M29 108h1M51 108h1M55 108h1M7 109h1M42 109h1M46 109h1M39 110h1M43 110h1M45 110h1M57 110h1M30 111h1M33 111h1M38 111h1M15 112h1M37 112h1M49 112h1M51 112h1M0 113h1M26 113h1M33 113h1M43 113h1M46 113h1M15 114h1M34 114h1M37 114h1M40 114h1M7 115h1M11 115h1M33 115h1M58 115h1M4 116h1M16 116h1M5 117h1M11 117h1M26 117h1M39 117h1M5 118h1M8 118h1M24 119h1M53 119h1M55 119h1M59 119h1M5 120h1M16 120h1M52 120h1M54 120h2M60 120h1M9 121h2M9 124h1M9 125h1M47 125h1M47 127h1" />
<path stroke="#3e4636" d="M34 5h1M45 47h1M62 109h1M62 110h1M62 111h1M54 112h2M63 112h1M59 113h1M53 114h3M46 115h9M46 116h5M43 117h3M45 118h1M22 120h1M27 120h2M33 120h1M43 120h1M22 121h1M24 121h2M21 122h1M45 122h1M19 123h1M23 123h1M39 123h3M0 124h1M2 124h1M5 124h1M22 124h1M29 124h2M17 125h1M20 125h1M28 125h6M14 126h1M17 126h3M28 126h1M16 127h3" />
<path stroke="#545f49" d="M35 5h1M43 16h1M39 25h1M38 38h1M59 41h1M59 42h1M55 43h1M55 45h1M53 50h1M52 51h1" />
<path stroke="#2b3025" d="M43 5h1M41 7h1M45 37h1M36 115h1M24 117h1M25 118h1M18 120h1M11 122h1M59 122h1M30 123h1M25 125h1" />
<path stroke="#535e49" d="M36 6h1M41 14h1M42 15h1M39 18h1M33 22h1M35 23h1M38 24h1M40 26h1M42 33h1M45 35h1M38 37h1M59 37h1M37 38h1M46 39h1M49 39h1M39 40h1M44 40h2M60 40h1M56 41h2M54 43h1M51 48h2M50 49h1M52 49h1M50 50h3M51 51h1M53 51h1M64 52h1" />
<path stroke="#070806" d="M24 7h1M5 10h1M4 11h1M6 12h1M4 13h1M6 15h1M6 16h1M10 21h1M15 24h1M4 27h1M4 39h1M4 44h1M4 45h1M1 49h1M12 54h1M1 55h1M12 55h1M1 56h1M1 57h1M9 65h1M7 74h1M28 78h1M5 83h1M10 86h1M19 86h1M11 89h1M19 90h1M28 91h1M28 92h1M19 93h1M2 94h1M2 95h1M7 96h1M6 101h1M24 108h1M14 109h1" />
<path stroke="#525d48" d="M36 7h1M40 27h1M43 33h1M47 37h1M48 38h1M47 39h1M46 40h2M56 40h1M43 41h2M44 42h1M56 42h1M44 43h1M60 43h1M49 46h1M60 48h1M51 49h1M50 51h1M62 51h1M61 52h1" />
<path stroke="#525c47" d="M37 7h1M37 11h1M39 12h1M43 15h1M44 16h1M44 17h1M42 18h4M40 19h1M44 19h1M44 32h1M44 33h2M60 33h1M44 34h2M59 34h1M59 35h1M46 36h2M57 36h1M59 36h2M48 37h1M42 38h1M49 38h1M57 38h1M50 39h1M60 39h1M48 40h2M51 40h1M61 40h1M45 41h4M52 41h1M61 41h1M45 42h3M54 42h2M60 42h1M45 43h2M50 47h1M50 48h1M61 49h1M61 50h2M64 50h1M61 51h1M64 51h1M55 52h1M62 52h1M61 53h1" />
<path stroke="#262b21" d="M40 7h1M63 51h1M52 62h1M49 88h1M48 89h1M29 116h1M45 121h1M58 123h1M42 124h1M11 125h1M12 126h1" />
<path stroke="#272d23" d="M42 7h1M57 109h1M35 115h1M25 117h1M18 124h1" />
<path stroke="#404938" d="M43 7h1M63 109h1M59 112h4M55 113h1M64 113h1M57 114h2M62 114h2M43 119h1M24 123h1M24 124h2M23 126h1" />
<path stroke="#454f3d" d="M36 8h1M53 60h1" />
<path stroke="#20241c" d="M37 12h1M40 14h1M46 25h2M38 26h1M47 26h1M40 28h1M42 29h1M41 36h1M39 48h2M42 48h1M40 49h1M41 50h1M40 52h1M48 52h1M40 53h1M45 53h1M48 53h1M57 53h1M44 54h1M47 54h1M41 55h1M43 55h1M59 56h1M58 57h1M40 58h2M57 58h1M56 59h1M28 61h1M41 61h1M49 62h1M53 63h1M58 63h4M53 64h1M52 65h1M58 67h1M60 70h1M59 72h1M52 73h1M58 73h1M62 73h1M62 74h1M59 75h1M54 77h1M52 78h1M52 79h1M61 81h1M53 83h1M61 83h1M62 84h1M40 85h1M39 86h2M40 89h1M59 89h1M39 90h1M38 91h1M56 91h1M39 92h1M38 93h1M49 93h2M56 93h1M61 94h1M45 95h1M52 95h2M60 95h1M44 96h1M62 96h1M42 97h1M58 98h1M46 99h2M59 99h1M46 100h3M53 100h2M47 101h2M50 101h2M60 101h1M61 102h1M52 103h1M62 103h1M62 104h1M58 105h2M63 105h1M40 106h2M18 107h1M4 108h1M32 108h1M4 109h2M9 109h2M12 109h1M20 109h1M23 109h1M3 110h2M7 110h5M23 110h1M25 110h1M34 110h1M41 110h1M0 111h12M19 111h1M21 111h1M43 111h1M1 112h9M23 112h1M26 112h4M32 112h1M39 112h1M42 112h1M1 113h1M5 113h4M27 113h3M37 113h1M50 113h2M8 114h1M26 114h2M29 114h2M9 115h1M16 115h1M24 115h2M30 115h1M37 115h1M33 116h1M56 116h3M60 116h1M64 116h1M9 117h1M37 117h1M40 117h1M56 117h2M48 118h1M51 118h1M57 120h1M31 121h1M54 121h1M0 122h1M6 123h1M10 124h1M53 124h1M57 125h1M4 126h1M48 126h1M52 126h2M44 127h3M49 127h3M55 127h1" />
<path stroke="#485240" d="M38 12h1M41 20h1M64 58h1" />
<path stroke="#23271e" d="M36 13h1M38 14h1M38 15h1M40 15h1M45 23h1M47 24h1M41 29h1M42 35h1M40 36h1M43 37h1M42 50h2M60 50h1M41 51h1M43 51h1M49 51h1M58 52h1M50 54h1M43 56h1M42 57h1M58 58h3M59 59h1M51 60h1M59 60h1M50 62h1M50 63h1M54 63h1M53 65h1M59 65h1M61 65h1M54 67h1M59 71h1M60 72h1M59 73h1M59 74h1M61 75h1M54 78h2M53 79h1M55 83h1M42 84h2M55 85h1M63 85h1M41 86h1M41 87h1M41 89h1M41 90h1M42 91h1M44 91h1M42 92h1M47 92h5M57 93h1M62 93h1M62 94h1M64 94h1M46 96h2M46 97h3M53 97h2M48 98h2M54 98h1M49 99h1M53 101h1M63 103h1M63 104h2M3 105h1M61 106h1M40 107h2M63 108h1M22 109h1M59 110h1M25 111h1M45 114h1M4 115h1M36 117h1M7 118h1M33 118h1M41 118h1M43 118h1M23 119h1M35 119h1M46 119h1M13 123h1M51 123h1" />
<path stroke="#22261d" d="M38 13h2M37 14h1M32 22h1M40 35h1M43 48h1M42 49h1M45 49h1M60 52h1M42 53h1M49 53h1M48 54h1M57 54h1M57 55h2M50 56h1M41 57h1M52 57h1M61 58h1M50 61h1M61 64h1M52 66h3M62 67h1M58 74h1M62 75h1M53 80h1M58 80h1M54 82h1M61 82h1M54 84h1M63 84h1M41 85h1M62 86h1M40 87h1M40 90h1M40 91h2M47 91h1M40 92h2M44 92h1M57 92h1M48 93h1M45 96h1M52 96h1M44 97h2M56 97h1M45 98h3M56 98h1M55 99h1M52 101h1M52 102h2M60 105h1M60 106h1M60 107h1M22 108h1M20 111h1M41 112h1M45 112h1M61 113h1M5 115h1M26 115h1M29 115h1M6 117h1M30 118h1M35 118h1M40 118h1M42 118h1M25 119h1M34 119h1M47 119h1M61 120h1M18 121h1M51 124h1M61 124h1M0 126h1M10 126h1M54 126h1M5 127h1M54 127h1M56 127h1" />
<path stroke="#242920" d="M40 13h1M37 23h1M45 24h1M41 28h1M41 35h1M39 36h1M42 37h1M48 51h1M43 52h1M58 53h1M60 55h1M61 59h1M51 61h2M51 62h1M50 64h1M61 66h1M60 67h1M62 70h1M56 78h1M55 79h2M55 80h2M56 81h2M56 82h1M56 84h1M56 85h4M57 86h3M42 87h1M44 87h1M41 88h3M43 89h2M47 89h1M43 90h1M50 90h1M45 91h1M49 91h1M62 95h2M64 96h1M23 108h1M21 110h2M24 111h1M56 111h1M39 116h1M55 116h1" />
<path stroke="#252a21" d="M39 14h1M36 24h1M46 24h1M43 36h1M46 49h1M59 52h1M59 53h2M58 54h2M51 56h1M61 60h1M51 63h1M60 66h1M61 67h1M57 79h1M54 80h1M55 81h1M59 81h1M57 82h1M60 83h1M59 84h1M43 87h1M44 88h1M49 89h1M44 90h2M47 90h3M63 96h1M58 109h1M23 111h1M37 118h1M40 119h1M5 122h1M13 124h1M43 124h2M41 125h1" />
<path stroke="#23281f" d="M39 15h1M43 30h1M43 35h1M38 36h1M42 36h1M44 50h1M44 52h1M43 53h2M62 53h1M60 59h1M60 60h1M53 62h1M60 65h1M53 67h1M61 68h2M61 69h2M60 73h2M60 74h2M54 79h1M58 81h1M62 81h1M62 82h1M56 83h3M55 84h1M57 84h2M42 85h2M64 85h1M42 86h3M56 86h1M45 87h1M42 89h1M42 90h1M48 91h1M50 91h1M63 94h1M64 95h1M57 98h1M17 106h2M42 107h1M61 107h1M21 109h1M32 121h1M60 122h1M14 123h1M60 124h1M11 126h1M24 126h1M62 126h1" />
<path stroke="#424b3a" d="M37 17h1M34 23h1M60 47h1M62 54h1M46 120h1" />
<path stroke="#060706" d="M38 17h1M4 20h1M1 50h1M1 54h1M10 88h1M11 90h1M2 93h1M17 99h1M9 101h1M0 115h1" />
<path stroke="#292e24" d="M31 21h1M51 53h1M52 55h1M63 86h1M57 115h1M31 116h2M27 117h1M57 121h1M7 122h1M19 122h1M36 122h1M38 123h1M59 125h1M64 125h1M6 126h1M32 127h1" />
<path stroke="#282d23" d="M46 23h1M34 115h1M28 118h1M63 119h1M44 121h1M56 121h1M9 123h1M31 126h1" />
<path stroke="#47513e" d="M37 24h1M49 47h1" />
<path stroke="#21251d" d="M44 24h1M48 25h1M48 26h1M42 30h1M38 35h2M45 36h1M41 49h1M43 49h1M42 54h1M49 56h1M59 57h1M57 59h2M49 61h1M43 63h1M59 64h2M60 69h1M28 72h1M61 77h1M53 78h1M54 83h1M54 85h1M62 85h1M62 87h1M60 89h1M46 90h1M39 91h1M46 91h1M46 92h1M56 92h1M40 93h1M44 93h2M51 93h1M61 93h1M61 95h1M48 96h1M53 96h2M43 97h1M28 98h1M43 98h1M53 98h1M28 99h1M56 99h1M52 100h1M60 100h1M54 101h1M62 101h1M54 103h1M64 103h1M59 106h1M21 108h1M24 110h1M42 110h1M22 111h1M42 111h1M0 112h1M40 112h1M44 112h1M46 112h1M2 113h3M38 113h1M49 113h1M3 114h5M41 114h2M6 115h1M27 115h2M27 116h1M37 116h1M34 118h1M8 119h1M39 119h1M36 120h1M12 123h1M45 123h1M59 124h1M0 125h1M56 125h1M58 126h1M43 127h1M48 127h1" />
<path stroke="#55604a" d="M38 25h1M39 26h1M47 38h1M38 39h1M39 41h1M53 48h1M53 49h3M54 50h1M53 52h2" />
<path stroke="#272c22" d="M40 25h1M44 36h1M44 37h1M49 52h1M50 53h1M60 54h1M52 56h1M52 63h1M46 114h1M24 118h1M48 119h1M29 121h1M40 125h1M64 126h1M4 127h1" />
<path stroke="#4c5642" d="M42 26h1M45 27h1M47 27h2M46 28h1M51 44h1M52 45h1" />
<path stroke="#4d5844" d="M43 27h1M43 28h2M44 29h4M43 34h1M43 40h1M49 44h1M49 45h3M52 46h1M54 46h1M53 47h1M46 48h1" />
<path stroke="#4a5441" d="M46 27h1M49 41h2M50 42h2M52 43h2M53 44h2M47 48h1M49 48h1" />
<path stroke="#3b4234" d="M44 35h1M61 110h1M52 112h1M59 114h2M40 115h1M45 115h1M43 116h1M31 120h1M35 120h1M30 122h1M35 122h1M42 122h1M46 122h1M33 123h2M15 124h1M17 124h1M48 124h2M38 126h1M43 126h1M15 127h1M35 127h1" />
<path stroke="#57634c" d="M39 38h1M52 53h1" />
<path stroke="#383f31" d="M40 38h1M60 109h1M47 114h1M44 116h1M34 117h2M22 119h1M61 119h1M29 120h1M28 121h1M58 121h1M18 122h1M39 122h1M62 122h1M28 124h1M50 124h1M39 125h1M45 125h1M26 126h1M32 126h1M11 127h1M13 127h1M25 127h1M29 127h1M37 127h1M61 127h1" />
<path stroke="#56614b" d="M39 39h1M39 42h1M53 53h1" />
<path stroke="#2a2f25" d="M42 39h1M43 58h1M30 116h1M30 120h1M14 121h1M55 121h1M8 122h1M8 123h1M41 124h1M26 125h1M27 127h1" />
<path stroke="#414a39" d="M44 39h1M61 114h1M51 117h1M47 118h1M43 123h1" />
<path stroke="#495340" d="M48 42h1M52 42h1M53 55h1" />
<path stroke="#2f3629" d="M48 43h1M34 116h2M28 119h1M13 121h1M63 123h1" />
<path stroke="#2f3529" d="M48 44h1M41 122h1M62 124h1" />
<path stroke="#30372a" d="M44 45h1M51 52h1M28 117h1M29 119h1M55 123h1M32 124h1M25 126h1M56 126h1M63 126h1M59 127h1" />
<path stroke="#2d3327" d="M58 45h1M60 119h1M1 122h1M4 123h1M44 123h1M14 127h1" />
<path stroke="#363d2f" d="M47 46h1M60 51h1M60 110h1M62 113h1M31 117h1M33 117h1M26 119h1M38 119h1M47 120h1M62 120h2M37 122h1M54 123h1M3 124h1M61 125h2M45 126h1M0 127h1M10 127h1M42 127h1M63 127h2" />
<path stroke="#060605" d="M1 51h1M1 52h1M1 53h1M10 87h1M25 109h1" />
<path stroke="#3a4133" d="M52 52h1M38 115h1M30 119h1M32 119h1M37 119h1M19 120h1M64 120h1M34 121h1M63 121h2M31 122h1M56 122h1M16 123h2M56 123h1M64 123h1M6 124h1M16 124h1M34 124h1M38 125h1M42 126h1M22 127h2M31 127h1M36 127h1" />
<path stroke="#32392c" d="M52 54h1M41 127h1M57 127h1" />
<path stroke="#3d4536" d="M54 54h1M53 112h1M53 113h1M50 114h3M44 118h1M31 119h1M44 119h1M21 120h1M23 120h1M25 120h1M32 120h1M34 120h1M39 120h1M41 120h1M20 121h2M37 121h1M40 121h1M60 121h1M20 122h1M28 122h1M44 122h1M60 123h2M12 125h1M15 125h1M18 125h1M13 126h1M20 126h1M30 126h1M1 127h1M19 127h1" />
<path stroke="#373e30" d="M61 54h1M64 54h1M45 116h1M42 117h1M61 121h1M14 122h1M29 123h1M14 124h1M52 124h1M63 124h1M62 127h1" />
<path stroke="#444d3b" d="M64 55h1" />
<path stroke="#48513f" d="M54 57h1M64 59h1" />
<path stroke="#333a2d" d="M52 60h1M64 112h1M26 121h1M43 121h1M40 122h1M61 122h1M36 123h1M8 124h1M12 124h1M39 124h1M44 125h1M63 125h1M57 126h1M59 126h1M33 127h1M53 127h1" />
<path stroke="#050504" d="M19 91h1M19 92h1M4 99h1" />
<path stroke="#394132" d="M61 109h1M62 119h1M64 119h1M19 121h1M16 122h2M55 122h1M1 123h1M53 123h1M4 124h1M31 124h1M64 124h1M37 125h1M42 125h1M39 126h3M44 126h1M46 126h2M12 127h1M34 127h1" />
<path stroke="#404838" d="M64 109h1M64 110h1M61 111h1M58 112h1M56 113h1M55 115h2M52 116h2M49 117h2M46 118h1M45 120h1M25 123h3M42 123h1M26 124h2" />
<path stroke="#3f4737" d="M63 110h1M59 111h2M63 111h2M56 112h2M57 113h2M63 113h1M56 114h1M64 114h1M51 116h1M54 116h1M46 117h3M44 120h1M23 121h1M38 121h2M22 122h6M20 123h3M28 123h1M1 124h1M20 124h2M23 124h1M13 125h1M22 125h3M27 125h1M21 126h2" />
<path stroke="#32382b" d="M57 111h1M33 124h1M30 127h1" />
<path stroke="#3c4334" d="M58 111h1M48 114h1M41 115h2M42 116h1M20 120h1M27 121h1M35 121h1M58 122h1M63 122h1M31 123h1M57 123h1M59 123h1M19 124h1M47 124h1M36 125h1M46 125h1M33 126h2M36 126h2M21 127h1M24 127h1M28 127h1" />
<path stroke="#3d4435" d="M54 113h1M49 114h1M39 115h1M43 115h2M41 119h2M45 119h1M24 120h1M26 120h1M40 120h1M42 120h1M36 121h1M41 121h2M59 121h1M29 122h1M32 122h3M43 122h1M57 122h1M0 123h1M18 123h1M32 123h1M62 123h1M35 124h1M45 124h2M4 125h1M14 125h1M16 125h1M19 125h1M34 125h2M15 126h2M29 126h1M35 126h1M3 127h1M20 127h1M26 127h1" />
<path stroke="#31372b" d="M60 113h1M29 117h1M38 120h1M12 122h1M35 123h1M8 126h1M27 126h1M8 127h1" />
<path stroke="#394031" d="M40 116h2M27 119h1M30 121h1M62 121h1M15 122h1M38 122h1M7 124h1M36 124h1M38 124h1" />
<path stroke="#353c2f" d="M30 117h1M32 117h1M2 123h1M15 123h1M60 126h1M60 127h1" />
<path stroke="#2e3428" d="M26 118h1M36 118h1M37 123h1M37 124h1M10 125h1M43 125h1M61 126h1M7 127h1" />
<path stroke="#2b3126" d="M27 118h1M64 122h1M52 123h1M9 126h1" />
<path stroke="#343b2e" d="M38 118h1M13 122h1M3 123h1M46 123h1M21 125h1M60 125h1M9 127h1M58 127h1" />
<path stroke="#2c3227" d="M33 121h1M40 124h1M7 126h1M55 126h1" />
<path stroke="#434c3a" d="M2 127h1" />
</svg>