<svg xmlns="http://www.w3.org/2000/svg" viewBox="0 -0.5 65 128" shape-rendering="crispEdges">
<metadata>Made with Pixels to Svg https://codepen.io/shshaw/pen/XbxvNj</metadata>
<path stroke="#4b5941" d="M0 0h6M8 0h18M28 0h4M0 1h7M8 1h23M14 2h1M22 2h5M28 2h5M29 3h1M32 3h1M32 4h2M0 5h1M0 12h2M0 13h3M35 13h1M34 14h1M36 14h1M54 14h1M36 15h3M52 15h1M0 16h6M38 16h3M2 17h8M39 17h3M0 18h11M54 18h1M63 18h2M0 19h4M7 19h4M41 19h1M53 19h1M0 20h13M14 20h1M23 20h1M0 21h14M15 21h1M0 22h4M6 22h6M16 22h1M0 23h4M9 23h4M0 24h4M10 24h1M60 24h1M0 25h2M12 25h1M55 25h1M60 25h1M0 26h2M15 26h2M47 26h1M50 26h1M17 27h2M45 27h1M53 27h1M17 28h2M44 28h2M61 28h1M63 29h2M0 30h1M2 30h1M60 30h1M1 31h1M14 31h3M0 32h5M8 32h1M15 32h3M0 33h8M15 33h2M0 34h6M9 34h1M15 34h3M1 35h6M16 35h3M2 36h2M5 36h1M15 36h1M17 36h2M2 37h1M4 37h3M16 37h3M4 38h4M16 38h2M7 39h3M17 39h1M7 40h1M17 40h2M19 41h1M42 41h1M19 42h1M48 42h1M50 42h1M18 43h1M48 43h1M17 44h2M46 44h3M16 45h2M46 45h3M1 46h1M7 46h1M16 46h2M20 46h2M45 46h1M50 46h2M17 47h1M19 47h1M21 47h1M50 47h1M52 47h2M4 48h1M16 48h3M20 48h2M44 48h1M50 48h2M64 48h1M18 49h3M42 49h3M50 49h3M20 50h2M40 50h1M44 50h1M50 50h3M50 51h3M39 52h1M52 52h2M44 53h1M50 53h3M17 54h1M39 54h2M43 54h1M51 54h1M40 55h1M50 55h1M40 56h3M49 59h1" />
<path stroke="#4a5840" d="M6 0h2M26 0h2M32 0h8M44 0h1M61 0h1M7 1h1M31 1h8M0 2h9M27 2h1M33 2h6M45 2h2M0 3h7M25 3h4M33 3h2M0 4h6M26 4h4M1 5h4M27 5h3M27 6h3M29 7h1M27 11h3M13 12h3M24 12h5M51 12h1M12 13h6M22 13h7M36 13h3M41 13h1M47 13h5M0 14h7M11 14h17M35 14h1M37 14h15M61 14h1M0 15h27M39 15h13M6 16h20M41 16h12M10 17h16M42 17h12M11 18h14M41 18h7M50 18h1M52 18h2M11 19h14M42 19h6M49 19h4M13 20h1M15 20h8M42 20h11M14 21h1M16 21h7M43 21h2M46 21h1M12 22h4M17 22h5M44 22h2M13 23h8M44 23h2M61 23h1M11 24h9M45 24h1M13 25h9M45 25h2M49 25h2M61 25h1M17 26h5M45 26h2M48 26h2M52 26h3M61 26h1M16 27h1M19 27h3M46 27h1M61 27h3M19 28h3M62 28h3M0 29h2M19 29h2M19 30h1M13 31h1M17 31h3M18 32h2M8 33h2M17 33h2M6 34h3M18 34h1M43 34h1M7 35h3M43 35h1M6 36h4M7 37h3M8 38h1M18 38h1M0 39h1M18 39h2M61 39h1M19 40h1M42 40h1M56 40h1M62 40h1M41 41h1M43 41h1M55 41h1M63 41h1M20 42h1M43 42h1M45 42h2M49 42h1M53 42h1M63 42h1M19 43h2M49 43h2M19 44h3M49 44h3M18 45h4M49 45h3M2 46h1M18 46h2M48 46h2M52 46h1M18 47h1M20 47h1M49 47h1M51 47h1M19 48h1M52 48h1M21 49h1M55 49h1M41 50h3M39 51h2M42 51h2M40 52h3M40 53h4M41 54h2M53 54h1M5 55h1M17 55h1M41 55h3M21 57h1M43 58h1M41 59h1" />
<path stroke="#49573f" d="M40 0h2M43 0h1M60 0h1M39 1h3M43 1h1M39 2h4M47 2h1M44 6h1M42 8h1M48 11h1M48 12h1M39 13h1M26 16h1M48 18h2M51 18h1M48 19h1M61 24h1M62 25h1M62 26h2M64 27h1M44 30h1M43 33h1M43 36h1M60 37h1M43 38h1M61 38h1M43 39h1M56 39h1M62 39h1M43 40h1M1 41h1M64 41h1M44 42h1M5 43h1M21 43h1M0 45h1M64 45h1M6 47h1M41 51h1M54 53h1M18 55h1M50 56h1M45 57h1" />
<path stroke="#48563e" d="M42 0h1M42 1h1M44 2h1M43 13h1M63 25h2M64 26h1M0 27h1M60 31h1M43 32h1M60 33h1M60 35h1M60 36h1M44 41h1M64 42h1M64 43h1M1 45h1M4 47h1M53 53h1" />
<path stroke="#060904" d="M45 0h1M48 0h1M44 1h1M52 6h1M63 6h1M57 7h1M63 7h1M43 8h1M48 9h2M47 11h1M59 12h1M29 13h1M28 15h1M60 16h1M26 18h1M57 18h1M59 19h1M59 20h1M24 21h2M23 22h1M26 25h1M59 27h1M59 28h1M58 29h2M58 30h2M23 31h1M41 31h1M58 31h2M21 32h3M58 32h1M22 33h1M58 35h2M58 36h2M58 37h1M42 38h1M36 39h1M58 39h1M28 40h1M29 41h1M40 41h1M57 41h1M57 42h1M24 43h1M40 43h1M27 44h1M29 44h1M29 45h1M22 46h1M29 47h1M23 48h2M24 52h1M32 52h1M57 54h1M26 55h1M57 55h1M24 56h1M24 57h1M18 59h1M18 61h1M31 61h1M24 62h1M26 62h1M31 62h1M0 64h1M24 65h1M22 66h1M25 66h1M28 66h1M0 67h1M4 70h1M34 70h1M33 72h1M16 73h2M2 74h1M17 74h1M36 74h1M2 75h2M3 76h1M31 76h1M32 78h1M0 79h1M4 83h1M60 83h1M64 84h1M20 86h1M31 86h1M60 86h1M10 87h1M25 87h1M60 87h1M1 88h1M20 88h2M60 88h1M5 89h1M5 90h1M21 90h1M3 91h3M14 91h1M16 91h1M5 92h2M5 93h2M4 94h1M17 94h1M60 94h1M60 95h1M8 96h1M19 96h1M15 98h1M15 99h1M16 101h2M23 104h1M1 105h1M7 105h1M13 105h1M7 106h1M11 107h1M63 107h1M14 108h1M52 108h1M54 108h2M0 111h1M62 111h1M64 112h1M54 113h2M59 114h1M63 114h1M49 117h1M39 119h1M45 119h1M62 119h1M41 120h1M34 122h2M37 125h1M62 127h1" />
<path stroke="#29371f" d="M46 0h1M57 0h1M52 42h1M35 52h1M36 53h1M35 54h1M38 57h1M21 58h1M29 61h1M27 69h1M43 80h1M44 104h1M12 110h1M14 113h1M40 114h1M42 114h1M22 115h1M31 120h1M22 122h1M4 123h1M11 125h1M16 125h1M25 126h3M12 127h1M23 127h1" />
<path stroke="#324028" d="M47 0h1M39 12h1M62 16h1M44 57h1M43 104h1M28 105h1M28 106h1M27 111h1M38 111h1M4 112h1M49 112h1M31 113h1M36 113h1M42 113h1M33 114h1M25 115h1M20 118h1M30 118h1M20 120h1M15 121h2M18 123h2M25 123h2" />
<path stroke="#030402" d="M49 0h1M52 0h1M54 0h1M61 1h4M53 2h1M58 2h3M53 3h1M60 3h1M51 6h1M45 7h3M44 8h4M64 8h1M42 9h2M45 9h1M41 10h1M44 10h1M42 11h1M44 11h1M41 12h1M45 12h1M26 17h1M34 17h1M58 21h1M61 21h2M28 22h1M49 22h1M25 23h1M25 24h1M48 24h1M52 24h1M25 25h1M26 28h1M57 33h1M32 38h1M28 39h1M32 41h1M33 43h1M57 49h1M58 51h1M58 52h1M58 53h1M58 59h1M58 60h1M19 61h1M20 62h1M58 62h1M58 63h1M58 64h1M58 65h1M59 66h1M59 68h1M58 69h2M59 70h1M59 71h1M24 72h1M58 72h2M61 72h1M0 78h1M35 79h1M29 80h1M0 84h1M2 85h2M2 86h1M9 107h1M57 109h1M52 111h1M52 112h1M56 113h1M50 114h1M57 114h1M50 115h1M57 115h1M52 117h2M41 118h1M48 119h1M64 127h1" />
<path stroke="#0b1207" d="M50 0h1M46 1h1M28 20h1M24 24h1M53 25h2M23 26h1M30 31h1M10 37h1M37 37h1M10 41h1M21 41h1M54 42h1M9 43h1M10 44h1M59 44h1M55 45h1M59 45h1M26 46h1M26 47h1M25 48h2M54 48h1M25 49h1M22 50h1M27 51h1M45 53h1M54 54h1M6 55h1M46 55h2M55 55h2M5 56h1M8 56h2M56 56h1M9 57h1M55 57h1M30 59h1M23 60h1M8 61h2M11 61h1M15 61h1M49 61h1M6 62h1M10 62h3M16 62h1M56 62h1M40 63h1M51 63h1M53 63h2M48 64h3M45 65h1M51 65h1M39 66h1M53 66h1M55 66h1M43 67h1M8 68h1M47 68h1M61 68h1M48 69h1M50 69h1M6 70h1M49 70h1M45 71h1M49 71h1M60 71h1M11 72h1M49 72h1M7 73h1M22 73h1M45 74h1M54 74h1M60 74h1M7 76h1M20 76h1M9 77h2M44 77h1M46 77h1M50 77h1M9 78h1M31 78h1M45 78h2M49 78h2M45 79h6M49 80h2M21 82h1M6 86h1M21 86h1M0 88h1M9 89h1M20 91h1M22 92h1M16 93h1M20 93h1M57 96h1M57 97h1M3 98h1M60 98h1M5 99h1M11 102h1M17 106h1M56 106h1M8 107h1M23 107h1M13 108h1M5 111h1M45 115h1M64 115h1M52 118h1M58 118h1M60 118h1M52 119h1M60 119h1M53 122h1M32 123h1M26 125h1M59 125h1M63 125h1M35 127h1" />
<path stroke="#090e06" d="M51 0h1M56 6h1M28 18h1M28 19h1M27 20h1M64 20h1M27 21h1M27 22h1M46 22h1M24 25h1M24 26h1M25 32h1M20 33h1M20 35h1M26 35h1M20 36h2M31 37h1M23 38h1M30 38h1M23 39h1M25 39h1M27 39h1M59 39h1M23 40h1M25 40h1M30 41h1M25 42h1M23 45h2M28 45h1M28 46h1M28 47h1M64 49h1M29 50h1M59 50h1M63 50h1M2 55h1M15 55h1M22 55h2M44 56h1M57 57h1M57 59h1M62 59h1M6 60h1M41 60h1M22 61h1M55 61h1M14 62h1M54 62h1M22 63h1M16 64h1M26 64h1M45 64h1M7 65h1M17 65h2M16 66h2M19 66h1M40 66h1M16 67h2M19 67h1M42 67h1M54 67h1M16 68h3M23 68h1M56 68h2M17 69h1M7 70h2M5 71h1M7 71h1M15 72h1M56 72h1M15 74h1M4 76h1M24 76h1M32 76h1M47 76h1M30 77h1M10 78h1M21 78h1M13 79h1M28 79h1M52 79h2M13 80h1M16 80h1M51 80h1M54 80h1M15 81h2M50 81h2M2 82h1M16 82h1M21 83h1M32 83h1M3 84h1M20 85h1M53 85h1M33 86h1M1 89h1M53 89h1M18 92h1M27 93h1M6 94h1M6 95h1M64 95h1M7 96h1M64 97h1M2 98h1M57 98h1M64 98h1M63 99h1M64 100h1M18 101h1M63 101h1M8 102h2M10 104h1M13 104h1M4 105h1M62 105h1M60 106h1M62 109h1M50 111h1M47 116h1M45 117h1M57 117h1M34 120h1M44 124h1M54 125h1M30 127h1M32 127h1" />
<path stroke="#020302" d="M53 0h1M58 0h1M48 1h7M50 2h3M61 2h4M47 3h6M55 3h2M61 3h4M47 4h3M52 4h3M61 4h4M46 5h1M49 5h1M53 5h2M63 5h1M47 6h3M64 7h1M44 9h1M38 10h1M42 10h2M58 17h1M24 20h1M52 21h1M56 21h1M30 22h1M50 22h1M52 22h1M49 23h5M56 23h1M54 24h1M33 36h1M36 36h1M38 36h1M40 37h1M35 41h1M39 43h1M32 44h1M60 51h1M22 54h1M28 55h1M26 61h1M58 66h1M58 67h1M58 68h1M36 69h1M58 70h1M58 71h1M59 73h1M33 75h1M0 76h1M34 76h1M0 77h1M34 77h1M34 78h2M0 80h1M59 80h1M59 81h1M0 82h1M59 82h1M0 83h1M59 83h1M59 84h1M0 85h2M1 86h1M0 87h3M2 88h1M59 101h1M59 103h1M58 105h1M6 106h1M57 107h1M59 108h1M57 110h2M57 111h1M57 112h1M57 113h2M49 114h1M56 114h1M58 114h1M46 115h1M43 116h1M45 118h1M42 119h1M51 123h1M54 124h1M56 124h2M53 127h1M63 127h1" />
<path stroke="#040603" d="M55 0h1M59 0h1M58 1h1M48 2h1M58 3h2M55 4h1M58 4h2M52 5h1M55 5h5M50 6h1M54 6h1M58 6h2M30 7h1M48 7h2M58 7h2M48 8h1M59 8h1M46 9h2M58 9h1M40 10h1M45 10h1M58 10h1M39 11h3M43 11h1M45 11h2M58 11h1M40 12h1M42 12h1M44 12h1M58 12h1M58 14h1M58 15h1M58 16h1M57 17h1M58 18h1M58 19h1M58 20h1M61 20h1M58 22h1M24 23h1M58 23h1M22 24h1M28 24h1M49 24h1M51 24h1M55 24h2M58 24h1M22 25h1M28 25h1M51 25h1M58 25h1M58 26h1M23 28h1M26 29h1M21 30h4M59 33h1M57 34h1M59 34h1M57 35h1M34 36h2M57 36h1M25 37h2M32 37h1M57 37h1M29 38h1M57 38h1M22 39h1M29 39h1M32 39h1M32 40h1M58 40h1M33 41h1M36 42h2M28 44h1M58 44h1M22 45h1M58 45h1M58 47h1M57 48h2M58 49h1M57 50h2M60 50h1M28 51h1M57 51h1M26 52h1M22 53h1M58 54h1M58 55h1M58 56h1M58 57h1M58 58h2M21 59h1M29 59h1M59 59h1M24 60h1M58 61h1M59 62h1M30 64h1M59 64h1M59 65h1M23 66h2M59 67h1M35 70h1M29 72h1M1 77h1M34 79h1M61 79h1M36 80h1M1 81h1M1 83h1M60 84h1M12 85h1M57 85h1M60 85h1M28 87h1M2 89h3M60 90h1M60 91h1M3 105h1M18 105h1M2 106h1M3 107h1M56 107h1M56 108h1M53 109h1M55 109h2M63 109h1M56 110h1M51 111h1M53 111h1M59 111h1M51 112h1M53 112h3M50 113h3M52 114h1M51 115h4M56 115h1M51 116h5M50 117h1M54 117h1M50 118h1M54 118h2M40 119h2M43 119h1M58 119h1M37 120h1M39 120h1M54 123h1M50 124h1M52 124h1M62 125h1M53 126h1M62 126h1M52 127h1" />
<path stroke="#060803" d="M56 0h1M60 4h1M60 5h1M62 5h1M39 10h1M59 10h1M59 11h1M43 12h1M46 12h1M59 21h1M47 22h1M59 22h1M61 22h2M28 23h1M59 23h1M21 24h1M47 25h1M59 25h1M59 26h1M58 27h1M58 28h1M26 30h1M20 32h1M59 32h1M21 33h1M58 33h1M21 34h1M58 34h1M21 35h1M31 38h1M38 38h1M37 39h1M41 39h1M57 40h1M58 41h1M35 42h1M58 42h1M58 43h1M33 44h1M36 44h1M24 46h1M57 46h1M57 47h1M24 51h1M57 52h1M60 52h1M24 53h1M57 53h1M28 54h1M24 55h1M24 58h1M38 58h1M24 59h1M21 60h1M59 60h1M40 62h1M1 65h1M28 65h1M30 65h1M61 66h1M39 67h1M1 76h2M2 84h1M4 84h1M29 88h1M3 90h1M4 92h1M60 92h1M60 93h1M8 95h1M62 98h1M3 104h1M12 104h1M2 105h1M4 106h1M4 107h1M62 107h1M54 109h1M55 110h1M53 113h1M59 113h1M54 114h2M46 116h1M49 116h2M41 117h1M40 118h1M51 118h1M44 119h1M55 119h1M40 120h1M61 125h1M30 126h2M63 126h1M54 127h1" />
<path stroke="#24321a" d="M62 0h1M32 16h1M30 17h2M64 22h1M37 31h1M35 32h1M34 34h1M41 34h1M34 35h2M37 35h1M32 47h1M31 48h1M35 48h1M37 48h1M37 49h1M37 51h1M5 54h1M37 54h1M16 55h1M32 55h1M36 56h1M33 57h1M35 57h1M34 59h1M34 60h1M35 61h1M38 61h1M34 62h1M38 62h1M32 63h1M33 64h1M35 65h1M37 67h1M27 68h1M38 68h1M37 69h1M26 71h1M35 71h1M39 71h1M27 74h1M38 74h1M36 76h3M38 77h1M38 79h2M30 80h1M39 80h1M39 81h1M56 104h1M13 109h1M26 111h1M10 115h1M44 117h1M15 119h1M18 120h1M11 126h1" />
<path stroke="#3e4c34" d="M63 0h2M30 6h1" />
<path stroke="#090d05" d="M45 1h1M30 8h1M49 8h1M57 11h1M40 13h1M29 14h1M32 14h1M28 16h1M53 16h1M59 16h1M61 16h1M59 17h1M61 17h1M27 18h1M25 19h1M27 19h1M26 20h1M26 21h1M25 22h1M48 22h1M22 23h2M27 25h1M25 26h3M23 27h5M24 28h2M23 29h2M25 31h1M26 32h1M26 33h1M10 34h1M26 34h1M20 37h1M28 37h1M21 38h2M24 38h3M33 38h1M37 38h1M59 38h1M24 39h1M26 39h1M30 39h2M30 40h2M9 41h1M30 42h1M30 43h1M24 47h1M27 47h1M8 49h1M29 49h1M56 49h1M0 50h1M24 50h1M55 50h1M35 51h1M7 52h1M25 52h1M23 53h1M23 54h1M44 55h1M63 55h1M19 56h1M22 56h2M28 56h1M46 56h1M14 57h1M25 57h1M25 58h1M53 58h1M57 58h1M6 59h1M19 59h1M22 59h1M25 59h2M7 60h1M22 60h1M25 60h1M40 60h1M20 61h2M27 62h1M14 63h1M26 63h1M15 65h2M25 65h1M38 65h1M18 66h1M20 66h1M29 66h1M54 66h1M18 67h1M20 67h1M22 67h1M28 67h1M0 68h1M19 68h2M28 68h1M62 68h1M1 69h1M3 69h1M7 69h2M18 69h3M22 69h1M2 70h1M18 70h2M22 70h1M24 70h1M28 70h1M6 71h1M18 71h1M24 71h1M5 72h1M19 72h4M28 72h1M34 72h1M57 72h1M5 73h2M18 73h4M4 74h3M18 74h3M24 74h1M4 75h2M16 75h1M18 75h3M16 76h1M18 76h2M53 76h1M62 76h1M17 77h4M42 77h1M47 77h1M53 77h1M56 77h1M15 78h2M18 78h3M52 78h2M1 79h1M14 79h5M20 79h1M54 79h2M14 80h1M17 80h3M17 81h3M17 82h3M60 82h1M2 83h1M16 83h5M27 83h1M29 83h1M31 83h1M33 83h1M17 84h7M55 84h1M18 85h2M54 85h1M18 86h2M52 86h1M12 87h1M19 87h1M23 88h1M17 89h2M23 89h1M13 90h2M23 90h1M13 91h1M18 91h2M22 91h1M61 91h1M15 92h1M17 92h1M19 92h1M1 94h1M0 95h1M10 95h1M10 96h1M62 96h3M10 97h1M60 97h1M63 98h1M4 99h1M60 99h1M62 99h1M62 100h2M62 101h1M64 101h1M26 102h1M62 102h1M64 102h1M8 103h1M12 103h1M1 104h1M6 104h1M9 104h1M11 104h1M8 105h1M64 106h1M64 109h1M53 110h2M61 113h1M47 114h1M47 115h2M48 116h1M46 118h1M62 118h1M45 123h1M50 123h1M32 125h1M32 126h1M29 127h1M31 127h1" />
<path stroke="#27351d" d="M47 1h1M35 50h1M30 60h1M32 60h1M41 61h1M33 66h1M26 72h1M26 75h1M39 76h1M26 77h1M40 77h1M42 79h1M41 80h2M30 110h1M32 117h1M17 120h1M10 121h1M11 127h1M24 127h1" />
<path stroke="#050703" d="M55 1h1M59 1h1M58 8h1M59 9h1M58 13h1M23 21h1M59 24h1M28 28h1M22 29h1M27 37h1M57 39h1M58 46h1M60 53h1M24 54h1M59 61h1M59 63h1M0 70h1M34 75h1M28 81h1M1 82h1M63 83h1M60 89h1M4 90h1M4 93h1M1 106h1M5 106h1M56 111h1M59 112h1M53 114h1M49 115h1M55 115h1M62 115h1M51 117h1M42 118h1M61 126h1" />
<path stroke="#0e1608" d="M56 1h1M63 10h1M52 25h1M27 33h1M30 34h1M10 38h1M10 39h1M10 40h1M12 44h1M22 44h1M30 46h1M59 46h1M10 47h1M34 47h1M59 47h1M10 48h2M38 48h1M59 49h1M61 49h1M8 50h1M38 50h1M45 50h1M61 50h1M45 51h1M55 51h1M54 52h3M38 53h1M25 54h1M62 54h1M59 55h1M61 55h1M25 56h1M45 56h1M0 57h1M6 57h1M1 58h1M0 59h1M8 59h1M45 59h1M0 60h1M16 60h1M31 60h1M5 61h1M43 62h1M42 63h1M15 64h1M23 64h1M44 64h1M61 64h1M9 65h1M23 65h1M50 65h1M56 65h1M42 66h2M45 66h1M23 67h1M40 67h1M45 67h1M41 68h2M44 68h2M49 68h1M6 69h1M10 69h1M45 69h1M64 69h1M30 70h1M1 71h1M23 71h1M0 72h1M60 72h1M0 73h1M14 73h1M23 73h1M30 73h1M40 73h1M30 74h1M40 74h3M55 74h1M7 75h1M24 75h1M41 75h3M53 75h2M60 75h1M8 76h1M15 76h1M41 76h3M2 77h1M61 77h1M56 78h1M2 79h1M8 79h1M21 79h1M31 80h1M33 80h1M20 81h1M22 82h1M31 82h1M8 83h1M24 83h1M57 83h1M61 83h1M57 84h1M22 85h1M3 86h1M13 86h1M54 86h1M3 87h1M24 87h1M17 88h1M64 88h1M2 90h1M6 90h1M63 90h1M63 91h1M55 92h1M57 92h1M19 93h1M62 93h1M64 93h1M10 94h1M57 95h1M62 95h1M2 96h1M17 99h1M64 99h1M1 100h1M11 100h1M61 102h1M63 102h1M9 103h1M14 103h1M18 103h3M60 103h2M63 103h1M0 104h1M20 104h1M14 105h1M61 105h1M5 107h1M60 107h1M10 108h1M12 108h1M17 108h1M60 108h1M63 108h1M61 109h1M60 110h1M1 111h1M7 111h1M55 111h1M56 112h1M47 113h1M45 114h1M64 114h1M61 115h1M35 117h1M32 118h1M39 118h1M40 121h1M37 122h1M34 123h1M55 123h1M29 125h1M35 125h1M33 126h1M28 127h1" />
<path stroke="#26341c" d="M57 1h1M50 7h1M37 32h1M35 33h3M36 34h2M33 47h1M33 48h1M35 49h1M63 49h1M36 51h1M33 53h1M35 58h1M32 59h1M36 59h1M36 61h1M36 62h1M35 63h1M32 67h1M38 67h1M38 69h1M37 71h1M34 73h1M35 76h1M40 76h1M27 77h1M39 77h1M40 78h1M41 79h1M27 80h1M40 80h1M28 91h1M23 115h1M31 119h1M19 120h1M29 121h1M7 123h1M8 126h1M16 126h1M25 127h1" />
<path stroke="#47553d" d="M60 1h1M43 2h1M43 3h3M43 4h3M43 5h2M43 6h1M43 7h1M55 7h1M38 12h1M44 13h1M62 23h3M47 24h1M62 24h3M0 28h2M50 28h1M2 29h1M45 30h1M43 31h3M44 32h1M60 32h1M44 33h1M60 34h1M61 36h2M43 37h1M61 37h3M55 38h1M62 38h3M42 39h1M44 39h1M49 39h2M53 39h3M63 39h2M44 40h1M48 40h1M52 40h1M54 40h2M63 40h2M45 41h10M0 44h2M6 44h2M2 45h3M3 46h2M6 46h1M5 47h1M16 51h1M43 52h1M17 56h1M17 57h1M51 59h1M17 61h1" />
<path stroke="#46543c" d="M9 2h5M15 2h7M7 3h18M35 3h8M46 3h1M6 4h20M34 4h9M5 5h22M33 5h10M0 6h27M32 6h11M45 6h1M60 6h3M0 7h29M31 7h12M60 7h3M0 8h30M31 8h11M50 8h2M53 8h3M60 8h3M0 9h30M31 9h10M50 9h2M53 9h4M60 9h3M0 10h30M31 10h7M48 10h4M53 10h4M60 10h3M0 11h27M32 11h6M49 11h3M53 11h4M60 11h3M2 12h11M16 12h8M29 12h1M33 12h4M49 12h2M53 12h4M60 12h5M3 13h9M18 13h4M54 13h3M60 13h5M7 14h4M55 14h2M63 14h2M55 15h2M63 15h2M63 16h2M4 22h2M4 23h5M4 24h6M2 25h10M2 26h13M1 27h15M2 28h15M49 28h1M3 29h16M50 29h1M3 30h16M46 30h1M3 31h8M46 31h1M51 31h1M61 31h1M64 31h1M5 32h3M45 32h1M45 33h1M44 34h1M61 34h1M49 35h1M61 35h4M64 37h1M53 38h2M56 38h1M45 39h1M48 39h1M51 39h2M45 40h3M49 40h3M53 40h1M0 42h1M0 43h2M2 44h2M5 46h1M22 48h1M14 54h1M16 57h1" />
<path stroke="#020201" d="M49 2h1M50 4h2M47 5h2M50 5h2M46 6h1M56 20h1M62 20h1M55 21h1M51 22h1M53 22h1M48 23h1M55 23h1M22 28h1M25 29h1M30 30h1M57 30h1M22 31h1M57 31h1M57 32h1M24 37h1M29 37h1M20 38h1M40 44h1M36 45h1M36 48h1M22 49h1M31 53h1M39 59h1M27 64h1M30 69h1M61 70h1M59 74h1M30 76h1M33 77h1M59 77h1M59 79h1M35 80h1M0 81h1M37 81h1M62 82h1M59 85h1M0 86h1M59 98h1M58 99h2M58 100h2M57 101h1M58 102h2M58 103h1M57 104h3M59 105h1M57 106h3M12 107h1M58 107h2M57 108h1M59 109h1M59 110h1M58 111h1M58 112h1M51 114h1M46 117h1M46 122h1M53 123h1M55 124h1M58 124h1M56 125h1M58 125h1M64 126h1" />
<path stroke="#18260e" d="M54 2h1M32 31h1M42 32h1M32 34h1M32 35h1M61 42h1M11 53h1M64 53h1M11 54h1M11 55h1M61 56h1M64 57h1M64 58h1M46 60h1M3 62h1M48 63h1M39 64h1M13 68h1M32 69h1M27 76h2M8 78h1M25 79h1M8 80h1M25 80h1M7 81h2M24 81h1M8 82h1M8 85h1M11 85h1M17 85h1M9 86h2M29 87h1M24 88h1M1 90h1M0 91h1M24 93h1M17 95h1M16 96h1M19 97h1M30 101h1M32 101h1M37 102h1M40 102h1M52 103h1M43 105h1M19 107h1M21 107h1M30 114h1M12 122h1" />
<path stroke="#303e26" d="M55 2h1M30 4h1M61 5h1M52 7h1M41 9h1M61 41h1M43 56h1M54 102h1M26 106h1M55 106h1M44 109h1M47 111h1M3 112h1M36 112h1M43 114h1M24 115h1M19 118h1M15 120h1M21 120h1M27 120h1M7 122h1M8 123h1M15 123h1M4 124h1M17 124h1" />
<path stroke="#3d4b33" d="M56 2h1M64 5h1M12 50h1M20 60h1M21 95h1M17 114h1" />
<path stroke="#38462e" d="M57 2h1M22 22h1M41 45h1M6 52h1M14 55h1M14 56h1M19 58h1M31 104h1M38 104h2M53 104h2M33 105h1M37 105h1M53 105h2M31 106h8M31 107h1M36 107h1M32 108h1M15 109h1M17 109h1M45 109h1M47 109h2M17 110h3M29 110h1M47 110h1M13 111h1M17 111h2M24 111h2M40 111h1M42 111h1M10 112h1M15 112h2M8 113h3M18 113h1M8 114h2M13 114h1M15 114h1M7 115h3M4 116h2M41 116h1M0 117h3" />
<path stroke="#4c5a42" d="M30 3h2M31 4h1M32 5h1M54 7h1M52 11h1M33 13h2M53 13h1M33 14h1M60 14h1M34 15h2M54 15h1M35 16h3M55 16h2M0 17h2M56 17h1M63 17h2M4 19h3M53 20h1M45 21h1M60 23h1M46 24h1M48 25h1M56 25h1M56 26h1M60 26h1M47 27h1M49 27h4M54 27h1M56 27h1M46 28h3M53 28h2M56 28h1M60 28h1M44 29h1M54 29h1M61 29h2M1 30h1M56 30h1M61 30h1M63 30h2M0 31h1M2 31h1M11 31h2M9 32h2M12 32h3M13 33h2M13 34h2M0 35h1M13 35h3M0 36h2M4 36h1M12 36h3M16 36h1M0 37h2M3 37h1M13 37h3M1 38h3M9 38h1M13 38h3M3 39h4M12 39h5M3 40h4M8 40h1M13 40h4M2 41h1M4 41h4M14 41h5M62 41h1M5 42h3M14 42h5M42 42h1M47 42h1M51 42h1M13 43h5M43 43h1M45 43h3M14 44h3M43 44h3M52 44h1M14 45h2M42 45h1M44 45h2M52 45h1M8 46h1M11 46h1M15 46h1M43 46h2M47 46h1M53 46h2M0 47h1M12 47h1M14 47h3M43 47h3M47 47h1M54 47h1M13 48h3M42 48h2M45 48h1M12 49h6M41 49h1M53 49h1M16 50h4M39 50h1M49 50h1M53 50h2M18 51h4M48 51h2M53 51h1M17 52h1M20 52h2M49 52h3M18 53h2M21 53h1M39 53h1M49 53h1M16 54h1M18 54h1M49 54h2M52 54h1M20 55h1M39 55h1M52 55h1M21 56h1M41 57h1M42 60h1" />
<path stroke="#0d1408" d="M54 3h1M30 9h1M23 25h1M30 32h1M10 35h1M36 38h1M9 40h1M40 40h1M9 47h1M59 48h1M10 49h1M60 49h1M62 50h1M44 52h1M25 53h1M8 54h1M13 56h1M54 56h1M5 57h1M7 57h1M0 58h1M7 58h2M3 59h1M7 59h1M26 60h1M48 60h1M51 60h1M12 61h2M16 61h1M53 61h1M64 61h1M19 62h1M52 62h1M20 63h1M41 64h3M51 66h2M49 67h1M51 67h2M49 69h1M3 70h1M44 71h1M0 74h1M43 74h1M21 75h1M44 75h1M45 76h2M52 76h1M21 77h1M32 77h1M55 77h1M1 78h1M54 78h1M35 81h1M22 83h1M23 87h1M27 87h1M13 89h1M22 93h1M64 94h1M3 97h1M22 98h1M12 99h1M16 100h1M61 101h1M61 104h1M24 107h1M5 108h1M11 108h1M52 109h1M60 109h1M8 110h1M46 114h1M61 117h3M64 118h1M36 120h1M36 121h2M52 123h1M34 125h1M36 125h1M60 125h1" />
<path stroke="#404e36" d="M57 3h1M64 6h1M52 10h1M39 48h1M1 49h1M18 56h1M17 59h1" />
<path stroke="#45533b" d="M46 4h1M27 15h1M45 29h5M51 29h3M47 30h5M47 31h4M56 31h1M46 32h7M56 32h1M61 32h1M46 33h9M61 33h1M45 34h11M62 34h3M44 35h5M50 35h6M44 36h2M47 36h10M44 37h13M44 38h9M46 39h2M1 42h3M2 43h2M4 44h2M5 45h2M17 58h1M4 59h1" />
<path stroke="#2f3d25" d="M56 4h1M19 36h1M39 105h1M51 105h1M38 112h1M20 116h1M32 120h1M16 124h1M19 125h1M21 125h1M20 126h1" />
<path stroke="#36442c" d="M57 4h1M46 10h1M60 40h1M6 58h1M17 62h1M52 101h2M53 102h1M55 102h1M33 103h1M38 103h2M41 103h1M30 104h1M33 104h5M41 104h1M52 104h1M29 105h2M39 106h1M29 107h1M51 107h2M21 108h1M23 108h1M25 108h5M48 108h1M51 108h1M19 109h6M27 109h3M21 110h2M25 110h1M28 110h1M42 110h5M11 111h2M43 111h4M5 112h2M35 112h1M5 113h1M15 113h1M40 113h1M3 114h4M0 115h2M3 115h1M5 115h1M29 115h1M32 115h1M0 116h1M32 116h6M40 116h1M26 117h1M23 118h1M27 118h2M25 119h4M26 120h1M12 121h2M13 123h2" />
<path stroke="#0a0f06" d="M30 5h1M38 11h1M37 12h1M57 12h1M28 17h1M60 18h1M63 20h1M26 23h1M46 23h1M26 24h1M27 30h1M10 33h1M25 33h1M25 34h1M30 37h1M34 37h1M34 38h2M21 39h1M11 40h1M21 40h2M24 40h1M26 40h1M11 41h1M23 41h3M28 41h1M31 41h1M23 42h1M31 42h1M23 43h1M25 43h1M23 44h1M34 44h1M25 45h1M27 45h1M23 46h1M27 46h1M8 47h1M56 47h1M27 48h2M24 49h1M27 49h2M31 49h1M26 50h3M30 50h1M25 51h1M29 51h1M54 51h1M8 52h1M46 54h1M7 55h1M38 55h1M64 55h1M6 56h1M11 56h1M19 57h1M28 57h1M46 57h1M14 58h1M23 58h1M28 58h1M54 58h3M23 59h1M54 59h2M19 60h1M27 60h1M44 60h1M6 61h2M14 61h1M23 61h1M25 61h1M54 61h1M7 62h1M13 62h1M22 62h2M53 62h1M7 63h1M16 63h1M21 63h1M55 63h1M8 64h1M19 64h3M25 64h1M46 64h1M2 65h1M8 65h1M19 65h2M41 65h4M15 66h1M41 66h1M15 67h1M44 67h1M53 67h1M53 68h3M9 69h1M11 69h1M16 69h1M51 69h5M61 69h1M9 70h1M16 70h2M23 70h1M50 70h5M0 71h1M4 71h1M15 71h1M17 71h1M28 71h1M50 71h5M7 72h1M16 72h1M46 72h1M50 72h2M53 72h3M47 73h1M49 73h2M53 73h2M44 74h1M47 74h1M53 74h1M6 75h1M15 75h1M46 75h3M5 76h2M48 76h1M31 77h1M43 77h1M48 77h1M52 77h1M54 77h1M14 78h1M28 78h1M33 78h1M43 78h1M47 78h1M61 78h2M10 79h3M30 79h1M43 79h2M51 79h1M9 80h4M28 80h1M44 80h3M52 80h2M5 81h1M47 81h1M52 81h1M11 82h1M50 82h6M50 83h4M1 84h1M29 84h1M53 84h1M13 85h1M21 85h1M30 85h1M52 85h1M17 86h1M8 87h1M30 87h1M53 87h2M13 88h2M18 88h1M22 88h1M7 89h1M54 89h1M54 90h1M23 91h1M13 92h1M23 92h1M18 93h1M0 94h1M9 95h1M63 95h1M13 97h1M2 99h1M57 99h1M10 100h1M60 100h1M8 101h1M10 102h1M60 102h1M2 104h1M7 104h1M62 104h1M5 105h1M10 105h1M17 107h1M0 108h2M62 108h1M50 110h1M61 116h1M56 117h1M53 118h1M47 119h1M63 119h1M64 120h1M30 123h1M33 127h2" />
<path stroke="#4e5c44" d="M31 5h1M64 10h1M62 17h1M55 18h1M62 18h1M60 22h1M60 27h1M11 33h1M11 34h1M11 35h1M11 36h1M1 40h1M0 41h1M7 43h1M12 43h1M41 43h1M53 43h1M53 44h1M55 44h1M13 45h1M12 46h2M42 46h1M64 46h1M1 47h2M2 48h1M41 48h1M47 48h2M39 49h2M48 49h1M4 50h2M15 51h1M13 52h2M18 52h2M17 53h1M20 53h1M47 54h1M49 55h1M51 55h1M49 56h1M52 57h1M42 58h1M52 58h1" />
<path stroke="#212f17" d="M45 5h1M29 21h1M34 31h1M36 31h1M33 32h1M38 32h1M31 33h1M38 33h1M40 33h1M40 34h1M42 34h1M38 35h1M40 35h1M42 36h1M37 41h1M38 44h1M30 47h1M37 47h1M64 47h1M30 48h1M3 53h1M30 53h1M32 56h1M37 56h1M18 57h1M31 57h2M34 57h1M33 59h1M33 60h1M38 60h1M32 61h1M28 63h1M34 64h1M32 65h1M30 66h1M36 67h1M32 71h1M37 72h1M31 73h2M35 73h1M25 74h1M32 74h1M35 74h1M39 74h1M27 75h1M25 76h1M36 78h1M25 91h1M25 92h1M47 102h1M53 103h1M28 111h1M48 111h1M12 114h1M32 114h1M38 115h3M16 120h1M25 122h1M7 126h1M27 127h1" />
<path stroke="#4d5b43" d="M31 6h1M64 9h1M64 11h1M32 12h1M53 14h1M53 15h1M60 15h1M34 16h1M54 16h1M54 19h1M48 21h1M50 21h1M55 26h1M48 27h1M55 27h1M51 28h2M55 28h1M55 29h2M62 30h1M11 32h1M12 33h1M12 34h1M12 35h1M12 37h1M0 38h1M12 38h1M1 39h2M2 40h1M41 40h1M61 40h1M3 41h1M8 41h1M13 41h1M4 42h1M12 42h2M41 42h1M6 43h1M42 43h1M44 43h1M51 43h1M13 44h1M42 44h1M43 45h1M53 45h1M0 46h1M14 46h1M41 46h1M46 46h1M3 47h1M7 47h1M13 47h1M42 47h1M48 47h1M3 48h1M49 48h1M45 49h1M49 49h1M54 49h1M13 50h3M48 50h1M14 51h1M17 51h1M48 52h1M48 53h1M20 54h2M48 54h1M21 55h1M52 56h1M42 57h1M41 58h1M42 59h1" />
<path stroke="#3a4830" d="M53 6h1M62 15h1M50 108h1M12 112h2M14 114h1M16 114h1" />
<path stroke="#0c1307" d="M55 6h1M30 10h1M60 19h1M28 21h1M23 24h1M27 34h1M25 36h1M38 39h1M10 42h1M10 43h1M8 44h2M11 44h1M30 44h1M56 44h1M10 45h1M12 45h1M32 45h1M7 48h1M62 48h1M0 49h1M62 49h1M22 51h1M9 53h1M46 53h1M56 53h1M7 54h1M38 54h1M56 54h1M0 56h1M8 57h1M10 57h1M20 57h1M26 57h1M56 57h1M2 58h1M15 58h1M45 58h1M2 59h1M5 59h1M15 59h1M28 59h1M4 60h1M15 60h1M18 60h1M10 61h1M50 61h1M5 62h1M50 62h2M15 63h1M17 63h2M27 63h1M50 63h1M52 63h1M14 64h1M36 64h1M40 64h1M51 64h6M21 65h1M40 65h1M52 65h4M29 67h1M41 67h1M46 67h1M50 67h1M9 68h1M50 68h1M28 69h1M47 69h1M62 69h2M1 70h1M15 70h1M45 70h1M48 70h1M10 71h1M47 71h1M8 72h1M30 72h1M40 72h1M43 72h1M47 72h1M41 73h1M43 73h1M56 73h1M7 74h1M55 75h1M13 76h1M64 76h1M8 77h1M11 77h1M14 77h1M22 77h1M45 77h1M60 77h1M12 78h1M60 78h1M29 82h1M35 82h1M63 82h2M12 84h1M14 84h1M24 84h1M4 85h1M21 87h2M4 88h1M30 88h1M54 88h1M55 89h1M10 90h1M55 90h1M12 91h1M57 91h1M62 91h1M11 93h1M21 93h1M0 96h1M52 96h1M2 97h1M9 97h1M1 98h1M28 102h1M1 103h1M24 104h1M28 104h1M0 105h1M56 105h1M10 106h1M16 106h1M1 109h1M11 109h1M6 110h2M2 111h3M6 111h1M54 111h1M48 113h1M63 113h1M60 115h1M45 116h1M31 123h1M33 123h1M25 125h1M28 125h1" />
<path stroke="#1c2a12" d="M57 6h1M47 21h1M22 26h1M36 41h1M33 45h3M33 46h1M46 47h1M39 58h1M38 63h1M33 65h1M34 66h1M30 67h1M35 67h1M25 68h1M31 69h1M26 73h1M29 74h1M37 74h1M29 75h1M25 88h1M30 89h1M36 103h1M19 108h1M26 116h1M11 122h1" />
<path stroke="#334129" d="M44 7h1M19 35h1M34 103h1M55 103h1M51 104h1M35 107h1M20 108h1M14 109h1M50 109h1M17 112h1M46 112h3M32 113h4M37 113h3M34 114h3M23 117h1M30 117h1M38 117h1M21 118h1M17 119h6M17 121h8M26 121h1M8 122h1M10 122h1M16 122h1M20 122h1M9 123h2M21 123h4M0 124h2M19 124h1" />
<path stroke="#202e16" d="M51 7h1M33 31h1M33 33h1M42 33h1M40 36h1M19 37h1M20 41h1M35 43h1M37 44h1M36 49h1M13 51h1M31 56h1M32 58h1M35 66h1M30 68h1M26 74h1M11 110h1M42 116h1M40 117h1" />
<path stroke="#4f5d45" d="M53 7h1M31 11h1M52 12h1M32 13h1M55 17h1M61 18h1M55 19h1M51 26h1M60 29h1M11 37h1M11 39h1M0 40h1M12 40h1M8 42h1M54 45h1M1 48h1M5 48h1M40 48h1M2 49h2M47 49h1M2 50h2M1 51h3M15 52h1M14 53h2M20 56h1M47 56h2M51 56h1M40 57h1M51 57h1M53 57h1M52 59h1" />
<path stroke="#515f47" d="M56 7h1M56 19h1M41 44h1M54 44h1M4 49h1M6 50h1M6 51h1M3 52h3" />
<path stroke="#2e3c24" d="M52 8h1M57 9h1M16 53h1M27 79h1M26 96h1M52 105h1M37 111h1M45 113h1M41 114h1M39 117h1M29 119h1M32 119h2M14 121h1M14 122h1M27 122h1M15 124h1M14 125h1M21 126h2M13 127h1M15 127h1" />
<path stroke="#526048" d="M56 8h1M5 49h3M5 53h1" />
<path stroke="#16220c" d="M57 8h1M43 30h1M42 31h1M29 35h1M38 37h1M40 39h1M60 44h1M61 45h1M10 46h1M35 47h1M11 49h1M10 52h1M46 52h1M63 52h1M6 53h1M47 53h1M62 53h1M1 54h2M9 54h1M63 54h1M9 55h2M60 55h1M1 56h1M4 56h1M60 56h1M47 57h1M9 58h1M61 58h1M9 59h2M8 60h3M2 61h1M4 61h1M40 61h1M47 61h2M62 61h2M1 62h1M46 62h1M62 62h2M1 63h1M46 63h1M61 63h1M64 63h1M12 64h2M29 64h1M47 64h1M63 64h1M11 65h1M14 65h1M63 65h1M3 66h3M11 66h1M62 66h1M63 67h1M13 70h1M32 70h2M63 70h1M11 71h1M36 72h1M11 73h1M62 73h1M64 73h1M10 74h1M14 74h1M64 74h1M11 75h1M13 75h2M23 75h1M62 75h1M22 76h1M25 77h1M5 78h1M63 78h1M4 79h1M26 79h1M23 81h1M31 81h1M63 81h1M26 82h2M5 83h2M13 83h1M26 83h1M5 84h2M15 84h1M26 84h2M6 85h1M15 85h1M25 85h1M14 86h2M62 86h2M11 87h1M14 87h1M64 87h1M15 88h1M28 89h1M9 90h1M27 90h1M24 91h1M8 92h2M3 93h1M8 93h1M15 93h1M14 94h1M5 95h1M13 95h2M4 96h3M13 96h2M20 96h1M25 96h1M15 97h1M4 98h2M10 98h1M1 99h1M7 99h2M20 99h1M22 99h5M0 100h1M12 100h2M18 100h1M23 100h2M26 100h4M2 101h5M22 101h2M15 102h1M21 102h4M31 102h1M33 102h1M43 102h1M46 102h1M6 103h1M16 103h1M21 103h4M31 103h1M46 103h1M21 104h1M46 104h1M49 104h1M11 105h2M25 105h2M45 105h1M49 105h2M11 106h1M43 106h2M46 106h2M49 106h2M53 106h1M43 107h4M48 107h1M36 108h1M41 108h2M46 108h1M40 109h2M34 110h2M51 110h1M61 110h1M29 111h1M31 111h4M26 112h6M62 112h1M2 113h1M23 113h8M19 114h2M22 114h7M19 115h2M63 115h1M7 116h1M10 116h1M19 116h1M64 116h1M18 117h2M5 118h1M49 118h1M56 118h1M59 118h1M11 120h1M45 121h7M44 122h1M48 122h5M55 122h1M62 122h1M39 123h1M42 123h1M11 124h1M20 124h1M43 124h1M8 125h1M17 125h1M40 125h2M43 125h2M5 126h2M17 126h1M39 126h3M46 126h6M0 127h1M2 127h2M6 127h1M37 127h2" />
<path stroke="#3f4d35" d="M63 8h1M5 60h1" />
<path stroke="#141f0c" d="M52 9h1M22 27h1M11 38h1M33 39h1M40 42h1M54 43h1M63 43h1M46 48h1M46 50h2M62 51h1M34 52h1M61 53h1M30 54h1M45 54h1M0 55h1M12 57h1M3 58h1M16 59h1M31 59h1M46 59h1M48 59h1M57 60h1M1 61h1M46 61h1M57 61h1M0 62h1M45 62h1M61 62h1M64 62h1M0 63h1M37 64h1M4 65h1M10 65h1M39 65h1M6 66h1M10 66h1M27 66h1M47 66h4M3 67h2M9 67h1M47 67h1M7 68h1M64 68h1M12 69h1M12 70h1M13 71h1M3 72h1M10 73h1M9 74h1M23 74h1M31 74h1M10 75h1M23 76h1M6 77h1M24 77h1M62 77h2M3 78h2M23 78h1M32 80h1M22 81h1M62 84h1M5 86h1M12 86h1M5 87h1M15 87h1M56 87h1M11 88h1M27 89h1M56 89h2M11 90h2M25 90h1M7 91h1M28 92h1M2 94h1M19 94h1M3 95h2M23 95h1M3 96h1M8 97h1M20 97h1M11 98h1M9 99h1M19 99h1M3 100h1M5 100h2M8 100h1M20 100h1M1 101h1M12 101h4M56 101h1M6 102h1M13 102h1M49 102h1M3 103h1M25 103h1M47 103h2M14 104h1M26 104h1M9 105h1M24 105h1M41 105h1M44 105h1M46 105h1M48 105h1M14 106h1M40 106h1M14 107h1M18 107h1M39 107h1M38 108h2M32 109h1M35 109h1M37 109h2M2 110h1M37 110h1M36 111h1M1 112h1M32 112h1M37 112h1M0 113h2M4 113h1M64 113h1M48 114h1M16 115h2M12 116h2M15 116h3M7 117h1M9 117h1M11 117h4M17 117h1M48 117h1M3 118h1M6 118h1M16 118h1M36 118h1M47 118h1M63 118h1M11 119h1M8 120h1M12 120h1M49 120h5M55 120h1M57 120h1M32 121h1M42 121h2M57 121h4M62 121h1M64 121h1M6 122h1M30 122h1M39 122h1M41 122h1M47 122h1M58 122h1M2 123h1M43 123h1M57 123h1M63 123h2M6 124h1M8 124h1M39 124h1M45 124h1M61 124h4M6 125h2M46 125h1M48 125h1M51 125h1M1 126h3M37 126h1M52 126h1" />
<path stroke="#17250e" d="M63 9h1M29 33h1M34 41h1M61 43h1M61 46h1M61 47h3M61 48h1M47 52h1M1 53h1M10 53h1M63 53h1M27 54h1M27 55h1M3 56h1M30 56h1M63 56h1M1 57h1M60 57h1M60 58h1M63 58h1M11 59h3M63 59h2M11 60h3M3 61h1M37 62h1M60 62h1M2 63h1M37 63h1M60 63h1M2 64h1M17 64h1M38 64h1M31 65h1M36 65h1M12 66h2M25 67h1M6 68h1M14 68h1M39 69h1M14 70h1M27 70h1M31 71h1M62 71h1M62 72h1M13 73h1M28 73h1M12 74h2M7 78h1M25 78h1M64 78h1M6 79h2M9 79h1M62 79h1M64 79h1M6 80h2M63 80h1M9 81h3M14 81h1M25 81h1M9 82h2M15 82h1M24 82h1M9 83h1M11 83h1M14 83h2M7 84h5M7 85h1M9 85h2M27 85h1M31 85h1M8 86h1M16 86h1M26 86h1M29 86h1M28 88h1M63 88h1M29 89h1M26 90h1M1 91h2M0 92h3M24 92h1M2 93h1M15 94h2M15 95h2M17 96h2M0 97h1M6 97h1M17 97h1M22 97h1M24 97h1M27 97h1M0 98h1M6 98h1M9 98h1M19 98h1M23 98h1M0 99h1M37 100h1M40 100h1M42 100h2M25 101h5M31 101h1M30 102h1M52 102h1M28 103h3M35 103h1M51 103h1M12 106h1M20 106h1M13 107h1M9 109h1M42 109h1M39 112h1M29 114h1M22 116h1M31 118h1M24 120h1M29 122h1M3 123h1M2 124h1M12 124h2M8 127h1M39 127h1M41 127h5M47 127h2M50 127h1" />
<path stroke="#25331b" d="M47 10h1M63 11h1M37 24h1M34 33h1M35 34h1M32 46h1M32 48h1M34 50h1M47 51h1M33 52h1M34 53h1M37 53h1M33 54h1M33 55h1M37 55h1M33 56h1M36 57h1M43 57h1M36 58h1M44 58h1M35 59h1M35 60h1M37 61h1M35 62h1M34 65h1M32 66h1M33 67h1M36 68h1M26 70h1M37 70h1M27 71h1M34 71h1M38 72h1M37 73h2M41 77h1M39 78h1M41 78h1M40 79h1M9 111h1M9 127h1M26 127h1" />
<path stroke="#131e0b" d="M57 10h1M30 35h1M39 47h1M10 51h1M16 52h1M27 52h1M36 52h1M1 55h1M31 55h1M3 57h1M11 57h1M47 59h1M60 60h2M11 63h1M45 63h1M1 64h1M62 65h1M0 66h1M5 70h1M64 71h1M4 72h1M15 73h1M9 75h1M31 75h1M4 77h2M12 77h1M22 80h1M61 80h1M3 81h1M12 81h1M4 82h1M12 82h2M12 83h1M25 83h1M62 83h1M61 84h1M61 85h1M64 85h1M24 89h1M8 90h1M28 90h1M56 91h1M63 92h2M20 94h1M2 95h1M12 95h1M25 95h1M12 96h1M15 96h1M4 97h1M7 98h1M17 98h1M3 99h1M6 99h1M10 99h2M2 100h1M14 100h1M22 100h1M0 101h1M7 101h1M2 102h2M20 102h1M47 104h1M22 105h2M47 105h1M9 106h1M41 106h1M63 106h1M0 107h1M16 107h1M37 107h2M61 108h1M3 110h2M10 110h1M2 112h1M3 113h1M14 115h2M14 116h1M24 116h1M58 116h1M6 117h1M10 117h1M16 117h1M7 118h1M11 118h2M14 118h1M18 118h1M35 118h1M1 119h3M2 120h2M45 120h1M47 120h1M60 120h1M5 121h1M0 122h4M54 122h1M0 123h2M38 123h1M61 123h1M3 124h1M7 124h1M9 124h1M14 124h1M34 124h2M2 125h2M5 125h1M47 125h1M49 125h2M29 126h1M45 126h1M4 127h1" />
<path stroke="#070a04" d="M30 11h1M52 14h1M59 14h1M27 16h1M26 19h1M25 20h1M27 24h1M50 24h1M28 26h1M28 27h1M27 28h1M24 31h1M26 31h1M24 32h1M19 33h1M23 33h1M22 34h1M22 35h2M24 36h1M21 37h1M33 37h1M36 37h1M59 37h1M58 38h1M29 40h1M24 42h1M29 43h1M57 43h1M57 44h1M57 45h1M29 46h1M23 47h1M25 47h1M0 48h1M29 48h1M23 49h1M59 51h1M23 52h1M59 52h1M15 56h1M26 56h1M57 56h1M59 56h1M22 57h2M63 60h1M27 61h1M44 61h1M24 63h1M22 64h1M24 64h1M22 65h1M24 67h1M21 68h1M24 68h1M2 69h1M21 69h1M20 70h2M20 71h3M17 72h1M32 72h1M3 74h1M17 76h1M54 76h2M29 77h1M15 80h1M20 82h1M64 83h1M13 87h1M20 87h1M6 89h1M20 89h2M15 90h1M18 90h3M6 91h1M15 91h1M14 92h1M16 92h1M0 93h1M11 96h1M60 96h1M14 98h1M15 100h1M8 104h1M63 104h1M3 106h1M8 106h1M2 107h1M10 107h1M53 108h1M4 109h1M52 110h1M44 116h1M60 116h1M55 117h1M46 119h1M38 120h1M46 123h1M51 124h1M59 126h1M60 127h2" />
<path stroke="#0f1809" d="M30 12h1M28 30h1M30 33h1M0 51h1M29 54h1M25 55h1M29 56h1M13 57h1M5 64h2M64 64h1M10 68h1M42 69h2M55 70h1M60 70h1M9 72h1M48 72h1M21 74h1M57 74h1M56 75h1M15 77h1M9 88h1M10 91h1M22 94h1M1 96h1M16 97h1M19 100h1M0 102h1M25 102h1M2 103h1M0 106h1M8 111h1M60 113h1M59 117h1M33 121h1M35 121h1M38 121h1M38 124h1" />
<path stroke="#121d0b" d="M31 12h1M29 30h1M10 50h1M38 52h1M45 52h1M26 53h1M3 55h1M8 55h1M13 55h1M35 56h1M64 56h1M30 57h1M45 60h1M52 60h1M62 60h1M10 63h1M0 65h1M48 65h2M60 66h1M2 67h1M4 68h2M29 71h1M36 71h1M3 80h1M57 80h1M57 81h1M5 82h1M32 82h1M57 82h1M3 83h1M13 84h1M24 85h1M30 86h1M55 87h1M57 88h1M55 91h1M63 93h1M12 94h1M26 95h1M12 97h1M13 98h1M21 98h1M7 102h1M17 102h1M56 102h1M0 103h1M11 103h1M4 104h2M18 104h2M25 104h1M48 104h1M17 105h1M21 105h1M63 105h2M21 106h2M64 107h1M10 109h1M0 110h2M44 114h1M13 115h1M57 116h1M63 116h1M15 117h1M33 117h1M4 118h1M8 118h3M13 118h1M15 118h1M4 119h1M6 119h1M9 119h2M54 119h1M57 119h1M0 120h2M10 120h1M35 120h1M48 120h1M59 120h1M0 121h4M27 121h1M39 121h1M4 122h1M38 122h1M33 124h1M36 124h2M47 124h1M59 124h1M4 125h1M36 126h1" />
<path stroke="#414f37" d="M47 12h1M45 13h1M60 38h1M20 58h1M20 59h1M53 60h1" />
<path stroke="#1f2d15" d="M30 13h1M52 13h1M31 32h1M40 32h1M33 34h1M33 35h1M39 36h1M41 36h1M37 40h1M39 41h1M34 43h1M38 43h1M31 44h1M37 45h1M35 46h1M36 47h1M38 47h1M30 49h1M33 49h1M30 51h1M30 52h1M34 54h1M34 55h2M39 56h1M27 58h1M30 58h1M37 58h1M40 58h1M40 59h1M36 60h1M39 62h1M33 63h1M35 64h1M37 66h2M31 68h1M34 68h1M25 70h1M34 74h1M25 75h1M27 92h1M28 93h1M24 112h1M20 113h2M44 118h1M12 119h1M7 121h1M9 121h1M15 122h1M15 126h1" />
<path stroke="#233119" d="M31 13h1M30 15h3M30 16h2M29 17h1M32 17h2M29 18h3M29 19h2M29 20h1M34 32h1M41 33h1M31 34h1M36 35h1M56 46h1M31 47h1M33 51h1M37 57h1M37 60h1M39 60h1M33 61h2M27 67h1M26 69h1M33 71h1M35 72h1M33 73h1M33 74h1M39 75h1M36 77h2M37 78h2M31 79h1M37 79h1M38 80h1M29 91h1M29 92h1M50 112h1M13 113h1M16 119h1M24 124h1" />
<path stroke="#44523a" d="M42 13h1M25 18h1M52 30h2M52 31h3M53 32h3M55 33h1M62 33h1M64 33h1M56 34h1M56 35h1M46 36h1M64 36h1M4 43h1M52 61h1" />
<path stroke="#2d3b23" d="M46 13h1M19 54h1M4 55h1M29 104h1M13 110h1M11 114h1M31 117h1M34 119h2M37 119h2M18 122h1M28 122h1M6 123h1M12 126h1M14 127h1M17 127h1M20 127h1" />
<path stroke="#000000" d="M57 13h1M57 14h1M57 15h1M57 16h1M54 17h1M57 19h1M61 19h1M63 19h1M57 20h1M49 21h1M51 21h1M54 21h1M57 21h1M60 21h1M57 22h1M47 23h1M57 23h1M57 24h1M57 25h1M57 26h1M57 27h1M57 28h1M21 29h1M41 29h1M20 30h1M25 30h1M20 31h1M26 36h7M37 36h1M22 37h2M19 38h1M41 38h1M20 39h1M20 40h1M39 40h1M21 42h1M32 42h1M22 43h1M24 44h1M40 45h1M37 46h1M28 52h1M31 52h1M28 53h1M59 57h1M28 60h1M31 64h2M26 65h1M29 65h1M61 71h1M61 73h1M58 74h1M61 74h1M36 75h1M58 75h1M61 75h1M57 76h2M28 77h1M35 77h1M58 77h1M58 78h1M36 79h1M58 79h1M58 80h1M36 81h1M58 81h1M37 82h1M58 82h1M58 83h1M58 84h1M58 85h1M58 86h1M58 87h2M58 88h2M58 89h2M58 90h2M58 94h1M61 94h1M59 96h1M57 102h1M57 103h1M57 105h1M58 108h1M61 112h1M58 115h2M51 119h1M47 123h1M55 127h2" />
<path stroke="#080c05" d="M59 13h1M59 15h1M61 15h1M27 17h1M60 17h1M59 18h1M24 22h1M26 22h1M21 31h1M24 33h1M23 34h2M24 35h1M22 36h2M27 38h1M29 42h1M32 43h1M26 44h1M39 46h1M23 50h1M64 50h1M23 51h1M8 53h1M22 58h1M27 59h1M24 61h1M21 67h1M22 68h1M24 69h1M19 71h1M6 72h1M18 72h1M1 73h1M16 74h1M17 75h1M3 77h1M17 78h1M19 79h1M4 81h1M56 83h1M19 88h1M19 89h1M22 89h1M16 90h2M22 90h1M21 91h1M5 94h1M9 96h1M14 97h1M62 97h2M14 99h1M61 118h1M36 122h1" />
<path stroke="#010101" d="M28 14h1M54 20h2M60 20h1M53 21h1M63 21h1M54 22h3M63 22h1M27 23h1M54 23h1M57 29h1M36 43h1M25 44h1M36 46h1M22 47h1M58 73h1M59 75h1M59 76h1M59 78h1M59 86h1M58 91h2M58 92h2M58 93h2M59 94h1M58 95h2M58 96h1M58 97h2M58 98h1M58 101h1M15 107h1M58 109h1M64 111h1M49 113h1M33 125h1M55 125h1M57 125h1M54 126h5M60 126h1M57 127h3" />
<path stroke="#223018" d="M30 14h2M35 31h1M41 32h1M38 34h1M41 35h2M37 50h1M2 52h1M37 52h1M32 53h1M31 54h1M31 58h1M34 58h1M37 59h1M39 61h1M33 62h1M34 63h1M34 67h1M26 68h1M35 69h1M38 70h1M38 71h1M27 72h1M40 75h1M38 81h1M22 112h1M22 124h1M26 124h1" />
<path stroke="#101909" d="M62 14h1M29 15h1M53 24h1M27 31h1M27 32h1M28 35h1M10 36h1M39 37h1M39 39h1M56 43h1M7 45h1M30 45h1M56 45h1M60 48h1M7 50h1M7 51h3M61 51h1M12 52h1M22 52h1M29 52h1M59 54h1M64 54h1M29 55h1M16 58h1M18 58h1M33 58h1M1 59h1M50 59h1M56 59h1M3 60h1M43 60h1M50 60h1M55 62h1M6 63h1M57 64h1M27 65h1M46 65h1M56 66h1M11 67h1M56 67h2M60 67h1M3 68h1M32 68h1M37 68h1M40 68h1M48 68h1M51 68h2M60 68h1M4 69h1M29 69h1M41 69h1M46 69h1M56 69h2M40 70h1M42 70h2M47 70h1M2 71h1M1 72h1M10 72h1M31 72h1M2 73h1M8 73h1M27 73h1M57 73h1M0 75h1M32 75h1M14 76h1M21 76h1M26 76h1M56 76h1M57 77h1M2 78h1M57 78h1M23 79h1M20 80h1M56 80h1M60 80h1M2 81h1M30 81h1M34 82h1M56 82h1M61 82h1M31 84h1M56 85h1M23 86h2M55 86h1M7 87h1M57 87h1M61 87h1M5 88h1M10 88h1M16 88h1M62 88h1M14 89h1M61 89h2M64 89h1M61 90h1M9 91h1M26 91h2M54 91h1M10 92h1M61 92h1M7 93h1M10 93h1M57 93h1M3 94h1M8 94h2M23 94h2M57 94h1M61 95h1M61 96h1M61 98h1M13 99h1M21 99h1M61 99h1M17 100h1M9 101h2M27 102h1M42 102h1M13 103h1M50 104h1M60 104h1M64 104h1M19 105h1M60 105h1M19 106h1M23 106h1M1 107h1M7 107h1M4 108h1M8 108h1M18 108h1M0 109h1M5 109h1M9 110h1M63 111h1M46 113h1M61 114h2M12 115h1M56 116h1M4 117h1M47 117h1M60 117h1M34 118h1M57 118h1M56 119h1M5 120h1M42 120h1M56 120h1M41 121h1M33 122h1M28 123h1M35 123h1M31 124h1M48 124h1M0 125h1M10 125h1M22 125h1M31 125h1M53 125h1M36 127h1" />
<path stroke="#536149" d="M33 15h1M6 48h1M4 53h1M4 54h1" />
<path stroke="#1b2911" d="M29 16h1M38 31h1M39 33h1M42 37h1M39 42h1M35 44h1M34 49h1M63 51h2M32 54h1M12 55h1M27 57h1M61 57h1M29 63h1M31 67h1M39 73h1M35 75h1M26 80h1M37 80h1M32 81h1M34 81h1M27 88h1M35 102h2M33 112h1M41 112h1M64 119h1M9 120h1M8 121h1" />
<path stroke="#1e2c14" d="M33 16h1M39 32h1M19 34h1M36 40h1M38 41h1M60 41h1M39 45h1M32 62h1M25 72h1M25 73h1M42 78h1M30 84h1M25 89h1M26 92h1M25 93h2M50 107h1M29 116h1M22 117h1M28 121h1M32 122h1M27 124h1" />
<path stroke="#4e5a2e" d="M35 17h3M43 29h1" />
<path stroke="#4d592e" d="M38 17h1M39 18h2M40 19h1M41 20h1" />
<path stroke="#263211" d="M32 18h1M32 19h2M31 20h3" />
<path stroke="#253110" d="M33 18h2M31 19h1M30 20h1" />
<path stroke="#51580d" d="M35 18h1" />
<path stroke="#5a6111" d="M36 18h3M37 19h3M39 20h1M42 26h1" />
<path stroke="#1a2810" d="M56 18h1M39 31h1M32 33h1M35 40h1M34 42h1M32 50h1M34 51h1M12 53h1M13 54h1M16 56h1M62 57h1M39 63h1M37 65h1M31 66h1M26 67h1M28 74h1M29 76h1M29 81h1M32 84h1M29 90h1M18 95h1M34 102h1M45 104h1M51 106h1M20 107h1M54 107h1M41 115h1M14 120h1M13 122h1M23 124h1M10 126h1" />
<path stroke="#313903" d="M34 19h1M31 21h2M30 28h1" />
<path stroke="#353d02" d="M35 19h1" />
<path stroke="#636913" d="M36 19h1" />
<path stroke="#2b3921" d="M62 19h1M34 48h1M1 50h1M55 56h1M30 63h1M27 78h1M27 106h1M25 107h1M53 107h1M21 112h1M28 116h1M30 116h1M13 119h1M12 125h1M15 125h1M9 126h1M13 126h1M23 126h1M5 127h1M10 127h1M16 127h1M22 127h1" />
<path stroke="#425038" d="M64 19h1M54 30h1M63 36h1M63 48h1M49 60h1" />
<path stroke="#363e03" d="M34 20h1M32 24h1M32 25h1" />
<path stroke="#373f03" d="M35 20h1M33 21h3M35 23h3M37 25h1M32 26h1" />
<path stroke="#333b02" d="M36 20h1M31 26h1" />
<path stroke="#626813" d="M37 20h1" />
<path stroke="#606511" d="M38 20h1M38 21h1M39 22h1M40 23h1M40 24h1M39 25h2M39 26h1M40 27h1" />
<path stroke="#596011" d="M40 20h1M39 21h3M40 22h1M41 23h2M42 24h1M42 25h2M41 27h3" />
<path stroke="#24300f" d="M30 21h1" />
<path stroke="#384003" d="M36 21h1M33 24h1M33 26h1" />
<path stroke="#0b0d00" d="M37 21h1M33 22h1M35 22h3M30 24h1" />
<path stroke="#4c582d" d="M42 21h1M43 22h1M43 23h1M44 24h1" />
<path stroke="#0b1006" d="M64 21h1M34 23h1M20 34h1M25 35h1M27 35h1M35 37h1M28 38h1M27 40h1M59 40h1M22 41h1M26 41h2M59 41h1M22 42h1M26 42h3M59 42h1M26 43h3M59 43h1M11 45h1M26 45h1M25 46h1M55 47h1M8 48h2M53 48h1M55 48h2M26 49h1M25 50h1M26 51h1M9 52h1M55 53h1M15 54h1M55 54h1M45 55h1M54 55h1M10 56h1M12 56h1M54 57h1M43 59h2M14 60h1M54 60h2M45 61h1M8 62h2M15 62h1M18 62h1M21 62h1M25 62h1M41 62h1M49 62h1M8 63h1M19 63h1M23 63h1M25 63h1M56 63h1M7 64h1M9 64h1M28 64h1M6 65h1M2 66h1M7 66h3M14 66h1M21 66h1M44 66h1M15 68h1M46 68h1M23 69h1M10 70h1M64 70h1M8 71h2M14 71h1M16 71h1M46 71h1M55 71h1M14 72h1M44 72h2M52 72h1M42 73h1M44 73h3M48 73h1M51 73h2M55 73h1M46 74h1M48 74h5M45 75h1M49 75h4M44 76h1M49 76h3M49 77h1M51 77h1M11 78h1M13 78h1M24 78h1M29 78h2M44 78h1M48 78h1M51 78h1M29 79h1M1 80h1M47 80h2M48 81h2M53 81h2M60 81h1M49 82h1M23 83h1M54 83h2M28 84h1M51 84h2M54 84h1M51 85h1M53 86h1M18 87h1M3 88h1M8 88h1M53 88h1M56 90h1M62 90h1M17 91h1M36 91h1M20 92h1M56 93h1M61 97h1M7 100h1M57 100h1M60 101h1M62 103h1M22 104h1M6 105h1M2 109h1M51 109h1M62 110h2M62 116h1M53 119h1M27 125h1M64 125h1" />
<path stroke="#040602" d="M29 22h1M29 27h1" />
<path stroke="#070800" d="M31 22h1M41 30h1" />
<path stroke="#070900" d="M32 22h1" />
<path stroke="#1b2200" d="M34 22h1M33 23h1" />
<path stroke="#101400" d="M38 22h1M38 27h1" />
<path stroke="#585f10" d="M41 22h2M43 24h1M44 25h1M43 26h2M44 27h1" />
<path stroke="#34422a" d="M21 23h1M50 57h1M34 108h1M43 113h2M18 114h1M37 114h1M39 114h1M35 115h1M38 116h1M23 119h1M25 121h1M9 122h1M20 123h1" />
<path stroke="#0b1004" d="M29 23h1" />
<path stroke="#0a0b00" d="M30 23h1" />
<path stroke="#131700" d="M31 23h1M32 29h3" />
<path stroke="#313902" d="M32 23h1" />
<path stroke="#242d01" d="M38 23h1M40 30h1" />
<path stroke="#151b00" d="M39 23h1" />
<path stroke="#3c4a32" d="M20 24h1M19 55h1M15 57h1" />
<path stroke="#0a0f04" d="M29 24h1" />
<path stroke="#181e00" d="M31 24h1M35 29h1" />
<path stroke="#0b1d03" d="M34 24h1M34 25h1" />
<path stroke="#9da23b" d="M35 24h1M35 25h1M35 26h1M35 27h1" />
<path stroke="#454f02" d="M36 24h1" />
<path stroke="#040500" d="M38 24h1" />
<path stroke="#263001" d="M39 24h1M31 25h1M37 28h1M31 30h2" />
<path stroke="#5f6411" d="M41 24h1M41 25h1M38 26h1M40 26h2" />
<path stroke="#090e04" d="M29 25h1" />
<path stroke="#101300" d="M30 25h1" />
<path stroke="#3a4103" d="M33 25h1M32 27h1" />
<path stroke="#9bac3a" d="M36 25h1M36 26h1M36 27h1M35 28h2" />
<path stroke="#5e6310" d="M38 25h1" />
<path stroke="#060903" d="M29 26h1" />
<path stroke="#1a1f00" d="M30 26h1M34 28h1" />
<path stroke="#435c03" d="M34 26h1M34 27h1" />
<path stroke="#4e5409" d="M37 26h1M37 27h1" />
<path stroke="#303802" d="M30 27h2" />
<path stroke="#3b4204" d="M33 27h1M38 28h1M38 29h1" />
<path stroke="#454b06" d="M39 27h1" />
<path stroke="#182509" d="M29 28h1" />
<path stroke="#0d0f00" d="M31 28h1" />
<path stroke="#252e01" d="M32 28h1M39 30h1" />
<path stroke="#293201" d="M33 28h1" />
<path stroke="#060600" d="M39 28h1" />
<path stroke="#0f1100" d="M40 28h1" />
<path stroke="#565d11" d="M41 28h1" />
<path stroke="#575e11" d="M42 28h2" />
<path stroke="#15200c" d="M27 29h1M29 31h1M39 35h1M39 38h1M63 44h1M63 45h1M9 49h1M46 49h1M46 51h1M1 52h1M61 52h2M0 54h1M60 54h1M30 55h1M39 57h1M47 58h1M0 61h1M61 61h1M12 63h2M11 64h1M62 64h1M60 65h1M64 65h1M48 67h1M61 67h1M30 71h1M3 73h2M63 75h2M11 76h1M61 76h1M7 77h1M23 77h1M4 80h1M23 80h1M13 81h1M33 81h1M64 81h1M23 82h1M28 82h1M63 84h1M14 85h1M25 86h1M64 86h1M12 88h1M56 88h1M11 89h2M8 91h1M7 92h1M13 93h2M13 94h1M21 96h1M12 98h1M18 98h1M20 98h1M18 99h1M4 100h1M20 101h2M54 101h2M14 102h1M48 102h1M4 103h2M26 103h1M49 103h2M27 104h1M15 105h2M24 106h1M42 106h1M45 106h1M48 106h1M40 107h3M35 108h1M37 108h1M40 108h1M33 109h2M36 109h1M39 109h1M31 110h3M36 110h1M38 110h2M35 111h1M49 111h1M18 115h1M8 116h2M11 116h1M18 116h1M5 117h1M8 117h1M0 118h3M17 118h1M0 119h1M49 119h1M59 119h1M6 121h1M31 121h1M44 121h1M52 121h5M61 121h1M63 121h1M5 122h1M40 122h1M42 122h2M45 122h1M56 122h2M59 122h3M63 122h2M40 123h2M44 123h1M58 123h3M62 123h1M5 124h1M10 124h1M40 124h3M9 125h1M38 125h2M45 125h1M0 126h1M4 126h1M38 126h1M1 127h1M7 127h1" />
<path stroke="#19270f" d="M28 29h1M32 32h1M29 34h1M39 34h1M33 40h2M33 42h1M37 43h1M60 43h1M55 46h1M40 47h1M32 49h1M31 50h1M31 51h2M2 53h1M10 54h1M12 54h1M27 56h1M34 56h1M62 56h1M63 57h1M48 58h1M62 58h1M4 62h1M3 63h3M36 63h1M4 64h1M36 66h1M13 67h2M15 69h1M33 69h1M39 70h1M39 72h1M24 73h1M63 79h1M27 81h1M30 83h1M11 86h1M26 88h1M0 89h1M26 89h1M0 90h1M22 95h1M38 102h2M25 106h1M22 107h1M40 112h1M42 112h1M42 115h1M27 116h1M21 117h1M43 117h1M23 120h1M14 126h1" />
<path stroke="#121c0a" d="M29 29h1M28 32h1M28 34h1M38 40h1M55 43h1M34 46h1M38 49h1M11 50h1M38 51h1M64 52h1M0 53h1M3 54h1M26 54h1M36 55h1M62 55h1M50 58h2M61 59h1M56 60h1M64 60h1M56 61h1M60 61h1M42 62h1M44 62h1M57 62h1M9 63h1M44 63h1M47 65h1M57 65h1M1 66h1M26 66h1M46 66h1M1 67h1M8 67h1M12 67h1M1 68h2M11 68h1M35 68h1M63 68h1M0 69h1M5 69h1M29 70h1M36 70h1M41 70h1M57 70h1M12 71h1M41 71h2M56 71h2M2 72h1M9 73h1M8 74h1M22 74h1M8 75h1M22 75h1M9 76h2M22 78h1M57 79h1M21 81h1M3 82h1M25 82h1M30 82h1M33 82h1M5 85h1M62 85h1M4 86h1M4 87h1M6 87h1M16 87h1M26 87h1M6 88h2M55 88h1M10 89h1M24 90h1M11 91h1M11 92h1M61 93h1M18 94h1M25 94h3M55 94h2M62 94h2M7 95h1M24 95h1M27 95h1M9 100h1M21 100h1M11 101h1M19 101h1M1 102h1M12 102h1M18 102h1M29 102h1M7 103h1M10 103h1M32 103h1M64 103h1M20 105h1M42 105h1M61 106h2M61 107h1M2 108h2M6 108h2M15 108h2M8 109h1M49 110h1M0 112h1M22 113h1M43 115h1M25 116h1M59 116h1M36 117h1M64 117h1M43 118h1M5 119h1M7 119h2M50 119h1M4 120h1M6 120h2M43 120h2M46 120h1M54 120h1M58 120h1M62 120h1M4 121h1M34 121h1M31 122h1M11 123h1M37 123h1M48 123h1M56 123h1M21 124h1M32 124h1M46 124h1M60 124h1M1 125h1" />
<path stroke="#080c03" d="M30 29h1" />
<path stroke="#111600" d="M31 29h1" />
<path stroke="#1e2501" d="M36 29h1" />
<path stroke="#222b01" d="M37 29h1" />
<path stroke="#050500" d="M39 29h1" />
<path stroke="#3b4205" d="M40 29h1" />
<path stroke="#5b6112" d="M42 29h1" />
<path stroke="#2a3302" d="M33 30h1" />
<path stroke="#1f2601" d="M34 30h1M42 30h1" />
<path stroke="#1d290b" d="M35 30h1" />
<path stroke="#121a06" d="M36 30h1" />
<path stroke="#162008" d="M37 30h1" />
<path stroke="#273101" d="M38 30h1" />
<path stroke="#435139" d="M55 30h1M55 31h1M62 31h2M62 32h3M56 33h1M63 33h1M5 58h1" />
<path stroke="#111a0a" d="M28 31h1M40 31h1M28 33h1M40 38h1M40 46h1M9 50h1M11 51h1M11 52h1M29 53h1M7 56h1M2 57h1M57 63h1M10 64h1M5 65h1M57 66h1M7 67h1M10 67h1M12 68h1M40 69h1M60 69h1M56 70h1M3 71h1M40 71h1M43 71h1M48 71h1M41 72h2M30 75h1M12 76h1M63 76h1M3 79h1M22 79h1M60 79h1M21 80h1M55 81h2M61 81h1M63 85h1M27 86h1M56 86h2M61 86h1M9 87h1M61 88h1M8 89h1M15 89h2M7 90h1M57 90h1M12 92h1M56 92h1M12 93h1M55 93h1M11 94h1M21 94h1M1 95h1M11 95h1M56 95h1M11 97h1M25 100h1M19 102h1M18 106h1M3 109h1M6 109h2M61 111h1M62 113h1M11 115h1M44 115h1M34 117h1M37 117h1M33 118h1M37 118h2M61 119h1M61 120h1M29 123h1M36 123h1M49 123h1M49 124h1M23 125h1M52 125h1M35 126h1" />
<path stroke="#1d2b13" d="M31 31h1M36 32h1M38 42h1M31 43h1M39 44h1M31 45h1M38 45h1M53 55h1M4 57h1M28 61h1M28 62h1M39 68h1M25 69h1M34 69h1M29 73h1M36 73h1M37 75h2M55 104h1M52 106h1M55 107h1M31 114h1M42 117h1M30 119h1M30 121h1M17 122h1M27 123h1M25 124h1M24 125h1" />
<path stroke="#16230d" d="M29 32h1M41 37h1M34 39h2M52 43h1M62 43h1M61 44h2M60 45h1M62 45h1M38 46h1M60 46h1M60 47h1M0 52h1M27 53h1M10 58h3M38 59h1M60 59h1M47 62h1M31 63h1M47 63h1M49 63h1M62 63h2M12 65h2M63 66h2M5 67h2M62 67h1M33 68h1M13 69h1M31 70h1M63 71h1M12 72h1M63 72h2M11 74h1M62 74h2M12 75h1M13 77h1M6 78h1M5 79h1M24 79h1M5 80h1M62 80h1M26 81h1M62 81h1M6 82h1M14 82h1M7 83h1M10 83h1M28 83h1M16 84h1M25 84h1M16 85h1M26 85h1M28 85h2M7 86h1M63 87h1M64 91h1M3 92h1M37 92h1M1 93h1M9 93h1M22 96h3M5 97h1M18 97h1M21 97h1M27 99h1M29 99h1M31 100h1M24 101h1M4 102h2M32 102h1M51 102h1M15 103h1M27 103h1M15 104h1M17 104h1M27 105h1M13 106h1M54 106h1M47 107h1M49 107h1M43 108h3M30 111h1M25 112h1M43 112h1M21 114h1M21 116h1M23 116h1M20 117h1M58 117h1M23 122h1M18 125h1M42 125h1M42 126h3M40 127h1M49 127h1" />
<path stroke="#17240d" d="M31 35h1M60 42h1M62 46h2M36 50h1M48 55h1M2 56h1M14 59h1M2 62h1M48 62h1M60 64h1M64 67h1M14 69h1M62 70h1M25 71h1M12 73h1M63 73h1M28 75h1M33 76h1M24 80h1M64 80h1M6 81h1M28 86h1M62 87h1M64 90h1M23 97h1M25 97h2M8 98h1M24 98h3M28 99h1M41 102h1M44 102h2M16 104h1M43 109h1M21 115h1M13 120h1M46 127h1M51 127h1" />
<path stroke="#28361e" d="M60 39h1M64 44h1M31 46h1M33 50h1M44 51h1M38 56h1M29 60h1M30 61h1M26 78h1M31 109h1M40 110h1M23 112h1M33 120h1M28 126h1M18 127h1" />
<path stroke="#505e46" d="M12 41h1M9 42h1M11 42h1M8 43h1M41 47h1M4 51h2M13 53h1M53 56h1M48 57h2M49 58h1" />
<path stroke="#0e1709" d="M56 41h1M55 42h2M11 43h1M8 45h2M9 46h1M11 47h1M12 48h1M56 50h1M12 51h1M56 51h1M59 53h1M6 54h1M44 54h1M61 54h1M29 57h1M4 58h1M13 58h1M26 58h1M29 58h1M46 58h1M53 59h1M1 60h2M17 60h1M47 60h1M43 61h1M51 61h1M41 63h1M43 63h1M3 64h1M18 64h1M3 65h1M61 65h1M55 67h1M29 68h1M43 68h1M44 69h1M11 70h1M44 70h1M46 70h1M13 72h1M23 72h1M60 73h1M1 74h1M56 74h1M1 75h1M57 75h1M60 76h1M16 77h1M64 77h1M55 78h1M32 79h2M56 79h1M2 80h1M34 80h1M55 80h1M7 82h1M56 84h1M23 85h1M55 85h1M22 86h1M17 87h1M63 89h1M21 92h1M62 92h1M17 93h1M23 93h1M7 94h1M56 96h1M1 97h1M7 97h1M16 98h1M16 99h1M61 100h1M16 102h1M17 103h1M15 106h1M6 107h1M9 108h1M64 108h1M12 109h1M5 110h1M64 110h1M60 111h1M60 112h1M63 112h1M60 114h1M48 118h1M63 120h1M28 124h3M53 124h1M30 125h1M34 126h1" />
<path stroke="#37452d" d="M62 42h1M42 103h4M32 104h1M40 104h1M31 105h2M34 105h3M38 105h1M30 106h1M30 107h1M32 107h1M30 108h2M33 108h1M18 109h1M25 109h2M46 109h1M15 110h2M20 110h1M24 110h1M26 110h2M48 110h1M14 111h3M39 111h1M41 111h1M7 112h3M19 112h1M6 113h1M16 113h1M7 114h1M2 115h1M4 115h1M6 115h1M30 115h1M1 116h3M31 116h1M29 120h1" />
<path stroke="#3b4931" d="M7 53h1M19 95h2M20 111h1M22 111h1M6 116h1M3 117h1" />
<path stroke="#2a3820" d="M35 53h1M36 54h1M30 62h1M10 111h1M24 122h1M24 126h1" />
<path stroke="#35432b" d="M42 61h1M37 103h1M40 103h1M29 106h1M27 107h2M22 108h1M24 108h1M47 108h1M30 109h1M14 110h1M23 110h1M41 110h1M34 112h1M44 112h2M19 113h1M41 113h1M0 114h3M38 114h1M26 115h3M31 115h1M33 115h2M36 115h2M24 117h2M27 117h3M22 118h1M24 118h3M29 118h1M24 119h1M25 120h1M11 121h1M12 123h1" />
<path stroke="#2c3a22" d="M29 62h1M56 103h1M20 112h1M14 119h1M36 119h1M22 120h1M26 122h1M16 123h1M13 125h1M18 126h2M19 127h1M21 127h1" />
<path stroke="#403803" d="M40 81h1" />
<path stroke="#483f04" d="M41 81h1M43 81h1" />
<path stroke="#494005" d="M42 81h1M44 81h1M44 82h1" />
<path stroke="#181300" d="M45 81h1M47 82h2M49 83h1M46 84h1M48 84h1M41 93h1M45 96h1" />
<path stroke="#161200" d="M46 81h1M46 82h1M46 83h3M42 84h1M44 84h1M42 88h1M35 89h1M40 93h1M45 93h1M53 98h1" />
<path stroke="#2a2700" d="M36 82h1M33 89h1M50 92h1M38 94h1M55 96h1" />
<path stroke="#040200" d="M38 82h1" />
<path stroke="#5a4d02" d="M39 82h1M29 93h1M34 96h1" />
<path stroke="#3c3502" d="M40 82h4" />
<path stroke="#4c4205" d="M45 82h1M49 99h2" />
<path stroke="#201c00" d="M34 83h2M35 86h1M51 86h1M44 87h1M32 89h1M36 89h1M36 90h1M52 90h1M52 91h1M52 92h1M39 93h1M51 94h1M52 95h1M48 98h1" />
<path stroke="#1d1a00" d="M36 83h1M31 92h1M54 95h1" />
<path stroke="#070500" d="M37 83h2M43 84h1M36 87h1" />
<path stroke="#0e0b00" d="M39 83h2M45 83h1M41 85h2M42 89h1" />
<path stroke="#1a1700" d="M41 83h1M39 85h1M41 90h1M45 90h1M50 93h1M41 94h1M43 96h2" />
<path stroke="#0e0a00" d="M42 83h1" />
<path stroke="#050300" d="M43 83h1M34 87h1" />
<path stroke="#090700" d="M44 83h1M49 94h1" />
<path stroke="#272200" d="M33 84h1M49 84h2M48 85h3M36 86h1M47 86h3M31 87h1M47 87h4M47 88h4M48 89h4M48 90h1M50 90h1M35 91h1M49 91h1M51 91h1M54 92h1M54 99h1" />
<path stroke="#443d01" d="M34 84h1M45 86h1M33 91h1M30 94h2M32 95h3M38 98h1M47 101h2M50 102h1" />
<path stroke="#201e00" d="M35 84h1M51 87h2M51 88h1M32 90h1M53 90h1M46 91h1M53 91h1M51 92h1M53 92h1M54 96h1M56 98h1M56 99h1" />
<path stroke="#564a02" d="M36 84h1" />
<path stroke="#332e01" d="M37 84h1" />
<path stroke="#050400" d="M38 84h1M38 85h1" />
<path stroke="#181600" d="M39 84h1M47 89h1M44 90h1M41 91h1M36 92h1M36 93h1M46 93h1" />
<path stroke="#272300" d="M40 84h1M43 95h2M42 97h1" />
<path stroke="#3a3500" d="M41 84h1M34 85h1M47 91h1M55 95h1M35 96h1M52 97h1M52 99h1M50 101h1" />
<path stroke="#3a3600" d="M45 84h1M45 85h1M44 89h1M28 94h1M33 94h3M28 95h1M30 95h1M36 95h1M53 97h2" />
<path stroke="#242000" d="M47 84h1M34 86h1M46 86h1M50 86h1M45 87h2M45 88h2M52 88h1M52 89h1M51 90h1M48 91h1M31 93h1M56 97h1M52 98h1M55 98h1" />
<path stroke="#353000" d="M32 85h1M35 85h1M31 88h1M44 88h1M35 93h1M54 93h1M37 94h1M54 94h1" />
<path stroke="#3d3800" d="M33 85h1M36 85h1M46 85h1M45 89h1M29 95h1M35 95h1M50 97h1M54 100h2" />
<path stroke="#333101" d="M37 85h1M40 92h1" />
<path stroke="#302d01" d="M40 85h1M41 92h1" />
<path stroke="#141000" d="M43 85h1M42 93h1M51 95h1" />
<path stroke="#1e1b00" d="M44 85h1M44 94h1M46 95h1" />
<path stroke="#272500" d="M47 85h1M49 90h1M50 91h1" />
<path stroke="#1a1600" d="M32 86h1M34 91h1M53 96h1" />
<path stroke="#120f00" d="M37 86h1" />
<path stroke="#383501" d="M38 86h2M38 87h1M38 89h1M38 90h1M38 91h1M38 92h2M43 92h1" />
<path stroke="#393801" d="M40 86h1M39 87h3M40 91h1M42 91h2" />
<path stroke="#565001" d="M41 86h1" />
<path stroke="#3b3901" d="M42 86h1" />
<path stroke="#3d3b01" d="M43 86h1M43 87h1" />
<path stroke="#221d00" d="M44 86h1M45 92h1M38 93h1M48 93h2M43 94h1M45 94h1M48 95h2M40 97h1M47 98h1" />
<path stroke="#0c0900" d="M32 87h2M34 90h1" />
<path stroke="#080700" d="M35 87h1M34 88h1M34 89h1" />
<path stroke="#2c2701" d="M37 87h1M37 93h1M42 96h1M45 98h1M40 99h3M46 100h2" />
<path stroke="#3c3a01" d="M42 87h1" />
<path stroke="#161400" d="M32 88h1M36 88h1M35 90h1M55 99h1" />
<path stroke="#131000" d="M33 88h1" />
<path stroke="#080500" d="M35 88h1" />
<path stroke="#282401" d="M37 88h1M46 89h1M42 95h1M43 99h1" />
<path stroke="#383701" d="M38 88h1M39 91h1" />
<path stroke="#3d3d02" d="M39 88h1M39 89h1" />
<path stroke="#231f00" d="M40 88h1M44 91h1M47 92h2M43 93h1M42 94h1M51 97h1M46 98h1" />
<path stroke="#ad7801" d="M41 88h1" />
<path stroke="#1c1800" d="M43 88h1M49 92h1M44 93h1M40 94h1M46 94h3M50 98h1" />
<path stroke="#2f2c00" d="M31 89h1M33 90h1M47 90h1M32 91h1M52 93h2M53 95h1M51 98h1" />
<path stroke="#2d2a01" d="M37 89h1M37 90h1M37 91h1M42 92h1M41 96h1M46 97h2M38 99h2M38 100h2" />
<path stroke="#484c02" d="M40 89h1" />
<path stroke="#0c0600" d="M41 89h1" />
<path stroke="#252100" d="M43 89h1M47 93h1M39 95h1" />
<path stroke="#524801" d="M30 90h1M29 96h1" />
<path stroke="#322f00" d="M31 90h1" />
<path stroke="#3e3f02" d="M39 90h1" />
<path stroke="#2f2b01" d="M40 90h1M34 92h1" />
<path stroke="#363401" d="M42 90h1" />
<path stroke="#322e01" d="M43 90h1" />
<path stroke="#3f3901" d="M46 90h1M29 94h1M32 94h1M40 95h1M53 100h1M56 100h1" />
<path stroke="#4d4501" d="M30 91h1M38 96h1" />
<path stroke="#443e01" d="M31 91h1M39 96h1M36 98h2M30 100h1M46 101h1" />
<path stroke="#1e1a00" d="M45 91h1M46 92h1M51 93h1M39 94h1M50 94h1M47 95h1M48 96h2M49 98h1" />
<path stroke="#5b4e02" d="M30 92h1M38 101h1" />
<path stroke="#4a4301" d="M32 92h1M37 96h1M48 97h1M36 99h1M33 101h1" />
<path stroke="#4f4601" d="M33 92h1" />
<path stroke="#464101" d="M35 92h1M40 96h1M49 97h1M27 98h1M34 98h2M30 99h1M35 99h1M39 101h7" />
<path stroke="#141100" d="M44 92h1" />
<path stroke="#5d4f02" d="M30 93h1M32 97h1" />
<path stroke="#514701" d="M32 93h2M30 96h1M28 97h1" />
<path stroke="#544902" d="M34 93h1" />
<path stroke="#383200" d="M36 94h1M38 95h1M36 96h1M53 99h1" />
<path stroke="#2f2d00" d="M52 94h2M37 95h1" />
<path stroke="#423b01" d="M31 95h1M49 101h1" />
<path stroke="#2a2501" d="M41 95h1M43 97h2" />
<path stroke="#252200" d="M45 95h1M50 95h1M41 97h1" />
<path stroke="#705d06" d="M27 96h1M29 97h2M32 99h1" />
<path stroke="#6f5c06" d="M28 96h1M34 99h1" />
<path stroke="#695704" d="M31 96h1M39 97h1M33 98h1" />
<path stroke="#6b5905" d="M32 96h2M31 99h1M51 99h1" />
<path stroke="#2d2901" d="M46 96h2M41 100h1" />
<path stroke="#2c2801" d="M50 96h1M45 97h1M44 100h2" />
<path stroke="#0f0e00" d="M51 96h1M54 98h1" />
<path stroke="#725f07" d="M31 97h1M34 97h5M32 98h1M33 100h3M37 101h1" />
<path stroke="#625203" d="M33 97h1" />
<path stroke="#2d2800" d="M55 97h1" />
<path stroke="#464001" d="M28 98h1M36 100h1" />
<path stroke="#665504" d="M29 98h1" />
<path stroke="#746107" d="M30 98h2M35 101h2" />
<path stroke="#453c04" d="M39 98h1M44 98h1" />
<path stroke="#554b08" d="M40 98h1M46 99h2" />
<path stroke="#564c08" d="M41 98h3" />
<path stroke="#715e06" d="M33 99h1M32 100h1" />
<path stroke="#484201" d="M37 99h1" />
<path stroke="#363101" d="M44 99h1" />
<path stroke="#544a08" d="M45 99h1" />
<path stroke="#524807" d="M48 99h1" />
<path stroke="#514707" d="M48 100h2" />
<path stroke="#4e4406" d="M50 100h1" />
<path stroke="#6c5a05" d="M51 100h1" />
<path stroke="#6e5b05" d="M52 100h1" />
<path stroke="#605103" d="M34 101h1" />
<path stroke="#776308" d="M51 101h1" />
<path stroke="#313f27" d="M54 103h1M42 104h1M40 105h1M26 107h1M18 112h1M28 120h1M30 120h1M19 122h1M21 122h1M5 123h1M17 123h1M18 124h1M20 125h1" />
<path stroke="#39472f" d="M55 105h1M33 107h2M49 108h1M16 109h1M49 109h1M19 111h1M21 111h1M23 111h1M11 112h1M14 112h1M7 113h1M11 113h2M17 113h1M10 114h1M39 116h1" />
</svg>