<svg xmlns="http://www.w3.org/2000/svg" viewBox="0 -0.5 64 64" shape-rendering="crispEdges">
<metadata>Made with Pixels to Svg https://codepen.io/shshaw/pen/XbxvNj</metadata>
<path stroke="#b4a8a8" d="M43 19h8M40 20h9M50 20h2M38 21h8M47 21h2M50 21h3M38 22h2M44 22h3M49 22h6M36 23h3M41 23h2M44 23h4M51 23h7M35 24h5M42 24h1M45 24h4M50 24h1M52 24h7M33 25h8M43 25h2M46 25h3M50 25h1M52 25h8M31 26h5M39 26h3M43 26h2M46 26h3M50 26h2M54 26h7M30 27h6M37 27h1M40 27h2M43 27h12M56 27h5M29 28h3M34 28h2M39 28h1M41 28h5M47 28h3M54 28h2M57 28h5M29 29h3M35 29h2M38 29h5M44 29h3M48 29h3M52 29h2M55 29h2M58 29h5M28 30h2M33 30h2M36 30h1M38 30h2M42 30h2M45 30h3M49 30h3M53 30h2M57 30h3M61 30h3M24 31h6M31 31h1M34 31h1M36 31h6M43 31h2M47 31h1M49 31h3M53 31h11M23 32h7M31 32h2M34 32h5M43 32h3M49 32h2M52 32h12M27 33h3M32 33h1M34 33h9M44 33h11M56 33h8M20 34h1M28 34h3M32 34h11M44 34h5M58 34h4M19 35h1M29 35h14M44 35h3M59 35h2M19 36h1M30 36h16M31 37h13M34 38h7" />
<path stroke="#ffffff" d="M49 20h1M46 21h1M49 21h1M40 22h4M47 22h2M39 23h2M43 23h1M48 23h3M40 24h2M43 24h2M49 24h1M51 24h1M41 25h2M45 25h1M49 25h1M51 25h1M36 26h3M42 26h1M45 26h1M49 26h1M52 26h2M36 27h1M38 27h2M42 27h1M55 27h1M32 28h2M36 28h3M40 28h1M46 28h1M50 28h4M56 28h1M32 29h3M37 29h1M43 29h1M47 29h1M51 29h1M54 29h1M57 29h1M30 30h3M35 30h1M37 30h1M40 30h2M44 30h1M48 30h1M52 30h1M55 30h2M60 30h1M30 31h1M32 31h2M35 31h1M42 31h1M45 31h2M48 31h1M52 31h1M30 32h1M33 32h1M39 32h4M46 32h3M51 32h1M30 33h2M33 33h1M43 33h1M31 34h1M43 34h1M43 35h1" />
<path stroke="#696a6a" d="M6 22h5M6 23h5M5 24h6M4 25h7M4 26h7M4 27h7M3 28h8M2 29h9M1 30h10M1 31h10M1 32h10M1 33h5M8 33h3M1 34h10M1 35h10M1 36h10M1 37h5M8 37h3M1 38h10M1 39h10M1 40h10M1 41h5M8 41h3M2 42h9M3 43h1M9 43h2M9 44h2M9 45h2" />
<path stroke="#cbdbfc" d="M11 22h20M11 23h20M11 24h2M30 24h1M11 25h2M30 25h1M11 26h2M30 26h1M11 27h2M11 28h2M11 29h2M11 30h2M11 31h2M11 32h2M11 33h2M11 34h2M11 35h2M11 36h2M11 37h2M11 38h2M11 39h2M30 39h1M11 40h2M30 40h1M11 41h2M30 41h1M11 42h2M30 42h1M11 43h2M30 43h1M11 44h20M11 45h20" />
<path stroke="#595652" d="M13 24h17M29 25h1M29 26h1M29 27h1M6 33h1M6 37h1M29 38h1M29 39h1M29 40h1M6 41h1M29 41h1M29 42h1M13 43h17" />
<path stroke="#567a52" d="M13 25h8M22 25h1M24 25h5M13 26h9M23 26h6M13 27h9M23 27h6M13 28h9M23 28h6M13 29h8M22 29h3M26 29h3M13 30h8M22 30h4M13 31h5M19 31h1M22 31h2M13 32h6M13 33h5M13 34h5M23 34h3M13 35h3M24 35h4M13 36h2M16 36h3M22 36h1M24 36h5M14 37h5M20 37h4M25 37h4M13 38h5M19 38h5M26 38h3M13 39h5M19 39h10M13 40h4M18 40h11M13 41h5M19 41h10M13 42h6M20 42h9" />
<path stroke="#9dbd93" d="M21 25h1M23 25h1M22 26h1M22 27h1M22 28h1M21 29h1M21 30h1M18 31h1M20 31h1M23 35h1M15 36h1M13 37h1M19 37h1M18 38h1M25 38h1M18 39h1M17 40h1M18 41h1M19 42h1" />
<path stroke="#d2dccd" d="M25 29h1M26 30h2M21 31h1M18 33h1M16 35h2M23 36h1" />
<path stroke="#293a31" d="M19 32h3M19 33h2M18 34h2M18 35h1M22 35h1" />
<path stroke="#5d5858" d="M22 32h1M21 33h6M55 33h1M21 34h2M26 34h2M49 34h9M62 34h1M20 35h2M28 35h1M47 35h3M56 35h3M61 35h1M20 36h2M29 36h1M46 36h2M58 36h3M29 37h2M44 37h3M30 38h4M41 38h5M33 39h10M37 40h4" />
<path stroke="#444d4d" d="M7 33h1M7 37h1M7 41h1" />
<path stroke="#d1dccd" d="M24 37h1M24 38h1" />
<path stroke="#484541" d="M4 43h5M4 44h1M8 44h1M4 45h1M8 45h1" />
<path stroke="#ac3232" d="M5 44h1" />
<path stroke="#6abe30" d="M6 44h1" />
<path stroke="#5b6ee1" d="M7 44h1" />
<path stroke="#d95763" d="M5 45h1M4 46h1M3 47h1M0 48h3" />
<path stroke="#99e550" d="M6 45h1M5 46h1M4 47h1M3 48h1M0 49h3" />
<path stroke="#639bff" d="M7 45h1M6 46h2M5 47h2M4 48h2M3 49h2M0 50h4" />
</svg>