<svg xmlns="http://www.w3.org/2000/svg" viewBox="0 -0.5 32 12" shape-rendering="crispEdges">
<metadata>Made with Pixels to Svg https://codepen.io/shshaw/pen/XbxvNj</metadata>
<path stroke="#b4b4b4" d="M3 3h19M2 4h1M1 5h1" />
<path stroke="#c5be2b" d="M22 3h1" />
<path stroke="#b49104" d="M23 3h2" />
<path stroke="#393734" d="M3 4h19M2 5h19" />
<path stroke="#656116" d="M22 4h2M21 5h1M24 5h1" />
<path stroke="#997c09" d="M24 4h1" />
<path stroke="#872828" d="M22 5h1" />
<path stroke="#992828" d="M23 5h1" />
<path stroke="#502d27" d="M25 5h1M27 5h1M29 5h1" />
<path stroke="#361e1a" d="M26 5h1M28 5h1M30 5h1" />
<path stroke="#000000" d="M31 5h1M31 6h1" />
<path stroke="#e2e2e2" d="M1 6h1M2 7h1" />
<path stroke="#3e3c3a" d="M2 6h19M3 7h19" />
<path stroke="#807b1b" d="M21 6h1M24 6h1M22 7h2" />
<path stroke="#c33232" d="M22 6h1" />
<path stroke="#ac3232" d="M23 6h1" />
<path stroke="#663931" d="M25 6h1M27 6h1M29 6h1" />
<path stroke="#442621" d="M26 6h1M28 6h1M30 6h1" />
<path stroke="#c39e0b" d="M24 7h1" />
<path stroke="#e8e8e8" d="M3 8h19" />
<path stroke="#fbf236" d="M22 8h1" />
<path stroke="#e5b804" d="M23 8h2" />
</svg>