<svg xmlns="http://www.w3.org/2000/svg" viewBox="0 -0.5 150 100" shape-rendering="crispEdges">
<metadata>Made with Pixels to Svg https://codepen.io/shshaw/pen/XbxvNj</metadata>
<path stroke="#2a2f2d" d="M0 0h4M10 0h1M12 0h7M0 1h5M6 1h3M12 1h7M3 2h2M6 2h1M12 2h8M0 3h1M2 3h4M12 3h1M14 3h6M0 4h5M6 4h2M13 4h7M0 5h6M7 5h1M14 5h5M0 6h6M13 6h6M25 6h3M0 7h2M3 7h2M13 7h9M24 7h5M2 8h5M13 8h17M0 9h2M3 9h1M5 9h26M0 10h4M7 10h3M11 10h24M0 11h5M7 11h3M11 11h4M17 11h19M0 12h4M17 12h19M9 13h2M19 13h17M1 14h1M22 14h15M0 15h3M22 15h16M22 16h16M23 17h17M48 17h3M23 18h1M25 18h27M23 19h1M25 19h28M24 20h7M32 20h22M24 21h1M28 21h1M31 21h26M33 22h25M34 23h25M36 24h23M41 25h8M50 25h9M47 26h1M51 26h7M53 27h4M38 45h1M36 48h1M37 52h1M52 52h1M55 52h1M37 54h1M48 54h1M97 54h1M43 75h1M41 79h1M42 84h1M77 91h1M81 92h1M94 93h1M85 95h1M99 95h1M99 96h4M92 97h2M93 98h2M104 98h1M69 99h2M93 99h1M104 99h1M106 99h2M112 99h1" />
<path stroke="#292e2b" d="M4 0h6M11 0h1M5 1h1M9 1h3M0 2h3M5 2h1M7 2h5M1 3h1M6 3h6M13 3h1M5 4h1M8 4h5M6 5h1M8 5h6M6 6h7M24 6h1M5 7h8M23 7h1M7 8h6M69 10h1M56 28h1M35 45h1M35 46h1M35 47h1M36 49h1M45 50h2M53 51h1M96 52h1M44 53h1M96 53h1M99 53h1M105 53h1M96 54h1M40 74h1M36 88h2M63 88h1M95 93h1M45 94h1M48 94h1M66 94h1M97 94h1M49 95h1M100 95h1M96 96h1M48 97h1M59 97h1M94 97h3M34 98h1M69 98h1M95 98h5M102 98h2M26 99h1M67 99h1M72 99h1M81 99h1M91 99h1M94 99h6M105 99h1M109 99h1" />
<path stroke="#070908" d="M19 0h1M116 0h1M119 0h2M19 1h1M81 1h4M110 1h1M20 2h1M75 2h1M20 3h2M69 3h6M21 4h9M51 4h3M58 4h2M61 4h13M29 5h15M45 5h14M60 5h10M89 5h1M33 6h35M77 6h1M34 7h19M55 7h3M61 7h1M75 7h1M39 8h3M43 8h7M88 9h1M85 10h1M83 11h1M117 13h1M128 13h1M116 14h1M140 14h1M112 15h1M139 15h1M110 16h2M136 16h1M98 17h1M102 17h1M104 17h1M68 18h1M100 18h1M90 19h1M88 20h1M65 22h1M82 24h1M65 25h1M2 33h1M62 33h1M120 34h1M48 35h1M16 36h1M50 38h1M58 38h1M60 38h1M4 39h1M14 39h1M100 40h1M23 41h1M85 41h1M87 41h1M32 42h1M64 43h1M97 44h1M28 45h1M99 45h1M109 45h1M119 45h1M102 46h1M109 46h1M101 47h1M116 47h1M105 48h1M77 49h1M69 50h1M53 56h1M116 57h1M120 57h1M57 58h1M110 58h1M115 58h1M120 58h1M122 58h1M115 59h1M121 59h2M53 60h1M55 60h1M115 60h2M112 61h1M120 61h1M113 62h1M120 62h1M105 63h1M113 63h1M116 63h1M120 63h1M93 64h1M111 64h2M120 64h1M32 65h1M34 65h2M121 65h1M51 66h1M120 66h2M71 67h1M120 67h1M64 68h1M93 68h1M96 68h1M107 68h1M109 68h1M114 68h1M117 68h1M120 68h1M0 69h2M35 69h1M39 69h2M42 69h1M99 69h1M101 69h1M103 69h1M105 69h1M109 69h2M114 69h1M92 70h1M101 70h1M105 70h1M110 70h1M74 71h1M96 71h1M105 71h1M109 71h1M114 71h1M130 71h1M96 72h1M103 72h1M105 72h1M109 72h1M114 72h1M119 72h1M96 73h1M101 73h1M103 73h1M105 73h1M109 73h1M114 73h1M119 73h1M94 74h1M100 74h1M105 74h1M109 74h2M119 74h1M119 75h1M100 76h6M109 76h2M116 76h1M119 76h1M100 77h4M107 77h1M48 79h1M86 79h1M98 79h1M87 80h1M107 80h1M72 81h1M80 81h1M87 81h1M119 81h1M70 82h1M75 82h2M87 82h1M118 82h2M76 83h1M85 83h1M87 83h1M118 83h1M72 84h1M77 84h1M85 84h2M118 84h1M144 84h1M86 85h1M118 85h2M14 86h1M31 86h1M83 86h1M82 87h1M2 88h1M90 88h1M37 89h1M105 89h1M116 91h1M34 92h1M41 92h1M65 92h1M91 92h1M122 92h1M25 93h1M35 93h1M40 93h1M146 93h1M7 94h1M114 94h1M148 94h1M31 95h1M120 96h1M36 97h1M50 97h1M57 97h1M102 97h3M124 97h1M126 97h1M130 97h1M141 97h2M56 98h1M124 98h1M138 98h1M41 99h1M127 99h1M137 99h1M141 99h1" />
<path stroke="#030606" d="M20 0h2M36 0h3M63 0h2M70 0h1M72 0h13M121 0h1M144 0h1M147 0h1M149 0h1M21 1h3M25 1h2M32 1h10M44 1h5M52 1h2M55 1h4M60 1h1M63 1h5M69 1h2M72 1h3M76 1h3M22 2h15M41 2h18M60 2h5M66 2h2M27 3h3M31 3h1M33 3h1M39 3h6M49 3h1M51 3h2M91 4h1M91 5h1M91 9h1M86 10h2M84 11h1M119 11h1M118 12h1M131 12h1M77 13h1M129 13h1M75 14h1M128 14h1M108 17h2M95 18h1M89 20h1M84 22h2M61 30h1M47 37h1M51 37h1M83 37h1M15 38h1M83 38h1M13 39h1M84 41h1M62 44h1M98 45h1M13 46h1M93 51h1M58 55h1M116 56h1M48 58h1M3 60h1M9 60h1M54 60h1M84 62h1M122 62h1M104 63h1M122 63h1M7 64h1M92 64h1M97 64h3M114 64h1M122 64h1M2 65h1M31 65h1M38 65h1M114 65h1M70 67h1M101 67h1M111 67h1M117 67h1M121 67h1M7 68h1M108 68h1M116 68h1M2 69h2M8 69h1M49 69h1M108 69h1M111 69h1M116 69h1M94 70h1M99 70h1M107 70h2M111 70h2M116 70h2M120 70h1M94 71h1M97 71h1M107 71h1M111 71h2M115 71h2M120 71h1M131 71h1M97 72h1M112 72h1M115 72h1M120 72h1M94 73h2M97 73h1M107 73h2M112 73h1M120 73h1M56 74h1M97 74h1M101 74h1M107 74h1M115 74h1M112 76h1M112 77h1M114 77h2M122 77h1M106 78h2M109 78h1M117 78h1M122 78h1M122 79h1M134 80h1M134 81h1M34 82h1M77 82h1M77 83h1M80 83h1M143 83h1M119 84h1M32 86h1M85 86h2M118 86h1M144 87h1M118 88h1M118 90h1M32 91h1M119 91h2M7 92h1M9 92h1M143 93h1M35 95h1M53 97h1M26 98h1M49 98h1M129 98h1M137 98h1M39 99h1M43 99h1M144 99h1" />
<path stroke="#020505" d="M22 0h14M39 0h24M65 0h5M71 0h1M117 0h1M124 0h1M148 0h1M24 1h1M27 1h5M42 1h2M49 1h3M54 1h1M59 1h1M61 1h2M68 1h1M111 1h1M113 1h1M77 2h1M104 2h1M106 2h1M90 4h1M94 4h1M88 8h1M89 9h1M132 11h1M78 13h1M73 15h2M116 15h1M124 15h1M112 16h2M111 17h1M101 18h1M105 18h1M67 19h1M84 23h1M65 24h1M76 27h1M79 27h1M55 32h1M13 33h1M14 34h1M1 35h1M122 36h1M53 37h1M55 37h1M14 40h1M65 43h1M74 43h1M0 44h1M2 44h1M31 46h1M6 48h1M28 48h1M22 49h1M28 49h1M95 49h1M71 50h1M111 52h1M55 55h1M116 55h1M12 59h1M40 59h1M9 61h1M44 62h1M47 62h1M114 63h1M100 64h5M115 64h2M113 65h1M122 65h1M122 66h1M51 67h1M108 67h1M112 67h1M122 67h1M48 68h1M58 68h1M72 68h2M94 68h2M115 68h1M121 68h2M4 69h1M34 69h1M38 69h1M94 69h1M97 69h1M122 69h1M80 70h1M97 70h1M95 71h1M99 71h1M108 71h1M117 71h1M99 72h1M108 72h1M111 72h1M116 72h2M127 72h1M130 72h1M99 73h1M111 73h1M116 73h1M122 73h1M93 74h1M95 74h1M99 74h1M108 74h1M111 74h2M116 74h1M120 74h1M127 74h1M116 75h1M120 75h1M122 75h1M113 76h3M120 76h1M84 78h1M102 78h4M96 79h1M120 80h1M122 80h1M76 81h1M120 81h1M67 82h1M82 82h1M102 82h1M120 82h1M67 83h1M74 83h1M120 84h1M79 85h1M120 85h1M87 86h1M98 87h1M118 87h1M120 87h1M98 88h1M120 88h1M115 89h1M120 89h1M115 90h1M120 90h1M5 93h1M23 93h1M141 93h1M145 93h1M121 95h1M34 96h2M24 97h1M35 97h1M52 97h1M119 97h1M149 97h1M132 98h1M134 98h1M46 99h1" />
<path stroke="#050707" d="M85 0h2M93 0h1M122 0h2M20 1h1M71 1h1M75 1h1M79 1h2M21 2h1M37 2h4M59 2h1M65 2h1M68 2h7M76 2h1M22 3h5M30 3h1M32 3h1M34 3h5M45 3h4M50 3h1M53 3h16M30 4h21M54 4h4M60 4h1M44 5h1M59 5h1M129 9h1M88 10h1M130 12h1M130 13h1M140 13h1M115 15h1M140 15h1M103 16h1M137 16h1M96 17h1M107 17h1M92 19h1M77 27h1M79 31h1M125 31h1M11 32h1M61 34h1M5 40h1M29 40h1M86 41h1M85 42h1M22 43h1M32 44h1M115 44h1M31 45h1M4 49h1M17 50h1M19 50h1M70 50h1M54 55h1M52 57h1M111 58h2M116 58h1M56 59h1M120 59h1M42 60h1M52 60h1M120 60h1M122 60h1M122 61h1M94 64h3M113 64h1M115 65h2M73 66h1M3 67h1M62 67h1M98 67h1M105 67h1M4 68h1M97 68h1M111 68h2M30 69h1M36 69h1M79 69h1M96 69h1M107 69h1M112 69h1M115 69h1M117 69h1M120 69h1M129 69h1M96 70h1M103 70h1M114 70h2M101 71h1M103 71h1M110 71h1M94 72h2M101 72h1M107 72h1M110 72h1M110 73h1M115 73h1M127 73h1M96 74h1M103 74h1M114 74h1M106 76h3M111 76h1M122 76h1M104 77h3M108 77h4M113 77h1M116 77h1M119 77h1M108 78h1M110 78h7M119 78h1M119 79h1M71 80h1M119 80h1M135 81h1M65 82h1M66 83h1M71 83h2M86 83h1M119 83h1M69 84h1M149 84h1M80 85h1M8 89h1M118 91h1M4 92h1M120 92h2M147 92h1M43 93h1M68 94h1M70 94h1M30 95h1M47 96h1M114 97h1M120 97h1M41 98h1M125 99h1" />
<path stroke="#090b0a" d="M87 0h1M110 0h1M114 0h1M108 1h1M96 3h1M99 3h1M93 4h1M19 5h5M26 5h1M22 6h1M72 6h1M29 7h2M69 7h3M30 8h3M70 8h1M31 9h2M67 9h2M87 9h1M35 10h1M56 10h11M84 10h1M37 11h1M54 11h13M37 12h27M80 12h1M117 12h1M40 13h18M59 13h1M76 13h1M116 13h1M44 14h1M46 14h4M51 14h2M54 14h4M74 14h1M115 14h1M126 14h1M139 14h1M111 15h1M137 15h1M69 17h1M101 17h1M105 17h1M93 18h1M89 19h1M87 20h1M77 26h1M63 27h1M73 27h1M59 35h1M10 39h1M79 40h1M79 41h1M119 41h1M66 42h1M20 43h1M62 43h1M11 44h1M95 44h1M119 44h1M14 46h1M96 46h1M97 47h1M29 48h1M95 48h1M104 48h1M119 48h1M26 49h1M73 49h1M120 49h2M116 50h1M120 50h2M111 51h1M111 54h1M115 55h1M122 55h1M52 56h1M115 56h1M114 57h1M102 58h1M113 58h2M119 58h1M95 59h1M101 59h2M105 59h2M108 59h2M119 59h1M50 60h1M92 60h2M95 60h3M100 60h1M103 60h2M106 60h4M112 60h1M119 60h1M47 61h2M93 61h7M106 61h1M108 61h1M115 61h1M18 62h1M42 62h1M46 62h1M93 62h8M107 62h1M114 62h1M119 62h1M44 63h1M94 63h5M107 63h5M119 63h1M40 64h1M106 64h2M33 65h1M51 65h1M49 66h1M119 66h1M74 67h2M98 68h1M100 68h1M110 68h1M139 68h1M48 69h1M98 69h1M87 70h1M98 70h1M87 71h1M93 71h1M98 71h1M118 71h1M127 71h1M86 72h2M92 72h1M140 72h1M86 73h2M98 73h1M87 74h1M118 74h1M91 75h3M118 75h1M92 76h1M92 77h2M83 78h1M101 78h1M85 79h1M85 80h1M111 80h1M67 81h1M75 81h1M82 81h1M85 81h1M33 82h1M79 82h1M64 83h1M71 84h1M145 84h1M147 84h1M87 85h1M89 85h1M73 86h1M75 86h1M81 86h1M12 87h1M86 87h1M90 87h1M7 88h1M9 88h1M22 88h1M100 88h1M3 89h1M88 89h1M4 90h1M9 90h1M21 90h1M4 91h1M9 91h1M96 91h1M0 92h1M33 93h1M103 93h1M23 94h2M33 94h1M141 94h2M145 94h1M24 95h1M114 95h1M126 95h1M141 95h1M5 96h1M27 96h1M40 96h1M42 96h3M73 96h1M117 96h2M128 96h1M131 96h1M147 96h1M149 96h1M42 97h1M112 97h1M131 97h3M139 97h1M147 97h1M42 98h1M45 98h1M139 98h1M149 98h1M0 99h1M23 99h1M34 99h1M45 99h1M140 99h1M147 99h3" />
<path stroke="#1d201f" d="M88 0h3M98 0h1M81 3h1M90 3h1M74 4h1M84 4h2M83 5h1M106 7h1M77 8h3M81 8h1M104 8h3M76 9h1M102 9h3M74 10h1M94 11h1M98 11h2M134 11h1M68 12h1M72 12h1M87 12h1M96 12h2M122 12h1M92 13h2M87 15h1M66 17h1M83 17h2M80 21h1M74 24h1M73 25h1M69 26h2M67 27h1M57 29h1M57 30h1M55 31h1M3 33h1M50 34h1M9 35h1M11 35h2M77 35h1M53 36h1M87 36h1M4 37h1M6 37h2M79 37h1M86 37h1M61 39h1M75 39h1M4 40h1M73 40h1M85 40h1M3 41h1M54 41h3M27 42h2M18 43h1M102 43h1M7 45h1M24 45h1M34 45h1M5 46h1M40 46h1M42 47h3M46 47h2M48 48h1M50 50h1M101 53h1M104 53h1M107 53h1M38 55h1M50 55h2M41 56h2M40 57h2M48 57h1M39 58h1M41 58h1M36 61h2M31 62h1M47 64h1M74 69h1M36 70h1M46 70h1M51 70h1M53 70h2M61 71h1M78 71h1M80 71h1M15 72h1M17 72h1M42 72h1M46 72h1M52 72h1M55 72h1M33 73h1M35 73h1M39 73h1M42 73h2M59 73h1M82 73h2M61 74h1M63 74h2M57 75h1M78 75h1M80 75h1M63 76h1M65 76h1M76 76h2M79 76h1M46 77h1M60 77h3M60 78h1M62 78h1M67 78h3M10 79h1M15 79h2M18 80h1M32 85h1M21 92h1M3 93h1M21 93h1M42 93h1M96 93h1M3 94h1M26 94h2M75 95h1M10 96h1M33 96h1M38 96h1M50 96h1M38 98h1M7 99h1M116 99h1M122 99h1" />
<path stroke="#141715" d="M91 0h1M104 0h1M81 9h1M128 9h1M79 10h1M114 10h1M77 11h2M126 11h1M136 11h1M76 12h1M110 12h1M125 12h1M106 13h1M108 13h1M135 13h1M85 14h1M105 14h1M98 15h1M96 16h1M67 17h1M83 20h1M4 24h2M7 24h1M58 26h1M70 27h1M42 28h2M67 28h1M15 33h1M122 33h1M4 34h1M33 34h1M52 34h1M35 35h1M56 35h1M10 37h1M12 37h1M108 39h1M66 40h1M75 40h1M114 40h1M118 40h1M30 43h1M107 43h1M118 43h1M27 44h1M118 44h1M11 45h2M27 45h1M110 45h1M6 47h1M22 47h1M23 48h1M72 48h1M57 56h1M36 59h1M50 63h1M60 69h1M39 70h1M61 70h1M82 70h1M45 73h1M53 73h1M58 73h1M62 75h1M71 76h1M69 77h1M73 78h1M49 80h1M60 80h1M62 81h1M19 82h1M62 82h1M72 82h1M12 83h1M58 83h1M15 84h1M59 84h1M65 84h1M57 85h1M60 85h1M66 85h1M70 85h1M5 86h1M11 86h1M57 86h1M67 86h1M19 87h2M73 87h1M26 88h1M29 88h1M33 88h1M25 89h2M30 89h1M23 90h1M25 90h1M20 95h1M58 97h1M72 98h1M16 99h1M30 99h1" />
<path stroke="#080a09" d="M92 0h1M85 1h2M112 1h1M103 2h1M105 2h1M75 3h1M20 4h1M27 5h2M70 5h3M80 5h1M87 5h1M28 6h5M68 6h4M31 7h3M53 7h2M58 7h3M62 7h7M33 8h6M42 8h1M50 8h20M33 9h34M36 10h20M131 10h1M36 11h1M38 11h16M79 12h1M81 12h1M127 14h1M113 15h2M138 15h1M100 16h1M108 16h2M106 17h1M66 19h1M93 19h1M81 25h1M64 26h1M71 28h1M60 30h1M52 37h1M87 40h1M48 42h1M67 42h2M75 42h2M78 42h1M106 42h1M8 43h1M60 43h2M56 44h1M17 45h1M30 45h1M93 45h1M28 46h1M117 46h1M119 46h1M119 47h1M74 48h1M78 48h1M109 48h1M14 50h1M21 50h1M120 51h1M120 52h1M102 53h1M111 53h1M120 53h1M53 54h1M120 54h1M120 55h1M120 56h1M122 56h1M115 57h1M122 57h1M11 58h1M109 58h1M121 58h1M55 59h1M110 59h5M116 59h1M110 60h2M113 60h2M121 60h1M43 61h1M74 61h1M92 61h1M105 61h1M109 61h3M113 61h2M119 61h1M121 61h1M105 62h2M108 62h5M121 62h1M1 63h1M101 63h1M106 63h1M112 63h1M121 63h1M17 64h1M105 64h1M108 64h3M119 64h1M121 64h1M36 65h2M66 65h2M119 65h2M64 66h1M49 67h1M119 67h1M2 68h2M99 68h1M101 68h1M103 68h1M105 68h1M119 68h1M41 69h1M54 69h1M93 69h1M100 69h1M119 69h1M100 70h1M109 70h1M119 70h1M131 70h1M92 71h1M100 71h1M119 71h1M100 72h1M100 73h1M86 74h1M98 74h1M86 75h2M86 76h2M91 76h1M93 76h7M118 76h1M86 77h2M94 77h6M118 77h1M86 78h2M118 78h1M84 79h1M87 79h1M109 79h1M118 79h1M118 80h1M81 81h1M118 81h1M63 83h1M65 83h1M147 83h1M149 83h1M73 84h1M87 84h1M75 85h1M30 86h1M78 86h1M59 87h1M85 87h1M96 88h1M9 89h1M3 90h1M6 90h1M35 90h1M5 91h1M22 91h1M40 92h1M115 92h1M41 93h1M99 93h1M121 93h1M144 93h1M147 93h1M32 94h1M49 94h1M1 95h1M29 95h1M1 96h1M29 96h1M41 96h1M122 96h1M27 97h2M43 97h1M47 97h1M115 97h1M123 97h1M125 97h1M129 97h1M135 97h1M145 97h1M0 98h1M44 98h1M128 98h1M131 98h1M133 98h1M44 99h1M48 99h1M124 99h1M139 99h1" />
<path stroke="#202423" d="M94 0h1M83 2h1M78 3h1M82 4h1M73 5h3M79 7h1M82 7h1M76 8h1M97 8h1M99 8h1M74 9h1M92 9h1M98 9h1M94 10h3M72 11h1M93 11h1M95 11h1M70 12h2M90 12h1M92 12h2M91 13h1M88 14h1M67 16h1M83 16h1M82 17h1M81 19h1M68 26h1M60 28h1M56 30h1M51 31h1M54 31h1M61 31h1M57 33h1M56 34h1M8 35h1M5 36h3M75 36h1M78 36h1M86 36h1M74 37h1M76 37h1M106 37h1M2 38h1M74 38h3M85 38h1M59 39h2M85 39h1M57 40h1M28 41h1M7 44h1M23 45h1M14 47h1M42 49h6M47 50h2M48 51h1M51 51h1M58 51h1M34 53h1M32 55h1M35 55h1M44 55h1M47 55h2M45 56h1M43 57h1M47 57h1M30 58h1M36 58h1M46 58h1M42 59h1M38 60h2M43 60h1M46 64h1M71 69h2M34 70h1M37 70h1M56 70h2M69 70h1M0 71h1M53 71h1M66 71h2M71 71h1M77 71h1M81 71h2M64 72h1M66 72h1M70 72h1M76 72h1M79 72h3M83 72h1M2 73h1M37 73h1M64 73h1M78 73h2M13 74h1M71 74h1M74 74h1M79 74h3M19 75h1M46 75h1M68 75h1M73 75h1M7 76h4M16 76h1M18 76h1M70 76h1M8 77h6M15 77h4M49 77h1M34 78h1M35 81h1M48 81h1M36 82h1M53 85h1M55 87h2M36 89h1M27 92h1M61 92h1M35 94h1M9 95h1M106 96h1M56 97h1M27 98h2M51 98h1M107 98h1M111 98h1M52 99h1M118 99h1" />
<path stroke="#1f2321" d="M95 0h2M93 1h1M82 2h1M91 2h1M80 3h1M75 4h2M81 5h2M96 8h1M98 8h1M101 8h1M95 9h1M72 10h1M96 11h1M91 12h1M90 13h1M69 14h1M68 15h1M85 16h1M13 34h1M87 35h1M8 36h1M48 36h1M77 37h2M106 38h1M74 39h1M58 40h1M2 41h1M51 41h1M25 42h1M49 43h1M21 46h1M18 47h1M42 48h3M48 49h1M58 50h1M32 54h1M34 54h1M33 55h1M42 55h2M49 55h1M30 56h1M38 58h1M43 58h1M45 58h1M33 59h1M43 59h2M32 70h2M58 70h1M67 70h2M70 70h1M83 70h1M70 71h1M77 72h1M60 73h1M70 73h1M15 74h1M77 74h2M70 75h2M75 75h1M51 76h1M14 77h1M63 77h1M66 77h2M9 78h3M18 78h1M47 89h1M34 94h1M109 98h1M56 99h1M117 99h1" />
<path stroke="#1c1f1e" d="M97 0h1M85 3h1M80 8h1M107 8h2M105 9h3M102 10h1M101 11h1M67 13h1M94 13h1M91 14h1M88 15h1M85 17h1M82 19h1M69 27h1M0 31h1M53 32h1M3 37h1M48 37h1M4 41h1M22 41h1M30 41h1M29 42h1M103 43h1M35 44h1M38 44h2M102 44h1M5 45h1M25 45h1M22 46h1M39 46h1M41 46h3M45 46h1M17 47h1M19 47h1M45 47h1M51 50h1M57 50h1M107 52h1M38 56h1M35 57h1M50 58h1M31 59h1M38 61h1M33 62h2M32 71h1M16 72h1M43 72h1M45 72h1M56 72h2M67 73h1M62 74h1M67 75h1M47 76h1M56 76h1M75 76h1M78 76h1M48 77h1M59 77h1M71 77h1M75 77h1M70 78h1M11 79h1M45 79h1M14 80h4M31 85h1M35 87h1M57 87h1M45 90h1M2 92h1M35 92h1M44 93h1M48 96h1M90 96h1M30 97h1M5 98h1M110 98h1M8 99h1" />
<path stroke="#1b1e1d" d="M99 0h2M95 1h1M93 2h1M84 3h1M86 3h1M78 4h1M76 5h1M81 6h1M99 7h1M105 7h1M108 7h1M77 9h2M108 9h2M120 9h4M125 9h1M75 10h1M100 10h2M103 10h4M121 10h2M100 11h1M102 11h1M98 12h3M71 13h1M95 13h3M92 14h2M89 15h1M86 16h2M71 26h1M68 27h1M61 28h1M122 28h1M60 29h1M121 29h1M59 32h2M59 33h1M57 34h1M15 35h1M3 36h1M9 36h3M15 36h1M17 36h1M49 36h1M73 38h1M76 39h1M3 40h1M22 40h1M60 40h2M20 41h2M57 41h4M18 42h3M33 42h2M52 42h1M24 43h2M34 43h5M12 44h1M34 44h1M36 44h1M40 44h3M103 44h1M39 45h8M4 46h1M44 46h1M46 46h2M16 48h1M42 50h1M109 52h1M35 54h1M36 55h2M105 55h1M33 56h1M39 56h2M32 57h1M41 59h1M31 60h1M30 62h1M32 62h1M38 62h1M30 63h1M32 63h1M47 63h1M44 65h1M57 69h1M59 69h1M75 69h1M31 70h1M59 70h1M30 71h2M57 71h2M72 71h1M44 72h1M51 72h1M58 72h2M68 72h1M36 73h1M41 73h1M44 73h1M49 73h1M38 74h1M58 74h1M76 74h1M82 74h2M51 75h5M58 75h1M60 75h1M65 75h1M69 75h1M74 75h1M81 75h1M49 76h2M53 76h2M57 76h1M74 76h1M80 76h1M50 77h2M65 77h1M70 77h1M76 77h2M15 78h1M57 78h1M59 78h1M61 78h1M63 78h2M66 78h1M71 78h1M9 79h1M14 79h1M52 79h1M55 79h1M62 79h1M66 79h1M9 80h5M14 81h1M56 85h1M10 87h1M65 88h1M36 90h1M21 94h1M72 94h1M100 94h1M26 95h1M33 95h1M112 95h1M22 96h1M49 96h1M108 96h1M9 97h1M11 97h1M18 97h1M37 97h2M6 98h1M17 98h1M32 98h1M108 98h1M111 99h1" />
<path stroke="#1a1d1b" d="M101 0h2M96 1h2M87 2h1M94 2h1M88 3h1M79 4h1M83 7h1M107 7h1M109 7h1M82 8h1M95 8h1M109 8h3M110 9h2M124 9h1M126 9h1M70 10h1M76 10h1M107 10h2M123 10h1M74 11h1M103 11h5M122 11h1M73 12h2M101 12h3M105 12h1M68 13h1M98 13h1M94 14h2M69 15h1M90 15h2M84 18h2M81 21h1M62 28h1M65 28h1M55 29h1M79 29h1M120 29h1M122 29h1M120 30h2M120 31h1M119 32h1M55 33h1M51 34h1M17 35h1M18 36h2M54 36h1M8 37h1M4 38h1M6 38h1M79 38h1M87 38h1M62 39h1M20 40h2M23 40h2M59 40h1M62 40h2M65 40h1M74 40h1M18 41h2M32 41h1M72 41h1M0 42h1M21 42h1M30 42h1M35 42h4M53 42h3M23 43h1M39 43h2M42 43h4M50 43h1M43 44h5M9 45h1M13 45h1M47 45h1M102 45h2M6 46h2M23 46h1M15 48h1M17 48h1M19 48h1M101 52h1M104 52h1M106 52h1M32 53h1M110 54h1M34 56h1M39 57h1M35 59h1M41 60h1M46 60h1M31 61h1M39 61h1M35 62h2M33 63h1M45 70h1M29 71h1M135 71h1M77 73h1M47 75h1M59 75h1M82 75h1M48 76h1M52 76h1M55 76h1M69 76h1M72 76h2M81 76h1M53 77h1M58 78h1M72 78h1M12 79h2M17 79h2M57 79h4M63 79h2M67 79h1M69 79h1M71 79h2M66 80h1M69 80h1M18 81h2M10 84h1M16 85h1M33 85h1M4 87h1M4 88h1M83 92h1M4 95h1M8 95h1M65 95h1M21 96h1M32 96h1M78 96h1M22 97h1M32 97h1M105 97h1M9 98h1M14 98h3M37 98h1M112 98h1M115 98h1M37 99h1M82 99h1M102 99h1" />
<path stroke="#171b19" d="M103 0h1M98 1h1M100 1h1M89 3h1M77 5h1M83 6h1M110 7h2M112 9h1M77 10h1M110 10h2M125 10h3M76 11h1M109 11h1M124 11h1M104 12h1M136 12h2M99 13h5M70 14h1M100 14h1M94 15h2M68 16h1M89 16h1M91 16h2M86 17h2M86 18h1M65 19h1M83 19h2M82 21h1M79 22h1M74 25h2M122 27h1M66 28h1M39 29h2M56 29h1M59 29h1M0 30h1M39 30h1M122 30h1M119 31h1M121 31h2M4 32h2M54 32h1M61 32h1M12 33h1M52 33h1M60 33h1M119 33h1M13 35h2M19 35h1M43 35h2M50 35h1M21 36h1M41 36h1M44 36h1M47 36h1M50 36h1M9 37h1M20 37h5M38 37h3M49 37h1M5 38h1M7 38h2M20 38h6M48 38h1M78 38h1M22 39h3M41 39h1M107 39h1M31 40h7M46 40h1M36 41h1M38 41h8M62 41h1M109 41h1M1 42h4M45 42h2M56 42h1M28 43h1M101 43h1M37 44h1M49 44h2M26 45h1M24 46h1M18 48h1M20 48h1M17 49h1M101 54h1M106 54h1M32 56h1M34 63h2M49 63h1M49 64h1M45 65h2M43 66h1M77 67h1M69 69h1M47 70h1M60 70h1M65 70h1M5 71h1M59 71h1M65 71h1M54 72h1M56 73h1M73 73h1M34 74h1M57 74h1M98 75h1M58 76h1M74 77h1M65 78h1M51 79h1M53 79h1M61 79h1M75 79h1M52 80h2M61 80h2M64 80h2M67 80h1M13 81h1M16 81h2M55 81h1M9 82h1M55 82h1M57 82h2M53 83h1M11 84h1M17 84h2M15 85h1M17 85h1M19 85h3M16 86h3M34 88h1M58 92h1M4 94h1M9 96h1M31 97h1M121 97h1M22 98h1M31 98h1M12 99h1M15 99h1M18 99h1M25 99h1M31 99h1" />
<path stroke="#151916" d="M105 0h2M101 1h1M86 2h1M87 4h1M78 5h1M80 9h1M114 9h2M113 10h1M128 10h2M112 11h1M75 12h1M108 12h1M124 12h1M97 14h1M101 14h2M70 15h1M97 15h1M88 17h1M90 17h1M4 18h2M13 18h3M87 18h1M3 19h14M85 19h1M0 20h18M0 21h19M64 21h1M0 22h22M80 22h2M0 23h23M80 23h1M0 24h4M6 24h1M8 24h15M26 24h3M0 25h32M0 26h34M0 27h11M14 27h22M58 27h1M60 27h1M0 28h10M15 28h21M37 28h4M59 28h1M0 29h8M19 29h18M38 29h1M41 29h2M44 29h1M64 29h1M20 30h8M32 30h2M59 30h1M78 31h1M50 32h1M43 33h2M27 34h1M32 34h1M35 34h2M40 34h2M45 34h4M36 35h5M51 35h1M57 35h1M36 36h3M30 37h3M50 37h1M18 38h1M38 38h1M80 38h1M78 39h1M87 39h1M25 40h1M72 40h1M0 41h1M63 41h1M118 41h1M58 42h3M104 42h1M107 42h2M118 42h1M31 43h2M48 44h1M8 45h1M10 45h1M26 46h1M27 47h1M71 48h1M13 49h1M110 51h1M109 54h1M31 56h1M56 56h1M30 57h1M33 60h1M30 61h1M40 61h1M40 62h1M36 63h1M38 63h1M30 64h1M33 64h1M77 68h1M58 69h1M42 70h2M60 71h1M51 73h1M54 73h1M57 73h1M99 75h1M62 76h1M82 76h2M52 77h1M72 77h2M82 77h1M135 77h1M46 78h1M48 78h1M56 78h1M54 79h1M70 79h1M73 79h2M132 79h1M51 80h1M56 80h1M73 80h1M12 81h1M57 81h2M68 81h2M59 82h1M9 83h1M11 83h1M56 83h1M9 84h1M12 84h1M19 84h2M61 84h2M11 85h3M61 85h4M19 86h1M23 86h1M58 86h1M18 87h1M68 87h1M21 88h1M30 88h1M21 89h1M34 89h1M69 89h1M31 91h1M3 92h1M64 92h1M67 92h1M72 92h1M37 93h1M113 95h1M24 96h1M33 97h1M10 98h1M29 98h2M50 98h1M10 99h1M22 99h1" />
<path stroke="#111312" d="M107 0h1M103 1h1M84 6h1M107 6h1M85 8h1M116 9h1M116 10h1M113 12h1M74 13h1M111 13h1M106 14h3M101 15h1M103 15h1M69 16h1M93 17h1M88 18h1M83 21h1M60 24h1M62 24h2M63 25h1M77 25h1M59 27h1M10 32h1M61 33h1M121 33h1M59 34h1M55 36h2M104 38h1M118 38h1M120 38h1M104 39h1M120 39h2M78 40h1M75 41h1M62 42h1M57 43h1M87 43h1M99 43h1M87 44h1M107 44h2M86 45h2M86 46h1M99 46h2M4 47h1M21 48h1M27 48h1M24 49h1M92 49h1M93 50h1M96 50h4M91 51h1M95 51h2M98 51h1M101 51h2M104 51h3M108 51h1M93 52h3M97 52h1M100 52h1M118 52h1M85 55h1M85 56h1M41 61h1M84 63h1M84 64h1M48 65h2M46 66h1M75 68h1M74 70h1M80 77h1M47 78h1M58 80h1M63 80h1M51 81h1M63 81h1M14 83h2M19 83h1M14 85h1M68 85h1M71 85h1M8 86h1M27 86h1M65 86h1M74 86h1M7 87h1M11 87h1M23 87h1M29 87h1M66 87h1M71 87h1M1 88h1M3 88h1M19 88h1M78 88h1M84 88h1M23 89h1M70 89h1M72 89h1M93 89h1M99 89h1M24 90h1M26 90h1M83 90h1M88 90h1M95 90h1M100 90h1M108 90h1M25 91h1M102 91h1M108 91h1M37 92h1M100 92h2M105 92h1M114 92h1M72 93h1M106 93h1M123 93h1M101 94h1M109 94h1M120 94h1M84 95h1M105 95h1M108 95h1M127 95h1M23 96h1M113 96h2M134 99h1" />
<path stroke="#101211" d="M108 0h1M105 1h1M97 2h1M95 3h1M79 5h1M82 6h1M73 7h1M117 9h1M130 10h1M116 11h1M77 12h1M114 12h1M112 13h1M125 13h1M109 14h1M136 14h1M102 15h1M104 15h2M97 16h2M94 17h2M89 18h1M64 19h1M85 20h1M62 22h2M59 23h5M81 23h1M59 24h1M61 24h1M64 25h1M79 25h1M74 26h1M41 28h1M58 28h1M68 28h1M58 29h1M121 32h1M1 33h1M15 34h1M121 34h2M26 36h1M81 36h1M14 37h1M121 37h1M10 38h1M49 38h1M81 38h1M103 38h1M121 38h1M8 39h1M47 39h1M79 39h1M86 39h1M122 39h1M77 40h1M99 40h1M120 40h1M65 41h1M113 41h1M122 41h1M63 42h2M86 42h2M5 43h1M55 43h2M58 43h1M28 44h1M30 44h1M86 44h1M107 45h2M10 46h1M87 46h1M108 46h1M86 47h2M99 47h1M25 48h1M86 48h2M101 48h1M71 49h1M86 49h2M91 49h1M93 49h1M105 49h1M86 50h1M91 50h1M100 50h5M107 50h4M86 51h2M97 51h1M103 51h1M86 52h1M91 52h1M103 52h1M91 53h1M93 53h3M118 53h1M91 54h1M118 54h1M118 55h1M51 56h1M11 57h1M85 57h1M9 58h2M85 58h1M85 59h1M7 60h1M6 63h1M32 64h1M34 64h1M74 64h1M1 65h1M68 65h1M74 65h1M47 66h1M74 66h1M43 67h2M46 69h1M35 70h1M41 70h1M75 74h1M63 75h1M96 75h2M102 75h1M53 78h1M79 78h1M49 79h1M65 79h1M78 80h1M81 80h1M34 81h1M64 81h2M70 81h1M129 81h1M17 82h1M60 82h1M64 82h1M17 83h1M66 84h1M8 85h1M58 85h1M12 86h1M26 86h1M29 86h1M56 86h1M62 86h1M71 86h1M76 86h1M5 87h1M28 87h1M63 87h1M65 87h1M76 87h1M78 87h3M0 88h1M68 88h1M72 88h1M80 88h1M83 88h1M93 88h2M99 88h1M73 89h1M80 89h1M82 89h1M84 89h2M87 89h1M89 89h4M94 89h1M102 89h1M0 90h1M2 90h1M5 90h1M28 90h1M76 90h4M81 90h2M85 90h1M90 90h1M92 90h3M106 90h1M6 91h1M23 91h1M26 91h1M28 91h1M83 91h2M91 91h1M97 91h2M105 91h1M109 91h1M111 91h4M25 92h2M31 92h2M38 92h1M66 92h1M92 92h1M94 92h1M104 92h1M110 92h4M116 92h1M32 93h1M67 93h1M69 93h1M107 93h1M109 93h6M116 93h1M139 93h1M22 94h1M71 94h1M107 94h1M116 94h1M119 94h1M121 94h2M124 94h2M130 94h1M132 94h1M139 94h1M143 94h1M23 95h1M39 95h1M123 95h1M109 96h1M141 96h1M21 97h1M101 97h1M111 97h1M21 98h1M40 98h1M113 98h1M116 98h1M125 98h1M21 99h1M85 99h1M133 99h1" />
<path stroke="#0f1110" d="M109 0h1M111 0h2M89 1h1M84 2h1M98 2h1M100 2h1M75 6h1M0 8h1M114 8h1M85 9h1M80 11h1M117 11h1M115 12h2M127 12h1M113 13h1M126 13h1M138 13h2M67 14h1M110 14h1M123 14h2M99 16h1M101 16h1M64 17h2M68 17h1M92 17h1M64 18h1M66 18h1M90 18h1M63 19h1M62 20h2M86 20h1M57 21h7M58 22h4M75 26h2M72 27h1M57 28h1M69 28h1M122 37h1M122 38h1M9 39h1M108 40h1M121 40h2M66 41h1M100 41h1M120 41h2M117 42h1M120 42h3M2 43h2M121 43h2M114 44h1M121 44h2M113 45h2M121 45h1M106 46h2M112 46h5M121 46h1M8 47h2M98 47h1M100 47h1M105 47h2M108 47h5M121 47h1M24 48h1M26 48h1M73 48h1M97 48h2M100 48h1M102 48h1M110 48h7M101 49h4M106 49h8M115 49h2M87 50h1M105 50h2M111 50h3M119 50h1M119 51h1M87 52h1M92 52h1M86 53h2M92 53h1M103 53h1M58 54h1M86 54h2M93 54h3M103 54h1M86 55h1M91 55h1M93 55h3M99 55h1M102 55h1M104 55h1M58 56h1M91 56h1M94 56h3M100 56h5M118 56h1M91 57h1M118 57h1M51 58h1M118 58h1M91 59h1M49 60h1M85 60h1M6 61h1M85 61h1M91 61h1M41 62h1M85 62h1M91 62h1M5 63h1M42 63h1M74 63h1M85 63h1M91 63h1M37 64h2M85 64h1M91 64h1M85 65h1M91 65h1M85 66h1M4 67h1M84 68h1M38 70h1M55 74h1M45 75h1M61 75h1M50 79h1M68 80h1M83 80h1M130 80h1M33 81h1M71 81h1M77 81h1M16 83h1M20 83h1M73 83h1M8 84h1M67 84h2M70 84h1M84 84h1M74 85h1M10 86h1M13 86h1M28 86h1M34 86h1M60 86h1M64 86h1M1 87h1M21 87h1M27 87h1M32 87h1M60 87h1M74 87h1M77 87h1M66 88h2M73 88h1M82 88h1M97 88h1M1 89h1M6 89h1M22 89h1M48 89h1M86 89h1M8 90h1M22 90h1M32 90h1M84 90h1M86 90h1M91 90h1M112 90h1M2 91h1M27 91h1M33 91h2M37 91h1M43 91h1M88 91h2M93 91h2M106 91h1M6 92h1M30 92h1M93 92h1M95 92h1M109 92h1M118 92h1M30 93h1M34 93h1M36 93h1M38 93h1M68 93h1M104 93h1M108 93h1M115 93h1M117 93h3M122 93h1M124 93h1M140 93h1M40 94h1M104 94h1M108 94h1M111 94h1M117 94h1M126 94h1M128 94h2M131 94h1M133 94h3M137 94h2M140 94h1M76 95h1M118 95h2M128 95h1M130 95h3M136 95h1M139 95h1M143 95h1M20 96h1M39 96h1M112 96h1M139 96h2M142 96h3M39 97h1M140 97h1M144 97h1M12 98h1M117 98h1M119 98h1M11 99h1M28 99h1M58 99h1M64 99h1" />
<path stroke="#0c0f0d" d="M113 0h1M102 2h1M88 4h1M76 6h1M85 6h1M2 7h1M1 8h1M72 8h1M87 8h1M116 8h1M81 10h1M117 10h2M81 11h1M89 11h1M133 11h1M128 12h1M75 13h1M114 13h1M66 14h1M72 14h1M125 14h1M137 14h1M65 15h1M71 15h1M107 15h1M109 15h1M38 16h2M63 16h2M102 16h1M105 16h1M40 17h1M63 17h1M100 17h1M52 18h1M54 18h1M61 18h3M53 19h10M54 20h8M84 21h2M82 22h1M82 23h1M81 24h1M80 25h1M54 29h1M65 29h1M0 34h1M58 35h1M121 35h2M11 38h1M14 38h1M82 38h1M64 39h1M106 39h1M31 41h1M67 41h1M76 41h1M78 41h1M110 41h1M74 42h1M119 42h1M59 43h1M115 43h1M119 43h2M25 44h2M51 44h1M116 44h2M101 45h1M105 45h1M122 45h1M11 46h1M74 47h1M122 47h1M5 48h1M91 48h1M96 48h1M121 48h2M72 49h1M100 49h1M119 49h1M122 49h1M13 50h1M92 50h1M115 50h1M122 50h1M113 51h3M112 52h3M121 52h1M112 53h1M114 53h1M121 53h1M119 54h1M87 55h1M92 55h1M96 55h2M103 55h1M106 55h1M92 56h2M97 56h3M86 57h2M93 57h2M96 57h5M102 57h4M93 58h8M107 58h1M9 59h1M51 59h1M53 59h1M86 59h2M97 59h2M8 60h1M86 60h2M7 61h1M19 61h1M86 61h2M118 61h1M6 62h2M86 62h2M118 62h1M48 63h1M86 63h2M118 63h1M5 64h1M35 64h1M39 64h1M86 64h1M118 64h1M118 65h1M48 66h1M118 66h1M84 67h2M85 69h1M85 70h1M140 71h1M85 73h1M35 74h1M91 77h1M80 78h1M47 79h1M82 79h1M77 80h1M56 81h1M84 81h1M14 82h1M35 82h1M63 82h1M73 82h1M84 82h1M61 83h1M78 83h2M84 83h1M72 85h1M84 85h1M77 86h1M24 87h1M30 87h1M34 87h1M64 87h1M81 87h1M87 87h1M69 88h1M87 88h1M2 89h1M33 89h1M100 89h1M1 90h1M89 90h1M109 90h2M24 91h1M80 91h1M82 91h1M85 91h3M90 91h1M104 91h1M42 92h1M63 92h1M96 92h2M117 92h1M24 93h1M97 93h1M102 93h1M125 93h2M135 93h2M138 93h1M8 94h1M37 94h1M42 94h1M105 94h2M136 94h1M144 94h1M41 95h1M45 95h3M109 95h1M116 95h1M124 95h2M133 95h1M135 95h1M142 95h1M144 95h2M46 96h1M60 96h1M132 96h1M134 96h1M136 96h1M145 96h2M12 97h1M113 97h1M117 97h1M137 97h1M143 97h1M35 98h1M126 98h1M141 98h5M40 99h1M101 99h1M130 99h3M138 99h1" />
<path stroke="#000000" d="M115 0h1M129 0h3M136 0h2M141 0h2M114 1h29M145 1h1M147 1h1M149 1h1M109 2h41M97 3h1M100 3h50M89 4h1M95 4h55M88 5h1M90 5h1M92 5h58M79 6h2M87 6h20M108 6h42M84 7h15M114 7h36M90 8h4M117 8h33M90 9h1M119 9h1M131 9h19M89 10h1M120 10h1M132 10h18M68 11h1M86 11h3M120 11h1M135 11h1M137 11h13M83 12h4M120 12h2M132 12h2M140 12h10M79 13h7M119 13h4M131 13h4M141 13h9M73 14h1M76 14h9M117 14h6M129 14h2M132 14h4M141 14h9M72 15h1M75 15h9M118 15h6M125 15h1M127 15h1M129 15h7M142 15h8M71 16h2M74 16h9M116 16h20M139 16h11M70 17h12M99 17h1M114 17h36M70 18h11M96 18h2M99 18h1M102 18h3M106 18h1M108 18h42M68 19h13M91 19h1M94 19h6M101 19h49M65 20h15M91 20h59M66 21h14M87 21h63M66 22h13M86 22h64M65 23h15M85 23h65M66 24h7M75 24h4M84 24h66M66 25h1M78 25h1M83 25h67M65 26h1M79 26h71M78 27h1M80 27h42M123 27h27M72 28h49M123 28h27M62 29h2M67 29h2M70 29h9M80 29h40M123 29h1M125 29h25M58 30h1M65 30h13M81 30h39M123 30h2M126 30h24M65 31h13M80 31h39M123 31h2M126 31h24M63 32h56M120 32h1M123 32h27M63 33h56M120 33h1M123 33h27M3 34h1M53 34h1M62 34h25M88 34h32M123 34h27M0 35h1M16 35h1M52 35h1M60 35h17M80 35h7M88 35h31M123 35h27M0 36h3M60 36h15M82 36h4M88 36h1M90 36h29M120 36h1M123 36h27M0 37h3M56 37h2M59 37h15M84 37h2M88 37h15M105 37h1M107 37h11M119 37h1M123 37h27M0 38h2M17 38h1M52 38h6M61 38h12M84 38h1M88 38h13M102 38h1M107 38h11M123 38h27M0 39h2M11 39h2M16 39h3M49 39h4M65 39h8M82 39h3M88 39h13M103 39h1M109 39h9M123 39h27M6 40h8M15 40h4M47 40h5M67 40h5M82 40h3M88 40h11M102 40h1M104 40h1M109 40h5M115 40h1M117 40h1M123 40h27M6 41h12M47 41h4M68 41h4M81 41h3M88 41h11M101 41h1M105 41h2M108 41h1M111 41h2M114 41h1M116 41h2M123 41h27M7 42h11M49 42h1M70 42h3M80 42h5M88 42h12M101 42h1M105 42h1M109 42h8M123 42h27M6 43h2M9 43h9M33 43h1M67 43h6M75 43h3M79 43h6M88 43h11M100 43h1M105 43h1M108 43h7M116 43h1M123 43h27M1 44h1M3 44h3M13 44h5M33 44h1M52 44h4M57 44h5M63 44h22M88 44h7M96 44h1M98 44h1M101 44h1M105 44h2M110 44h3M123 44h27M0 45h5M14 45h2M32 45h2M48 45h1M50 45h35M88 45h5M94 45h3M104 45h1M115 45h3M123 45h27M0 46h4M29 46h2M32 46h3M48 46h37M88 46h5M94 46h2M105 46h1M110 46h2M123 46h27M0 47h3M11 47h3M29 47h6M48 47h24M76 47h9M88 47h6M95 47h1M102 47h2M114 47h2M117 47h1M123 47h27M0 48h4M8 48h2M11 48h2M22 48h1M30 48h5M50 48h21M75 48h3M79 48h6M88 48h3M92 48h3M106 48h3M117 48h1M123 48h27M0 49h4M5 49h7M25 49h1M27 49h1M29 49h6M50 49h20M74 49h3M78 49h7M88 49h3M96 49h1M98 49h1M117 49h1M123 49h27M0 50h12M18 50h1M20 50h1M22 50h14M52 50h5M59 50h10M73 50h12M88 50h3M117 50h1M123 50h27M0 51h36M54 51h4M59 51h26M88 51h3M117 51h1M123 51h27M0 52h35M58 52h2M61 52h24M88 52h3M116 52h2M123 52h27M0 53h32M58 53h2M61 53h24M88 53h3M116 53h2M123 53h27M0 54h32M57 54h1M59 54h26M88 54h3M116 54h2M123 54h27M0 55h31M57 55h1M59 55h1M61 55h24M88 55h3M117 55h1M123 55h27M0 56h10M13 56h14M55 56h1M59 56h26M88 56h3M117 56h1M123 56h27M0 57h10M13 57h16M54 57h1M58 57h27M88 57h3M117 57h1M123 57h27M0 58h9M12 58h17M53 58h1M58 58h27M88 58h3M117 58h1M123 58h27M0 59h8M11 59h1M13 59h17M52 59h1M57 59h28M88 59h3M117 59h1M123 59h27M0 60h3M4 60h2M10 60h20M51 60h1M56 60h29M88 60h3M117 60h1M123 60h27M0 61h6M10 61h9M20 61h10M50 61h24M75 61h10M88 61h3M102 61h3M116 61h2M123 61h27M0 62h6M8 62h10M21 62h1M25 62h4M43 62h1M48 62h26M75 62h9M88 62h3M102 62h3M116 62h2M123 62h27M0 63h1M2 63h1M4 63h1M7 63h14M26 63h4M51 63h23M75 63h2M78 63h6M88 63h3M93 63h1M102 63h1M115 63h1M117 63h1M123 63h27M0 64h1M2 64h3M6 64h1M8 64h9M18 64h2M27 64h3M42 64h1M44 64h1M52 64h20M73 64h1M75 64h9M88 64h3M117 64h1M123 64h27M0 65h1M4 65h12M17 65h1M28 65h3M39 65h5M52 65h11M64 65h2M71 65h3M75 65h2M78 65h6M88 65h3M94 65h2M101 65h9M117 65h1M123 65h27M0 66h2M3 66h3M7 66h5M13 66h3M29 66h3M34 66h9M52 66h12M66 66h7M75 66h2M78 66h6M88 66h30M123 66h27M0 67h3M5 67h11M29 67h13M52 67h10M63 67h7M72 67h2M76 67h1M78 67h6M88 67h10M99 67h1M102 67h3M106 67h1M109 67h1M113 67h1M116 67h1M123 67h27M0 68h2M5 68h2M8 68h8M29 68h13M44 68h1M46 68h2M50 68h5M59 68h5M68 68h4M78 68h6M88 68h4M102 68h1M104 68h1M106 68h1M113 68h1M123 68h16M140 68h10M6 69h1M11 69h5M23 69h1M52 69h2M56 69h1M61 69h2M64 69h1M66 69h3M76 69h3M80 69h4M88 69h4M102 69h1M104 69h1M106 69h1M113 69h1M123 69h6M131 69h6M138 69h12M63 70h2M76 70h3M84 70h1M88 70h4M102 70h1M104 70h1M106 70h1M113 70h1M123 70h7M132 70h4M137 70h13M84 71h1M88 71h4M102 71h1M104 71h1M106 71h1M113 71h1M121 71h1M123 71h4M128 71h2M132 71h3M136 71h4M141 71h1M143 71h7M84 72h1M88 72h4M102 72h1M104 72h1M106 72h1M113 72h1M121 72h1M123 72h4M128 72h2M131 72h3M135 72h5M141 72h9M84 73h1M88 73h5M102 73h1M104 73h1M106 73h1M113 73h1M121 73h1M123 73h4M128 73h22M84 74h1M88 74h4M102 74h1M104 74h1M106 74h1M113 74h1M121 74h1M123 74h4M128 74h22M84 75h1M88 75h3M104 75h8M113 75h1M117 75h1M121 75h1M123 75h17M141 75h9M84 76h1M88 76h3M121 76h1M123 76h14M138 76h12M88 77h3M121 77h1M123 77h12M136 77h14M88 78h13M121 78h1M123 78h27M88 79h8M97 79h1M99 79h8M110 79h8M121 79h1M123 79h9M133 79h17M76 80h1M88 80h10M99 80h3M103 80h4M108 80h3M113 80h1M115 80h3M121 80h1M123 80h7M131 80h3M135 80h15M78 81h1M83 81h1M86 81h1M88 81h13M103 81h9M113 81h5M121 81h1M123 81h6M130 81h4M136 81h14M66 82h1M68 82h1M71 82h1M74 82h1M78 82h1M80 82h2M83 82h1M86 82h1M88 82h14M103 82h15M121 82h1M123 82h12M136 82h14M68 83h1M81 83h3M88 83h30M121 83h1M123 83h20M145 83h2M74 84h1M76 84h1M81 84h3M88 84h28M117 84h1M121 84h23M146 84h1M148 84h1M78 85h1M81 85h3M85 85h1M88 85h1M90 85h28M121 85h29M90 86h1M92 86h26M121 86h23M145 86h1M148 86h2M92 87h6M99 87h19M121 87h20M142 87h2M146 87h4M89 88h1M91 88h1M101 88h17M121 88h29M4 89h1M103 89h1M107 89h8M116 89h2M121 89h29M34 90h1M113 90h2M117 90h1M121 90h29M3 91h1M44 91h1M117 91h1M121 91h1M123 91h19M143 91h7M5 92h1M22 92h1M88 92h1M123 92h17M141 92h6M148 92h2M0 93h1M4 93h1M57 93h1M128 93h4M142 93h1M149 93h1M0 94h3M6 94h1M28 94h1M36 94h1M67 94h1M0 95h1M2 95h2M5 95h2M10 95h1M21 95h1M27 95h1M56 95h1M111 95h1M0 96h1M2 96h3M6 96h1M8 96h1M11 96h1M26 96h1M30 96h1M55 96h1M123 96h1M0 97h1M2 97h2M5 97h4M13 97h1M20 97h1M23 97h1M25 97h1M29 97h1M40 97h1M44 97h1M106 97h1M108 97h1M110 97h1M1 98h4M7 98h1M13 98h1M20 98h1M23 98h3M33 98h1M48 98h1M52 98h1M54 98h1M57 98h1M136 98h1M1 99h6M9 99h1M13 99h1M17 99h1M20 99h1M24 99h1M27 99h1M33 99h1M35 99h1M51 99h1" />
<path stroke="#000100" d="M118 0h1M125 0h4M135 0h1M143 1h2M146 1h1M148 1h1M90 2h1M78 6h1M94 8h1M118 9h1M130 9h1M117 15h1M128 15h1M112 17h2M107 18h1M100 19h1M78 26h1M66 29h1M69 29h1M63 30h2M63 31h2M2 34h1M52 36h1M16 38h1M51 38h1M105 39h1M116 40h1M4 43h1M21 43h1M66 43h1M73 43h1M97 45h1M111 45h1M97 46h1M23 49h1M99 49h1M10 56h1M19 62h1M101 62h1M46 63h1M43 64h1M72 64h1M16 65h1M96 65h2M100 65h1M110 65h1M32 66h1M115 67h1M43 68h1M45 68h1M92 68h1M10 69h1M50 69h2M65 69h1M92 69h1M137 69h1M121 70h1M130 70h1M112 75h1M84 77h1M107 79h1M86 80h1M79 81h1M101 81h1M135 82h1M69 83h1M122 83h1M144 83h1M148 83h1M73 85h1M76 85h2M89 86h1M147 86h1M119 87h1M141 87h1M119 88h1M35 89h1M122 91h1M36 92h1M140 92h1M148 93h1M149 94h1M7 95h1M7 96h1M19 97h1M134 97h1M8 98h1M46 98h1M121 98h1M54 99h1" />
<path stroke="#000201" d="M132 0h2M140 0h1M143 0h1M107 2h1M113 7h1M119 12h1M118 13h1M131 14h1M66 15h1M141 15h1M73 16h1M114 16h2M138 16h1M103 17h1M69 18h1M90 20h1M83 23h1M83 24h1M64 27h1M75 27h1M63 28h1M80 30h1M2 35h2M59 36h1M89 36h1M54 37h1M58 37h1M59 38h1M15 39h1M48 39h1M80 40h2M80 41h1M69 42h1M77 42h1M78 43h1M10 48h1M97 49h1M116 51h1M56 52h1M54 54h2M56 55h1M60 55h1M54 56h1M12 57h1M53 57h1M49 61h1M101 61h1M92 62h1M103 63h1M63 65h1M70 65h1M92 65h2M98 65h2M111 65h1M6 66h1M33 66h1M50 67h1M100 67h1M107 67h1M114 67h1M57 68h1M7 69h1M9 69h1M32 69h2M63 69h1M95 69h1M121 69h1M130 69h1M81 70h1M122 72h1M92 74h1M117 74h1M122 74h1M115 75h1M137 76h1M102 80h1M112 80h1M102 81h1M112 81h1M85 82h1M122 82h1M70 83h1M116 84h1M82 86h1M88 86h1M91 86h1M119 86h1M146 86h1M88 87h2M91 87h1M145 87h1M119 89h1M116 90h1M119 90h1M69 94h1M48 95h1M19 96h1M1 97h1M55 97h1M107 97h1M109 97h1M122 98h1M130 98h1M50 99h1" />
<path stroke="#010302" d="M134 0h1M138 0h2M145 0h2M109 1h1M108 2h1M86 6h1M89 8h1M85 11h1M82 12h1M126 15h1M110 17h1M98 18h1M82 25h1M121 36h1M17 37h1M79 42h1M106 43h1M29 45h1M75 47h1M104 47h1M7 48h1M72 50h1M102 52h1M52 58h1M3 63h1M41 64h1M112 65h1M49 68h1M5 69h1M29 69h1M31 69h1M37 69h1M95 70h1M122 70h1M122 71h1M117 73h1M114 75h1M140 75h1M117 76h1M117 77h1M120 77h1M120 78h1M81 79h1M120 79h1M114 80h1M122 81h1M69 82h1M120 83h1M80 84h1M120 86h1M144 86h1M5 88h1M118 89h1M46 90h1M142 91h1M1 93h1M22 93h1M29 93h1M31 93h1M5 94h1M28 96h1M49 97h1M123 98h1" />
<path stroke="#131514" d="M87 1h1M89 2h1M93 3h1M103 7h1M112 7h1M83 8h2M71 9h1M83 9h1M80 10h1M115 10h1M113 11h1M127 11h1M111 12h1M6 13h2M13 13h5M73 13h1M107 13h1M109 13h2M136 13h1M5 14h4M12 14h7M104 14h1M4 15h17M99 15h1M3 16h18M93 16h3M0 17h23M91 17h1M0 18h4M6 18h5M12 18h1M16 18h7M0 19h3M17 19h6M18 20h4M19 21h5M22 22h3M28 22h2M23 23h2M27 23h4M23 24h3M29 24h4M79 24h1M32 25h2M76 25h1M59 26h1M62 26h1M61 27h2M71 27h1M45 30h1M52 30h1M125 30h1M8 32h1M62 32h1M0 33h1M16 33h1M48 33h1M53 33h1M34 34h1M79 35h1M13 37h1M104 37h1M3 38h1M9 38h1M13 38h1M118 39h1M76 40h1M64 41h1M73 41h2M99 41h1M5 42h2M31 42h1M47 42h1M61 42h1M53 43h2M85 43h1M104 43h1M85 44h1M104 44h1M109 44h1M113 44h1M85 45h1M118 45h1M9 46h1M12 46h1M25 46h1M85 46h1M23 47h1M25 47h1M72 47h1M85 47h1M85 48h1M14 49h1M18 49h2M70 49h1M85 49h1M12 50h1M85 50h1M85 51h1M56 54h1M37 56h1M31 57h1M55 58h1M37 59h2M44 61h1M37 63h1M39 63h1M47 65h1M45 66h1M45 67h1M42 68h1M40 70h1M44 70h1M52 71h1M73 71h1M75 71h1M50 73h1M52 73h1M36 74h1M53 74h2M33 75h3M66 75h1M100 75h1M55 77h1M83 77h1M77 78h1M81 78h1M56 79h1M76 79h1M79 79h1M75 80h1M49 81h1M60 81h1M11 82h1M15 82h1M61 82h1M10 83h1M55 83h1M59 83h1M58 84h1M18 85h1M23 85h1M29 85h1M59 85h1M65 85h1M66 86h1M68 86h3M72 86h1M2 87h2M8 87h1M22 87h1M26 87h1M67 87h1M69 87h2M6 88h1M8 88h1M24 88h2M27 88h2M31 88h1M76 88h2M79 88h1M7 89h1M24 89h1M27 89h3M75 89h2M29 90h1M71 90h1M74 90h2M96 90h1M98 90h2M8 91h1M35 91h1M99 91h3M68 92h1M84 92h1M103 92h1M9 93h1M71 93h1M9 94h1M51 94h1M41 97h1M11 98h1M14 99h1M19 99h1M29 99h1" />
<path stroke="#121413" d="M88 1h1M102 1h1M99 2h1M82 3h1M91 3h1M94 3h1M81 4h1M85 5h1M84 9h1M127 9h1M79 11h1M114 11h2M128 11h2M112 12h1M126 12h1M139 12h1M86 13h1M123 13h2M137 13h1M103 14h1M100 15h1M89 17h1M11 18h1M86 19h1M64 20h1M84 20h1M73 24h1M80 24h1M59 25h4M60 26h2M61 29h1M78 30h2M14 33h1M51 36h1M11 37h1M15 37h1M103 37h1M12 38h1M47 38h1M86 38h1M119 38h1M3 39h1M5 39h1M63 39h1M119 39h1M105 40h1M107 40h1M119 40h1M46 41h1M115 41h1M0 43h2M117 43h1M29 44h1M100 44h1M100 45h1M106 45h1M112 45h1M27 46h1M118 46h1M5 47h1M7 47h1M26 47h1M73 47h1M118 47h1M118 48h1M15 49h1M20 49h1M118 49h1M94 50h2M118 50h1M92 51h1M94 51h1M99 51h2M107 51h1M109 51h1M118 51h1M85 52h1M98 52h1M85 53h1M85 54h1M52 55h1M101 55h1M11 56h1M10 57h1M37 57h1M56 57h1M8 59h1M39 59h1M49 59h1M48 60h1M40 63h1M50 64h1M3 65h1M42 67h1M65 68h2M74 68h1M47 69h1M55 69h1M69 72h1M71 72h1M134 72h1M101 75h1M81 77h1M50 78h1M54 78h2M74 78h2M78 79h1M80 79h1M108 79h1M34 80h1M59 80h1M72 80h1M98 80h1M10 81h1M50 81h1M54 81h1M66 81h1M12 82h1M16 82h1M13 83h1M32 83h1M54 83h1M57 83h1M60 83h1M62 83h1M7 84h1M64 84h1M6 85h2M67 85h1M69 85h1M6 86h1M20 86h1M24 86h1M59 86h1M0 87h1M6 87h1M25 87h1M33 87h1M72 87h1M75 87h1M11 88h1M20 88h1M23 88h1M32 88h1M71 88h1M74 88h2M20 89h1M32 89h1M71 89h1M77 89h3M81 89h1M83 89h1M95 89h4M101 89h1M27 90h1M31 90h1M33 90h1M73 90h1M97 90h1M101 90h5M21 91h1M103 91h1M24 92h1M69 92h3M98 92h2M102 92h1M106 92h2M70 93h1M105 93h1M106 95h1M25 96h1M47 98h1" />
<path stroke="#0d100f" d="M90 1h1M115 8h1M2 9h1M130 11h1M78 12h1M111 14h1M106 15h1M108 15h1M65 16h1M64 23h1M124 29h1M7 39h1M101 40h1M100 42h1M86 43h1M99 44h1M24 47h1M107 47h1M4 48h1M99 48h1M21 49h1M114 49h1M114 50h1M112 51h1M119 52h1M119 53h1M92 54h1M98 55h1M100 55h1M86 56h2M105 56h1M95 57h1M86 58h2M91 58h1M96 59h1M118 59h1M91 60h1M118 60h1M36 64h1M50 65h1M84 65h1M2 66h1M85 68h1M44 69h1M95 75h1M80 80h1M75 83h1M79 84h1M22 86h1M63 86h1M92 88h1M0 89h1M80 90h1M87 90h1M107 90h1M92 91h1M33 92h1M39 92h1M85 92h1M87 92h1M108 92h1M101 93h1M110 94h1M123 94h1M146 94h1M38 95h1M117 95h1M129 95h1M134 95h1M138 95h1M111 96h1M127 96h1M137 96h1M54 97h1M118 97h1M118 98h1M129 99h1" />
<path stroke="#0a0c0b" d="M91 1h1M107 1h1M98 3h1M92 4h1M24 5h2M71 8h1M86 9h1M67 10h1M82 10h2M118 11h1M36 12h1M64 12h3M38 13h2M58 13h1M60 13h5M40 14h4M45 14h1M50 14h1M53 14h1M58 14h5M113 14h1M41 15h1M44 15h6M51 15h9M110 15h1M104 16h1M106 16h2M65 18h1M91 18h1M88 19h1M86 21h1M74 27h1M1 34h1M60 34h1M120 35h1M57 36h2M16 37h1M118 37h1M73 42h1M18 44h1M49 45h1M98 46h1M103 46h1M10 47h1M103 48h1M120 48h1M12 49h1M122 53h1M122 54h1M110 56h5M121 56h1M110 57h4M121 57h1M56 58h1M103 58h2M108 58h1M92 59h1M100 59h1M103 59h2M107 59h1M94 60h1M98 60h2M101 60h2M105 60h1M100 61h1M107 61h1M74 62h1M41 63h1M99 63h2M1 64h1M69 65h1M77 65h1M87 65h1M50 66h1M65 66h1M48 67h1M76 68h1M118 68h1M43 69h1M87 69h1M118 69h1M62 70h1M93 70h1M118 70h1M86 71h1M93 72h1M98 72h1M118 72h1M93 73h1M118 73h1M103 75h1M85 77h1M85 78h1M46 79h1M83 79h1M52 81h1M18 83h1M25 86h1M33 86h1M79 86h1M84 86h1M81 88h1M88 88h1M7 90h1M111 90h1M38 91h1M95 91h1M107 91h1M62 92h1M86 92h1M6 93h2M127 93h1M133 93h1M31 94h1M102 94h1M118 94h1M127 94h1M42 95h1M77 95h1M110 95h1M137 95h1M140 95h1M148 95h2M36 96h1M116 96h1M119 96h1M138 96h1M148 96h1M34 97h1M45 97h1M51 97h1M138 97h1M148 97h1M43 98h1M55 98h1M147 98h2M47 99h1M126 99h1M128 99h1" />
<path stroke="#1e2120" d="M92 1h1M85 2h1M88 2h1M92 2h1M79 3h1M83 3h1M87 3h1M77 4h1M83 4h1M81 7h1M101 7h1M104 7h1M100 8h1M102 8h2M75 9h1M99 9h3M73 10h1M97 10h3M69 11h1M73 11h1M97 11h1M121 11h1M94 12h2M89 14h2M81 18h3M80 20h2M72 25h1M66 27h1M9 32h1M51 33h1M58 33h1M10 35h1M54 35h1M79 36h2M5 37h1M87 37h1M77 38h1M73 39h1M28 40h1M29 41h1M26 42h1M50 42h2M6 44h1M9 44h2M6 45h1M40 47h2M41 48h1M45 48h3M49 49h1M49 50h1M48 52h1M33 53h1M97 53h1M33 54h1M34 55h1M39 55h3M27 56h1M36 56h1M43 56h2M50 56h1M34 57h1M42 57h1M50 57h1M40 58h1M42 58h1M44 58h1M49 58h1M45 59h1M48 59h1M30 60h1M40 60h1M32 61h4M45 64h1M70 69h1M29 70h2M48 70h1M73 70h1M2 71h1M33 71h1M54 71h3M79 71h1M83 71h1M47 72h1M62 72h1M34 73h1M38 73h1M76 73h1M80 73h2M16 74h1M33 74h1M59 74h1M65 74h2M44 75h1M48 75h3M76 75h2M79 75h1M64 76h1M66 76h2M47 77h1M64 77h1M12 78h2M16 78h2M36 80h1M33 83h1M44 86h1M1 91h1M42 91h1M2 93h1M46 94h1M25 95h1M32 95h1M34 95h1M31 96h1M107 96h1M32 99h1" />
<path stroke="#191c1a" d="M94 1h1M84 5h1M73 6h2M72 7h1M100 7h1M102 7h1M73 8h1M112 8h1M79 9h1M109 10h1M124 10h1M75 11h1M108 11h1M123 11h1M135 12h1M72 13h1M96 14h1M92 15h2M88 16h1M82 20h1M73 26h1M121 28h1M0 32h1M58 34h1M18 35h1M55 35h1M12 36h1M20 36h1M18 37h2M80 37h1M19 38h1M101 38h1M19 39h3M77 39h1M19 40h1M30 40h1M64 40h1M5 41h1M33 41h3M37 41h1M61 41h1M39 42h6M19 43h1M26 43h1M41 43h1M46 43h3M20 47h2M13 48h1M60 53h1M108 54h1M38 57h1M29 58h1M34 58h1M32 59h1M46 59h1M32 60h1M47 60h1M37 62h1M31 63h1M48 64h1M55 68h1M136 70h1M3 71h2M53 72h1M40 73h1M68 73h1M37 74h1M73 74h1M64 75h1M72 75h1M61 76h1M68 76h1M78 77h1M14 78h1M9 81h1M11 81h1M8 83h1M14 84h1M16 84h1M22 85h1M15 86h1M7 91h1M8 92h1M8 93h1M41 94h1M122 97h1M36 98h1M36 99h1M84 99h1" />
<path stroke="#161a17" d="M99 1h1M95 2h2M92 3h1M80 4h1M86 4h1M86 5h1M113 8h1M82 9h1M113 9h1M78 10h1M112 10h1M110 11h2M125 11h1M106 12h2M109 12h1M123 12h1M134 12h1M138 12h1M104 13h2M71 14h1M98 14h2M96 15h1M90 16h1M64 22h1M63 26h1M72 26h1M39 27h3M37 29h1M43 29h1M1 30h7M38 30h1M62 30h1M1 31h7M62 31h1M1 32h3M6 32h2M43 32h1M122 32h1M4 33h1M42 33h1M45 33h1M47 33h1M5 34h1M16 34h1M28 34h4M42 34h3M21 35h1M41 35h2M45 35h3M78 35h1M13 36h2M22 36h1M39 36h2M25 37h5M37 37h1M26 38h9M105 38h1M6 39h1M25 39h14M101 39h1M38 40h5M103 40h1M57 42h1M27 43h1M29 43h1M51 43h2M16 45h1M8 46h1M3 47h1M49 48h1M16 49h1M60 52h1M36 57h1M51 57h1M55 57h1M54 58h1M47 59h1M45 60h1M29 62h1M39 62h1M45 62h1M31 64h1M44 66h1M77 66h1M56 68h1M66 70h1M67 74h1M83 75h1M59 76h2M54 77h1M56 77h3M79 77h1M49 78h1M76 78h1M78 78h1M68 79h1M35 80h1M50 80h1M54 80h2M57 80h1M74 80h1M15 81h1M59 81h1M61 81h1M73 81h1M13 82h1M18 82h1M56 82h1M13 84h1M21 84h1M60 84h1M63 84h1M10 85h1M30 85h1M55 85h1M21 86h1M61 87h1M70 88h1M5 89h1M22 95h1M4 97h1M10 97h1M18 98h2M53 99h1M83 99h1" />
<path stroke="#0b0d0c" d="M104 1h1M106 1h1M101 2h1M19 6h3M74 7h1M86 8h1M69 9h1M68 10h1M119 10h1M67 11h1M82 11h1M131 11h1M67 12h1M129 12h1M36 13h2M65 13h2M115 13h1M127 13h1M37 14h3M63 14h3M112 14h1M114 14h1M138 14h1M38 15h3M42 15h2M50 15h1M60 15h5M136 15h1M40 16h23M70 16h1M41 17h7M51 17h12M97 17h1M53 18h1M55 18h6M67 18h1M92 18h1M94 18h1M87 19h1M65 21h1M83 22h1M64 24h1M70 28h1M56 31h1M49 33h1M54 33h1M119 35h1M119 36h1M81 37h2M120 37h1M2 39h1M80 39h2M102 39h1M86 40h1M106 40h1M77 41h1M107 41h1M65 42h1M63 43h1M31 44h1M120 44h1M120 45h1M93 46h1M101 46h1M104 46h1M120 46h1M122 46h1M28 47h1M94 47h1M96 47h1M113 47h1M120 47h1M94 49h1M15 50h2M121 51h2M115 52h1M122 52h1M113 53h1M115 53h1M112 54h4M121 54h1M53 55h1M107 55h8M119 55h1M121 55h1M12 56h1M106 56h4M119 56h1M49 57h1M57 57h1M92 57h1M101 57h1M106 57h4M119 57h1M92 58h1M101 58h1M105 58h2M10 59h1M50 59h1M54 59h1M93 59h2M99 59h1M6 60h1M44 60h1M8 61h1M42 61h1M46 61h1M115 62h1M43 63h1M45 63h1M77 63h1M92 63h1M51 64h1M87 64h1M86 65h1M84 66h1M86 66h2M46 67h2M86 67h2M110 67h1M118 67h1M67 68h1M86 68h2M45 69h1M84 69h1M86 69h1M75 70h1M79 70h1M86 70h1M85 71h1M142 71h1M85 72h1M55 73h1M85 74h1M56 75h1M85 75h1M94 75h1M85 76h1M68 77h1M51 78h2M82 78h1M77 79h1M70 80h1M79 80h1M82 80h1M84 80h1M53 81h1M74 81h1M10 82h1M75 84h1M78 84h1M7 86h1M61 86h1M80 86h1M31 87h1M58 87h1M62 87h1M83 87h2M85 88h2M95 88h1M31 89h1M74 89h1M104 89h1M106 89h1M72 90h1M81 91h1M110 91h1M115 91h1M23 92h1M89 92h2M119 92h1M39 93h1M73 93h1M98 93h1M100 93h1M120 93h1M132 93h1M134 93h1M137 93h1M29 94h2M38 94h2M43 94h1M103 94h1M112 94h2M115 94h1M147 94h1M28 95h1M36 95h2M40 95h1M43 95h2M107 95h1M115 95h1M120 95h1M122 95h1M146 95h2M37 96h1M45 96h1M51 96h1M110 96h1M115 96h1M121 96h1M124 96h3M129 96h2M133 96h1M135 96h1M26 97h1M46 97h1M116 97h1M127 97h2M136 97h1M146 97h1M120 98h1M127 98h1M135 98h1M140 98h1M146 98h1M42 99h1M123 99h1M135 99h2M142 99h2M145 99h2" />
<path stroke="#212524" d="M78 2h1M77 3h1M80 7h1M70 9h1M96 9h2M71 10h1M91 10h1M93 10h1M70 11h1M90 11h3M69 12h1M88 12h1M69 13h2M89 13h1M68 14h1M87 14h1M67 15h1M84 15h3M84 16h1M67 26h1M53 31h1M57 31h1M60 31h1M14 32h1M52 32h1M5 33h1M50 33h1M56 33h1M9 34h4M49 34h1M7 35h1M49 35h1M53 35h1M76 36h2M75 37h1M1 40h2M56 40h1M52 41h2M23 42h2M8 44h1M24 44h1M22 45h1M15 46h1M19 46h1M15 47h2M14 48h1M49 51h2M106 53h1M45 55h2M33 57h1M32 58h2M35 58h1M37 58h1M47 58h1M37 60h1M12 66h1M73 69h1M50 70h1M55 70h1M71 70h2M1 71h1M6 71h2M11 71h1M45 71h1M62 71h1M68 71h2M76 71h1M41 72h1M60 72h2M63 72h1M65 72h1M67 72h1M72 72h2M75 72h1M78 72h1M82 72h1M1 73h1M32 73h1M61 73h3M65 73h2M69 73h1M71 73h2M75 73h1M5 74h1M8 74h2M12 74h1M14 74h1M60 74h1M68 74h3M72 74h1M6 75h13M11 76h5M17 76h1M34 79h1M9 86h1M35 88h1M38 88h1M10 89h1M38 90h1M79 91h1M26 93h1M28 93h1M25 94h1M73 94h1M104 95h1M91 96h1M94 96h1M105 96h1M53 98h1M114 98h1M100 99h1" />
<path stroke="#232625" d="M79 2h3M76 3h1M78 7h1M93 9h2M90 10h1M92 10h1M89 12h1M88 13h1M86 14h1M68 25h2M66 26h1M38 27h1M65 27h1M64 28h1M55 30h1M52 31h1M59 31h1M51 32h1M58 32h1M54 34h2M6 35h1M58 39h1M0 40h1M52 40h1M26 41h2M22 42h1M102 42h1M23 44h1M21 45h1M18 46h1M20 46h1M108 53h1M47 54h1M102 54h1M104 54h1M107 54h1M31 58h1M30 59h1M34 60h1M14 70h2M49 70h1M8 71h3M34 71h6M43 71h2M63 71h2M32 72h2M39 72h2M74 72h1M0 73h1M3 73h2M10 73h1M74 73h1M6 74h2M10 74h2M18 74h2M43 78h2M55 86h1M10 88h1M37 90h1M30 91h1M1 92h1M27 93h1M72 96h1M100 97h1" />
<path stroke="#272b29" d="M23 6h1M98 54h1M100 54h1M6 70h1M52 94h1M102 95h1M54 96h1M99 97h1M55 99h1M59 99h1M114 99h1" />
<path stroke="#282d2a" d="M22 7h1M6 33h2M6 34h1M26 40h1M102 41h1M35 48h1M36 50h1M36 51h1M52 51h1M35 52h2M100 53h1M99 54h1M48 56h1M5 70h1M51 71h1M40 83h1M35 86h1M39 88h1M56 90h2M39 91h1M49 93h1M44 94h1M96 94h1M101 95h1M97 97h1M71 98h1M74 98h1M100 98h2M105 98h2M49 99h1M71 99h1M113 99h1" />
<path stroke="#252927" d="M76 7h2M74 8h2M72 9h1M67 25h1M53 30h1M56 32h2M87 34h1M4 35h1M4 36h1M55 39h2M54 40h1M24 41h1M103 41h2M19 44h1M22 44h1M18 45h1M16 46h1M110 52h1M36 53h1M38 53h4M43 53h1M98 53h1M28 56h2M35 56h1M49 56h1M29 57h1M46 57h1M34 59h1M36 60h1M1 70h2M8 70h6M52 70h1M12 71h1M0 72h1M14 72h1M34 72h2M37 72h1M5 73h1M7 73h2M11 73h1M14 73h4M9 85h1M54 85h1M0 91h1M28 92h2M48 93h1M98 94h1M64 95h1M52 96h1M95 96h1M104 96h1M80 97h1M39 98h1M110 99h1M120 99h1" />
<path stroke="#2b302e" d="M4 9h1M4 10h3M10 10h1M5 11h2M10 11h1M15 11h2M4 12h1M6 12h11M0 13h6M8 13h1M11 13h2M18 13h1M0 14h1M2 14h3M9 14h3M19 14h3M3 15h1M21 15h1M0 16h3M21 16h1M24 18h1M24 19h1M22 20h2M31 20h1M25 21h3M29 21h2M25 22h3M30 22h3M25 23h2M31 23h3M33 24h3M34 25h6M49 25h1M36 26h1M41 26h6M48 26h3M36 27h2M42 27h11M57 27h1M36 28h1M44 28h12M45 29h9M46 30h6M49 31h1M36 45h2M36 46h3M36 47h4M37 48h4M37 49h5M37 50h5M43 50h1M37 51h11M38 52h6M45 52h1M47 52h1M49 52h3M53 52h2M45 53h1M47 53h6M54 53h2M38 54h2M49 54h3M50 83h1M36 86h1M48 86h1M40 88h1M51 88h1M40 89h3M59 89h1M40 91h1M46 91h1M45 92h1M60 92h1M50 93h1M66 93h1M80 93h1M83 93h2M78 94h2M92 94h4M50 95h2M61 95h1M87 95h1M89 95h1M97 95h2M56 96h1M69 96h1M76 96h1M89 96h1M97 96h2M85 97h1M87 97h1M89 97h3M66 98h1M73 98h1M84 98h1M86 98h1M88 98h2M91 98h2M60 99h4M65 99h2M68 99h1M73 99h1M78 99h1M89 99h2M92 99h1M103 99h1M108 99h1" />
<path stroke="#242826" d="M73 9h1M71 11h1M87 13h1M70 25h2M54 30h1M58 31h1M10 33h2M8 34h1M46 39h1M53 39h1M57 39h1M53 40h1M55 40h1M1 41h1M103 42h1M20 45h1M17 46h1M105 52h1M108 52h1M37 53h1M42 53h1M109 53h2M46 54h1M31 55h1M46 56h1M44 57h1M35 60h1M0 70h1M40 71h3M31 72h1M36 72h1M38 72h1M9 73h1M12 73h2M18 73h1M17 74h1M70 90h1M36 91h1M99 94h1M83 95h1M103 95h1M74 96h1M93 96h1M98 97h1" />
<path stroke="#2d312f" d="M5 12h1M40 25h1M34 26h2M37 26h4M47 31h1M50 31h1M44 52h1M46 52h1M57 52h1M46 53h1M53 53h1M40 54h1M48 71h1M41 74h1M50 74h1M40 76h1M45 78h1M41 83h1M41 84h1M34 85h1M47 85h1M46 86h1M60 88h2M64 88h1M58 89h1M67 89h2M40 90h2M49 90h1M74 91h3M43 92h1M46 92h1M80 92h1M45 93h3M51 93h1M64 93h1M82 93h1M85 93h9M50 94h1M57 94h1M65 94h1M75 94h3M81 94h1M88 94h4M52 95h3M67 95h1M69 95h3M74 95h1M79 95h1M82 95h1M86 95h1M88 95h1M90 95h7M68 96h1M77 96h1M81 96h1M84 96h5M61 97h2M73 97h7M82 97h3M86 97h1M88 97h1M61 98h5M67 98h2M70 98h1M75 98h9M85 98h1M87 98h1M90 98h1M57 99h1M75 99h3M79 99h2M88 99h1" />
<path stroke="#262a28" d="M66 16h1M13 32h1M8 33h2M7 34h1M5 35h1M54 39h1M27 40h1M25 41h1M20 44h2M19 45h1M35 49h1M44 50h1M99 52h1M35 53h1M36 54h1M52 54h1M105 54h1M47 56h1M45 57h1M45 61h1M3 70h2M7 70h1M13 71h4M46 71h1M1 72h13M6 73h1M39 74h1M9 87h1M30 90h1M39 90h1M29 91h1M45 91h1M78 91h1M82 92h1M47 94h1M74 94h1M53 96h1M75 96h1M92 96h1M103 96h1M38 99h1M86 99h2M115 99h1M119 99h1M121 99h1" />
<path stroke="#303332" d="M11 27h3M10 28h5M8 29h11M8 30h12M28 30h4M34 30h4M40 30h5M8 31h39M48 31h1M12 32h1M15 32h23M39 32h4M44 32h6M17 33h25M46 33h1M17 34h10M37 34h3M20 35h1M22 35h13M23 36h3M27 36h9M42 36h2M45 36h2M33 37h4M41 37h6M35 38h3M39 38h8M39 39h2M42 39h4M43 40h3M45 54h1M48 72h1M50 72h1M46 73h3M42 74h1M51 74h2M36 75h2M37 76h2M41 76h1M43 76h1M45 76h2M45 77h1M35 78h1M40 78h1M35 79h1M38 79h1M40 79h1M44 79h1M39 80h4M44 80h3M48 80h1M36 81h1M40 81h6M47 81h1M37 82h1M39 82h1M45 82h1M52 82h2M34 83h1M42 83h3M46 83h2M49 83h1M32 84h1M37 84h1M43 84h1M45 84h1M48 84h1M50 84h1M35 85h1M37 85h2M40 85h4M46 85h1M50 85h3M40 86h4M49 86h6M39 87h16M41 88h3M45 88h4M50 88h1M52 88h7M38 89h2M43 89h4M50 89h7M61 89h6M42 90h3M50 90h1M52 90h2M58 90h4M63 90h2M66 90h4M41 91h1M48 91h10M61 91h4M68 91h2M71 91h2M48 92h6M55 92h3M59 92h1M73 92h2M77 92h3M52 93h5M59 93h5M65 93h1M76 93h2M81 93h1M53 94h3M58 94h3M63 94h2M57 95h1M60 95h1M62 95h1M73 95h1M78 95h1M57 96h3M61 96h1M65 96h3M60 97h1M64 97h2M69 97h1" />
<path stroke="#313433" d="M38 32h1M49 72h1M45 74h1M47 74h3M38 75h5M34 76h3M39 76h1M42 76h1M44 76h1M34 77h1M38 77h7M36 78h1M38 78h2M41 78h2M36 79h2M39 79h1M37 80h1M43 80h1M47 80h1M37 81h3M46 81h1M38 82h1M40 82h5M46 82h6M35 83h5M45 83h1M48 83h1M51 83h1M33 84h4M38 84h3M44 84h1M46 84h2M49 84h1M51 84h5M36 85h1M39 85h1M44 85h2M48 85h2M38 86h2M37 87h2M44 88h1M58 91h3M70 91h1M56 94h1M61 94h1M58 95h2" />
<path stroke="#2e3231" d="M56 53h2M41 54h4M47 71h1M49 71h2M37 78h1M42 79h2M38 80h1M54 82h1M31 84h1M56 84h2M37 86h1M45 86h1M47 86h1M36 87h1M49 88h1M59 88h1M62 88h1M49 89h1M57 89h1M60 89h1M47 90h2M51 90h1M54 90h2M62 90h1M65 90h1M47 91h1M65 91h3M73 91h1M47 92h1M54 92h1M75 92h2M58 93h1M74 93h2M78 93h2M62 94h1M80 94h1M82 94h6M55 95h1M63 95h1M66 95h1M68 95h1M72 95h1M80 95h2M62 96h3M70 96h2M79 96h2M82 96h2M63 97h1M66 97h3M70 97h3M81 97h1M58 98h3M74 99h1" />
<path stroke="#010000" d="M20 62h1M22 62h3M21 63h1M20 64h1M18 65h2M22 65h1M24 65h1M17 66h2M21 66h1M24 66h5M26 67h3" />
<path stroke="#030300" d="M22 63h1M22 64h1M23 66h1M25 67h1" />
<path stroke="#050500" d="M23 63h1M25 63h1M23 64h4M17 67h1" />
<path stroke="#060600" d="M24 63h1M15 96h1M16 97h1" />
<path stroke="#020100" d="M21 64h1M20 65h2M23 65h1M25 65h2M22 66h1" />
<path stroke="#030200" d="M27 65h1M16 66h1M16 67h1" />
<path stroke="#284c00" d="M19 66h2" />
<path stroke="#090900" d="M18 67h1M27 68h2" />
<path stroke="#2e5200" d="M19 67h1" />
<path stroke="#2e5100" d="M20 67h1" />
<path stroke="#373400" d="M21 67h1" />
<path stroke="#0b0b00" d="M22 67h1M16 68h3M24 68h2" />
<path stroke="#0c0b00" d="M23 67h2M12 93h1" />
<path stroke="#0a0a00" d="M19 68h1M14 94h1" />
<path stroke="#383700" d="M20 68h1" />
<path stroke="#0d0f00" d="M21 68h3M16 69h1M21 69h2M10 92h1M17 93h1M12 95h1" />
<path stroke="#080800" d="M26 68h1" />
<path stroke="#101100" d="M17 69h1M24 69h1" />
<path stroke="#0f1000" d="M18 69h1M14 90h1M12 94h1" />
<path stroke="#111200" d="M19 69h1M27 69h1M15 94h1M15 95h1" />
<path stroke="#121300" d="M20 69h1M10 93h1" />
<path stroke="#131400" d="M25 69h1M17 94h1M14 95h1" />
<path stroke="#0d0d00" d="M26 69h1M11 95h1" />
<path stroke="#151600" d="M28 69h1M11 89h1M15 93h1" />
<path stroke="#35371e" d="M16 70h1M18 70h1M23 70h1M19 73h2M1 74h2M15 89h1" />
<path stroke="#37391f" d="M17 70h1M14 88h1" />
<path stroke="#32341b" d="M19 70h1M21 72h1M0 77h1M6 77h2M7 78h2M3 83h1M3 84h1M11 90h1M15 91h1" />
<path stroke="#33351c" d="M20 70h2M18 72h1M1 75h2M5 76h1M4 77h2M15 90h1" />
<path stroke="#34371d" d="M22 70h1M24 70h1M0 74h1M3 74h2M0 75h1M3 75h3M0 76h2M4 76h1M6 76h1" />
<path stroke="#31331a" d="M25 70h4M3 78h1M5 78h2M10 91h1M16 91h1" />
<path stroke="#393b21" d="M17 71h7" />
<path stroke="#444424" d="M24 71h1" />
<path stroke="#59581e" d="M25 71h1M24 72h3" />
<path stroke="#57561a" d="M26 71h1M22 74h1" />
<path stroke="#545217" d="M27 71h1" />
<path stroke="#404017" d="M28 71h1M25 75h1M29 75h1M25 76h1M26 77h1M25 79h2M22 84h1" />
<path stroke="#2d2e14" d="M19 72h1M7 81h1" />
<path stroke="#2e3017" d="M20 72h1M0 79h1M2 79h1M4 79h1M8 79h1M0 80h1M4 80h5M2 82h1M3 85h1M11 91h1M12 92h1M16 94h1M20 94h1M17 95h1M17 96h2M15 97h1" />
<path stroke="#58561b" d="M22 72h1M21 73h2M20 74h2" />
<path stroke="#58561c" d="M23 72h1" />
<path stroke="#4a4a24" d="M27 72h4M30 77h1" />
<path stroke="#56551a" d="M23 73h2M24 74h1" />
<path stroke="#525116" d="M25 73h1" />
<path stroke="#43431c" d="M26 73h1M27 74h3M31 74h1M21 75h1M20 77h1" />
<path stroke="#46461f" d="M27 73h1M19 76h3M31 78h1" />
<path stroke="#484821" d="M28 73h1M31 73h1" />
<path stroke="#474720" d="M29 73h2" />
<path stroke="#40401e" d="M23 74h1M22 76h1" />
<path stroke="#45451e" d="M25 74h2M32 74h1M23 76h1M19 77h1" />
<path stroke="#44441d" d="M30 74h1M20 75h1M22 77h1M19 78h1M33 78h1" />
<path stroke="#323734" d="M43 74h2M46 74h1M35 77h3M52 83h1M44 92h1" />
<path stroke="#43431b" d="M22 75h1M24 76h1M23 77h1M23 78h1M22 79h1M33 79h1" />
<path stroke="#3e3e16" d="M23 75h1M26 75h3M30 75h1M26 76h2M25 78h1M23 79h1M27 79h1M28 80h1M30 80h1M32 80h1M21 82h1M28 84h1" />
<path stroke="#3d3d14" d="M24 75h1M31 75h1M27 80h1M29 80h1M33 80h1M25 82h1M27 82h1M21 83h1M26 83h1M24 85h1" />
<path stroke="#3c3c13" d="M32 75h1M28 79h1" />
<path stroke="#456b15" d="M2 76h2M2 77h2M16 90h1" />
<path stroke="#3b3b12" d="M28 76h1M29 81h1M24 84h1" />
<path stroke="#393910" d="M29 76h1M31 76h1M32 81h1M31 82h2M27 83h1M25 85h1M28 85h1" />
<path stroke="#333308" d="M30 76h1M28 77h1M29 78h1M29 83h1" />
<path stroke="#4b4b25" d="M32 76h1M30 84h1" />
<path stroke="#52522f" d="M33 76h1M31 77h2" />
<path stroke="#4d4c08" d="M1 77h1" />
<path stroke="#3d3d1c" d="M21 77h1" />
<path stroke="#42421a" d="M24 77h2M20 78h1M22 78h1M21 79h1M19 80h4M21 81h1" />
<path stroke="#39390f" d="M27 77h1M29 77h1M26 81h1M20 82h1M31 83h1" />
<path stroke="#545430" d="M33 77h1" />
<path stroke="#30321a" d="M0 78h2M4 78h1M3 79h1M10 90h1M16 92h1M20 93h1M16 95h1M16 96h1" />
<path stroke="#4c4c07" d="M2 78h1" />
<path stroke="#3c3c1a" d="M21 78h1" />
<path stroke="#3e3e15" d="M24 78h1M26 78h1M32 79h1M26 80h1M20 81h1M27 81h1M30 81h1M22 82h1M24 82h1M26 82h1M28 82h2M23 83h3M23 84h1" />
<path stroke="#35350b" d="M27 78h2" />
<path stroke="#38380d" d="M30 78h1M26 84h1M29 84h1M26 85h2" />
<path stroke="#4d4d28" d="M32 78h1" />
<path stroke="#2f3119" d="M1 79h1M6 79h1M14 87h1M16 93h1" />
<path stroke="#2e2f15" d="M5 79h1M1 80h1M0 81h1M8 81h1M4 86h1M13 94h1" />
<path stroke="#2b2d13" d="M7 79h1M2 80h1M1 81h1M4 81h2M2 85h1M4 85h1M11 92h1M13 95h1M17 97h1" />
<path stroke="#414119" d="M19 79h2M31 80h1M25 81h1" />
<path stroke="#4f4e07" d="M24 79h1M24 80h2" />
<path stroke="#3a3a11" d="M29 79h2M31 81h1M30 82h1M25 84h1M27 84h1" />
<path stroke="#37370c" d="M31 79h1" />
<path stroke="#292b11" d="M3 80h1M6 81h1M0 82h1M3 82h1M5 82h1M2 84h1M5 85h1M14 96h1" />
<path stroke="#446d12" d="M23 80h1" />
<path stroke="#1d1e05" d="M2 81h1M19 90h1M14 91h1M17 92h1M18 93h1" />
<path stroke="#282a10" d="M3 81h1M1 82h1M18 89h1M13 93h1" />
<path stroke="#466e15" d="M22 81h1M24 81h1" />
<path stroke="#456d13" d="M23 81h1" />
<path stroke="#393916" d="M28 81h1" />
<path stroke="#272810" d="M4 82h1M6 82h1M0 85h1M15 87h1M17 87h1M18 88h1M20 90h1M15 92h1M11 93h1" />
<path stroke="#1f2007" d="M7 82h1M13 91h1M20 91h1" />
<path stroke="#24250c" d="M8 82h1M0 83h1M5 83h1M4 84h1M12 88h1M19 91h1M11 94h1" />
<path stroke="#436b11" d="M23 82h1" />
<path stroke="#25260d" d="M1 83h2M13 87h1M13 88h1M13 89h1M19 89h1" />
<path stroke="#212109" d="M4 83h1M1 85h1M17 88h1M12 90h1" />
<path stroke="#26270f" d="M6 83h1M0 84h1M6 84h1M16 87h1" />
<path stroke="#24240b" d="M7 83h1M1 84h1M0 86h2M15 88h2M12 89h1M13 90h1M18 91h1M19 92h1M19 93h1" />
<path stroke="#323207" d="M22 83h1" />
<path stroke="#34340a" d="M28 83h1" />
<path stroke="#2f2f08" d="M30 83h1" />
<path stroke="#202008" d="M5 84h1M3 86h1M14 89h1M14 92h1M20 92h1M18 94h1" />
<path stroke="#2a2b12" d="M2 86h1" />
<path stroke="#375b06" d="M16 89h1" />
<path stroke="#3d620d" d="M17 89h1M17 90h1" />
<path stroke="#444300" d="M18 90h1" />
<path stroke="#1e1f06" d="M12 91h1M14 93h1" />
<path stroke="#454400" d="M17 91h1" />
<path stroke="#191901" d="M13 92h1M18 95h1" />
<path stroke="#191a02" d="M18 92h1M19 95h1M14 97h1" />
<path stroke="#070700" d="M10 94h1" />
<path stroke="#1c1d05" d="M19 94h1" />
<path stroke="#161600" d="M12 96h1" />
<path stroke="#141500" d="M13 96h1" />
</svg>