<svg xmlns="http://www.w3.org/2000/svg" viewBox="0 -0.5 65 128" shape-rendering="crispEdges">
<metadata>Made with Pixels to Svg https://codepen.io/shshaw/pen/XbxvNj</metadata>
<path stroke="#191d17" d="M0 0h1M2 0h2M7 0h3M12 0h1M18 0h1M20 0h1M22 0h1M25 0h1M29 0h1M39 0h2M43 0h1M50 0h1M53 0h2M56 0h2M61 0h1M64 0h1M2 1h1M7 1h2M13 1h2M16 1h1M18 1h3M32 1h1M35 1h1M38 1h1M43 1h2M49 1h1M54 1h2M60 1h3M64 1h1M15 2h2M18 2h1M23 2h1M28 2h1M42 2h1M52 2h1M55 2h1M61 2h1M64 2h1M15 3h1M19 3h2M25 3h1M29 3h1M32 3h1M43 3h1M52 3h1M54 3h1M58 3h1M64 3h1M14 4h1M19 4h2M23 4h6M30 4h1M32 4h1M37 4h2M48 4h2M51 4h2M23 5h1M27 5h1M30 5h3M34 5h1M37 5h3M41 5h1M43 5h2M51 5h1M53 5h1M56 5h2M33 6h3M38 6h1M46 6h1M52 6h1M55 6h1M59 6h1M33 7h2M36 7h2M39 7h1M44 7h1M46 7h1M51 7h3M55 7h2M58 7h2M34 8h1M36 8h3M48 8h1M50 8h1M56 8h1M60 8h1M35 9h2M38 9h1M41 9h1M43 9h4M48 9h1M50 9h1M54 9h1M58 9h1M36 10h4M44 10h1M49 10h1M51 10h2M37 11h1M39 11h2M45 11h1M49 11h2M53 11h1M37 12h6M48 12h2M51 12h1M39 13h1M41 13h2M44 13h1M54 13h1M57 13h1M39 14h5M46 14h1M49 14h2M52 14h1M54 14h1M59 14h1M40 15h3M40 16h1M43 16h1M45 16h1M51 16h2M54 16h1M49 17h2M52 17h1M55 17h3M42 18h2M48 18h2M51 18h6M63 18h1M43 19h1M51 19h1M53 19h1M58 19h1M46 20h1M48 20h1M59 20h1M62 20h1M44 21h1M47 21h1M49 21h2M52 21h1M61 21h4M49 22h6M56 22h1M58 22h2M46 23h3M51 23h1M53 23h1M58 23h2M62 23h2M46 24h2M49 24h3M53 24h4M58 24h1M62 24h1M64 24h1M47 25h1M49 25h1M52 25h3M56 25h2M59 25h1M61 25h1M63 25h1M48 26h5M54 26h1M56 26h2M61 26h3M50 27h4M55 27h2M62 27h3M51 28h1M53 28h1M56 28h1M60 28h1M62 28h1M64 28h1M49 29h1M52 29h2M55 29h1M59 29h3M64 29h1M51 30h4M56 30h1M59 30h1M62 30h1M64 30h1M53 31h1M60 31h1M62 31h2M51 32h2M54 32h2M58 32h1M60 32h1M52 33h2M55 33h1M58 33h1M62 33h1M64 33h1M53 34h2M56 34h3M63 34h1M56 35h3M61 35h2M64 35h1M57 36h1M62 36h1M64 36h1M53 37h3M59 37h1M63 37h1M55 38h1M59 38h1M61 38h3M54 39h1M57 39h1M59 39h1M61 39h1M63 39h1M60 40h2M63 40h1M56 41h1M60 41h3M60 42h1M63 42h1M56 44h1M60 44h3M57 45h1M61 45h2M57 46h1M60 46h2M57 47h1M60 47h2M63 47h1M57 48h1M61 48h1M63 48h1M58 49h1M63 50h1M59 51h2M62 51h1M61 53h1M63 53h1M62 54h1M60 55h2M63 56h1M63 57h1M60 58h1M60 59h1M61 60h1M60 61h1M61 63h1M62 64h1M63 65h1M61 66h2M63 67h1M63 68h1M63 69h1M62 70h2M62 71h2M62 72h1M57 74h1M63 75h1M64 76h1M63 77h2M63 78h1" />
<path stroke="#1b1e18" d="M1 0h1M4 0h1M6 0h1M10 0h2M15 0h1M0 1h2M3 1h4M9 1h1M11 1h1M0 2h1M2 2h3M6 2h1M8 2h4M13 2h1M1 3h2M4 3h1M8 3h3M12 3h3M12 4h2M15 4h3M16 5h1M18 5h2M21 5h2M24 5h2M25 6h4M30 6h3M25 7h1M28 7h1M30 7h1M32 7h1M35 7h1M25 8h1M27 8h1M32 8h1M35 8h1M29 9h1M31 9h1M33 9h1M37 9h1M35 10h1M36 11h1M35 12h1M37 13h1M37 14h1M36 15h1M39 15h1M39 16h1M41 16h2M40 17h3M42 19h1M46 22h1M45 23h1M58 25h1M47 26h1M60 26h1M48 27h1M60 27h1M50 29h2M56 29h1M60 30h1M63 30h1M61 31h1M56 32h1M59 32h1M61 32h1M60 33h2M59 34h2M62 34h1M52 35h1M60 35h1M54 36h1M59 36h1M61 36h1M60 37h1M60 39h1M55 42h1M64 43h1M56 45h1M60 45h1M62 47h1M62 48h1M60 50h1M58 52h1M60 52h2M60 53h1M59 54h2M59 55h1M63 55h1M60 56h1M62 56h1M60 57h1M62 57h1M63 58h2M61 59h1M64 59h1M60 60h1M64 60h1M60 62h1M62 62h2M62 63h1M61 64h1M58 65h1M62 65h1M63 66h1M62 67h1M62 68h1M61 69h2M61 71h1M64 72h1M62 74h1M57 75h1M62 75h1M64 75h1M62 76h1M57 77h1M61 77h2M62 78h1M61 79h1" />
<path stroke="#1c1f19" d="M5 0h1M5 2h1M7 2h1M12 2h1M0 3h1M6 3h2M11 3h1M16 3h1M6 4h1M10 4h2M20 5h1M20 6h1M23 6h2M29 6h1M21 7h1M23 7h2M26 7h2M22 8h3M26 8h1M28 8h2M26 9h3M34 9h1M28 10h1M32 11h1M35 11h1M33 12h1M36 12h1M35 13h1M36 14h1M38 14h1M37 15h2M41 18h1M44 22h1M51 33h1M56 33h1M60 38h1M61 50h1M61 51h1M63 51h1M62 52h1M62 55h1M61 58h1M62 59h1M63 61h1M60 63h1M58 66h1M58 67h1M58 68h1M61 68h1M58 69h1M61 70h1M59 71h1M61 72h1M62 73h1M61 74h1M64 74h1M57 76h1M58 78h1M61 78h1M64 78h1M62 79h2" />
<path stroke="#191c16" d="M13 0h1M16 0h2M19 0h1M21 0h1M23 0h2M26 0h2M30 0h8M41 0h2M44 0h2M47 0h3M51 0h2M55 0h1M58 0h3M62 0h2M15 1h1M17 1h1M21 1h5M27 1h5M33 1h2M36 1h2M39 1h1M41 1h2M45 1h4M50 1h4M56 1h4M63 1h1M1 2h1M17 2h1M19 2h4M24 2h4M29 2h13M43 2h9M53 2h2M56 2h5M62 2h2M18 3h1M21 3h3M26 3h3M30 3h2M33 3h10M44 3h1M46 3h6M53 3h1M55 3h3M59 3h5M18 4h1M21 4h2M29 4h1M31 4h1M34 4h3M39 4h9M50 4h1M53 4h11M29 5h1M33 5h1M35 5h2M40 5h1M42 5h1M45 5h6M52 5h1M54 5h2M58 5h7M36 6h2M39 6h7M47 6h2M50 6h2M53 6h2M56 6h2M60 6h5M38 7h1M40 7h4M45 7h1M47 7h4M54 7h1M57 7h1M60 7h5M39 8h9M49 8h1M51 8h5M57 8h3M61 8h4M39 9h2M42 9h1M47 9h1M49 9h1M51 9h3M55 9h3M59 9h6M40 10h4M45 10h1M47 10h2M50 10h1M53 10h12M38 11h1M42 11h3M46 11h3M51 11h2M54 11h9M64 11h1M43 12h5M50 12h1M52 12h10M63 12h2M43 13h1M45 13h9M55 13h2M58 13h7M44 14h2M47 14h2M51 14h1M53 14h1M55 14h4M60 14h5M43 15h17M61 15h4M44 16h1M46 16h5M53 16h1M55 16h3M59 16h4M64 16h1M43 17h6M51 17h1M53 17h2M58 17h7M44 18h4M50 18h1M57 18h6M64 18h1M45 19h6M52 19h1M54 19h4M59 19h6M44 20h2M47 20h1M49 20h10M63 20h2M45 21h2M48 21h1M51 21h1M53 21h8M45 22h1M47 22h2M55 22h1M57 22h1M60 22h5M49 23h2M52 23h1M54 23h4M60 23h2M64 23h1M48 24h1M52 24h1M57 24h1M59 24h3M63 24h1M48 25h1M50 25h2M55 25h1M60 25h1M62 25h1M64 25h1M53 26h1M55 26h1M59 26h1M64 26h1M49 27h1M54 27h1M57 27h3M61 27h1M49 28h2M52 28h1M54 28h2M57 28h2M63 28h1M54 29h1M57 29h2M63 29h1M55 30h1M57 30h2M51 31h2M54 31h2M57 31h3M53 32h1M57 32h1M63 32h2M54 33h1M57 33h1M63 33h1M55 34h1M53 35h3M63 35h1M53 36h1M55 36h2M58 36h1M63 36h1M56 37h3M61 37h2M64 37h1M54 38h1M56 38h3M64 38h1M55 39h2M58 39h1M64 39h1M55 40h1M57 40h3M62 40h1M64 40h1M57 41h3M64 41h1M56 42h1M58 42h2M61 42h2M64 42h1M56 43h1M60 43h4M57 44h1M63 44h1M63 45h1M59 46h1M63 46h1M58 47h1M58 48h3M59 49h3M63 49h1M58 50h2M62 50h1M58 51h1M63 76h1" />
<path stroke="#1a1d18" d="M14 0h1M10 1h1M12 1h1M14 2h1M3 3h1M17 3h1M33 4h1M26 5h1M28 5h1M25 9h1M38 13h1M40 13h1M38 16h1M43 20h1M60 20h1M58 26h1M59 28h1M61 28h1M62 29h1M50 30h1M61 30h1M56 31h1M64 31h1M62 32h1M59 33h1M52 34h1M61 34h1M64 34h1M59 35h1M60 36h1M62 39h1M63 41h1M62 46h1M62 49h1M59 52h1M63 52h1M59 53h1M61 54h1M63 54h1M61 56h1M61 57h1M62 60h1M61 61h2M61 62h1M63 63h1M63 64h1M61 65h1M61 67h1M63 72h1M63 73h2" />
<path stroke="#181b16" d="M28 0h1M38 0h1M46 0h1M26 1h1M40 1h1M24 3h1M45 3h1M64 4h1M49 6h1M58 6h1M46 10h1M41 11h1M63 11h1M62 12h1M60 15h1M58 16h1M63 16h1M44 19h1M61 20h1M56 40h1M55 41h1M57 42h1M57 43h3M58 44h2M58 45h2M58 46h1M59 47h1" />
<path stroke="#1c201a" d="M5 3h1M5 4h1M9 4h1M11 5h1M21 6h2M29 7h1M30 8h1M33 8h1M30 9h1M32 9h1M29 10h1M30 11h2M33 11h1M34 12h1M33 13h1M36 13h1M41 19h1M45 24h1M46 25h1M54 40h1M64 44h1M62 53h1M64 55h1M64 57h1M64 61h1M64 62h1M58 70h1M59 72h1M61 73h1M59 78h1" />
<path stroke="#1f231c" d="M0 4h1M13 5h1M3 6h1M3 7h1M11 7h1M22 7h1M21 8h1M39 17h1M40 19h1M41 20h1M1 22h1M0 23h1M55 45h1M64 48h1M64 49h1M58 54h1M63 60h1M58 61h1M58 62h1M64 63h1M64 66h1M60 69h1M60 72h1M60 73h1M58 76h1" />
<path stroke="#21251d" d="M1 4h1M1 5h1M4 5h1M0 6h1M2 6h1M4 6h1M6 6h1M13 6h2M16 6h1M18 6h1M1 7h1M7 7h1M10 7h1M12 7h3M16 7h3M0 8h1M2 8h2M6 8h1M8 8h2M11 8h1M0 9h4M6 9h1M11 9h1M13 9h1M1 10h1M8 10h1M6 11h1M12 11h1M4 17h1M38 17h1M42 21h1M2 23h1M1 24h1M48 28h1M49 30h1M55 44h1M56 46h1M56 48h1M56 49h2M64 50h1M57 51h1M64 51h1M57 52h1M57 54h1M57 56h2M58 57h1M58 58h1M63 59h1M59 60h1M64 64h1M60 65h1M64 65h1M57 71h1M57 72h1M63 95h1" />
<path stroke="#1e221b" d="M2 4h1M4 4h1M3 5h1M5 5h1M10 5h1M15 5h1M17 6h1M19 6h1M19 7h2M12 8h1M34 13h1M37 16h1M40 18h1M47 27h1M64 45h1M64 47h1M57 50h1M64 52h1M58 53h1M64 54h1M58 59h2M58 64h1M64 68h1M64 70h1M59 74h1M58 77h1M60 77h1" />
<path stroke="#1d211b" d="M3 4h1M7 4h2M0 5h1M2 5h1M12 5h1M14 5h1M17 5h1M9 6h3M31 7h1M20 8h1M31 8h1M30 10h5M10 11h1M34 11h1M31 12h2M35 14h1M42 20h1M43 21h1M44 23h1M50 31h1M64 46h1M56 50h1M56 51h1M64 53h1M58 55h1M59 56h1M64 56h1M59 57h1M57 58h1M59 58h1M62 58h1M57 59h1M58 60h1M59 61h1M59 62h1M59 63h1M59 64h2M59 65h1M59 66h2M60 67h1M59 68h2M59 69h1M64 69h1M59 70h1M58 71h1M64 71h1M58 72h1M58 73h2M58 74h1M60 74h1M63 74h1M60 75h2M60 76h2M59 77h1M60 78h1M60 79h1M64 79h1" />
<path stroke="#242921" d="M6 5h1M18 8h2M15 9h1M4 10h1M12 10h1M2 12h1M3 13h1M3 14h2M0 15h1M2 15h1M7 15h1M1 16h1M0 17h1M2 18h1M0 19h1M5 19h1M3 20h1M3 21h1M3 22h1M2 25h1M0 27h1M0 30h1M56 92h1" />
<path stroke="#21261e" d="M7 5h1M4 7h1M7 8h1M10 8h1M8 9h2M12 9h1M14 9h1M2 10h1M6 10h1M11 10h1M1 20h1M1 21h2M4 21h1M55 46h1M56 52h1M64 94h1" />
<path stroke="#20241d" d="M8 5h2M12 6h1M15 6h1M2 7h1M16 8h2M9 10h1M39 18h1M43 22h1M50 32h1M53 38h1M56 47h1M57 55h1M57 60h1M58 63h1M59 67h1M64 67h1M60 70h1M60 71h1M57 73h1M59 75h1M59 76h1" />
<path stroke="#22271f" d="M1 6h1M7 6h2M0 7h1M6 7h1M15 7h1M4 8h1M13 8h1M5 9h1M10 9h1M0 10h1M5 10h1M13 10h1M0 11h1M5 11h1M7 11h2M0 12h1M6 12h2M9 12h3M2 13h1M4 13h2M1 14h1M4 15h1M3 16h1M3 18h1M2 19h2M4 20h1M2 22h1M1 23h1M3 23h1M1 25h1M45 25h1M0 26h3M46 26h1M1 27h1M1 28h1M48 29h1M57 53h1M57 57h1M58 75h1" />
<path stroke="#232820" d="M5 6h1M8 7h2M1 8h1M5 8h1M14 8h2M4 9h1M7 9h1M17 9h1M3 10h1M7 10h1M10 10h1M1 11h2M4 11h1M13 11h1M1 12h1M5 12h1M8 12h1M6 13h1M0 14h1M7 14h1M3 15h1M7 16h1M2 17h1M5 17h1M4 19h1M0 21h1M0 22h1M0 24h1M2 24h1M0 28h1M0 29h1M51 34h1M54 41h1M55 43h1M56 53h1M57 61h1M57 62h1M64 99h1" />
<path stroke="#252a22" d="M5 7h1M3 12h2M8 13h1M10 13h1M2 14h1M5 14h1M34 14h1M5 15h1M5 16h2M1 17h1M6 17h1M0 18h2M4 18h1M0 20h1M0 25h1M48 31h1M49 33h1M53 39h1M64 93h1" />
<path stroke="#292e25" d="M16 9h1M8 15h1M47 28h1M49 32h1M61 86h1M59 89h1M55 92h1M64 102h1" />
<path stroke="#413b1e" d="M18 9h1M19 11h1M11 16h1M9 19h1M7 22h1M8 23h1M6 25h1M7 26h1M2 39h1M3 43h1M35 125h2M41 125h1M44 125h1M40 126h3M47 126h1M57 127h1" />
<path stroke="#423c1f" d="M19 9h1M18 11h1M15 13h1M13 15h1M11 17h1M8 20h1M6 31h1M4 36h1M2 41h1M29 123h1M31 124h1M38 124h1M40 124h1M43 125h1M46 126h1M50 127h1M58 127h2M63 127h1" />
<path stroke="#363218" d="M20 9h1M20 10h1M5 21h1M4 22h1M5 24h1M4 25h1M3 27h2M3 30h1M5 31h1M0 34h1M2 34h1M0 35h1M2 35h1M1 111h1M16 119h1M18 119h1" />
<path stroke="#393419" d="M21 9h1M26 10h1M9 16h1M6 18h1M5 20h1M4 23h2M6 28h1M2 33h1M2 36h1M3 39h1" />
<path stroke="#3b361b" d="M22 9h1M21 10h1M13 12h1M13 13h1M9 15h1M8 16h1M7 18h1M7 19h1M7 21h1M6 23h1M6 27h1M4 29h1M4 30h1M3 33h1M2 37h1M18 118h1M26 122h1" />
<path stroke="#383319" d="M23 9h1M10 14h1M6 20h1M5 22h1M3 24h2M3 26h1M2 27h1M2 28h3M2 29h2M5 29h1M5 30h1M0 31h1M3 31h1M0 32h1M0 33h1M1 34h1M4 34h1M1 35h1M15 119h1M20 119h1" />
<path stroke="#302b14" d="M24 9h1M0 112h1M0 113h1M0 114h4M8 116h1" />
<path stroke="#262b23" d="M14 10h1M7 13h1M9 13h1M32 13h1M6 14h1M8 14h2M54 42h1M54 43h1M57 70h1M64 95h1" />
<path stroke="#3d381c" d="M15 10h1M23 10h1M14 11h1M16 11h1M12 12h1M14 12h1M12 14h1M12 15h1M5 25h1M3 34h1M3 38h1M2 40h1M0 110h1M19 118h1M23 120h1M27 122h1M27 123h1M29 125h1M29 126h1M31 126h1M29 127h2M38 127h1" />
<path stroke="#3e391d" d="M16 10h1M24 10h1M15 11h1M15 12h1M14 13h1M10 15h1M10 16h1M8 18h1M6 22h1M4 32h2M2 38h1M2 42h1M2 43h1M21 119h1M26 121h1M28 123h1M28 124h2M28 125h1M32 125h2M30 126h1M31 127h6M39 127h3M43 127h1" />
<path stroke="#3a351a" d="M17 10h1M11 13h1M7 17h2M6 19h1M7 20h1M6 21h1M3 25h1M5 26h1M4 31h1M1 32h1M3 32h1M4 33h1M3 35h2M1 110h1" />
<path stroke="#403b1d" d="M18 10h2M25 10h1M16 12h1M11 14h1M13 14h2M9 17h1M9 18h1M7 23h1M6 24h1M7 25h1M6 26h1M5 33h1M5 34h1M28 122h1M32 124h5M39 124h1M30 125h2M34 125h1M38 125h3M32 126h8M43 126h2M37 127h1M42 127h1M44 127h6M56 127h1" />
<path stroke="#3e3a1d" d="M22 10h1M8 19h1M7 24h1M5 27h1M6 29h1M3 36h1M3 37h1M25 121h1M53 127h1" />
<path stroke="#2b2414" d="M27 10h1M19 18h1M31 20h1M11 25h1M31 25h1M33 28h2M37 28h1M40 28h2M41 29h1M35 30h1M37 30h2M41 30h1M43 30h1M34 31h1M37 31h2M42 31h2M40 32h1M44 32h1M15 33h1M35 33h1M37 33h3M42 33h2M45 33h1M36 34h1M38 34h2M36 35h1M40 35h1M14 36h1M37 36h1M39 36h3M36 37h1M39 37h1M37 38h1M40 38h1M39 39h1M39 40h1M46 40h1M48 40h1M14 41h1M40 41h1M42 41h1M37 42h1M40 42h1M44 42h1M37 43h1M38 44h1M37 45h1M42 45h1M44 46h1M37 47h1M37 48h3M39 49h1M39 50h1M39 52h1M40 53h1M37 55h1M37 56h1M42 67h1M42 68h1M39 78h1M57 78h1M58 79h1M63 80h1M24 81h1M37 81h1M25 82h1M42 82h1M28 83h1M43 83h2M46 84h1M40 85h1M46 85h1M28 86h1M38 86h1M41 86h1M40 87h1M41 89h1M45 90h1M43 92h1M2 94h1M22 94h1M36 94h1M45 99h1M22 101h1M24 101h1M5 103h1" />
<path stroke="#242820" d="M3 11h1M9 11h1M11 11h1M0 13h2M1 15h1M6 15h1M0 16h1M2 16h1M4 16h1M3 17h1M5 18h1M1 19h1M2 20h1M64 103h1" />
<path stroke="#3c371b" d="M17 11h1M12 13h1M2 32h1" />
<path stroke="#3b341d" d="M20 11h1M24 11h2M31 13h1M15 14h1M17 14h1M17 15h1M35 15h1M13 16h1M22 16h1M16 17h1M19 17h1M16 18h1M21 23h1M8 24h1M21 24h1M26 24h1M22 25h1M24 25h1M26 25h1M28 25h1M28 26h1M45 27h1M23 28h1M30 29h1M11 36h1M52 39h1M35 41h1M7 46h1M5 47h1M43 48h1M36 49h1M7 54h1M8 56h1M7 58h1M7 62h1M11 62h1M34 79h1M32 80h1M17 81h1M17 82h1M34 82h1M54 82h1M13 84h1M57 85h1M9 87h1M33 88h1M23 89h1M27 89h1M31 89h1M33 89h1M32 90h1M24 91h2M49 91h1M34 93h1M0 94h1M30 95h1M1 96h1M21 96h1M33 96h1M0 97h1M44 100h1M6 101h1M6 102h1M22 109h1M9 110h1M11 110h2M12 111h1M22 111h1M7 113h1M24 113h1M22 115h2M18 117h3M24 117h1" />
<path stroke="#36301b" d="M21 11h1M28 11h1M17 13h1M15 18h1M23 22h1M26 23h1M29 25h1M17 26h1M14 28h2M14 29h1M31 29h1M13 30h1M12 32h1M33 32h1M12 33h1M10 36h1M51 37h1M49 40h1M8 44h2M7 45h2M6 46h1M36 46h1M7 53h1M9 55h1M6 57h1M6 59h1M7 60h1M8 67h1M36 73h1M36 76h1M24 80h1M18 82h1M47 82h2M36 83h1M31 85h1M33 85h1M37 85h1M30 87h1M36 87h1M36 88h1M23 90h1M26 90h1M29 90h1M0 93h2M18 93h1M41 95h1M2 98h1M1 99h1M6 99h1M13 99h1M2 100h1M40 100h1M4 102h1M23 102h1M29 102h1M9 105h1M7 110h2M8 111h1M23 111h1M7 112h1M15 112h2M21 113h3M9 114h1M18 114h1M24 114h2M20 115h1M14 116h1M15 117h1" />
<path stroke="#38311c" d="M22 11h1M17 12h1M31 15h1M15 17h1M20 23h1M22 23h2M25 23h1M19 24h1M24 24h1M27 24h1M38 24h1M20 25h1M18 26h1M29 26h1M23 27h1M16 28h1M14 30h1M35 36h1M35 38h1M36 43h1M7 47h1M7 51h1M6 56h1M7 57h1M36 57h1M6 58h1M36 58h1M6 63h1M6 72h1M36 80h1M57 80h1M18 81h1M26 81h1M34 81h1M41 81h1M18 83h1M20 83h1M27 83h1M18 84h1M33 86h1M29 87h1M34 88h1M22 90h1M33 90h1M14 91h1M1 95h1M33 95h1M39 95h1M32 96h1M10 99h1M11 100h1M26 100h1M29 100h1M1 101h1M10 101h1M1 102h1M22 102h1M6 111h2M10 111h1M20 111h1M14 112h1M6 113h1M8 113h1M13 113h1M25 113h1M16 114h2M23 114h1M26 114h1M14 115h1M17 115h3M16 116h1M16 117h1" />
<path stroke="#3c361e" d="M23 11h1M26 11h1M18 12h1M21 12h1M24 12h1M26 12h2M16 13h1M18 13h1M20 13h2M23 13h1M25 13h1M16 14h1M23 14h1M33 14h1M15 15h1M15 16h1M13 18h1M38 18h1M9 24h1M23 25h1M44 25h1M27 26h1M46 28h1M29 29h1M23 30h1M30 30h1M14 31h1M30 31h1M32 31h1M13 32h1M32 32h1M50 35h1M34 36h1M10 38h1M35 42h1M35 43h1M35 44h1M35 45h1M36 48h1M7 49h1M8 50h1M7 52h1M36 52h1M36 53h1M48 54h1M36 55h1M7 56h1M35 57h1M8 61h1M8 65h1M11 65h1M8 66h1M7 68h1M39 77h1M56 78h1M37 79h1M27 80h1M32 81h1M53 82h1M34 83h1M11 84h1M12 85h1M34 85h1M10 86h2M13 86h1M57 86h1M33 87h1M30 88h1M18 90h1M34 90h1M23 91h1M26 91h1M55 91h1M19 92h1M31 92h1M36 92h1M33 93h1M0 95h1M34 96h2M38 96h1M29 97h1M5 99h1M21 99h1M5 100h1M21 101h1M42 101h1M7 102h1M22 103h2M0 104h1M20 108h2M11 109h1M14 109h1M21 109h1M23 109h1M5 110h1M18 110h1M21 110h1M23 110h1M14 111h1M16 111h1M10 112h4M11 113h1M7 114h1M25 115h1M21 116h2M17 117h1M25 117h2M21 118h2" />
<path stroke="#3e3820" d="M27 11h1M19 12h1M26 13h1M28 13h1M18 14h1M20 14h1M26 14h2M23 15h1M26 15h1M30 15h1M34 15h1M18 16h1M20 16h1M12 17h1M14 17h1M18 17h1M27 17h1M29 17h1M12 18h1M31 18h1M10 19h1M10 20h1M12 20h1M40 20h1M9 21h4M9 22h3M9 23h1M42 23h1M8 27h1M29 27h1M41 27h1M27 28h3M7 30h1M15 30h1M23 31h1M31 31h1M6 32h2M30 32h2M32 33h1M12 34h1M32 34h1M5 35h1M6 37h1M11 37h1M34 37h1M34 38h1M10 39h1M34 39h1M34 40h1M10 42h1M33 43h1M33 44h1M9 45h1M33 45h1M9 46h1M35 46h1M35 54h2M35 55h1M11 58h1M7 72h1M6 73h1M34 75h1M37 77h1M8 79h1M8 80h1M34 80h1M22 81h1M33 81h1M9 82h2M8 83h2M11 83h2M14 83h1M8 84h3M12 84h1M31 84h1M14 85h1M11 87h1M31 87h1M6 89h1M55 90h1M10 91h1M21 91h1M12 92h1M51 92h1M7 95h1M10 95h1M28 95h1M0 96h1M4 96h1M7 96h1M31 97h1M5 98h1M0 99h1M7 99h1M18 99h1M0 100h1M3 100h1M7 100h1M18 100h1M0 101h1M7 101h1M15 101h1M28 101h1M21 102h1M26 102h1M28 102h1M7 104h1M9 104h1M12 104h1M0 105h1M0 106h1M18 108h2M22 108h3M7 109h1M12 109h1M20 109h1M11 111h1M13 111h1M24 111h1M26 113h1M26 115h1M30 115h1M17 116h3M27 116h1M21 117h3M27 117h1M20 118h1" />
<path stroke="#2e2715" d="M29 11h1M22 17h3M20 18h1M27 18h1M25 19h1M29 19h1M27 20h1M13 21h1M15 21h1M19 21h1M21 21h1M20 22h1M34 22h1M13 24h1M30 24h1M37 24h1M34 26h2M25 27h1M31 27h1M36 27h1M38 27h2M25 28h1M32 28h1M25 29h1M32 29h1M36 29h1M22 30h1M25 30h1M16 31h1M22 31h1M44 31h1M25 32h1M29 32h1M26 33h1M29 33h1M7 34h1M9 34h1M29 34h2M15 36h2M21 36h2M27 36h2M43 36h1M47 36h1M16 37h1M22 37h1M30 37h2M42 37h1M25 38h1M30 38h1M41 38h1M37 39h2M41 39h1M44 39h1M47 39h1M49 39h1M25 40h1M31 40h1M43 40h1M50 41h1M39 43h1M39 44h1M14 45h1M15 46h1M40 46h1M30 47h1M41 47h1M37 51h1M39 51h2M33 53h1M15 54h1M32 54h1M13 55h1M22 57h1M39 57h1M18 60h1M37 60h1M39 60h1M16 62h1M40 63h1M41 65h1M14 66h1M17 66h1M41 66h1M14 67h2M39 67h1M14 68h1M39 68h1M40 69h2M37 70h1M17 73h1M38 78h1M40 81h1M28 82h1M38 83h1M26 84h1M35 84h1M41 84h1M35 85h1M42 85h1M37 87h1M42 88h1M42 89h1M29 92h1M41 93h1M35 94h1M29 96h1M9 97h1M20 99h1M26 99h1M10 116h1" />
<path stroke="#3d361f" d="M20 12h1M28 12h1M21 14h1M14 15h1M17 16h1M36 16h1M13 17h1M37 17h1M13 19h1M10 24h1M22 24h1M8 25h1M25 26h1M30 28h1M23 29h1M4 48h1M8 53h1M35 56h1M11 64h1M7 67h1M11 68h1M10 83h1M56 86h1M5 87h1M5 89h1M14 89h1M29 89h1M56 89h1M0 91h1M32 91h1M50 91h1M52 91h1M32 92h1M53 92h1M12 93h1M31 94h1M30 97h1M11 99h1M11 102h1M25 102h1M10 105h1M24 110h1M19 111h1M22 112h1" />
<path stroke="#3f3921" d="M22 12h2M22 13h1M25 15h1M31 19h1M33 37h1M10 40h1M36 51h1M48 52h1M11 59h1M1 74h1M21 81h1M13 82h1M57 83h1M14 84h1M14 88h1M10 92h1M10 93h1M18 94h1M37 96h1M11 97h1M28 99h1M20 101h1M11 103h1M6 104h1M1 106h1M19 109h1M25 110h1M17 111h1M25 118h2" />
<path stroke="#3a331c" d="M25 12h1M14 16h1M17 17h1M29 18h1M14 19h1M24 23h1M20 24h1M25 24h1M19 25h1M21 25h1M26 26h1M17 27h1M30 27h1M15 29h1M32 30h1M34 35h2M35 37h1M6 39h1M35 39h1M10 41h1M8 46h1M8 47h1M36 47h1M43 47h1M36 50h1M48 53h1M36 56h1M7 59h1M7 63h1M11 63h1M7 64h1M11 66h1M11 67h1M8 68h1M37 78h1M17 80h1M21 80h1M30 80h1M30 81h1M27 82h1M30 82h1M37 82h1M25 83h1M33 83h1M27 84h1M33 84h1M57 84h1M31 86h1M34 89h1M25 90h1M30 90h1M22 91h1M33 91h1M34 92h1M52 92h1M2 93h2M40 95h1M42 95h1M5 96h1M12 100h1M5 101h1M29 101h1M2 102h2M7 103h1M10 109h1M2 110h2M10 110h1M4 111h2M6 114h1M8 114h1M15 115h1M21 115h1M20 116h1" />
<path stroke="#433d23" d="M29 12h1M19 14h1M19 15h1M30 16h1M37 20h1M39 22h1M18 27h1M29 31h1M13 34h1M13 35h1M31 35h1M33 39h1M17 42h1M10 45h1M27 45h1M34 45h1M3 47h1M9 60h1M0 75h1M10 78h1M10 80h2M9 81h1M11 82h1M51 86h1M58 86h1M12 88h1M58 88h1M13 89h1M19 89h1M28 89h1M28 90h1M28 91h1M13 92h1M11 93h1M14 96h1M32 98h1M4 99h1M27 100h1M27 102h1M21 103h1M25 103h1M27 103h1M22 104h4M21 105h4M19 106h4M6 108h6M13 108h1M15 108h1M27 108h1M3 109h3M15 109h1M25 109h1M30 116h1M24 118h1M31 118h1M33 118h1M32 119h2" />
<path stroke="#3e3720" d="M30 12h1M25 14h1M16 15h1M20 15h2M23 16h1M28 16h1M28 17h1M31 17h1M9 20h1M34 21h1M41 21h1M9 25h1M27 27h1M31 30h1M6 35h1M3 44h1M8 52h1M6 60h1M8 62h1M1 77h1M36 79h1M25 81h1M32 82h1M30 83h1M59 83h1M15 84h1M34 84h1M8 85h1M11 85h1M61 85h1M12 86h1M26 86h1M13 87h1M16 87h1M31 88h1M14 90h1M31 90h1M19 91h1M31 91h1M53 91h2M4 93h1M7 94h1M10 94h1M0 98h1M11 98h1M21 100h1M5 102h1M1 109h1M24 109h1M4 110h1M19 110h2M15 111h1M8 112h1M28 117h1M32 117h1" />
<path stroke="#413b21" d="M19 13h1M29 13h2M30 14h1M29 16h1M37 21h1M37 23h1M8 26h2M29 30h1M23 32h1M6 33h1M31 33h1M23 34h1M12 35h1M23 35h1M32 35h1M5 36h1M23 36h1M33 38h1M4 39h1M4 40h1M33 41h1M16 42h1M33 42h1M9 47h1M35 48h1M35 49h1M8 51h1M11 53h1M11 55h1M11 56h1M8 57h1M8 60h1M7 61h1M8 69h1M1 76h1M35 76h1M8 78h1M33 80h1M8 81h1M14 82h1M21 82h1M31 82h1M56 82h1M21 83h2M32 83h1M55 83h1M21 84h1M55 84h1M9 85h1M32 85h1M59 85h1M32 86h1M50 87h1M57 87h2M10 88h1M27 88h1M57 88h1M15 89h1M32 89h1M19 90h1M15 91h1M51 91h1M0 92h1M17 92h1M17 93h1M36 93h1M11 95h1M31 95h1M10 96h2M28 96h1M36 96h1M7 97h1M25 97h1M7 98h1M28 98h1M31 98h1M27 99h1M28 100h1M25 101h2M0 102h1M18 102h1M24 103h1M1 104h1M5 104h1M24 107h1M26 108h1M24 112h1M26 112h1M28 112h1M23 116h1M28 116h2M31 116h1M30 117h1" />
<path stroke="#403a21" d="M24 13h1M27 13h1M24 14h1M32 14h1M18 15h1M24 15h1M27 15h2M33 15h1M26 16h1M32 17h1M12 19h1M7 31h1M6 34h1M31 34h1M33 35h1M6 36h1M6 38h1M34 41h1M34 42h1M34 44h1M33 46h1M35 51h1M49 52h1M11 54h1M11 57h1M8 58h1M11 61h1M10 81h1M13 83h1M58 84h1M10 85h1M9 86h1M14 86h1M34 86h1M12 87h1M51 87h1M32 88h1M13 90h1M13 91h1M27 92h1M28 93h1M32 94h1M41 96h1M18 98h1M11 101h1M13 101h1M13 102h1M13 103h1M13 104h1M22 107h1M25 107h1M14 108h1M2 109h1M6 109h1M16 110h1M25 112h1M27 112h1M31 117h1M23 118h1" />
<path stroke="#443f24" d="M22 14h1M28 14h1M29 15h1M35 18h1M35 19h1M36 20h1M35 21h1M41 22h1M42 27h1M46 33h1M23 37h1M5 39h1M23 39h1M32 39h1M12 40h1M23 40h1M23 41h1M24 42h1M10 43h1M24 44h1M35 47h1M11 51h1M34 55h1M9 59h2M10 61h1M35 74h1M33 78h2M7 80h1M9 80h1M14 81h1M15 83h1M31 83h1M53 84h1M60 84h1M51 85h1M8 86h1M29 88h1M57 89h1M2 90h1M17 90h1M9 91h1M18 92h1M30 93h1M6 96h1M35 97h1M38 97h2M10 98h1M37 98h1M18 101h1M12 102h1M20 102h1M29 103h1M14 104h1M16 104h1M21 104h1M8 105h1M16 105h1M20 105h1M3 106h2M8 106h1M11 106h1M17 106h1M11 107h1M15 107h2M18 107h1M21 107h1M26 107h1M1 108h1M5 108h1M25 108h1M17 109h1M26 109h1M13 110h1M15 110h1M25 111h1M25 116h1" />
<path stroke="#433e24" d="M29 14h1M22 15h1M30 17h1M32 19h1M11 20h1M34 20h1M20 26h1M47 30h1M11 38h2M23 38h1M32 38h1M5 41h1M4 43h1M4 44h1M4 45h1M32 46h1M34 47h1M4 49h1M8 49h1M9 54h1M8 64h1M35 73h1M0 76h1M34 76h1M35 78h1M55 79h1M6 81h1M54 83h1M56 83h1M32 84h1M49 90h2M11 91h1M21 93h1M31 93h2M13 96h1M40 96h1M42 96h1M2 99h1M27 101h1M10 103h1M12 103h1M15 103h1M20 103h1M26 103h1M28 103h1M26 104h3M13 105h1M25 105h2M10 106h1M12 106h1M23 106h1M20 107h1M23 107h1M3 108h2M18 109h1M17 110h1M29 117h1M32 118h1M31 119h1" />
<path stroke="#3b351d" d="M31 14h1M21 16h1M31 16h1M14 18h1M23 24h1M43 24h1M25 25h1M27 25h1M19 26h1M33 33h1M33 34h1M10 37h1M35 40h1M8 48h1M8 54h1M34 74h1M38 77h1M2 81h1M31 81h1M6 82h1M33 82h1M55 82h1M30 84h1M13 85h1M25 85h1M27 85h1M27 86h1M15 87h1M34 87h1M20 89h1M30 89h1M27 91h1M34 91h1M54 92h1M7 93h1M21 95h1M1 98h1M27 98h1M29 98h1M13 109h1M6 110h1M18 111h1" />
<path stroke="#423d1f" d="M11 15h1M12 16h1M10 17h1M8 21h1M7 27h1M7 28h1M6 30h1M4 37h1M4 38h1M3 40h1M3 41h1M3 42h1M2 44h1M2 45h1M2 48h1M0 109h1M24 120h1M30 123h1M33 123h1M37 123h1M30 124h1M37 124h1M41 124h2M37 125h1M42 125h1M45 125h1M45 126h1M48 126h2M51 127h2M60 127h1" />
<path stroke="#423c22" d="M32 15h1M16 16h1M19 16h1M24 16h2M27 16h1M32 16h2M11 18h1M30 18h1M32 18h1M11 19h1M39 19h1M13 20h1M10 23h1M26 27h1M28 27h1M8 28h1M16 29h1M28 29h1M23 33h1M30 33h1M32 36h2M5 37h1M12 37h1M32 37h1M33 40h1M4 41h1M4 42h1M34 43h1M3 45h1M3 46h1M34 46h1M3 48h1M35 50h1M35 52h1M35 53h1M9 56h1M8 59h1M9 61h1M9 62h1M34 73h1M1 75h1M35 75h1M36 78h1M9 79h1M6 80h1M11 81h3M8 82h1M12 82h1M22 84h1M50 86h1M14 87h1M17 87h1M9 88h1M20 88h1M15 90h2M1 91h1M8 91h1M12 91h1M18 91h1M28 92h1M11 94h1M28 94h1M18 95h1M39 96h1M10 97h1M18 97h1M28 97h1M32 97h1M37 97h1M43 97h1M30 98h1M3 99h1M3 101h2M12 101h1M10 102h1M14 102h3M14 103h1M16 103h3M4 105h1M19 107h1M12 108h1M16 108h1M8 109h2M16 109h1M9 112h1M23 112h1M27 113h1M27 114h1M27 115h1M29 115h1M31 115h1M26 116h1M32 116h1M27 118h4M64 127h1" />
<path stroke="#454024" d="M34 16h1M34 19h1M35 20h1M36 21h1M40 24h1M42 28h1M5 38h1M12 39h1M12 41h1M5 42h1M12 42h1M15 42h1M4 46h2M31 46h1M34 49h1M11 50h1M34 50h1M9 51h1M9 53h1M34 56h1M11 60h1M9 63h1M9 64h1M9 65h1M7 73h1M7 74h1M0 77h1M8 77h1M27 79h1M29 79h2M2 80h1M13 80h1M7 82h1M22 82h1M55 86h1M32 87h1M11 88h1M7 91h1M16 91h1M11 92h1M18 96h1M25 96h1M33 97h2M40 97h1M6 100h1M16 101h1M19 101h1M17 102h1M0 103h1M10 104h1M11 105h1M27 105h1M5 106h1M4 107h1M13 107h1M28 108h1M26 110h1M28 113h1M32 114h1M33 115h1M33 116h1" />
<path stroke="#474125" d="M35 16h1M40 25h1M17 28h1M13 36h1M11 47h1M31 79h1M14 80h1M7 81h1M36 97h1M1 105h1M6 106h1M18 106h1M9 107h2" />
<path stroke="#322a17" d="M20 17h1M23 19h1M14 20h1M23 20h1M28 20h1M23 21h1M31 21h1M12 22h1M14 22h1M18 22h1M22 22h1M25 22h3M33 22h1M12 23h1M18 23h1M30 23h1M11 24h2M35 24h1M10 25h1M15 25h2M36 25h1M10 26h1M12 26h1M15 26h1M30 26h1M9 27h1M11 27h1M12 29h1M8 30h1M10 30h1M8 31h1M8 32h1M8 33h1M8 34h1M16 34h1M42 34h1M7 35h1M9 35h1M7 36h2M7 37h1M45 37h1M43 38h1M9 39h1M46 39h1M7 40h2M41 41h1M6 43h1M6 44h1M54 44h1M39 47h1M55 47h1M41 48h1M55 48h1M29 54h1M33 54h1M33 55h1M37 58h1M37 59h2M38 60h1M14 61h1M20 61h1M39 61h1M38 62h1M38 68h1M41 68h1M43 69h1M19 80h1M35 80h1M38 80h1M19 81h1M20 82h1M28 84h1M29 86h1M37 88h1M26 89h1M49 89h1M20 90h1M37 90h1M20 93h1M29 93h1M9 94h1M23 94h1M33 94h1M40 94h1M6 95h1M29 95h1M2 96h1M24 98h1M44 98h1M22 99h3M15 100h1M22 100h1M25 100h1M3 112h2M18 112h1M4 113h2M15 113h2M14 114h1M7 115h2M14 117h1" />
<path stroke="#312917" d="M21 17h1M26 19h1M15 20h1M19 20h1M29 20h2M26 21h1M27 23h1M29 23h1M33 23h2M14 25h1M34 25h2M31 26h1M13 27h1M9 31h1M41 35h1M8 39h1M47 40h1M39 41h1M38 42h1M40 44h1M38 46h1M38 47h1M42 47h1M40 50h1M26 54h2M30 54h1M17 61h1M38 61h1M17 62h1M39 64h2M39 65h1M40 66h1M41 67h1M40 68h1M20 80h1M22 80h1M64 80h1M38 81h1M29 83h1M28 85h1M38 85h1M35 91h1M9 93h1M41 94h1M32 95h1M25 98h1M9 100h1M13 114h1M6 115h1M11 115h1" />
<path stroke="#2c2615" d="M25 17h1M18 18h1M22 18h2M25 18h1M17 19h1M19 19h3M27 19h2M30 19h1M20 20h1M22 20h1M24 20h1M26 20h1M32 20h1M16 21h1M22 21h1M27 21h3M32 21h2M16 22h2M29 22h3M35 22h1M14 23h2M32 23h1M35 23h2M14 24h1M31 24h3M36 24h1M30 25h1M32 25h2M37 25h1M22 26h1M33 26h1M38 26h2M22 27h1M32 27h4M37 27h1M40 27h1M9 28h1M19 28h1M22 28h1M35 28h2M22 29h1M33 29h1M35 29h1M33 30h1M36 30h1M36 31h1M9 32h1M22 32h1M10 33h1M40 33h2M10 34h1M35 34h1M37 34h1M40 34h2M43 34h1M8 35h1M42 35h3M38 36h1M42 36h1M15 37h1M38 37h1M43 37h2M46 37h1M22 38h1M36 38h1M38 38h1M42 38h1M25 39h1M31 39h1M40 39h1M42 39h2M45 39h1M37 40h2M40 40h3M37 41h2M32 42h1M39 42h1M38 43h1M41 43h1M43 43h1M14 44h1M32 44h1M37 44h1M41 44h1M22 45h1M39 45h2M39 46h1M42 46h1M40 47h1M13 48h1M40 48h1M13 49h1M31 49h1M37 49h2M40 49h1M42 49h1M33 50h1M37 50h1M41 50h1M38 52h1M40 52h1M38 53h1M21 54h2M31 54h1M37 54h1M39 54h2M39 55h2M38 56h2M38 57h1M40 57h1M40 58h1M40 59h1M40 60h1M15 61h2M40 61h1M40 62h1M15 66h1M42 66h1M15 68h1M39 69h1M38 70h1M56 79h1M23 80h1M61 80h1M28 81h1M39 81h1M44 82h1M41 83h1M29 84h1M38 84h3M42 84h2M45 84h1M29 85h1M45 85h1M35 86h1M37 86h1M42 86h1M46 86h1M35 87h1M38 87h1M41 87h2M38 88h1M38 89h1M38 90h1M42 90h1M38 91h1M35 93h1M39 93h2M43 93h1M5 94h2M37 94h2M9 95h1M22 95h1M34 95h1M9 96h1M30 96h1M2 97h1M20 98h1M26 98h1M45 98h1M25 99h1M24 100h1M9 101h1M44 101h1M9 102h1M24 102h1M2 103h1M4 103h1M9 116h1" />
<path stroke="#352f1a" d="M26 17h1M18 24h1M18 25h1M39 25h1M16 26h1M23 26h1M40 26h1M16 27h1M12 31h2M36 41h1M36 42h1M6 45h1M42 48h1M6 49h1M49 53h1M6 62h1M36 72h1M36 81h1M36 82h1M19 83h1M19 84h1M36 84h1M26 85h1M36 85h1M36 86h1M5 93h1M6 98h1M12 99h1M44 99h1M13 100h1M17 100h1M9 106h1M3 111h1M9 111h1M21 111h1M20 112h1M19 113h1M5 114h1M19 114h1M22 114h1M13 115h1" />
<path stroke="#494327" d="M33 17h1M24 35h1M11 39h1M12 43h1M22 43h1M10 48h1M23 48h1M5 49h1M9 50h1M23 52h1M10 55h1M23 55h1M23 56h1M10 58h1M7 77h1M12 78h1M11 79h1M56 84h1M55 88h2M55 89h1M24 92h1M33 98h1M39 100h1M17 101h1M8 102h1M8 103h1M2 104h1M14 105h1M19 105h1M7 107h2M12 107h1M47 108h1M30 114h1" />
<path stroke="#4b4529" d="M34 17h1M37 18h1M40 21h1M18 28h1M5 43h1M18 43h1M12 44h1M11 48h1M34 51h1M34 54h1M10 60h1M10 64h1M56 69h1M24 74h1M13 79h1M12 80h1M5 81h1M0 82h1M19 88h1M18 89h1M19 96h1M8 101h1M1 107h1M27 107h1M28 111h2M35 112h1M29 114h1M50 114h1M52 114h1M35 117h1M38 118h1" />
<path stroke="#4c4629" d="M35 17h1M39 23h1M14 32h1M47 34h1M30 46h1M10 65h1M10 66h1M9 68h1M4 73h1M10 76h1M12 77h1M26 88h1M53 89h1M3 98h1M34 98h1M14 101h1M45 111h1M48 115h1" />
<path stroke="#4a4428" d="M36 17h1M33 20h1M38 23h1M39 24h1M41 26h1M44 26h1M19 27h1M43 28h1M43 29h1M24 38h1M50 40h1M14 42h1M23 42h1M17 43h1M23 43h1M43 46h1M33 47h1M5 48h1M34 48h1M23 49h1M55 49h1M9 52h1M10 62h1M7 76h1M10 77h2M33 77h2M36 77h1M2 78h1M2 79h1M12 79h1M15 79h1M0 81h1M16 84h1M55 85h2M0 90h1M5 90h1M53 90h1M6 91h1M19 93h1M19 94h1M19 95h1M24 97h1M26 97h1M44 97h1M35 98h2M19 100h1M19 102h1M18 104h1M6 105h2M15 106h2M27 106h1M2 107h1M5 107h1M14 107h1M45 107h1M45 108h2M30 110h1M51 110h1M46 111h1M31 114h1M33 114h1M34 118h1M37 118h1" />
<path stroke="#454020" d="M10 18h1M2 46h1M2 47h1M60 121h4M60 122h5M39 123h1M61 123h4M64 124h1M46 125h1M49 125h1M51 126h2M55 127h1" />
<path stroke="#332d18" d="M17 18h1M24 19h1M17 21h1M21 22h1M17 23h1M15 24h1M17 24h1M17 25h1M11 26h1M12 27h1M15 27h1M11 28h1M13 29h1M12 30h1M11 31h1M11 32h1M7 33h1M11 33h1M8 37h2M7 38h1M7 39h1M6 40h1M9 40h1M8 41h2M9 42h1M7 44h1M36 45h1M54 45h1M6 47h1M6 48h1M38 51h1M8 55h1M39 62h1M7 66h1M36 74h1M36 75h1M38 79h1M28 80h1M39 80h1M29 81h1M26 82h1M29 82h1M46 82h1M52 82h1M30 86h1M39 88h1M35 90h1M42 94h1M36 95h2M23 96h1M1 97h1M20 97h3M21 98h2M16 100h1M20 100h1M1 103h1M2 111h1M17 112h1M17 113h1M20 114h1M9 115h1" />
<path stroke="#2b2515" d="M21 18h1M26 18h1M28 18h1M18 19h1M22 19h1M16 20h1M18 20h1M21 20h1M20 21h1M31 23h1M32 26h1M38 28h2M34 30h1M34 32h2M38 32h1M44 34h1M37 35h3M14 37h1M37 37h1M40 37h2M47 37h1M14 38h2M39 38h1M14 39h1M14 40h1M44 43h1M43 44h1M15 45h1M21 45h1M13 46h1M37 46h1M41 46h1M13 47h1M37 52h1M40 56h1M37 57h1M43 68h1M59 79h1M26 83h1M39 83h1M39 85h1M41 85h1M22 92h1M20 94h1M20 95h1M9 99h1M14 100h1M43 100h1" />
<path stroke="#2f2816" d="M24 18h1M17 20h1M25 20h1M14 21h1M18 21h1M24 21h2M30 21h1M15 22h1M28 22h1M32 22h1M16 23h1M28 23h1M29 24h1M34 24h1M12 25h1M38 25h1M36 26h2M10 27h1M20 27h2M9 29h1M18 29h2M26 29h1M9 30h1M17 30h1M21 30h1M26 30h1M26 31h2M10 32h1M16 32h1M26 32h2M9 33h1M25 33h1M27 33h1M34 33h1M25 34h3M10 35h1M25 35h3M30 35h1M20 36h1M30 36h1M44 36h2M48 37h1M26 38h1M29 38h1M31 38h1M44 38h3M26 39h1M30 39h1M36 39h1M48 39h1M32 41h1M49 41h1M6 42h1M41 42h1M20 45h1M38 45h1M41 45h1M14 46h1M22 46h1M14 47h1M29 47h1M14 48h1M30 48h1M14 49h1M32 49h1M41 49h1M13 50h2M25 50h1M32 50h1M13 51h1M13 52h1M25 52h1M32 52h2M13 53h1M22 53h1M37 53h1M39 53h1M38 54h1M14 55h1M22 55h1M25 55h1M38 55h1M13 56h1M22 56h1M25 56h2M32 56h1M38 58h2M39 59h1M13 60h1M14 62h2M39 63h1M17 65h1M40 65h1M13 66h1M16 66h1M39 66h1M13 67h1M16 67h2M13 68h1M16 68h2M14 69h4M59 80h1M62 80h1M38 82h1M35 83h1M51 84h1M35 88h1M35 89h1M37 89h1M39 90h1M42 93h1M29 94h1M39 94h1M20 96h1M9 98h1M23 100h1M9 103h1" />
<path stroke="#484126" d="M33 18h2M33 19h1M36 19h1M38 19h1M38 21h1M36 22h3M26 28h1M12 36h1M24 36h1M13 37h1M24 37h1M24 39h1M5 40h1M24 40h1M24 41h1M24 43h1M10 44h1M5 45h1M43 45h1M11 46h1M4 47h1M9 48h1M9 49h1M11 49h1M11 52h1M23 54h1M9 57h1M34 57h1M9 58h1M8 63h1M10 63h1M9 66h1M56 70h1M24 73h1M9 77h1M15 77h1M9 78h1M11 78h1M15 78h1M7 79h1M14 79h1M26 79h1M28 79h1M33 79h1M15 80h1M15 82h1M53 83h1M21 85h2M58 85h1M3 87h1M10 87h1M55 87h1M28 88h1M1 89h1M4 89h1M1 90h1M3 90h2M12 90h1M52 90h1M54 90h1M17 91h1M16 92h1M21 92h1M3 97h1M6 97h1M12 97h1M45 97h1M38 98h1M40 98h1M30 100h1M19 103h1M3 104h2M11 104h1M15 104h1M17 104h1M20 104h1M29 104h1M2 105h2M12 105h1M28 105h1M2 106h1M7 106h1M14 106h1M24 106h3M0 107h1M3 107h1M17 107h1M0 108h1M28 109h1M14 110h1M31 110h2M26 111h2M29 112h1M28 114h1M28 115h1M32 115h1M24 116h1M34 116h1M33 117h1M35 118h1M34 119h1" />
<path stroke="#4f492b" d="M36 18h1M39 20h1M24 27h1M46 32h1M24 34h1M49 38h1M51 42h1M16 43h1M21 43h1M22 44h1M27 44h1M12 45h1M25 45h1M31 45h2M23 47h1M10 51h1M10 57h1M55 66h1M10 68h1M9 69h1M8 71h1M14 72h1M11 76h1M13 76h1M13 77h1M56 77h1M0 78h1M22 79h1M0 80h2M3 80h1M16 83h1M52 84h1M52 85h1M52 86h1M54 88h1M2 89h2M2 91h1M4 91h1M1 92h1M8 92h1M27 93h1M13 95h1M19 97h1M17 99h1M37 99h1M39 99h1M30 102h1M40 106h1M41 107h3M29 108h1M44 108h1M43 109h4M40 110h1M43 110h1M46 110h1M31 111h1M50 111h3M34 112h1M50 112h3M32 113h1M45 113h1M49 113h2M34 114h1M43 114h1M45 114h2M34 115h1M40 115h1M43 115h1M35 116h1M39 116h3M43 116h2M36 117h2M39 117h1M42 117h3" />
<path stroke="#342e19" d="M15 19h1M13 22h1M11 23h1M19 23h1M14 26h1M14 27h1M13 28h1M8 29h1M33 31h1M11 34h1M9 36h1M8 38h2M8 43h2M36 44h1M6 55h2M6 64h1M7 65h1M29 80h1M20 81h1M27 81h1M19 82h1M35 82h1M45 82h1M17 83h1M37 83h1M20 85h1M24 89h1M21 90h1M30 91h1M9 92h1M37 92h1M6 93h1M3 94h1M2 95h1M23 98h1M29 99h1M1 100h1M10 100h1M42 100h1M2 101h1M5 112h2M19 112h1M18 113h1M11 114h1M12 115h1M12 116h1M15 116h1" />
<path stroke="#2a2313" d="M16 19h1M34 29h1M37 29h3M42 29h1M39 30h2M42 30h1M35 31h1M40 31h2M36 32h2M42 32h1M36 33h1M45 34h2M45 35h2M26 36h1M36 36h1M46 36h1M45 40h1M43 41h1M42 42h1M40 43h1M42 43h1M19 45h1M44 45h1M19 63h1M57 79h1M60 80h1M23 81h1M24 82h1M40 82h2M43 82h1M40 83h1M42 83h1M45 83h1M47 83h1M44 84h1M23 85h1M47 85h1M40 86h1M45 86h1M47 86h1M46 87h1M40 88h2M39 89h1M40 90h2M40 91h1M22 93h1M37 93h2M22 96h1M23 101h1M3 103h1M6 103h1" />
<path stroke="#4c472a" d="M37 19h1M38 20h1M14 33h1M14 34h1M48 36h1M11 40h1M11 43h1M19 43h1M25 43h2M29 44h2M23 45h1M23 46h1M10 47h1M10 49h1M10 50h1M34 52h1M34 53h1M10 54h1M9 67h2M10 69h1M8 70h1M2 74h2M2 75h1M7 75h1M8 76h2M15 76h1M24 76h1M2 77h1M35 77h1M13 78h2M32 78h1M5 79h1M16 79h1M23 79h2M1 81h1M19 85h1M59 86h1M15 88h1M54 89h1M6 90h1M26 96h1M15 97h1M27 97h1M15 98h1M8 104h1M28 106h1M41 106h4M2 108h1M47 109h3M33 110h1M44 110h2M48 110h3M30 111h1M47 111h3M37 112h1M44 112h5M55 112h1M29 113h1M34 113h2M46 113h2M47 114h3M51 114h1M46 115h2M49 115h1M36 116h2M45 116h2M40 117h2M36 118h1M39 118h2" />
<path stroke="#514b2d" d="M39 21h1M40 22h1M24 26h1M24 32h1M11 41h1M15 43h1M25 44h1M24 45h1M52 45h1M24 46h1M24 48h1M24 55h1M24 56h1M56 63h1M55 64h1M9 75h1M15 75h1M3 77h1M31 78h1M17 79h1M21 79h1M5 80h1M52 83h1M0 87h1M7 88h1M23 88h1M50 88h1M7 89h1M3 91h1M5 92h1M24 95h1M39 98h1M41 98h1M8 99h1M31 106h1M29 107h1M35 108h1M41 108h1M29 109h1M33 109h1M41 113h1M35 114h1M37 114h2M44 114h1M37 115h2" />
<path stroke="#433e1f" d="M8 22h1M36 123h1M50 126h1" />
<path stroke="#322c17" d="M19 22h1M24 22h1M13 23h1M13 25h1M13 26h1M10 28h1M10 29h2M11 30h1M10 31h1M45 32h1M47 35h1M48 38h1M36 40h1M7 41h1M7 42h2M38 50h1M40 67h1M38 69h1M44 69h1M39 79h1M25 80h1M58 80h1M35 81h1M30 85h1M39 86h1M39 87h1M20 91h1M29 91h1M37 91h1M23 92h1M23 93h1M34 94h1M23 95h1M26 95h1M43 101h1M10 115h1M11 116h1" />
<path stroke="#292f25" d="M42 22h1M57 90h1" />
<path stroke="#494226" d="M40 23h1M13 33h1M5 44h1M11 44h1M11 45h1M28 45h1M10 46h1M23 50h1M23 51h1M23 53h1M7 78h1M10 79h1M25 79h1M32 79h1M35 79h1M16 80h1M15 81h1M58 83h1M56 87h1M10 89h1M5 91h1M25 95h1M41 97h2M19 104h1M5 105h1M15 105h1M17 105h2M13 106h1M6 107h1M27 109h1M27 110h1M34 117h1" />
<path stroke="#514c2d" d="M41 23h1M41 25h1M45 30h1M24 31h1M24 33h1M29 45h2M29 46h1M32 47h1M24 51h1M10 52h1M24 57h1M4 75h1M14 77h1M5 78h1M20 79h1M3 81h1M60 85h1M5 88h1M8 88h1M24 88h1M8 97h1M13 97h1M30 107h1M40 107h1M34 109h1M42 109h1M29 110h1M41 110h1M44 111h1M43 112h1M30 113h1M36 114h1M41 114h1M36 115h1M42 115h1" />
<path stroke="#2b3027" d="M43 23h1M45 26h1M48 30h1M52 37h1" />
<path stroke="#352e19" d="M16 24h1M28 24h1M12 28h1M31 28h1M34 34h1M11 35h1M6 41h1M53 42h1M7 43h1M42 44h1M7 48h1M18 80h1M26 80h1M37 80h1M17 84h1M20 84h1M25 89h1M36 89h1M27 90h1M36 90h1M20 92h1M30 92h1M33 92h1M35 92h1M4 94h1M30 94h1M3 95h1M35 95h1M38 95h1M23 97h1M43 99h1M41 100h1M21 112h1M14 113h1M20 113h1M12 114h1M15 114h1M21 114h1M13 116h1" />
<path stroke="#534e2f" d="M41 24h2M46 31h1M47 32h1M13 39h1M52 40h1M52 43h1M19 44h1M53 44h1M54 46h1M33 48h1M54 51h2M54 53h1M24 54h1M56 55h1M55 56h1M55 65h1M55 68h2M55 72h1M10 75h1M55 75h1M3 76h3M56 76h1M4 77h1M26 77h1M3 78h2M6 78h1M23 78h4M4 79h1M7 86h1M25 86h1M2 87h1M13 88h1M11 89h2M21 89h1M51 89h1M8 95h1M12 96h1M27 96h1M15 99h1M36 99h1M40 99h1M42 102h1M31 103h1M30 104h1M30 105h2M33 105h1M35 105h1M40 105h2M29 106h1M32 106h1M34 106h5M31 107h3M36 107h1M39 107h1M33 108h2M39 108h1M39 109h1M39 110h1M35 111h1M39 111h1M42 111h1M31 112h1M42 112h1M36 113h1M40 113h1M43 113h1" />
<path stroke="#282d24" d="M44 24h1M49 31h1M50 33h1M50 34h1M51 35h1M52 36h1M57 91h1M63 96h1" />
<path stroke="#555131" d="M42 25h1M46 30h1M51 38h1M54 52h1M55 55h1M56 66h1M56 67h1M22 72h1M8 74h1M30 77h1M22 87h1M1 88h1M6 88h1M25 88h1M52 89h1M26 93h1M14 97h1M16 97h1M31 100h1M35 104h2M38 105h1M42 105h1M32 108h1M37 109h1" />
<path stroke="#524d2e" d="M43 25h1M24 29h1M24 30h1M48 35h1M53 45h1M12 46h1M53 46h1M12 47h1M24 47h1M24 49h1M24 50h1M24 52h1M56 64h1M56 65h1M55 71h1M3 73h1M3 75h1M8 75h1M5 77h1M27 78h2M30 78h1M1 79h1M3 79h1M6 79h1M4 80h1M53 85h1M4 87h1M16 88h1M8 89h1M6 92h1M8 94h1M8 96h1M4 98h1M8 98h1M19 99h1M30 99h1M33 99h1M38 99h1M41 99h2M4 100h1M43 102h1M30 106h1M35 107h1M37 107h2M30 108h1M40 108h1M32 109h1M40 109h2M42 110h1M36 111h1M43 111h1M30 112h1M33 112h1M38 112h1M37 113h3M39 114h2" />
<path stroke="#342e16" d="M4 26h1M16 118h1" />
<path stroke="#221d0f" d="M21 26h1M25 31h1M18 59h1M32 74h1" />
<path stroke="#545030" d="M42 26h2M44 27h1M45 29h1M48 32h1M51 41h1M14 43h1M53 43h1M21 44h1M28 44h1M28 46h1M53 47h2M12 48h1M54 48h1M54 49h1M54 50h1M55 52h1M55 53h1M55 57h1M56 62h1M55 63h1M55 69h1M23 73h1M5 74h1M55 74h1M13 75h2M24 75h1M14 76h1M6 77h1M29 77h1M29 78h1M16 82h1M59 84h1M54 85h1M2 86h1M5 86h1M21 86h2M1 87h1M18 87h1M18 88h1M0 89h1M16 89h1M11 90h1M25 93h1M24 96h1M17 97h1M13 98h1M19 98h1M43 98h1M31 99h2M31 101h1M31 102h1M32 103h1M31 104h4M34 105h1M36 105h2M39 105h1M33 106h1M34 107h1M31 108h1M36 108h2M31 109h1M35 109h1M38 109h1M38 110h1M32 111h1M38 111h1M41 111h1M32 112h1M39 112h3" />
<path stroke="#565231" d="M43 27h1M44 28h2M48 34h1M52 41h1M20 44h1M52 44h1M12 49h1M55 50h1M56 56h1M56 61h1M55 70h1M23 74h1M15 85h1M1 86h1M6 86h1M19 87h2M4 88h1M17 88h1M52 88h1M24 93h1M24 94h1M38 100h1M33 103h3M37 104h1M36 109h1M34 110h1" />
<path stroke="#2c3228" d="M46 27h1M60 88h1M56 90h1M58 91h1M64 101h1" />
<path stroke="#393319" d="M5 28h1M2 30h1" />
<path stroke="#1f190d" d="M20 28h1M20 29h2M18 30h2M17 31h1M19 31h1M17 32h2M21 32h1M20 33h1M19 34h3M17 36h3M20 39h1M20 40h1M26 40h1M18 41h1M21 41h2M25 41h1M29 41h1M22 42h1M30 42h1M17 45h2M17 46h1M25 46h2M17 47h1M20 47h1M26 47h2M17 48h1M21 48h1M25 48h5M20 49h3M25 49h1M27 49h1M29 49h2M16 50h1M22 50h1M26 50h2M29 50h2M14 51h1M16 51h2M25 51h3M29 51h2M16 52h2M29 52h1M19 53h3M26 53h2M29 53h1M32 53h1M17 55h1M19 55h3M27 55h1M29 55h2M32 55h1M16 56h2M19 56h3M17 57h1M19 57h1M15 58h3M19 58h2M22 58h1M15 59h2M20 59h1M21 60h1M13 63h2M17 63h1M13 64h2M16 64h2M13 65h1" />
<path stroke="#1e190d" d="M21 28h1M20 30h1M18 31h1M20 31h2M20 32h1M16 33h2M21 33h2M17 34h1M17 37h5M16 38h6M17 39h3M22 39h1M29 39h1M17 40h1M19 40h1M29 40h1M16 41h2M19 41h2M26 41h1M20 42h2M25 42h2M29 42h1M29 43h2M16 46h1M18 46h1M15 47h2M18 47h1M28 47h1M15 48h1M18 48h1M15 49h3M26 49h1M15 50h1M17 50h3M21 50h1M15 51h1M18 51h2M14 52h1M18 52h2M30 52h1M17 53h2M30 53h2M18 54h2M18 55h1M26 55h1M31 55h1M18 56h1M15 57h2M21 58h1M21 59h1M15 63h1M15 64h1M14 65h3M18 74h1M32 76h1" />
<path stroke="#504a2c" d="M24 28h1M47 33h1M52 42h1M20 43h1M24 53h1M10 56h1M6 74h1M1 78h1M0 79h1M8 87h1M22 89h1M2 92h1M4 92h1M7 92h1M8 93h1M25 94h1M34 99h1M30 103h1M39 106h1M42 108h2M28 110h1M31 113h1M44 113h1M51 113h1M42 114h1M35 115h1M39 115h1M41 115h1M42 116h1" />
<path stroke="#353017" d="M1 29h1M15 118h1M17 119h1M19 119h1" />
<path stroke="#474222" d="M7 29h1M1 39h1M62 116h1M23 119h5M44 119h1M63 119h1M25 120h1M30 120h3M37 120h1M42 120h1M46 120h1M63 120h1M27 121h1M31 121h1M34 121h10M46 121h1M55 121h1M29 122h1M31 122h1M34 122h10M46 122h2M55 122h1M40 123h4M46 123h2M56 123h1M58 123h1M46 124h2M49 124h1M52 124h3M56 124h1M50 125h1M52 125h1M58 125h2M61 125h1M58 126h2M62 127h1" />
<path stroke="#262011" d="M17 29h1M15 32h1M28 34h1M15 35h1M25 37h1M27 39h1M27 41h1M27 42h1M28 43h1M16 45h1M25 53h1M18 61h1M18 64h1M18 71h1M21 71h1M18 72h1M20 74h1M20 76h1M44 86h1M44 87h1M43 88h1M44 89h1M42 91h2" />
<path stroke="#241e10" d="M27 29h1M28 31h1M20 35h1M28 38h1M28 39h1M16 44h1M26 52h2M31 52h1M16 53h1M17 59h1M19 59h1M16 60h2M19 60h2M26 74h1M19 75h1M21 75h1M26 75h1M29 75h1M31 75h1M21 76h1M28 76h1" />
<path stroke="#292213" d="M40 29h1M39 31h1M39 32h1M44 33h1M25 36h1M27 37h1M32 40h1M44 40h1M44 41h1M47 41h1M18 42h1M15 44h1M13 61h1M19 61h1M19 72h1M21 72h1M39 82h1M24 83h1M46 83h1M48 83h1M24 85h1M45 88h2M45 89h1M42 92h1" />
<path stroke="#4d482a" d="M44 29h1M15 31h1M23 44h1M26 45h1M23 57h1M2 76h1M3 92h1M8 100h1M30 101h1M41 101h1M29 105h1M53 112h1" />
<path stroke="#544f2f" d="M46 29h1M55 67h1M5 73h1M28 77h1M7 90h1M40 101h1M32 105h1M38 108h1M30 109h1M33 111h2M37 111h1M40 111h1M42 113h1" />
<path stroke="#2a3026" d="M47 29h1M51 36h1M53 40h1M60 87h1M56 91h1M59 91h1M63 100h2M63 101h1" />
<path stroke="#352f16" d="M1 30h1M1 31h1M1 33h1M1 36h1M0 111h1M1 112h2M2 113h2M4 114h1M10 117h1M12 118h3M17 118h1" />
<path stroke="#251f10" d="M16 30h1M15 34h1M19 35h1M21 35h1M27 40h2M28 41h1M28 42h1M25 54h1M13 62h1M18 62h2M50 65h1M21 73h1M21 74h1M26 76h1M41 91h1" />
<path stroke="#201b0f" d="M27 30h1M28 51h1M18 58h1M18 75h1M32 75h1" />
<path stroke="#100c07" d="M28 30h1M28 35h1M29 37h1M19 66h1M14 70h2M19 70h1M21 70h1M16 71h1M19 71h1M15 72h1" />
<path stroke="#4e492a" d="M44 30h1M45 31h1M13 38h1M11 42h1M26 44h1M10 53h1M4 74h1M12 76h1M23 76h1M18 79h2M4 81h1M54 84h1M50 89h1M26 94h1M42 98h1M35 99h1M28 107h1M44 107h1M47 110h1M53 111h1M36 112h1M49 112h1M54 112h1M33 113h1M48 113h1M52 113h3M44 115h2M38 116h1M38 117h1" />
<path stroke="#2e2a14" d="M2 31h1" />
<path stroke="#575331" d="M47 31h1M31 36h1M51 39h1M13 40h1M12 50h1M55 54h1M56 57h1M55 59h1M55 62h1M55 73h1M9 74h3M14 74h2M23 75h1M16 78h1M22 78h1M55 78h1M0 86h1M16 86h1M18 86h1M24 86h1M21 87h1M54 87h1M3 88h1M21 88h1M9 89h1M27 94h1M32 100h1M35 100h1M34 101h1M33 102h2M38 104h2M35 110h3" />
<path stroke="#19150b" d="M19 32h1M18 33h2M18 34h1M22 34h1M16 39h1M21 39h1M16 40h1M21 40h2M30 40h1M30 41h1M31 42h1M31 43h2M20 46h2M46 46h1M50 46h1M21 47h2M16 48h1M20 48h1M22 48h1M50 48h2M46 49h1M20 50h1M31 50h1M46 50h1M20 51h3M31 51h3M15 52h1M20 52h3M14 53h2M13 54h2M16 54h2M15 55h2M14 56h2M13 57h2M20 57h2M13 58h2M13 59h2M14 60h2M48 65h2M46 66h2M49 67h1M46 68h1M19 69h1M51 69h1" />
<path stroke="#201a0e" d="M28 32h1M28 33h1M14 35h1M28 49h1M28 50h1M29 76h1M31 76h1" />
<path stroke="#272212" d="M41 32h1M43 32h1M16 35h2M22 35h1M29 35h1M26 37h1M47 38h1M45 41h2M48 41h1M43 42h1M44 44h1M33 56h1M20 62h1M18 66h1M20 68h1M18 69h1M42 69h1M18 70h1M20 73h1M23 82h1M23 83h1M24 84h2M47 84h1M43 85h1M45 87h1M40 89h1M39 91h1M38 92h1M40 92h1" />
<path stroke="#595433" d="M48 33h1M13 41h1M27 46h1M31 47h1M53 48h1M55 58h2M9 73h1M5 75h1M7 83h1M19 86h1M23 86h1M27 95h1M37 100h1M32 101h1M35 102h1M43 105h1" />
<path stroke="#5c5836" d="M49 34h1M49 35h1M49 36h1M50 39h1M12 55h1M56 60h1M8 73h1M22 73h1M12 74h1M22 74h1M16 76h1M25 76h1M19 77h1M27 77h1M26 87h1M22 88h1M25 92h1M14 94h1M5 97h1M14 98h1M36 101h1M39 101h1" />
<path stroke="#272111" d="M18 35h1M29 36h1M28 37h1M27 38h1M27 43h1M17 44h2M18 63h1M18 65h1M18 67h1M18 68h1M20 69h1M20 70h1M20 71h1M20 72h1M18 73h2M19 74h1M20 75h1M27 75h2M18 76h2M27 76h1M23 84h1M44 85h1M43 86h1M43 87h1M44 88h1M43 89h1M43 90h2M44 91h1M39 92h1M41 92h1" />
<path stroke="#484423" d="M0 36h1M0 38h1M1 43h1M61 118h1M60 119h3M50 120h1M60 120h3M51 121h4" />
<path stroke="#5e5b38" d="M50 36h1M50 37h1M12 52h1M12 53h1M12 54h1M12 57h1M12 58h1M12 59h1M12 61h1M12 62h1M12 68h1M11 73h1M13 73h1M25 75h1M18 77h1M20 77h1M8 90h1M4 97h1" />
<path stroke="#4b4625" d="M0 37h1M1 46h1M0 47h1M0 48h1M57 114h1M59 114h1M53 115h1M55 115h1M58 115h2M52 116h1M56 116h1M58 116h3M53 117h7M50 118h4M55 118h3M59 118h2M36 119h5M42 119h1M47 119h1M54 119h1M57 119h1M35 120h1M51 120h1M56 120h4" />
<path stroke="#464121" d="M1 37h1M1 38h1M1 40h1M63 116h1M63 117h2M64 118h1M22 119h1M64 119h1M45 120h1M47 120h3M64 120h1M47 121h4M56 121h4M64 121h1M30 122h1M48 122h7M56 122h4M38 123h1M48 123h8M57 123h1M59 123h2M48 124h1M50 124h2M57 124h7M48 125h1M51 125h1M60 125h1M62 125h3M60 126h5M61 127h1" />
<path stroke="#5a5634" d="M49 37h1M20 78h1M2 88h1M38 102h1" />
<path stroke="#5d5a37" d="M50 38h1M32 48h1M12 56h1M12 60h1M14 71h1M10 73h1M16 75h1M24 77h1M19 78h1M3 86h1M14 92h1M13 93h1M12 98h1M14 99h1" />
<path stroke="#272c23" d="M52 38h1" />
<path stroke="#4c4725" d="M0 39h1M57 113h1M52 115h1M54 115h1M56 115h1M51 116h1M52 117h1M54 118h1M51 119h3M55 119h1M58 119h1M53 120h2" />
<path stroke="#1c180c" d="M15 39h1M18 40h1M15 41h1M19 42h1M19 46h1M19 47h1M25 47h1M18 49h2M20 54h1M18 57h1M16 63h1M33 74h1M33 75h1" />
<path stroke="#4d4927" d="M0 40h1M53 114h1M58 114h1M57 115h1M49 116h1M53 116h1M57 116h1M48 117h2M44 118h1M47 118h2M48 119h1M56 119h1" />
<path stroke="#18140b" d="M15 40h1M31 41h1M19 48h1M28 52h1M28 53h1M28 54h1M28 55h1M45 67h1M48 68h1" />
<path stroke="#585432" d="M51 40h1M55 60h1M55 61h1M9 70h1M15 73h1M6 75h1M15 86h1M20 86h1M6 87h1M23 87h2M32 102h1M36 103h2M40 103h1" />
<path stroke="#56532e" d="M0 41h1" />
<path stroke="#474323" d="M1 41h1M1 42h1M1 44h1M1 45h1M61 116h1M62 117h1M62 118h2M28 119h3M41 119h1M43 119h1M45 119h1M26 120h4M33 120h2M38 120h4M43 120h2M28 121h3M32 121h2M44 121h2M33 122h1M44 122h2M44 123h2M44 124h2M55 124h1M53 125h5M53 126h5" />
<path stroke="#2c3128" d="M53 41h1" />
<path stroke="#5f5e34" d="M0 42h1" />
<path stroke="#595533" d="M13 42h1M13 43h1M31 44h1M12 51h1M56 59h1M14 73h1M11 75h2M6 76h1M16 77h1M22 77h2M25 77h1M17 78h1M21 78h1M16 85h1M4 86h1M17 86h1M0 88h1M51 88h1M53 88h1M17 89h1M26 92h1M12 95h1M14 95h1M3 96h1M16 98h1M33 100h2M36 100h1M33 101h1M38 101h1M37 102h1M40 102h2M38 103h2M41 103h2M40 104h3" />
<path stroke="#312111" d="M45 42h1M47 42h1M53 49h1" />
<path stroke="#352513" d="M46 42h1" />
<path stroke="#3e2d18" d="M48 42h1" />
<path stroke="#352514" d="M49 42h1" />
<path stroke="#2e2010" d="M50 42h1" />
<path stroke="#646339" d="M0 43h1" />
<path stroke="#2a1d0f" d="M45 43h1M45 45h1M45 46h1M47 47h2" />
<path stroke="#1b150b" d="M46 43h2M46 45h1M46 69h1" />
<path stroke="#18140a" d="M48 43h1M47 49h1M52 50h1" />
<path stroke="#141008" d="M49 43h1M46 48h2M48 50h3" />
<path stroke="#161109" d="M50 43h1M50 44h1M48 48h1M48 49h1M43 50h1M47 50h1M44 66h1" />
<path stroke="#1c180b" d="M51 43h1" />
<path stroke="#67663b" d="M0 44h1" />
<path stroke="#5f5c39" d="M13 44h1M12 64h1M12 65h1M12 67h1M8 72h2M13 74h1M6 85h2M17 96h1" />
<path stroke="#2c1f10" d="M45 44h1" />
<path stroke="#1b170b" d="M46 44h1" />
<path stroke="#201b0d" d="M47 44h1M45 49h1M50 66h1" />
<path stroke="#1b160b" d="M48 44h1M47 45h1M51 45h1M47 46h1M44 49h1M44 50h1M33 76h1" />
<path stroke="#16110a" d="M49 44h1M49 46h1" />
<path stroke="#1c170b" d="M51 44h1M48 45h1M51 46h2" />
<path stroke="#5f5d34" d="M0 45h1" />
<path stroke="#605d39" d="M13 45h1" />
<path stroke="#19140b" d="M49 45h1M51 49h1M45 50h1M49 68h1M47 69h1" />
<path stroke="#18120a" d="M50 45h1M49 48h1M49 49h2M47 67h1" />
<path stroke="#4f4b28" d="M0 46h1M45 118h1" />
<path stroke="#1f190c" d="M48 46h1" />
<path stroke="#494524" d="M1 47h1M1 48h1M61 115h1M60 117h2M46 119h1M59 119h1M36 120h1M52 120h1" />
<path stroke="#1e140b" d="M44 47h1M44 48h1M45 51h1M47 51h1M52 57h1M41 63h1M52 67h1" />
<path stroke="#332513" d="M45 47h2" />
<path stroke="#24170c" d="M49 47h1" />
<path stroke="#25180c" d="M50 47h2M46 53h1M53 55h1M47 56h1M53 58h1M52 62h1M54 63h1M53 64h2M53 65h1M54 67h1M54 68h1" />
<path stroke="#271b0d" d="M52 47h1" />
<path stroke="#605e3a" d="M31 48h1M10 70h1M9 71h1M10 72h4M16 74h1M17 75h1M22 75h1M21 77h1M4 84h1M7 84h1M0 85h1M28 87h1M10 90h1M15 94h1M16 96h1" />
<path stroke="#241d0e" d="M45 48h1" />
<path stroke="#1f180c" d="M52 48h1M52 49h1" />
<path stroke="#585922" d="M0 49h1M0 52h1" />
<path stroke="#574e25" d="M1 49h1M1 50h1M0 53h1M2 57h1M2 58h1M1 60h1" />
<path stroke="#504721" d="M2 49h1M2 50h1M2 51h1M2 52h1M1 53h1M1 57h1M1 58h1" />
<path stroke="#4d4320" d="M3 49h1M3 65h1M1 67h1M7 69h1" />
<path stroke="#5e5c39" d="M33 49h1M12 63h1M12 66h1M18 78h1M15 95h1" />
<path stroke="#2b1e0f" d="M43 49h1" />
<path stroke="#5b5c23" d="M0 50h1" />
<path stroke="#504522" d="M3 50h1M3 59h1" />
<path stroke="#584e27" d="M4 50h1M4 53h1M4 54h1M5 58h1M5 59h1M4 60h1M4 68h2M0 71h1" />
<path stroke="#5b512a" d="M5 50h1M5 54h1M2 61h1M4 65h1M4 71h1" />
<path stroke="#423719" d="M6 50h1" />
<path stroke="#4a3f1e" d="M7 50h1" />
<path stroke="#1c120a" d="M42 50h1M41 51h1M43 57h1" />
<path stroke="#131007" d="M51 50h1" />
<path stroke="#291b0d" d="M53 50h1M54 59h1" />
<path stroke="#565820" d="M0 51h1" />
<path stroke="#554b23" d="M1 51h1M2 54h1M1 55h1" />
<path stroke="#504621" d="M3 51h1M1 52h1M3 52h1" />
<path stroke="#554a24" d="M4 51h1M4 56h1M3 58h2M4 59h1M3 60h1M3 61h1M3 66h1M0 73h2" />
<path stroke="#5c522b" d="M5 51h1M4 62h1M5 65h1M5 69h1" />
<path stroke="#493e1e" d="M6 51h1" />
<path stroke="#191109" d="M42 51h3M47 57h1M49 57h1M51 57h1" />
<path stroke="#1e150b" d="M46 51h1M42 64h1" />
<path stroke="#1c140a" d="M48 51h1" />
<path stroke="#20160b" d="M49 51h1M41 52h1M41 54h1M53 54h1M41 55h1M53 57h1M41 58h1M41 59h1M41 60h1M41 61h1M41 62h1M52 65h1M52 66h1" />
<path stroke="#22170c" d="M50 51h2M53 52h1M54 55h1M41 56h1M53 56h2M41 57h2M54 57h1M44 63h1M52 63h1M52 68h1" />
<path stroke="#25190d" d="M52 51h1M41 53h1M54 58h1M53 61h1M49 63h1M53 63h1M54 65h1M53 66h1M53 67h1M53 68h1" />
<path stroke="#271a0d" d="M53 51h1M53 59h1M53 60h2M54 61h1" />
<path stroke="#574d26" d="M4 52h1M4 57h1M1 66h1" />
<path stroke="#5e542c" d="M5 52h1M5 53h1M5 63h1M1 72h1M4 72h1" />
<path stroke="#453a1b" d="M6 52h1M3 63h1M6 65h1" />
<path stroke="#2a200f" d="M42 52h1" />
<path stroke="#36392d" d="M43 52h1" />
<path stroke="#3f2313" d="M44 52h1" />
<path stroke="#2a3519" d="M45 52h1" />
<path stroke="#3b2914" d="M46 52h1" />
<path stroke="#2b1e0e" d="M47 52h1M46 55h1" />
<path stroke="#2a2620" d="M50 52h1" />
<path stroke="#341d0f" d="M51 52h1M52 76h1" />
<path stroke="#221f18" d="M52 52h1M50 55h1M52 55h1" />
<path stroke="#4c431e" d="M2 53h1" />
<path stroke="#524922" d="M3 53h1M3 54h1" />
<path stroke="#473c1d" d="M6 53h1" />
<path stroke="#43371b" d="M42 53h1" />
<path stroke="#29291f" d="M43 53h1" />
<path stroke="#2c170c" d="M44 53h1M42 59h1M43 61h1M50 73h1" />
<path stroke="#1e2311" d="M45 53h1" />
<path stroke="#20150b" d="M47 53h1" />
<path stroke="#201e17" d="M50 53h1M50 54h1M52 54h1M50 56h1" />
<path stroke="#26140b" d="M51 53h1M44 56h1M50 72h2M50 74h1" />
<path stroke="#1f1d16" d="M52 53h1" />
<path stroke="#24180c" d="M53 53h1M52 64h1M54 66h1M53 69h2" />
<path stroke="#5d542a" d="M0 54h1" />
<path stroke="#564d25" d="M1 54h1M3 57h1M2 59h1" />
<path stroke="#463a1b" d="M6 54h1M6 66h1M6 67h1" />
<path stroke="#4d3f20" d="M42 54h1" />
<path stroke="#292a20" d="M43 54h1" />
<path stroke="#32190d" d="M44 54h1M43 59h1M43 60h1M42 61h1M52 77h1M51 78h1" />
<path stroke="#1e2411" d="M45 54h1" />
<path stroke="#24180b" d="M46 54h1" />
<path stroke="#26190c" d="M47 54h1M51 64h1" />
<path stroke="#251f09" d="M49 54h1M49 55h1" />
<path stroke="#29150b" d="M51 54h1M52 72h1M50 75h2M51 76h1M50 79h1" />
<path stroke="#2e1f10" d="M54 54h1" />
<path stroke="#343b2f" d="M56 54h1M51 108h1M62 109h1" />
<path stroke="#584f26" d="M0 55h1M2 56h1M1 61h1" />
<path stroke="#514821" d="M2 55h1" />
<path stroke="#544a22" d="M3 55h1M1 56h1M1 59h1" />
<path stroke="#564c26" d="M4 55h1M5 60h1M4 61h1M4 63h1M4 64h1M2 65h1M4 66h1M0 67h1M1 71h1" />
<path stroke="#5b5029" d="M5 55h1M5 57h1" />
<path stroke="#473a1d" d="M42 55h1" />
<path stroke="#2b2d21" d="M43 55h1" />
<path stroke="#31190d" d="M44 55h1M43 58h1M43 62h1M52 73h1" />
<path stroke="#202813" d="M45 55h1" />
<path stroke="#2b1e0d" d="M47 55h1" />
<path stroke="#2c250b" d="M48 55h1M42 74h1" />
<path stroke="#2b170c" d="M51 55h1M42 58h1M51 73h1M52 79h1" />
<path stroke="#4d451f" d="M0 56h1M0 63h1" />
<path stroke="#564c24" d="M3 56h1" />
<path stroke="#5a4f29" d="M5 56h1M5 61h1M2 64h1M1 65h1M4 67h1M0 74h1" />
<path stroke="#231706" d="M27 56h1M29 56h1" />
<path stroke="#120b03" d="M28 56h1" />
<path stroke="#3f2d0e" d="M30 56h1M25 57h1M32 57h1M38 64h1M38 65h1M37 67h2M37 69h1" />
<path stroke="#3d2c0d" d="M31 56h1M21 62h2M38 63h1M21 64h1M21 65h1M21 66h1" />
<path stroke="#392e15" d="M42 56h1" />
<path stroke="#202218" d="M43 56h1" />
<path stroke="#181d0d" d="M45 56h1" />
<path stroke="#24170b" d="M46 56h1" />
<path stroke="#292109" d="M48 56h1" />
<path stroke="#221b08" d="M49 56h1" />
<path stroke="#2a160c" d="M51 56h1M51 79h1" />
<path stroke="#221f19" d="M52 56h1" />
<path stroke="#49401c" d="M0 57h1M0 59h1" />
<path stroke="#2b1c08" d="M26 57h2M25 58h1M22 59h1M22 60h1M33 72h1" />
<path stroke="#202109" d="M28 57h1M28 58h1M28 62h1M26 68h1" />
<path stroke="#2a290c" d="M29 57h1M26 58h2M29 58h2M27 59h1M29 59h2M25 60h1M30 60h1M25 61h3M26 63h1M30 63h1M25 64h1M30 64h1" />
<path stroke="#232309" d="M30 57h2M31 58h1M31 59h2M32 60h1M29 61h2M30 62h1M26 66h1M25 67h2M25 68h1M25 69h2" />
<path stroke="#35240b" d="M33 57h1M20 64h1M27 73h2M32 73h1" />
<path stroke="#191108" d="M44 57h3M48 57h1" />
<path stroke="#191610" d="M50 57h1" />
<path stroke="#463e1b" d="M0 58h1M0 61h1" />
<path stroke="#604e1d" d="M23 58h1" />
<path stroke="#63501f" d="M24 58h1" />
<path stroke="#3e3e13" d="M32 58h1M29 60h1M32 61h1M29 66h1" />
<path stroke="#33330f" d="M33 58h1M33 60h1M31 65h1" />
<path stroke="#594619" d="M34 58h1" />
<path stroke="#4d3a14" d="M35 58h1M35 59h1" />
<path stroke="#262f1c" d="M44 58h1" />
<path stroke="#1f2415" d="M45 58h1" />
<path stroke="#2a2e0f" d="M46 58h1M45 73h1" />
<path stroke="#24250c" d="M47 58h1M46 79h1" />
<path stroke="#3e360f" d="M48 58h1" />
<path stroke="#31280b" d="M49 58h1M43 78h1" />
<path stroke="#25170f" d="M50 58h1" />
<path stroke="#472918" d="M51 58h1" />
<path stroke="#291a12" d="M52 58h1M50 62h1M38 72h1" />
<path stroke="#614e1d" d="M23 59h1M23 60h1" />
<path stroke="#655320" d="M24 59h1" />
<path stroke="#28290c" d="M25 59h2M26 60h2M31 60h1M27 62h1M29 62h1M25 63h1M27 63h1M29 63h1M26 64h1M29 64h1M29 65h2" />
<path stroke="#2e2e0d" d="M28 59h1M28 72h1" />
<path stroke="#35340f" d="M33 59h1M31 62h1M31 63h1M31 64h1M28 66h1M31 66h1M32 67h1M27 68h1M29 71h1M29 72h1" />
<path stroke="#54551e" d="M34 59h1M35 69h1" />
<path stroke="#493512" d="M36 59h1" />
<path stroke="#242a19" d="M44 59h1" />
<path stroke="#1b1f11" d="M45 59h1M48 76h1M48 77h1M49 78h1" />
<path stroke="#2f3110" d="M46 59h1M45 77h1M45 78h1" />
<path stroke="#22240c" d="M47 59h1" />
<path stroke="#3b340e" d="M48 59h1" />
<path stroke="#332c0c" d="M49 59h1M49 61h1M42 77h1M42 79h1" />
<path stroke="#2c1d13" d="M50 59h1" />
<path stroke="#321d10" d="M51 59h1" />
<path stroke="#312015" d="M52 59h1" />
<path stroke="#463c1a" d="M0 60h1" />
<path stroke="#5a5028" d="M2 60h1" />
<path stroke="#65672a" d="M24 60h1M24 65h1M24 66h1" />
<path stroke="#2c2c0d" d="M28 60h1M33 64h1M32 70h1" />
<path stroke="#53541e" d="M34 60h1M34 64h1" />
<path stroke="#4f4f1c" d="M35 60h1M34 61h1M34 62h1M35 63h1M35 65h1" />
<path stroke="#4a3612" d="M36 60h1" />
<path stroke="#321a0d" d="M42 60h1M52 78h1" />
<path stroke="#1f2615" d="M44 60h1" />
<path stroke="#1b2012" d="M45 60h1M45 61h1M49 72h1M48 73h1M48 75h2M48 78h1M48 79h1" />
<path stroke="#2b2f0f" d="M46 60h1M46 78h1" />
<path stroke="#26270c" d="M47 60h1" />
<path stroke="#362f0c" d="M48 60h2M48 62h1M42 72h1M42 75h1M42 76h1" />
<path stroke="#2e1e13" d="M50 60h1" />
<path stroke="#2f1a0f" d="M51 60h1M39 75h2" />
<path stroke="#322116" d="M52 60h1M38 73h1" />
<path stroke="#39321c" d="M6 61h1M37 84h1M24 90h1M36 91h1M1 94h1M21 94h1M31 96h1M17 108h1M22 110h1M9 113h2M12 113h1M10 114h1M16 115h1M24 115h1" />
<path stroke="#291c08" d="M21 61h2" />
<path stroke="#606126" d="M23 61h1M24 69h1" />
<path stroke="#66682b" d="M24 61h1M24 64h1" />
<path stroke="#2c2b0c" d="M28 61h1M33 68h1M33 69h1M27 71h1M32 71h1" />
<path stroke="#3d3d12" d="M31 61h1M25 62h1M25 65h1" />
<path stroke="#32310e" d="M33 61h1M33 62h1M27 69h1M27 70h1M28 71h1" />
<path stroke="#4b4b1a" d="M35 61h1M36 62h1M35 66h1M34 68h1" />
<path stroke="#4a4919" d="M36 61h1M36 63h1M36 64h1M34 69h1" />
<path stroke="#3c2b0d" d="M37 61h1M21 67h1M21 68h1M21 69h1" />
<path stroke="#202717" d="M44 61h1" />
<path stroke="#27280c" d="M46 61h1M47 62h1M47 79h1" />
<path stroke="#292c0e" d="M47 61h1" />
<path stroke="#352e0c" d="M48 61h1" />
<path stroke="#2f1f15" d="M50 61h1" />
<path stroke="#3d2314" d="M51 61h1" />
<path stroke="#3d281c" d="M52 61h1" />
<path stroke="#4c441e" d="M0 62h1" />
<path stroke="#5b5228" d="M1 62h1" />
<path stroke="#594f28" d="M2 62h1M4 70h1" />
<path stroke="#504422" d="M3 62h1M7 70h1" />
<path stroke="#5e552d" d="M5 62h1M5 64h1M0 66h1M5 66h1" />
<path stroke="#646629" d="M23 62h1M24 68h1" />
<path stroke="#696b2d" d="M24 62h1" />
<path stroke="#26280b" d="M26 62h1M33 70h1M33 71h1" />
<path stroke="#383710" d="M32 62h1M27 64h1M32 64h1M28 67h1" />
<path stroke="#4f4e1c" d="M35 62h1" />
<path stroke="#422f0e" d="M37 62h1M37 68h1M36 70h1" />
<path stroke="#2e180d" d="M42 62h1M50 78h1" />
<path stroke="#222817" d="M44 62h1" />
<path stroke="#1c2214" d="M45 62h1M48 72h1M49 74h1" />
<path stroke="#2a2c0e" d="M46 62h1M45 72h1" />
<path stroke="#322a0b" d="M49 62h1M43 73h1" />
<path stroke="#351e11" d="M51 62h1M39 73h1" />
<path stroke="#261a0d" d="M53 62h2M48 64h1" />
<path stroke="#524824" d="M1 63h1M3 68h1" />
<path stroke="#61572e" d="M2 63h1M3 69h1M5 70h1M2 72h1" />
<path stroke="#35260b" d="M20 63h1M20 65h1M20 66h1M20 67h1M29 73h1M29 74h1" />
<path stroke="#160e04" d="M21 63h1" />
<path stroke="#6f7232" d="M22 63h1" />
<path stroke="#686a2c" d="M23 63h1M23 66h1M23 67h1M23 68h1" />
<path stroke="#6a6b2d" d="M24 63h1" />
<path stroke="#414013" d="M28 63h1M37 63h1M28 64h1M28 65h1" />
<path stroke="#3a3811" d="M32 63h1M32 66h1" />
<path stroke="#2f2f0d" d="M33 63h1M33 65h1M33 66h1M33 67h1M31 71h1M31 72h1" />
<path stroke="#54561f" d="M34 63h1" />
<path stroke="#24190c" d="M42 63h1M43 64h1M48 70h1" />
<path stroke="#251a0d" d="M43 63h1M46 64h1M54 71h1M54 72h1M53 73h1" />
<path stroke="#2b2010" d="M45 63h1" />
<path stroke="#2f2110" d="M46 63h1" />
<path stroke="#2a1e10" d="M47 63h1" />
<path stroke="#261b0d" d="M48 63h1" />
<path stroke="#291d0e" d="M50 63h1" />
<path stroke="#2e2110" d="M51 63h1" />
<path stroke="#31372c" d="M57 63h1M64 104h1M63 106h1M53 108h1M55 108h1M57 109h1M64 116h1" />
<path stroke="#685f35" d="M0 64h1" />
<path stroke="#62582f" d="M1 64h1M0 70h1" />
<path stroke="#4b401f" d="M3 64h1M6 69h1M6 70h1M6 71h1" />
<path stroke="#110d07" d="M19 64h1M19 65h1M19 67h1M19 68h1M16 70h2M15 71h1M17 71h1M16 72h2" />
<path stroke="#67692c" d="M22 64h2M23 65h1" />
<path stroke="#4e4d1b" d="M35 64h1" />
<path stroke="#3b3b12" d="M37 64h1M26 65h1M25 66h1" />
<path stroke="#1c150b" d="M41 64h1" />
<path stroke="#1f150b" d="M44 64h1" />
<path stroke="#261b0e" d="M45 64h1" />
<path stroke="#2a1e0f" d="M47 64h1" />
<path stroke="#20170c" d="M49 64h1" />
<path stroke="#271b0e" d="M50 64h1M54 74h1" />
<path stroke="#3c4336" d="M57 64h1M56 71h1M63 97h1M52 107h1" />
<path stroke="#60572d" d="M0 65h1" />
<path stroke="#626328" d="M22 65h1" />
<path stroke="#363610" d="M27 65h1" />
<path stroke="#35360f" d="M32 65h1M27 67h1M28 70h1M26 71h1" />
<path stroke="#55571f" d="M34 65h1" />
<path stroke="#454416" d="M36 65h1" />
<path stroke="#3f3f13" d="M37 65h1M37 66h1" />
<path stroke="#22180c" d="M42 65h1M54 73h1" />
<path stroke="#14120a" d="M43 65h1" />
<path stroke="#141109" d="M44 65h1M48 66h1M49 69h1" />
<path stroke="#1c160c" d="M45 65h1M50 67h1" />
<path stroke="#1e180c" d="M46 65h2M51 65h1" />
<path stroke="#3f4739" d="M57 65h1M57 66h1M59 87h1" />
<path stroke="#5f562d" d="M2 66h1M3 72h1" />
<path stroke="#6c7030" d="M22 66h1" />
<path stroke="#161506" d="M27 66h1M25 70h2" />
<path stroke="#744318" d="M30 66h1" />
<path stroke="#51511d" d="M34 66h1" />
<path stroke="#424315" d="M36 66h1" />
<path stroke="#402e0e" d="M38 66h1" />
<path stroke="#161008" d="M43 66h1" />
<path stroke="#19160b" d="M45 66h1M49 66h1" />
<path stroke="#20190d" d="M51 66h1" />
<path stroke="#4c4220" d="M2 67h1M7 71h1" />
<path stroke="#5d532c" d="M3 67h1M5 67h1M3 71h1" />
<path stroke="#6b5924" d="M22 67h1" />
<path stroke="#5f6126" d="M24 67h1" />
<path stroke="#754419" d="M29 67h1" />
<path stroke="#c14f23" d="M30 67h1M29 68h1M29 69h1" />
<path stroke="#723f16" d="M31 67h1M28 68h1M31 68h2M28 69h1M32 69h1" />
<path stroke="#484718" d="M34 67h1" />
<path stroke="#50501d" d="M35 67h1" />
<path stroke="#434416" d="M36 67h1M36 68h1" />
<path stroke="#241d0f" d="M43 67h1" />
<path stroke="#241b0e" d="M44 67h1" />
<path stroke="#14110a" d="M46 67h1M50 69h1" />
<path stroke="#16120a" d="M48 67h1M52 69h1" />
<path stroke="#1c170c" d="M51 67h1M50 68h1M48 69h1" />
<path stroke="#3e4538" d="M57 67h1" />
<path stroke="#6a6136" d="M0 68h1" />
<path stroke="#696035" d="M1 68h1M1 69h1M3 70h1" />
<path stroke="#635a30" d="M2 68h1" />
<path stroke="#43391a" d="M6 68h1" />
<path stroke="#695822" d="M22 68h1M22 70h1" />
<path stroke="#fcf426" d="M30 68h1" />
<path stroke="#52531d" d="M35 68h1" />
<path stroke="#271e10" d="M44 68h1" />
<path stroke="#2c2313" d="M45 68h1" />
<path stroke="#130e08" d="M47 68h1" />
<path stroke="#1f1a0c" d="M51 68h1" />
<path stroke="#363d31" d="M57 68h1M58 89h1M46 107h1M61 109h1M64 113h1M63 114h1" />
<path stroke="#655c32" d="M0 69h1M5 72h1" />
<path stroke="#645b31" d="M2 69h1M2 71h1" />
<path stroke="#635930" d="M4 69h1M5 71h1M2 73h1" />
<path stroke="#65643e" d="M11 69h2M11 70h2M12 71h1M16 73h1M5 82h1M1 83h6M5 84h1M1 85h4M15 92h1M14 93h2M16 94h1M16 99h1" />
<path stroke="#68673f" d="M13 69h1M3 82h1M0 83h1M16 93h1M12 94h1M4 95h1" />
<path stroke="#6a5923" d="M22 69h1M23 71h1" />
<path stroke="#6b5a24" d="M23 69h1M23 70h1" />
<path stroke="#e78b1a" d="M30 69h1" />
<path stroke="#713e16" d="M31 69h1" />
<path stroke="#433110" d="M36 69h1" />
<path stroke="#2e2413" d="M45 69h1M53 72h1M53 74h1" />
<path stroke="#31382d" d="M57 69h1M60 89h1M64 105h1M64 106h1M59 107h1M61 107h1M63 107h2M54 108h1M56 108h4M61 108h4M64 109h1M63 115h1" />
<path stroke="#675f34" d="M1 70h1" />
<path stroke="#665d32" d="M2 70h1" />
<path stroke="#63613c" d="M13 70h1M17 76h1M1 84h1M3 84h1M6 84h1M27 87h1M9 90h1M16 95h1M15 96h1" />
<path stroke="#63511f" d="M24 70h1" />
<path stroke="#6f3913" d="M29 70h1" />
<path stroke="#da9d6d" d="M30 70h1" />
<path stroke="#703d15" d="M31 70h1" />
<path stroke="#494818" d="M34 70h1" />
<path stroke="#554116" d="M35 70h1" />
<path stroke="#241a0d" d="M39 70h1M46 80h1" />
<path stroke="#261e0f" d="M40 70h1" />
<path stroke="#261d0f" d="M41 70h1M44 70h1M49 70h3" />
<path stroke="#2b2112" d="M42 70h2M53 78h1M53 79h1M44 80h1M43 81h1" />
<path stroke="#2f2513" d="M45 70h2" />
<path stroke="#261a0e" d="M47 70h1M48 71h1M53 71h1" />
<path stroke="#251b0e" d="M52 70h2M49 80h1" />
<path stroke="#312514" d="M54 70h1M37 72h1M37 76h1M44 81h1" />
<path stroke="#62603b" d="M10 71h2M13 71h1M12 73h1M17 74h1M17 77h1" />
<path stroke="#6d5b25" d="M22 71h1" />
<path stroke="#5e4c1c" d="M24 71h1" />
<path stroke="#77672b" d="M25 71h1" />
<path stroke="#e9c3a0" d="M30 71h1" />
<path stroke="#4c3813" d="M34 71h1" />
<path stroke="#544016" d="M35 71h1M35 72h1" />
<path stroke="#453210" d="M36 71h1" />
<path stroke="#312212" d="M37 71h1" />
<path stroke="#312413" d="M38 71h1" />
<path stroke="#312313" d="M39 71h1" />
<path stroke="#352a17" d="M40 71h1M47 80h1" />
<path stroke="#342815" d="M41 71h1M47 71h1" />
<path stroke="#362a17" d="M42 71h1" />
<path stroke="#392c18" d="M43 71h4" />
<path stroke="#2b1f10" d="M49 71h1" />
<path stroke="#342514" d="M50 71h1" />
<path stroke="#332514" d="M51 71h1" />
<path stroke="#2c2010" d="M52 71h1" />
<path stroke="#4c4120" d="M0 72h1" />
<path stroke="#665521" d="M23 72h1" />
<path stroke="#584518" d="M24 72h1" />
<path stroke="#736229" d="M25 72h1" />
<path stroke="#32220a" d="M26 72h1M27 74h2" />
<path stroke="#2f2009" d="M27 72h1" />
<path stroke="#ffffff" d="M30 72h1M30 73h1M30 74h1M30 75h1M30 76h1M31 77h1M31 80h1" />
<path stroke="#38260c" d="M32 72h1" />
<path stroke="#503c14" d="M34 72h1" />
<path stroke="#311b0f" d="M39 72h1M39 74h2" />
<path stroke="#422617" d="M40 72h1" />
<path stroke="#2e1e14" d="M41 72h1M41 78h1" />
<path stroke="#352d0c" d="M43 72h1" />
<path stroke="#4f4714" d="M44 72h1M44 75h1" />
<path stroke="#3c4216" d="M46 72h1" />
<path stroke="#414918" d="M47 72h1" />
<path stroke="#414a3b" d="M56 72h1M64 97h1M56 107h1" />
<path stroke="#716028" d="M25 73h1" />
<path stroke="#34230b" d="M26 73h1" />
<path stroke="#31210a" d="M31 73h1M31 74h1" />
<path stroke="#251907" d="M33 73h1" />
<path stroke="#2c2212" d="M37 73h1M40 80h1M45 80h1M48 80h1M47 81h1" />
<path stroke="#3a2113" d="M40 73h1" />
<path stroke="#311f15" d="M41 73h1M41 74h1M38 75h1M41 75h1M41 76h1M41 77h1" />
<path stroke="#342d0c" d="M42 73h1M44 79h1" />
<path stroke="#575117" d="M44 73h1" />
<path stroke="#3a3e15" d="M46 73h1" />
<path stroke="#404718" d="M47 73h1M47 76h1" />
<path stroke="#1e2314" d="M49 73h1" />
<path stroke="#464e3f" d="M56 73h1" />
<path stroke="#5b5735" d="M25 74h1M16 81h1M18 85h1M17 95h1M17 98h1M37 101h1M36 102h1M39 102h1M44 105h1" />
<path stroke="#322515" d="M37 74h1" />
<path stroke="#362418" d="M38 74h1" />
<path stroke="#32290b" d="M43 74h1M43 75h1M42 78h1" />
<path stroke="#565017" d="M44 74h1" />
<path stroke="#2e3010" d="M45 74h1" />
<path stroke="#3b4015" d="M46 74h1M46 76h1" />
<path stroke="#404818" d="M47 74h1" />
<path stroke="#1b2113" d="M48 74h1" />
<path stroke="#24120a" d="M51 74h1" />
<path stroke="#341b0f" d="M52 74h1M52 75h1M51 77h1" />
<path stroke="#495242" d="M56 74h1" />
<path stroke="#322615" d="M37 75h1M48 81h1" />
<path stroke="#2f3310" d="M45 75h1" />
<path stroke="#3e4517" d="M46 75h2M47 78h1" />
<path stroke="#332715" d="M53 75h1" />
<path stroke="#291d0f" d="M54 75h1" />
<path stroke="#444d3d" d="M56 75h1" />
<path stroke="#5c5936" d="M22 76h1M7 87h1M25 87h1M5 95h1M35 101h1" />
<path stroke="#362318" d="M38 76h1" />
<path stroke="#382012" d="M39 76h1" />
<path stroke="#331e10" d="M40 76h1M40 77h1" />
<path stroke="#2b230a" d="M43 76h1" />
<path stroke="#453e11" d="M44 76h1" />
<path stroke="#2c300f" d="M45 76h1" />
<path stroke="#191e10" d="M49 76h1" />
<path stroke="#201109" d="M50 76h1" />
<path stroke="#2a2011" d="M53 76h1M43 80h1" />
<path stroke="#2a1f10" d="M54 76h1" />
<path stroke="#40341c" d="M55 76h1" />
<path stroke="#66653e" d="M32 77h1M2 82h1" />
<path stroke="#2e260b" d="M43 77h1" />
<path stroke="#3b330e" d="M44 77h1M44 78h1" />
<path stroke="#353812" d="M46 77h1" />
<path stroke="#3f4617" d="M47 77h1" />
<path stroke="#191e11" d="M49 77h1M49 79h1" />
<path stroke="#25120b" d="M50 77h1" />
<path stroke="#2e2313" d="M53 77h1M45 81h2" />
<path stroke="#2e2211" d="M54 77h1M54 79h1" />
<path stroke="#3b2f1a" d="M55 77h1" />
<path stroke="#2a170c" d="M40 78h1" />
<path stroke="#322413" d="M54 78h1" />
<path stroke="#321b0f" d="M40 79h1" />
<path stroke="#332217" d="M41 79h1" />
<path stroke="#2b240b" d="M43 79h1" />
<path stroke="#2a2d0e" d="M45 79h1" />
<path stroke="#292010" d="M41 80h1M42 81h1" />
<path stroke="#271f10" d="M42 80h1" />
<path stroke="#291f10" d="M50 80h1M49 81h1" />
<path stroke="#604f24" d="M51 80h3" />
<path stroke="#5c4a23" d="M54 80h1M57 81h5" />
<path stroke="#594821" d="M55 80h1M53 81h1M50 84h1M53 93h1" />
<path stroke="#473617" d="M56 80h1M49 85h1M48 94h1" />
<path stroke="#594721" d="M50 81h1M45 91h1" />
<path stroke="#574621" d="M51 81h1" />
<path stroke="#584721" d="M52 81h1M52 93h1M52 94h1" />
<path stroke="#5b4922" d="M54 81h3M62 81h2M57 82h7M60 83h4M61 84h1" />
<path stroke="#5c4b24" d="M64 81h1" />
<path stroke="#63623d" d="M1 82h1M2 84h1M13 94h1" />
<path stroke="#67663e" d="M4 82h1M0 84h1" />
<path stroke="#2e220e" d="M49 82h1" />
<path stroke="#55441f" d="M50 82h1M64 82h1" />
<path stroke="#473718" d="M51 82h1" />
<path stroke="#3a2c13" d="M49 83h1M46 90h1M51 95h1" />
<path stroke="#4c3c1b" d="M50 83h1M44 93h1M45 94h1M50 94h1" />
<path stroke="#4e3e1c" d="M51 83h1" />
<path stroke="#423d27" d="M64 83h1M61 88h1M56 93h1M58 95h1" />
<path stroke="#271b0c" d="M48 84h1" />
<path stroke="#54431f" d="M49 84h1" />
<path stroke="#48432b" d="M62 84h2M62 85h1M62 86h1M61 87h1M60 90h1" />
<path stroke="#3b3723" d="M64 84h1" />
<path stroke="#615f3a" d="M5 85h1M17 85h1M17 94h1" />
<path stroke="#332610" d="M48 85h1" />
<path stroke="#55431f" d="M50 85h1M47 90h1M43 94h1" />
<path stroke="#49442c" d="M63 85h1" />
<path stroke="#2e2c1c" d="M64 85h1" />
<path stroke="#3e2f15" d="M48 86h1M48 89h1M50 95h1" />
<path stroke="#4f3f1c" d="M49 86h1M49 87h1M48 90h1M47 92h1" />
<path stroke="#544f30" d="M53 86h1M53 87h1" />
<path stroke="#5e5a38" d="M54 86h1" />
<path stroke="#363c30" d="M60 86h1M62 114h1" />
<path stroke="#413d27" d="M63 86h1M55 93h1" />
<path stroke="#1a1810" d="M64 86h1M53 100h1M56 102h1" />
<path stroke="#4d3c1c" d="M47 87h1M46 91h1M46 92h1" />
<path stroke="#49391a" d="M48 87h1M45 93h2M49 94h1" />
<path stroke="#4a4427" d="M52 87h1" />
<path stroke="#403b26" d="M62 87h1" />
<path stroke="#383421" d="M63 87h1" />
<path stroke="#19170f" d="M64 87h1M64 88h1" />
<path stroke="#3d2e15" d="M47 88h1M45 92h1M46 96h1M47 97h1" />
<path stroke="#4b3a1a" d="M48 88h1M46 94h1" />
<path stroke="#53411e" d="M49 88h1M46 89h1" />
<path stroke="#333a2e" d="M59 88h1M48 107h1M52 108h1M63 109h1M64 114h1M64 115h1" />
<path stroke="#46422a" d="M62 88h1M54 93h1" />
<path stroke="#393622" d="M63 88h1M60 91h1" />
<path stroke="#423317" d="M47 89h1M43 95h1M45 95h1" />
<path stroke="#302d1d" d="M61 89h1" />
<path stroke="#34311f" d="M62 89h1M62 90h1M62 91h1M60 92h2M61 94h1" />
<path stroke="#363321" d="M63 89h1" />
<path stroke="#1b1911" d="M64 89h1" />
<path stroke="#4a4528" d="M51 90h1" />
<path stroke="#2f352a" d="M58 90h1" />
<path stroke="#32392d" d="M59 90h1M58 107h1M60 107h1M62 107h1M60 108h1M62 115h1" />
<path stroke="#444029" d="M61 90h1" />
<path stroke="#2a281a" d="M63 90h1M62 93h1M51 97h2M49 98h1M55 98h1M55 100h1M46 103h1M48 103h1M47 104h4M51 105h1M55 106h1M58 106h1" />
<path stroke="#17170f" d="M64 90h1M63 94h1M62 96h1M46 99h1M49 99h1M52 100h1" />
<path stroke="#53421e" d="M47 91h1M50 93h1" />
<path stroke="#443517" d="M48 91h1" />
<path stroke="#3b3824" d="M61 91h1" />
<path stroke="#1d1c12" d="M63 91h1" />
<path stroke="#191810" d="M64 91h1M45 101h1" />
<path stroke="#261a0c" d="M44 92h1" />
<path stroke="#564520" d="M48 92h1M51 93h1" />
<path stroke="#4e3d1c" d="M49 92h1" />
<path stroke="#483919" d="M50 92h1M44 94h1" />
<path stroke="#34301e" d="M57 92h1" />
<path stroke="#322f1e" d="M58 92h1M62 92h1" />
<path stroke="#282618" d="M59 92h1M53 95h1" />
<path stroke="#16150e" d="M63 92h1M47 99h2M46 100h6M47 101h1M49 101h1M51 101h2M57 102h2M60 102h1" />
<path stroke="#1a1910" d="M64 92h1" />
<path stroke="#4b3b1a" d="M47 93h1" />
<path stroke="#51401c" d="M48 93h1" />
<path stroke="#52411d" d="M49 93h1M51 94h1" />
<path stroke="#403c26" d="M57 93h1M56 94h1M58 94h1M57 95h1M59 95h1" />
<path stroke="#3e3a24" d="M58 93h1M59 94h1" />
<path stroke="#3c3924" d="M59 93h1" />
<path stroke="#3d3a24" d="M60 93h1" />
<path stroke="#312e1d" d="M61 93h1M55 95h1" />
<path stroke="#252418" d="M63 93h1M60 98h1M59 99h2M61 101h1M61 102h1M45 103h1M57 103h1M61 103h1M56 104h1M46 105h1M56 105h1" />
<path stroke="#4a3a1a" d="M47 94h1" />
<path stroke="#423e27" d="M53 94h1" />
<path stroke="#433f28" d="M54 94h1" />
<path stroke="#403c27" d="M55 94h1" />
<path stroke="#3f3b25" d="M57 94h1" />
<path stroke="#383521" d="M60 94h1" />
<path stroke="#2f2d1d" d="M62 94h1M60 95h1" />
<path stroke="#433417" d="M44 95h1" />
<path stroke="#3f3015" d="M46 95h1" />
<path stroke="#3c2e15" d="M47 95h1M47 96h1" />
<path stroke="#352711" d="M48 95h1" />
<path stroke="#392913" d="M49 95h1" />
<path stroke="#272418" d="M52 95h1" />
<path stroke="#252317" d="M54 95h1" />
<path stroke="#343220" d="M56 95h1" />
<path stroke="#2b291b" d="M61 95h1" />
<path stroke="#201f14" d="M62 95h1M62 103h1" />
<path stroke="#3f3116" d="M43 96h1" />
<path stroke="#3e3016" d="M44 96h1" />
<path stroke="#3f3217" d="M45 96h1" />
<path stroke="#3b2d14" d="M48 96h1M46 97h1" />
<path stroke="#3a2d13" d="M49 96h2" />
<path stroke="#242317" d="M51 96h1M60 105h1" />
<path stroke="#212015" d="M52 96h4M57 96h2M60 96h1M51 98h1M54 98h1M57 98h1M59 98h1M50 99h1M58 99h1M48 102h1M53 103h1M58 103h1M52 106h1M59 106h1" />
<path stroke="#211f15" d="M56 96h1M59 96h1M57 97h4" />
<path stroke="#262418" d="M61 96h1M50 97h1M56 97h1M61 97h1M61 99h1M61 100h1M46 102h1M49 103h2M53 104h2M57 105h1M57 106h1M61 106h1" />
<path stroke="#3b4335" d="M64 96h1M64 98h1M54 111h2M57 111h2M58 112h3" />
<path stroke="#392a13" d="M48 97h1" />
<path stroke="#352812" d="M49 97h1" />
<path stroke="#242318" d="M53 97h1M54 100h1M55 103h1M45 104h1M54 105h2" />
<path stroke="#282718" d="M54 97h2M56 98h1M61 98h1M62 99h1M47 103h1M52 104h1M59 104h1M61 104h1M48 105h1M53 105h1M61 105h1M62 106h1" />
<path stroke="#2d2b1c" d="M62 97h1" />
<path stroke="#1c1b12" d="M46 98h1M53 98h1M56 99h1M57 100h1M59 100h1M57 101h1M60 101h1M59 103h1" />
<path stroke="#292719" d="M47 98h2M50 102h1M51 104h1M58 105h1" />
<path stroke="#272618" d="M50 98h1M58 104h1M63 104h1M50 105h1M52 105h1" />
<path stroke="#1c1c13" d="M52 98h1M57 99h1M58 100h1M62 102h1" />
<path stroke="#232216" d="M58 98h1M62 100h1M58 101h2M47 102h1M63 102h1M52 103h1M54 103h1M56 103h1M63 103h1M55 104h1M56 106h1M60 106h1" />
<path stroke="#222016" d="M62 98h1M56 100h1M60 104h1" />
<path stroke="#353b30" d="M63 98h1M47 107h1M49 108h2M58 109h2M61 113h1M61 114h1" />
<path stroke="#2c2a1c" d="M51 99h1" />
<path stroke="#2b281a" d="M52 99h1M46 104h1" />
<path stroke="#232116" d="M53 99h1M45 102h1M51 103h1" />
<path stroke="#1d1c13" d="M54 99h1M60 100h1" />
<path stroke="#1e1d13" d="M55 99h1M49 105h1" />
<path stroke="#30362b" d="M63 99h1" />
<path stroke="#16160e" d="M45 100h1M48 101h1M53 101h1M60 103h1" />
<path stroke="#18170f" d="M46 101h1" />
<path stroke="#1a1a11" d="M50 101h1M53 106h1" />
<path stroke="#15140e" d="M54 101h1M56 101h1M51 102h1M53 102h3" />
<path stroke="#14140d" d="M55 101h1M52 102h1M59 102h1" />
<path stroke="#1f1e13" d="M62 101h1" />
<path stroke="#2e220f" d="M44 102h1M44 104h1" />
<path stroke="#1b1b11" d="M49 102h1M54 106h1" />
<path stroke="#443618" d="M43 103h1" />
<path stroke="#332511" d="M44 103h1" />
<path stroke="#48391b" d="M43 104h1" />
<path stroke="#272518" d="M57 104h1M62 104h1M47 105h1M62 105h2" />
<path stroke="#333120" d="M45 105h1" />
<path stroke="#2d2c1d" d="M59 105h1" />
<path stroke="#394033" d="M45 106h1M54 107h1M53 110h1M62 110h1M59 111h1M61 111h1M64 111h1" />
<path stroke="#343221" d="M46 106h1" />
<path stroke="#32301f" d="M47 106h2" />
<path stroke="#312e1f" d="M49 106h2" />
<path stroke="#323020" d="M51 106h1" />
<path stroke="#373e32" d="M49 107h2M48 108h1M50 109h1M52 109h5M60 109h1M54 110h1M57 110h1M60 110h1M64 110h1M62 112h3M58 113h1M60 114h1" />
<path stroke="#394134" d="M51 107h1M53 107h1M57 107h1M52 110h1M55 110h2M59 110h1M61 110h1M60 111h1M62 111h2M56 112h2M60 113h1M62 113h1" />
<path stroke="#3d4437" d="M55 107h1" />
<path stroke="#383f33" d="M51 109h1M58 110h1M63 110h1M59 113h1M63 113h1" />
<path stroke="#3a4235" d="M56 111h1M61 112h1" />
<path stroke="#332d15" d="M1 113h1M11 117h2" />
<path stroke="#4f4c29" d="M55 113h1M47 116h2M45 117h1M47 117h1M42 118h2" />
<path stroke="#514e2a" d="M56 113h1" />
<path stroke="#4e4a28" d="M54 114h3M51 115h1M41 118h1M46 118h1" />
<path stroke="#322f14" d="M0 115h6M2 116h3M6 116h2M0 119h2M10 122h1M0 124h3M0 125h8M4 126h3" />
<path stroke="#4c4826" d="M50 115h1M50 116h1M54 116h2M50 117h2M49 118h1M58 118h1M35 119h1M49 119h2M55 120h1" />
<path stroke="#4a4625" d="M60 115h1" />
<path stroke="#373316" d="M0 116h1M0 117h1M8 117h1M11 118h1M12 119h1M14 119h1M7 121h1M6 122h1M14 122h1M4 123h1M10 123h2M14 123h1M16 124h3M9 125h1M8 126h2" />
<path stroke="#353115" d="M1 116h1M6 117h1M0 118h1M2 119h1M9 121h1M9 122h1M12 123h1M3 124h1M7 126h1" />
<path stroke="#343014" d="M5 116h1M5 117h1M7 117h1M8 122h1M3 126h1" />
<path stroke="#373416" d="M1 117h1M4 117h1M1 118h1M13 119h1M8 121h1M10 121h1M0 123h1M3 123h1M5 123h1M9 123h1M16 123h2M4 124h1M6 124h1M14 124h2M10 125h1M10 126h1" />
<path stroke="#393517" d="M2 117h1M9 117h1M2 118h2M9 118h2M3 120h2M17 120h2M15 122h1M1 123h2M6 123h2M18 123h1M5 124h1M7 124h1M19 124h1M11 125h1M11 126h1M6 127h2" />
<path stroke="#3a3618" d="M3 117h1M0 120h1M6 120h1M6 121h1M20 121h2M23 121h1M16 122h1M19 123h1M10 124h3M20 124h1M12 125h2M2 126h1M12 126h1M10 127h3" />
<path stroke="#312c14" d="M13 117h1" />
<path stroke="#504d2a" d="M46 117h1" />
<path stroke="#3c3618" d="M4 118h1M3 119h2M12 121h1M8 123h1M8 124h2M21 124h1M14 125h1M20 125h1M9 127h1M13 127h1" />
<path stroke="#3d391a" d="M5 118h1M5 119h2M1 120h2M7 120h3M11 120h1M20 120h1M22 120h1M2 121h1M5 121h1M11 121h1M19 121h1M24 121h1M0 122h1M5 122h1M17 122h1M24 122h1M20 123h1M22 124h2M18 125h1M22 125h2M14 126h6M21 126h3M16 127h3M20 127h4" />
<path stroke="#3c3819" d="M6 118h1M8 118h1M5 120h1M16 120h1M19 120h1M22 121h1M13 124h1M15 125h3M19 125h1M21 125h1M13 126h1M8 127h1M14 127h2M19 127h1" />
<path stroke="#413d1c" d="M7 118h1M10 119h1M15 120h1M1 121h1M16 121h1M18 122h3M22 122h1M27 126h1M3 127h2" />
<path stroke="#403c1b" d="M7 119h2M11 119h1M10 120h1M15 121h1M23 122h1M25 123h2M25 124h3M26 125h1M1 126h1M26 126h1M28 126h1" />
<path stroke="#3f3b1a" d="M9 119h1M12 120h1M21 120h1M3 121h1M13 121h1M1 122h1M24 123h1M5 127h1" />
<path stroke="#443f1d" d="M13 120h1M0 127h2" />
<path stroke="#46421f" d="M14 120h1" />
<path stroke="#423f1c" d="M0 121h1M18 121h1M2 122h3M2 127h1" />
<path stroke="#3e3a1a" d="M4 121h1M14 121h1M21 122h1M25 122h1M21 123h3M24 124h1M24 125h2M27 125h1M20 126h1M24 126h2M24 127h5" />
<path stroke="#413e1c" d="M17 121h1" />
<path stroke="#363216" d="M7 122h1M11 122h3M13 123h1M15 123h1M8 125h1" />
<path stroke="#443f20" d="M32 122h1M31 123h2M34 123h2M43 124h1M47 125h1M54 127h1" />
<path stroke="#45411e" d="M0 126h1" />
</svg>