<svg xmlns="http://www.w3.org/2000/svg" viewBox="0 -0.5 65 128" shape-rendering="crispEdges">
<metadata>Made with Pixels to Svg https://codepen.io/shshaw/pen/XbxvNj</metadata>
<path stroke="#262825" d="M0 0h4M0 1h4M0 2h2M0 3h1M1 36h1" />
<path stroke="#232522" d="M4 0h1M23 54h1M28 58h1" />
<path stroke="#303123" d="M5 0h1M6 36h1M6 38h1" />
<path stroke="#363523" d="M6 0h3M5 1h1M29 9h1M31 18h1M28 27h1M26 39h1M26 41h1M26 42h1M26 43h1M34 59h1" />
<path stroke="#363025" d="M9 0h1M11 0h1M6 1h5M7 2h2M14 2h1M17 2h1M6 3h3M10 3h1M16 3h1M18 3h1M6 4h2M11 4h1M17 4h3M15 5h4M11 6h1M15 6h1M17 6h1M16 7h1M14 8h3M19 12h1M22 12h1M28 15h1M27 19h1M30 19h1M27 21h1M29 21h1M9 23h1M28 23h1M29 24h1M10 25h1M12 25h1M7 29h1M10 29h1M5 31h1M55 33h1M57 33h1M52 34h1M54 34h3M51 35h1M53 35h1M55 35h1M52 36h1M55 36h1M51 37h2M50 38h1M43 39h1M50 39h1M52 39h1M51 40h1M45 41h2M51 41h1M58 41h1M44 42h1M63 44h2M44 45h1M63 45h1M42 46h1M63 46h1M44 48h1M42 49h1M40 50h2M42 51h1M38 52h1M39 53h1M56 53h1M59 57h1M47 60h1M49 61h1M48 62h1M55 67h1" />
<path stroke="#383226" d="M10 0h1M12 0h3M11 1h5M4 2h2M10 2h2M13 2h1M16 2h1M5 3h1M11 3h5M12 4h5M10 5h5M19 5h1M23 5h2M12 6h3M19 6h1M22 6h3M13 7h2M17 7h6M13 8h1M17 8h8M16 9h2M20 9h2M23 9h1M13 10h1M16 10h1M20 10h1M22 10h1M20 11h1M18 12h1M18 13h1M21 13h1M25 13h2M19 14h1M22 14h1M25 14h1M22 15h1M27 15h1M12 17h1M15 17h1M11 18h2M16 18h1M28 18h1M30 18h1M10 19h2M13 19h1M15 19h1M9 24h1M7 27h3M7 28h2M14 28h1M7 34h1M45 35h1M43 36h2M45 37h1M52 38h1M60 38h1M54 41h1M57 41h1M63 43h1M64 45h1M37 46h1M42 47h1M39 48h2M42 48h1M43 50h1M40 51h1M43 51h1M51 53h1M59 53h2M51 55h1M62 55h1M40 56h1M60 56h1M59 62h1" />
<path stroke="#352f24" d="M15 0h2M16 1h2M9 2h1M12 2h1M15 2h1M18 2h3M9 3h1M17 3h1M19 3h1M21 3h2M9 4h2M20 4h3M8 5h2M21 5h2M8 6h1M10 6h1M20 6h2M7 7h1M11 7h2M11 8h2M11 9h2M22 9h1M26 9h1M8 10h5M23 10h1M10 11h2M26 11h1M15 16h1M18 16h1M28 16h2M16 17h2M29 17h2M29 19h1M30 20h1M29 23h1M5 26h1M6 27h1M5 32h1M63 34h1M47 37h1M50 37h1M46 38h1M48 38h2M46 39h1M51 39h1M46 40h1M47 41h1M50 41h1M46 42h2M43 43h1M64 46h1M46 48h1M44 49h1M42 50h1M44 51h1M57 51h1M64 52h1M35 54h1M58 54h1M34 55h2M37 57h2M40 57h1M56 58h1M60 63h1M53 67h2" />
<path stroke="#353422" d="M17 0h1M19 0h1M21 1h1M22 2h1M30 7h1M27 34h1M20 35h1M27 35h1M14 36h1M21 38h1M18 39h1M26 40h1M34 57h1" />
<path stroke="#2c2b19" d="M18 0h1M20 0h7M20 1h1M22 1h1M25 1h3M24 2h2M32 3h1M35 3h1M24 4h1M32 5h1M51 5h1M33 6h1M36 6h1M47 6h1M55 6h1M36 7h1M49 7h1M55 7h1M36 8h1M59 8h1M35 11h1M35 12h1M37 12h1M33 24h1M32 26h2M31 29h1M30 33h1M28 35h1M15 36h1M18 36h1M28 37h1M29 38h1M22 39h1M16 41h1M23 42h1M28 44h1M26 46h1M27 48h1M27 49h1M29 52h1M32 55h1" />
<path stroke="#2e2d1b" d="M27 0h3M28 1h1M31 1h1M27 2h2M30 2h3M34 2h1M26 3h4M31 3h1M33 3h2M32 4h4M30 5h1M35 5h2M49 5h1M34 6h1M50 6h1M38 7h1M29 8h1M32 9h1M34 10h1M37 10h2M37 11h1M31 12h2M34 12h1M32 13h1M31 14h2M33 16h1M36 21h1M30 25h1M32 27h1M30 30h1M30 31h1M28 36h2M28 38h1M20 41h1M25 49h1M27 50h1M28 51h1M26 52h1M28 52h1M27 53h1M33 55h1M33 57h1" />
<path stroke="#2f2e1c" d="M30 0h2M23 1h2M29 1h2M32 1h1M23 2h1M29 2h1M33 2h1M30 3h1M30 4h1M37 6h1M49 6h1M37 8h2M34 9h1M36 9h1M36 10h1M32 11h1M33 17h1M32 19h1M29 27h2M29 29h1M30 32h1M29 33h1M28 34h3M29 35h1M12 36h1M17 36h1M19 36h1M22 38h1M26 47h1M29 48h1M26 50h1M29 50h1M27 51h1M32 57h1" />
<path stroke="#1a1a1a" d="M32 0h1M36 4h1M18 44h1M24 52h1M25 54h2M26 55h1" />
<path stroke="#131313" d="M33 0h1M33 1h1M54 4h1M22 43h1M23 49h1M24 50h1" />
<path stroke="#1c1d1a" d="M34 0h1M11 42h1" />
<path stroke="#1b1c1a" d="M35 0h1M35 1h1M43 6h2M14 44h1M18 49h1M19 50h1M25 55h1M25 56h2M26 57h1" />
<path stroke="#1c1e1a" d="M36 0h1M36 1h1M37 2h1M38 4h1M25 60h2M36 66h1M44 67h1M40 68h2M43 68h2" />
<path stroke="#1d1f1b" d="M37 0h1M37 3h1M14 45h1M26 61h1M39 67h1M42 67h1M42 68h1" />
<path stroke="#171a15" d="M38 0h2M41 0h1M42 2h1M42 3h1M40 4h1M23 57h2M23 58h2M26 59h1M25 61h1M27 65h1M31 65h1M38 66h1M43 71h1M44 72h1M46 72h1M51 74h1M45 75h1M60 76h1M61 77h1" />
<path stroke="#161914" d="M40 0h1M42 0h1M38 1h4M38 2h1M17 50h1M32 65h1M40 69h2M44 71h1M45 72h1M52 75h1M63 78h1" />
<path stroke="#1a1c18" d="M43 0h1M42 1h2M41 2h1M38 3h1M23 56h1M35 66h1M45 68h1" />
<path stroke="#191a18" d="M44 0h1M44 1h1M35 2h1M47 2h4M47 3h4M37 4h1M47 4h1M38 5h1M40 7h1M24 56h1M49 70h1" />
<path stroke="#181a17" d="M45 0h1M49 0h3M45 1h1M49 1h2M44 2h3M36 3h1M43 3h4M42 4h1M45 4h2M39 6h1M21 52h1M24 54h1M22 55h1M24 55h1M27 57h1M61 76h1" />
<path stroke="#161815" d="M46 0h3M52 0h1M58 0h1M46 1h2M51 2h1M56 3h1M43 4h1M57 4h1M42 5h1M40 6h1M20 51h1M25 57h1M52 72h1" />
<path stroke="#151714" d="M53 0h3M57 0h1M59 0h1M34 1h1M52 1h8M54 2h5M51 3h1M54 3h2M57 3h2M58 4h3M39 5h1M41 5h1M59 5h2M41 6h1M26 58h1" />
<path stroke="#141613" d="M56 0h1M52 2h1M59 2h1M52 3h1M59 3h2M61 4h1M43 5h1M61 5h1M12 43h1M22 54h1" />
<path stroke="#131512" d="M60 0h1M60 1h1M53 2h1M60 2h2M53 3h1M61 3h2M62 4h1M62 5h3M42 6h1M63 6h2M41 7h1" />
<path stroke="#121411" d="M61 0h4M61 1h4M62 2h3M63 3h2M63 4h2M40 5h1" />
<path stroke="#323326" d="M4 1h1M2 2h2M1 3h1M2 34h1M1 35h4M5 36h1M8 38h1M36 61h1" />
<path stroke="#2c261b" d="M18 1h2M23 4h1M59 9h1M64 10h1M58 11h1M62 11h2M62 12h3M62 13h1M49 15h1M60 15h1M64 15h1M44 16h1M51 16h1M61 17h1M49 18h1M53 18h1M60 18h1M47 19h1M52 19h2M47 20h1M53 20h1M43 21h1M49 21h4M54 21h2M42 22h2M50 22h1M56 22h1M43 23h2M54 23h1M43 24h1M45 24h1M47 24h3M52 24h4M45 25h2M48 25h5M55 25h1M58 25h1M60 25h1M41 26h1M43 26h3M48 26h6M55 26h1M59 26h2M35 27h1M42 27h3M48 27h5M33 28h2M37 28h1M41 28h4M47 28h3M51 28h1M32 29h1M39 29h1M41 29h1M43 29h1M45 29h5M51 29h1M36 30h1M40 30h3M45 30h3M33 31h1M36 31h1M42 31h2M45 31h2M53 31h2M60 31h1M42 32h2M45 32h1M47 32h1M32 33h1M40 33h2M45 33h1M31 34h1M35 34h2M41 34h1M43 34h3M36 35h2M39 35h1M41 35h1M43 35h2M46 35h2M32 36h3M40 36h3M45 36h1M31 37h1M41 37h2M57 37h1M60 37h2M31 38h1M34 38h1M40 38h1M44 38h1M36 39h1M41 39h1M41 40h1M35 41h2M38 41h1M33 42h2M63 42h1M53 43h1M33 44h1M36 45h1M50 46h1M50 47h1M59 49h1M33 50h1M33 51h1M49 62h1M56 63h1M51 68h1M63 70h1" />
<path stroke="#191c17" d="M37 1h1M36 2h1M39 2h2M43 2h1M39 3h3M39 4h1M41 4h1M26 62h1M26 65h1M37 66h1M44 73h1M64 76h1M58 77h1M36 127h1" />
<path stroke="#171916" d="M48 1h1M51 1h1M44 4h1M45 5h1" />
<path stroke="#393327" d="M6 2h1M3 3h2M2 4h4M8 4h1M1 5h3M6 5h1M3 6h3M16 6h1M18 6h1M0 7h1M2 7h4M15 7h1M4 8h1M2 9h2M5 9h1M14 9h2M4 10h1M25 10h1M17 11h1M19 11h1M21 11h1M23 11h1M21 12h1M10 13h2M20 13h1M10 14h5M27 14h1M8 15h1M10 15h4M18 15h1M11 16h3M25 16h1M13 17h1M27 17h1M27 18h1M28 19h1M13 20h2M27 20h1M10 21h1M14 21h1M10 22h2M10 24h1M8 25h1M6 26h1M9 26h1M11 27h1M22 28h1M6 31h1M9 31h1M8 32h1M6 33h1M45 38h1M45 39h1M47 43h1M62 43h1M43 47h1M63 48h2M63 50h1M41 51h1M60 51h1M63 51h2M42 52h1M44 52h1M54 52h1M64 53h1M51 54h1M60 54h1M40 55h1M53 55h1M64 55h1M57 56h1M43 57h1M57 58h1M60 62h1M62 64h1" />
<path stroke="#342e23" d="M21 2h1M20 3h1M19 9h1M28 10h1M26 12h1M27 13h1M20 14h1M19 15h1M28 17h1M53 37h1M55 37h1M51 38h1M53 38h2M44 39h1M54 39h1M44 40h1M43 42h1M45 42h1M48 42h1M61 42h1M46 43h1M40 44h1M42 44h1M40 46h1M64 47h1M38 48h1M43 48h1M43 49h1M37 50h2M64 50h1M57 52h1M54 53h1M38 55h1M58 56h1M54 61h1M57 63h1" />
<path stroke="#383725" d="M26 2h1M23 3h3M26 4h1M25 5h1M29 25h1M28 28h1M27 33h1M20 34h1M7 35h1M13 36h1M22 36h1M20 37h1M14 38h1M24 39h1" />
<path stroke="#393826" d="M2 3h1M1 4h1M29 6h1M27 7h2M31 20h1M27 32h1M24 33h1M5 34h1M21 36h1M11 37h1M14 39h2M21 39h1M21 42h1" />
<path stroke="#292929" d="M0 4h1M19 46h1" />
<path stroke="#30301e" d="M25 4h1M26 5h2M29 5h1M26 6h3M31 6h1M33 7h1M37 7h1M38 9h1M31 10h1M30 12h1M30 13h1M35 14h1M31 16h1M32 17h1M32 18h1M30 23h1M30 26h2M30 28h1M29 31h1M28 32h1M28 53h1M28 54h1M35 59h1" />
<path stroke="#333221" d="M27 4h1M29 4h1M28 5h1M28 8h1M30 8h1M32 10h1M36 11h1M33 14h1M34 15h1M29 26h1M28 29h1M23 40h1M26 44h1M24 46h1" />
<path stroke="#302f1d" d="M28 4h1M37 9h1M33 10h1M34 11h1M31 13h1M33 13h3M29 30h1M28 33h1M17 37h1M29 37h1M20 39h1M26 48h1M25 50h1M29 51h1M27 52h1M33 59h1" />
<path stroke="#2a2918" d="M31 4h1M31 5h1M32 6h1M54 6h1M56 6h1M58 7h1M35 10h1M27 38h1M28 43h1M29 45h1" />
<path stroke="#191919" d="M48 4h2M19 44h2M21 50h1M27 56h1M28 57h1M63 74h1" />
<path stroke="#171717" d="M50 4h2M64 73h1M64 74h1M63 75h2" />
<path stroke="#0e0e0e" d="M52 4h1M21 43h1M22 49h1M61 75h1" />
<path stroke="#161616" d="M53 4h1M37 5h1M47 5h1M18 46h1M20 49h1M24 53h1M28 56h1M62 75h1" />
<path stroke="#141414" d="M55 4h2M46 5h1M38 6h1M39 8h1M24 49h1M24 51h1" />
<path stroke="#3c3b2a" d="M0 5h1M26 31h1M22 34h1M26 34h1" />
<path stroke="#3a3428" d="M4 5h2M7 5h1M6 6h1M9 7h2M8 8h3M8 9h1M10 9h1M13 9h1M17 10h1M7 11h3M12 11h3M16 11h1M7 12h7M15 12h1M7 13h3M15 14h1M14 15h3M17 16h1M26 16h1M11 17h1M28 20h1M13 23h1M12 24h1M2 26h3M0 27h2M3 27h2M17 34h1M49 39h1M56 41h1M50 42h1M45 45h1M63 54h1M39 56h1M38 58h2M56 60h1M60 60h1" />
<path stroke="#322b20" d="M20 5h1M27 10h1M28 13h2M30 14h1M21 17h1M20 18h1M23 18h2M19 19h2M10 23h1M19 23h1M23 25h1M53 25h1M54 26h1M15 27h1M56 27h1M58 27h1M57 28h1M53 29h1M58 29h1M54 30h1M53 32h2M54 33h1M18 34h2M43 38h1M57 39h2M32 40h1M43 40h1M64 40h1M41 41h1M63 41h1M41 42h1M62 42h1M64 42h1M44 43h1M38 44h1M43 44h1M53 44h1M39 46h1M41 46h1M53 46h1M56 46h1M37 47h1M39 47h1M41 47h1M57 47h2M52 48h1M59 48h1M56 49h1M35 50h1M35 53h1M38 53h1M58 53h1M57 54h1M59 54h1M57 55h2M63 55h1M59 56h1M37 58h1M52 61h2M58 63h1" />
<path stroke="#31311f" d="M33 5h1M29 7h1M32 8h1M31 9h1M33 9h1M33 11h1M36 12h1M36 13h1M34 14h1M31 15h2M32 16h1M31 21h1M30 22h1M29 28h1M31 28h1M28 30h1M29 32h1M16 36h1M20 36h1M27 36h1M13 38h1M25 46h1" />
<path stroke="#2b2a19" d="M34 5h1M52 5h5M35 6h1M48 6h1M52 6h1M34 7h2M33 8h2M58 8h1M35 9h1M31 17h1M32 20h1M32 21h1M34 21h2M31 22h2M32 23h1M32 24h1M34 24h1M31 25h3M31 30h1M31 31h1M13 37h1M19 37h1M25 38h1M25 39h1M28 39h1M29 40h1M28 41h2M24 42h1M28 42h1M25 43h1M25 44h1M28 46h1M27 47h1M29 47h1M26 49h1M28 49h1M28 50h1M32 53h1M32 54h1M33 58h1" />
<path stroke="#1f201d" d="M44 5h1M27 59h1" />
<path stroke="#181818" d="M48 5h1" />
<path stroke="#2d2c1a" d="M50 5h1M50 7h1M33 20h1M35 23h1M31 27h1M32 28h1M30 29h1M28 31h1M30 35h1M27 37h1M20 40h1M26 51h1" />
<path stroke="#292817" d="M57 5h1M57 6h3M53 7h2M57 7h1M59 7h2M35 8h1M40 8h1M54 8h1M60 8h5M56 9h1M29 10h1M34 16h1M33 21h1M33 22h1M31 23h1M34 23h1M30 24h2M18 37h1M22 37h1M25 37h1M25 40h1M28 40h1M25 45h1M27 45h1M29 46h1M29 49h1M28 55h1M30 55h1M30 56h1" />
<path stroke="#222316" d="M58 5h1M64 7h1" />
<path stroke="#3d362b" d="M0 6h3M7 6h1M9 6h1M1 7h1M6 7h1M8 7h1M0 8h4M5 8h3M0 9h2M4 9h1M6 9h2M9 9h1M0 10h4M5 10h3M18 10h1M0 11h7M0 12h5M17 12h1M0 13h2M3 13h3M0 14h8M9 14h1M0 15h2M3 15h4M9 15h1M17 15h1M23 15h2M0 16h1M2 16h7M16 16h1M20 16h1M0 17h1M3 17h3M7 17h1M9 17h1M0 18h1M4 18h2M8 18h1M0 19h2M1 20h2M1 21h1M5 21h1M1 22h1M5 22h1M0 23h2M7 23h1M0 24h2M28 24h1M0 25h1M5 25h2M0 26h2M5 28h1M2 29h1M5 29h1M2 30h1M8 30h3M2 31h1M4 32h1M7 32h1M8 33h1M6 34h1M57 38h1M50 40h1M56 40h3M52 41h1M49 43h1M45 48h1M45 52h1M55 52h1M63 60h1M63 63h1M52 67h1" />
<path stroke="#312b1f" d="M25 6h1M23 7h4M25 8h1M27 8h1M29 11h1M29 12h1M28 14h1M62 14h1M29 15h1M23 17h1M15 24h1M15 26h1M33 27h1M34 29h2M34 30h1M35 31h1M48 32h1M48 33h1M40 34h1M49 34h2M12 35h1M48 35h2M64 35h1M49 36h2M57 36h2M64 36h1M56 37h1M58 37h2M64 37h1M58 38h2M45 40h1M61 40h1M63 40h1M43 41h2M60 41h1M64 41h1M35 42h1M38 42h1M40 43h1M51 44h1M58 44h1M40 45h1M59 45h1M38 47h1M51 47h1M53 48h1M58 48h1M34 49h1M50 49h1M53 49h1M36 50h1M35 51h1M37 51h1M36 52h1M33 53h2M33 54h1M38 54h1M59 55h1M50 61h2M47 62h1M46 63h1M48 63h1" />
<path stroke="#343322" d="M30 6h1M31 7h1M31 11h1M23 34h1M25 36h1M19 39h1M26 45h1M31 57h1" />
<path stroke="#22210f" d="M45 6h1M41 14h1" />
<path stroke="#252412" d="M46 6h1M51 7h1M42 8h1M45 9h1M47 10h1M52 10h1M38 11h1M40 11h1M43 11h1M45 12h1M37 14h2M38 15h2M42 15h1M37 16h1M39 16h1M40 17h1M35 20h1M27 40h1M27 44h1M31 53h1M29 54h1" />
<path stroke="#272715" d="M51 6h1M52 7h1M53 8h1M39 9h2M48 11h1M42 14h1M35 22h1M27 41h1M25 42h1M23 43h1M28 45h1M30 47h1M31 52h1M33 56h1" />
<path stroke="#282716" d="M53 6h1M60 6h1M56 7h1M61 7h3M41 8h1M56 8h2M54 9h1M44 13h1M34 22h1M33 23h1M27 39h1M29 39h1M25 41h1M29 42h1M24 43h1M29 44h1M27 46h1M28 47h1M28 48h1M30 53h1M31 55h1M29 56h1M31 56h1" />
<path stroke="#212215" d="M61 6h1M42 7h1" />
<path stroke="#202114" d="M62 6h1" />
<path stroke="#262513" d="M32 7h1M46 7h1M48 7h1M30 9h1M44 9h1M55 9h1M42 10h1M45 10h1M39 11h1M46 11h1M42 12h3M45 13h1M40 14h1M43 14h1M36 15h2M40 15h2M35 16h1M38 16h1M40 16h1M34 17h1M38 17h1M39 18h1M36 19h2M22 42h1M31 54h1" />
<path stroke="#151515" d="M39 7h1" />
<path stroke="#1c1d0f" d="M43 7h1" />
<path stroke="#232210" d="M44 7h1M44 8h1M46 8h1M46 9h2M51 9h1M40 10h1M43 10h2M49 10h1M38 13h2M42 13h1M36 17h1M33 18h1M36 18h1M37 20h1M21 37h1" />
<path stroke="#242311" d="M45 7h1M45 8h1M47 8h2M51 8h2M42 9h1M48 9h2M46 10h1M48 10h1M41 11h1M44 11h1M47 11h1M49 11h1M38 12h2M41 12h1M47 12h1M40 13h1M39 14h1M35 15h1M36 16h1M41 16h1M35 17h1M34 18h2M37 18h2M34 19h2M36 20h1M27 42h1M27 43h1M30 49h1M30 50h1M30 51h1M29 53h1M29 55h1M34 58h1" />
<path stroke="#21200f" d="M47 7h1M41 9h1M43 9h1M50 9h1M52 9h1M42 11h1M40 12h1M37 17h1" />
<path stroke="#332c21" d="M26 8h1M27 9h1M29 14h1M22 17h1M21 18h2M21 19h1M23 19h2M20 20h1M30 21h1M18 22h1M19 24h1M19 25h1M19 26h1M23 26h1M16 27h2M23 27h1M47 39h2M31 41h1M45 43h1M54 43h1M44 44h1M42 45h1M38 46h1M51 46h1M59 47h1M41 48h1M57 48h1M37 49h1M39 49h1M44 50h1M58 51h1M36 53h1M34 56h1M37 56h2" />
<path stroke="#272614" d="M31 8h1M55 8h1M39 10h1M41 10h1M45 11h1M46 12h1M37 13h1M41 13h1M43 13h1M36 14h1M44 14h1M39 17h1M33 19h1M38 19h1M34 20h1M29 43h1M30 46h1M30 48h1M31 50h1M31 51h1M30 52h1M30 54h1M32 56h1M35 58h1" />
<path stroke="#201f0e" d="M43 8h1M49 8h2M53 9h1M50 10h2" />
<path stroke="#3c352a" d="M18 9h1M14 10h1M19 10h1M24 10h1M15 11h1M18 11h1M14 12h1M16 12h1M2 13h1M17 13h1M8 14h1M16 14h3M2 15h1M7 15h1M21 15h1M1 16h1M10 16h1M1 17h2M18 17h1M26 17h1M1 18h3M9 18h1M26 18h1M3 19h1M0 20h1M3 20h1M6 20h1M11 20h1M0 21h1M4 21h1M6 21h1M12 21h1M2 22h3M6 22h1M8 22h1M2 23h3M8 23h1M2 24h2M8 24h1M26 24h1M5 27h1M0 28h3M4 28h1M9 28h1M0 29h2M3 29h1M1 30h1M4 30h1M24 30h1M3 32h1M49 40h1M55 40h1M53 41h1M58 42h1M60 42h1M48 43h1M47 44h1M43 46h1M46 46h1M46 47h1M45 49h1M41 52h1M53 52h1M63 52h1M40 53h1M45 53h1M53 53h1M53 54h1M58 58h1M48 61h1M51 65h1M53 65h2M50 67h1" />
<path stroke="#373126" d="M24 9h2M22 11h1M25 11h1M23 12h1M12 13h5M22 13h1M28 22h1M9 25h1M6 28h1M13 35h1M48 40h1M52 40h1M49 42h1M64 43h1M46 44h1M40 49h1M55 53h1M56 54h1" />
<path stroke="#342d22" d="M28 9h1M26 10h1M24 13h1M27 16h1M22 19h1M18 20h2M21 20h2M24 20h1M29 20h1M17 21h5M24 21h1M17 22h1M19 22h2M24 22h1M29 22h1M16 23h3M20 23h1M16 24h3M20 24h1M23 24h1M15 25h4M20 25h1M16 26h3M18 27h1M6 30h1M34 31h1M54 35h1M54 37h1M47 38h1M56 38h1M53 39h1M55 39h2M47 40h1M53 40h1M48 41h2M59 41h1M39 42h1M42 42h1M55 43h1M41 44h1M45 44h1M54 44h1M56 44h2M57 45h2M36 46h1M59 46h1M40 47h1M38 49h1M41 49h1M39 50h1M38 51h1M59 51h1M34 52h2M37 52h1M39 52h1M58 52h2M57 53h1M34 54h1M62 54h1M53 56h1M53 57h1M58 57h1M59 63h1" />
<path stroke="#282216" d="M57 9h1M59 12h1M59 13h1M51 14h1M63 14h1M43 15h1M51 15h1M43 16h1M42 18h1M41 19h2M44 19h1M42 20h1M45 20h1M60 20h1M44 21h1M46 21h1M63 21h1M37 22h1M39 22h1M44 22h1M39 23h1M56 23h3M38 24h1M40 24h1M42 24h1M56 24h3M63 24h1M40 25h1M42 25h2M59 25h1M42 26h1M57 26h1M41 27h1M31 36h1M36 47h1M31 48h1M31 49h1M57 68h1" />
<path stroke="#2a2318" d="M58 9h1M59 10h1M60 14h1M64 14h1M61 15h1M60 16h1M63 16h1M41 18h1M44 18h1M50 18h1M63 18h2M43 19h1M49 19h1M51 19h1M55 19h1M57 19h1M59 19h1M64 19h1M46 20h1M48 20h5M55 20h2M45 21h1M48 21h1M56 21h2M62 21h1M36 22h1M45 22h5M57 22h1M61 22h2M45 23h5M63 23h2M24 24h1M46 24h1M35 25h1M39 25h1M41 25h1M54 25h1M63 25h1M38 26h3M47 26h1M58 26h1M64 26h1M45 27h3M53 27h3M57 27h1M45 28h2M52 28h1M55 28h2M60 28h1M44 29h1M52 29h1M54 29h4M59 29h1M62 29h2M43 30h2M48 30h4M53 30h1M55 30h3M59 30h1M62 30h1M41 31h1M44 31h1M47 31h5M57 31h3M36 32h1M44 32h1M46 32h1M49 32h2M52 32h1M58 32h1M44 33h1M46 33h2M49 33h4M46 34h3M51 34h1M50 35h1M52 35h1M53 36h2M31 42h2M32 43h1M39 45h1M33 46h1M31 47h1M60 47h1M36 48h1M60 48h1M52 62h2M55 62h1" />
<path stroke="#2b251a" d="M60 9h1M62 9h3M57 10h1M60 10h4M59 11h3M61 12h1M60 13h2M63 13h1M61 14h1M63 15h1M62 18h1M37 23h1M62 23h1M35 24h1M61 24h1M34 25h1M37 25h1M62 25h1M24 26h1M35 26h1M37 26h1M37 27h4M59 27h1M61 27h1M36 28h1M38 28h3M59 28h1M62 28h1M60 29h1M64 30h1M32 31h1M39 31h1M62 31h2M31 32h3M37 32h1M59 32h5M33 33h2M36 33h4M58 33h1M60 33h1M62 33h2M32 34h1M34 34h1M37 34h3M62 34h1M32 35h2M35 35h1M40 35h1M30 36h1M35 36h1M39 36h1M61 36h1M32 37h1M39 37h2M43 37h1M62 37h1M32 38h1M35 38h1M39 38h1M41 38h1M61 38h3M40 39h1M59 39h1M61 39h1M30 40h1M34 40h2M37 40h2M40 40h1M62 40h1M30 41h1M33 41h1M37 41h1M40 41h1M30 42h1M31 43h1M36 43h1M39 44h1M33 45h1M34 46h1M33 47h1M50 48h1M33 52h1M37 53h1M36 57h1M43 58h1M56 61h1M50 62h2M54 62h1M55 63h1M53 68h1M64 71h1M64 72h1" />
<path stroke="#2b2419" d="M61 9h1M56 10h1M58 10h1M64 13h1M62 16h1M59 18h1M64 20h1M37 24h1M61 25h1M64 25h1M63 26h1M31 35h1M36 36h2M33 38h1M30 39h1M34 39h1M36 40h1M49 47h1M52 49h1" />
<path stroke="#3e382d" d="M15 10h1M9 22h1M27 23h1M11 24h1M13 24h1M26 25h1M28 25h1M10 26h1M3 31h2M7 31h1M59 43h1M47 45h1M62 48h1M62 49h1M44 53h1M40 54h1M46 54h1M54 54h1M54 55h1M44 57h1M52 57h1M60 59h1M62 59h1M49 60h1M46 62h1M64 63h1" />
<path stroke="#3e372c" d="M21 10h1M5 12h2M6 13h1M23 14h1M6 18h1M2 19h1M4 19h2M4 20h2M2 21h2M0 22h1M13 22h1M5 23h2M12 23h1M26 23h1M5 24h3M27 24h1M7 25h1M27 25h1M7 26h1M28 26h1M27 27h1M11 28h1M6 29h1M8 31h1M51 42h1M57 42h1M59 42h1M61 43h1M60 44h1M46 45h1M44 46h1M63 47h1M45 50h1M51 50h1M53 51h2M56 52h1M39 54h1M52 55h1M39 57h1M45 57h1M56 57h1M47 58h1M37 59h1M49 59h1M62 60h1M52 65h1" />
<path stroke="#323120" d="M30 10h1M30 11h1M33 12h1M33 15h1" />
<path stroke="#211b10" d="M53 10h1M50 11h2M53 11h1M52 12h1M53 13h1M57 13h1M55 14h3M59 15h1M56 16h1M62 71h1M60 72h1" />
<path stroke="#211a0f" d="M54 10h1M56 12h1M56 13h1M58 15h1M61 18h1M55 70h2M60 70h1M59 71h1" />
<path stroke="#251f13" d="M55 10h1M48 12h1M50 12h1M47 13h1M54 13h1M47 14h2M53 14h1M52 15h2M42 16h1M52 16h1M52 17h1M52 18h1M54 18h1M59 20h1M60 21h1M38 22h1M50 28h1M53 28h2M50 29h1M53 42h4M64 68h1M57 69h1M58 70h1M56 71h1" />
<path stroke="#3b3529" d="M24 11h1M24 12h1M19 13h1M24 14h1M26 14h1M20 15h1M25 15h2M19 16h1M6 17h1M7 18h1M13 18h2M6 19h2M12 19h1M7 20h1M28 21h1M12 22h1M27 22h1M11 23h1M4 24h1M1 25h4M8 26h1M27 26h1M2 27h1M3 28h1M23 28h2M8 29h1M7 30h1M6 32h1M4 33h2M7 33h1M11 35h1M49 37h1M54 40h1M55 41h1M43 45h1M44 47h1M63 49h2M58 50h1M60 50h1M45 51h1M51 51h1M40 52h1M51 52h1M64 54h1M60 55h1M60 58h1M39 59h1M55 60h1M57 62h1M51 67h1" />
<path stroke="#2f291d" d="M27 11h1M23 13h1M64 17h1M24 23h1M35 28h1M33 29h1M37 29h1M32 30h1M38 30h1M58 30h1M37 31h2M55 31h2M61 31h1M38 32h1M57 32h1M64 32h1M31 33h1M59 33h1M64 33h1M33 34h1M64 34h1M56 35h3M60 35h1M62 35h1M51 36h1M56 36h1M59 36h1M62 36h1M37 38h1M35 39h1M37 39h3M60 39h1M31 40h1M33 40h1M39 40h1M32 41h1M34 41h1M42 41h1M40 42h1M33 43h1M37 43h3M34 44h1M52 44h1M38 45h1M50 45h1M53 45h1M57 46h1M34 47h2M35 49h2M34 51h1M36 51h1M39 51h1M37 54h1M36 55h2M47 61h1M58 62h1M47 63h1M49 63h1M50 68h1M63 72h1" />
<path stroke="#292217" d="M28 11h1M60 12h1M59 14h1M61 16h1M62 17h1M48 18h1M48 19h1M60 19h1M63 19h1M61 20h2M58 21h2M64 21h1M58 22h1M64 22h1M36 23h1M38 23h1M36 24h1M60 24h1M62 24h1M24 25h1M36 25h1M38 25h1M56 25h2M36 26h1M56 26h1M61 26h1M60 27h1M63 28h1M64 31h1M43 33h1M34 35h1M63 36h1M30 37h1M63 37h1M30 38h1M64 38h1M33 39h1M52 43h1M57 43h1M32 45h1M60 45h1M60 46h1M32 47h1M54 63h1M55 68h1M61 68h2" />
<path stroke="#221c11" d="M52 11h1M57 12h1M52 13h1M56 15h1M50 63h1M59 68h1M51 70h1M59 70h1M60 71h1M59 72h1" />
<path stroke="#262014" d="M54 11h1M49 12h1M46 13h1M48 13h2M58 13h1M45 14h1M50 14h1M44 15h2M47 15h1M47 16h1M48 17h4M55 17h1M58 17h1M60 17h1M47 18h1M40 19h1M40 20h1M54 20h1M38 21h1M53 21h1M51 22h4M59 22h2M50 23h4M55 23h1M59 23h1M61 23h1M50 24h2M59 24h1M62 26h1M64 27h1M64 28h1M42 29h1M64 29h1M58 43h1M30 44h1M32 44h1M30 45h1M32 46h1M32 48h1M32 51h1M63 69h1" />
<path stroke="#20190e" d="M55 11h1M62 72h1" />
<path stroke="#231d12" d="M56 11h1M55 12h1M55 13h1M54 15h2M53 16h3M58 16h1M41 17h1M45 17h2M53 17h2M56 17h1M55 18h1M58 18h1M46 19h1M54 19h1M58 19h1M61 19h1M39 20h1M43 20h1M57 20h2M37 21h1M39 21h1M41 21h1M40 22h1M59 69h2" />
<path stroke="#241e12" d="M57 11h1M51 12h1M53 12h1M51 13h1M52 14h1M54 14h1M57 15h1M45 16h2M57 16h1M59 16h1M42 17h3M47 17h1M57 17h1M59 17h1M43 18h1M45 18h2M51 18h1M56 18h2M39 19h1M45 19h1M56 19h1M41 20h1M40 21h1M42 21h1M41 22h1M63 22h1M40 23h3M39 24h1M41 24h1M44 24h1M32 50h1M56 62h1M51 63h1M60 68h1M58 69h1M64 69h1M52 70h1M58 71h1M58 72h1" />
<path stroke="#2d271c" d="M64 11h1M30 15h1M64 16h1M63 20h1M34 26h1M22 27h1M61 29h1M33 30h1M60 30h2M63 30h1M35 33h1M35 37h1M38 37h1M48 37h1M32 39h1M39 41h1M34 45h1M49 46h1M52 47h2M32 52h1M36 54h1M36 58h1M56 59h1M54 68h1" />
<path stroke="#403a2f" d="M20 12h1M14 16h1M17 18h1M14 19h1M12 20h1M13 21h1M7 22h1M11 26h1M10 28h1M9 29h1M61 45h1M59 50h1M62 50h1M55 51h1M42 53h1M47 54h1M39 55h1M52 56h1M54 56h1M62 58h1M44 62h1M62 63h1M49 65h2M58 65h1M58 67h1" />
<path stroke="#2e281c" d="M25 12h1M27 12h2M62 15h1M58 28h1M61 28h1M36 29h1M38 29h1M40 29h1M37 30h1M39 30h1M52 30h1M40 31h1M52 31h1M34 32h2M39 32h3M51 32h1M55 32h2M42 33h1M53 33h1M56 33h1M61 33h1M42 34h1M53 34h1M57 34h5M38 35h1M59 35h1M61 35h1M63 35h1M38 36h1M60 36h1M34 37h1M36 37h2M36 38h1M31 39h1M62 39h3M42 40h1M59 40h2M61 41h2M36 42h1M35 44h3M35 45h1M37 45h1M41 45h1M51 45h1M35 46h1M34 48h2M33 49h1M51 49h1M57 49h2M34 50h1M36 56h1M36 59h1M52 68h1M63 71h1" />
<path stroke="#272115" d="M54 12h1M58 12h1M50 13h1M46 14h1M49 14h1M46 15h1M48 15h1M50 15h1M48 16h3M63 17h1M40 18h1M50 19h1M62 19h1M38 20h1M44 20h1M47 21h1M61 21h1M55 22h1M60 23h1M64 24h1M44 25h1M47 25h1M46 26h1M36 27h1M62 27h2M42 35h1M33 37h1M44 37h1M42 38h1M42 39h1M30 43h1M31 44h1M59 44h1M31 45h1M31 46h1M32 49h1M52 63h2M56 68h1M58 68h1M63 68h1" />
<path stroke="#302a1e" d="M21 14h1M30 16h1M29 18h1M24 27h1M34 27h1M35 30h1M46 36h3M46 37h1M38 38h1M55 38h1M37 42h1M34 43h2M41 43h2M52 45h1M52 46h1M58 46h1M56 47h1M33 48h1M37 48h1M51 48h1M56 48h1M35 56h1M35 57h1M55 61h1" />
<path stroke="#1f180d" d="M58 14h1M51 69h2M54 69h3M61 69h1M61 70h2M54 71h2M57 71h1M57 72h1" />
<path stroke="#463f34" d="M9 16h1M8 17h1M10 17h1M10 18h1M8 19h2M8 20h3M7 21h3M11 21h1M15 29h1M10 35h1M49 44h1M52 51h1M61 52h1M63 53h1M61 55h1M45 60h1M60 65h1M55 66h1" />
<path stroke="#443e32" d="M21 16h1M15 20h1M17 30h1M61 46h1M46 51h1M46 52h1M50 52h1M43 53h1M42 54h1M61 54h1M46 55h1M46 56h1M55 56h1M63 56h1M57 57h1M62 65h1M60 67h2" />
<path stroke="#566145" d="M22 16h1M16 22h1M56 64h1M60 66h1" />
<path stroke="#4c4e3a" d="M23 16h1M26 21h1M24 29h1M48 46h1M47 48h1M48 57h2M59 60h1" />
<path stroke="#484537" d="M24 16h1M61 50h1M47 51h1M49 52h1M61 53h1M43 54h1M49 54h1M44 55h1M56 56h1M50 58h1M62 67h1" />
<path stroke="#3f392e" d="M14 17h1M15 18h1M12 26h1M4 29h1M5 30h1M9 32h1M48 44h1M45 47h1M62 51h1M43 52h1M60 52h1M62 52h1M41 53h1M50 54h1M47 59h1M50 59h1M48 60h1M55 65h1M59 67h1" />
<path stroke="#413b2f" d="M19 17h1M16 19h1M14 22h1M3 30h1M16 34h1M60 43h1M62 44h1M45 46h1M47 46h1M62 47h1M56 51h1M52 54h1M41 55h1M45 56h1M52 58h1M43 59h1M64 60h1M45 61h2M45 62h1M59 65h1M56 67h2" />
<path stroke="#525a41" d="M20 17h1M13 27h1M55 59h1M51 64h1M52 66h1" />
<path stroke="#4b4b39" d="M24 17h1M25 23h1M25 28h1M59 59h1" />
<path stroke="#484637" d="M25 17h1M18 18h1M26 19h1M25 25h1M9 35h1" />
<path stroke="#51563f" d="M19 18h1M12 27h1M48 50h1" />
<path stroke="#4f523d" d="M25 18h1M26 27h1M12 28h1M16 28h1M12 34h1M47 49h1M49 49h1M48 53h1M48 54h1M48 56h1M46 60h1M52 64h1M54 66h1M64 66h1" />
<path stroke="#494838" d="M17 19h1M25 26h1M25 27h1M11 29h1M9 34h1M50 44h1M61 47h1M50 50h1M53 50h2M49 53h1M43 55h1M43 56h1M42 59h1M44 59h1M58 59h1M59 61h1M63 65h1M63 67h2" />
<path stroke="#596648" d="M18 19h1M21 33h1M64 56h1M64 57h1" />
<path stroke="#4a4939" d="M25 19h1M25 24h1M18 28h1M56 50h1M47 52h1M55 57h1M40 58h1M42 58h1M54 60h1M64 65h1" />
<path stroke="#373624" d="M31 19h1M30 57h1" />
<path stroke="#433d31" d="M16 20h1M10 27h1M8 34h1M15 34h1M52 42h1M50 43h1M62 46h1M46 49h1M46 50h1M44 54h1M45 55h1M47 55h1M41 56h2M61 57h1M56 65h2" />
<path stroke="#576246" d="M17 20h1M12 29h2M14 35h1M63 57h1M43 61h1" />
<path stroke="#942d22" d="M23 20h1M22 21h2M21 22h1M23 22h1M21 23h1M23 23h1M22 24h1M56 43h1M55 44h1M54 45h1M56 45h1M54 46h1" />
<path stroke="#4c4c3a" d="M25 20h1M13 26h1M10 32h1M48 48h1M61 48h1M48 49h1M61 49h1M52 50h1M50 55h1M55 58h1M49 66h2" />
<path stroke="#4e503c" d="M26 20h1M10 34h1M45 58h1M38 59h1" />
<path stroke="#4b4a39" d="M15 21h1M25 22h1M50 56h1" />
<path stroke="#525841" d="M16 21h1M25 29h1M51 56h1M62 61h1M53 64h1" />
<path stroke="#474335" d="M25 21h1M26 22h1M26 26h1M10 31h1M13 34h2M49 51h1M52 52h1M44 56h1M47 56h1M62 56h1M47 57h1M44 58h1" />
<path stroke="#4e513c" d="M15 22h1M16 29h1M17 31h1M10 33h1M15 35h1M55 50h1M48 52h1M62 53h1M50 57h1" />
<path stroke="#d6601b" d="M22 22h1M55 45h1" />
<path stroke="#515740" d="M14 23h1M49 64h1" />
<path stroke="#535b42" d="M15 23h1M17 28h1M49 48h1M55 54h1M50 60h1M61 60h1M48 64h1M56 66h2M59 66h1" />
<path stroke="#faec24" d="M22 23h1M55 46h1" />
<path stroke="#4d4f3b" d="M14 24h1M17 29h1M11 34h1M47 50h1M46 59h1M64 59h1M43 60h1M51 66h1" />
<path stroke="#fff9ee" d="M21 24h1M21 25h2M20 26h3M19 27h3M19 28h3M54 47h2M54 48h2M54 49h2" />
<path stroke="#423c30" d="M11 25h1M61 44h1M48 45h1M46 53h1M50 53h1M41 54h1M56 55h1M60 57h1M48 59h1M48 65h1" />
<path stroke="#4f533d" d="M13 25h1M11 30h1M40 59h1M58 61h1" />
<path stroke="#555e44" d="M14 25h1M49 56h1M57 64h1" />
<path stroke="#60754f" d="M14 26h1M54 57h1M46 58h1M51 60h1" />
<path stroke="#5a6749" d="M14 27h1M14 33h1M63 62h1" />
<path stroke="#586347" d="M13 28h1M41 60h1M58 60h1" />
<path stroke="#453e33" d="M15 28h1M62 45h1M47 47h1M47 53h1M52 53h1M45 54h1M42 55h1M63 58h2M61 64h1" />
<path stroke="#464034" d="M26 28h1M51 43h1M49 50h1M61 56h1M61 58h1M41 59h1" />
<path stroke="#41402e" d="M27 28h1M26 30h1M21 34h1M24 34h2M25 35h1M17 38h1M19 42h1" />
<path stroke="#474135" d="M14 29h1M60 49h1M57 50h1M42 57h1M49 58h1M59 58h1M63 59h1M61 65h1" />
<path stroke="#859460" d="M18 29h1M20 29h1M13 30h2M18 30h1M15 31h1M17 32h2M20 32h2M19 33h1" />
<path stroke="#879560" d="M19 29h1M19 30h1M13 31h1" />
<path stroke="#758558" d="M21 29h1" />
<path stroke="#7d8b5c" d="M22 29h1M18 33h1" />
<path stroke="#7b8b5b" d="M23 29h1M40 60h1" />
<path stroke="#42412f" d="M26 29h1M13 39h1" />
<path stroke="#403f2d" d="M27 29h1M27 30h1M24 35h1M21 40h1M24 44h1" />
<path stroke="#3b3b29" d="M0 30h1M0 32h3M0 33h2M26 37h1M23 38h1M15 41h1M31 58h1M32 59h1" />
<path stroke="#657852" d="M12 30h1M20 30h1M55 55h1" />
<path stroke="#81905e" d="M15 30h1" />
<path stroke="#83915f" d="M16 30h1M14 31h1M13 32h1M15 32h1" />
<path stroke="#60734f" d="M21 30h1M18 31h1" />
<path stroke="#7e8d5c" d="M22 30h1M54 59h1" />
<path stroke="#788859" d="M23 30h1M42 60h1M42 61h1" />
<path stroke="#556443" d="M25 30h1" />
<path stroke="#3a3a28" d="M0 31h2M26 32h1M2 33h1M23 35h1M14 37h1M26 38h1M16 39h1M32 58h1" />
<path stroke="#50543e" d="M11 31h1M48 51h1M48 55h1M46 57h1M41 58h1M51 59h1M61 59h1M44 61h1M50 64h1M58 66h1M61 66h1M63 66h1" />
<path stroke="#647851" d="M12 31h1M23 31h1M49 55h1" />
<path stroke="#889560" d="M16 31h1M16 32h1M19 32h1M12 33h1" />
<path stroke="#84935f" d="M19 31h1M12 32h1M14 32h1" />
<path stroke="#6c7e55" d="M20 31h1M44 60h1" />
<path stroke="#687b53" d="M21 31h1" />
<path stroke="#7a8a5a" d="M22 31h1M13 33h1" />
<path stroke="#454433" d="M24 31h1M24 32h1M18 42h1" />
<path stroke="#4f593e" d="M25 31h1M18 38h1" />
<path stroke="#3d3c2b" d="M27 31h1M23 33h1M26 35h1M11 36h1M26 36h1M21 41h1M25 47h1" />
<path stroke="#5e714d" d="M11 32h1M57 59h1M52 60h1" />
<path stroke="#808e5d" d="M22 32h1" />
<path stroke="#556343" d="M23 32h1" />
<path stroke="#494e37" d="M25 32h1" />
<path stroke="#3a3927" d="M3 33h1M26 33h1M12 37h1M24 37h1M23 39h1" />
<path stroke="#484436" d="M9 33h1M49 45h1M50 51h1M61 51h1M41 57h1M48 58h1M57 61h1" />
<path stroke="#5d6e4d" d="M11 33h1" />
<path stroke="#5b6a4a" d="M15 33h1M51 57h1M61 61h1M53 66h1" />
<path stroke="#718257" d="M16 33h1M63 64h1" />
<path stroke="#78895a" d="M17 33h1" />
<path stroke="#748457" d="M20 33h1" />
<path stroke="#454533" d="M22 33h1M9 36h1M18 41h1M23 45h1" />
<path stroke="#3e3d2c" d="M25 33h1M17 35h1M20 38h1M17 41h1M20 42h1M24 45h1" />
<path stroke="#292b28" d="M0 34h1M30 59h1" />
<path stroke="#343528" d="M1 34h1M3 36h1M4 37h1M13 41h1M36 60h1" />
<path stroke="#313225" d="M3 34h1M2 36h1M33 60h1" />
<path stroke="#2d2e21" d="M4 34h1" />
<path stroke="#272926" d="M0 35h1M0 36h1M3 37h1" />
<path stroke="#353629" d="M5 35h2M7 36h1M7 37h1" />
<path stroke="#464834" d="M8 35h1M23 37h1M17 39h1M22 40h1M23 44h1" />
<path stroke="#697c53" d="M16 35h1" />
<path stroke="#3f3e2c" d="M18 35h1M21 35h2M15 38h1M24 38h1" />
<path stroke="#4b4f39" d="M19 35h1M19 38h1" />
<path stroke="#3c3d30" d="M4 36h1M9 38h1M10 40h1M12 40h1M10 41h1" />
<path stroke="#424636" d="M8 36h1" />
<path stroke="#444432" d="M10 36h1" />
<path stroke="#536041" d="M23 36h1" />
<path stroke="#505a3f" d="M24 36h1" />
<path stroke="#272a25" d="M0 37h1M0 38h1M2 38h1M3 39h1M1 40h1M27 60h1" />
<path stroke="#262924" d="M1 37h1" />
<path stroke="#222521" d="M2 37h1M13 44h1" />
<path stroke="#38392b" d="M5 37h1M9 40h1" />
<path stroke="#2f3022" d="M6 37h1M11 38h1" />
<path stroke="#444a38" d="M8 37h1" />
<path stroke="#434837" d="M9 37h1M12 39h1" />
<path stroke="#444c39" d="M10 37h1" />
<path stroke="#4c533a" d="M15 37h1" />
<path stroke="#484b36" d="M16 37h1" />
<path stroke="#292c26" d="M1 38h1M10 54h1M3 55h1M7 57h1M7 60h1M9 60h2M14 61h1M13 63h1M2 65h1M8 65h1M11 65h1M2 66h1M2 68h1M11 68h1M7 69h1M7 70h1M1 72h1M3 72h1M1 73h1M7 74h1M10 74h1M10 79h1M1 81h1M47 81h3M1 82h1M21 82h1M50 82h1M61 82h1M15 83h1M49 83h1M16 84h1M48 84h1M56 87h1M54 94h1M56 94h1M35 102h1M25 105h3M32 106h1M52 107h1M51 108h1M61 109h1M58 110h1M61 110h1M58 111h1M63 111h1" />
<path stroke="#2a2c28" d="M3 38h1M4 39h1M9 41h1M30 60h1M30 61h1" />
<path stroke="#292c27" d="M4 38h1M6 40h1M41 66h1" />
<path stroke="#2e3025" d="M5 38h1" />
<path stroke="#3a3b2d" d="M7 38h1M7 39h1M12 41h1M35 61h1" />
<path stroke="#3f4033" d="M10 38h1M10 39h1" />
<path stroke="#494d37" d="M12 38h1M15 42h1" />
<path stroke="#444331" d="M16 38h1" />
<path stroke="#222520" d="M0 39h1" />
<path stroke="#282b26" d="M1 39h1M3 40h1M9 42h1" />
<path stroke="#2a2d27" d="M2 39h1M4 40h1" />
<path stroke="#20221e" d="M5 39h1M39 127h1" />
<path stroke="#2f3126" d="M6 39h1" />
<path stroke="#393a2c" d="M8 39h1" />
<path stroke="#3d3e31" d="M9 39h1" />
<path stroke="#2b2c1f" d="M11 39h1" />
<path stroke="#242722" d="M0 40h1M29 61h1M29 62h1" />
<path stroke="#2b2e28" d="M2 40h1M2 41h1M14 48h1M30 62h1" />
<path stroke="#252823" d="M5 40h1M28 64h1" />
<path stroke="#2d2f2b" d="M7 40h1M28 60h1M32 61h1" />
<path stroke="#3b3e33" d="M8 40h1" />
<path stroke="#292a1d" d="M11 40h1" />
<path stroke="#36372a" d="M13 40h1" />
<path stroke="#5b714a" d="M14 40h2" />
<path stroke="#576745" d="M16 40h1" />
<path stroke="#566644" d="M17 40h1" />
<path stroke="#464634" d="M18 40h1" />
<path stroke="#434230" d="M19 40h1M24 47h1M25 48h1" />
<path stroke="#4e583d" d="M24 40h1M22 41h1M17 42h1" />
<path stroke="#252923" d="M0 41h1M5 41h1M3 43h2M35 70h1" />
<path stroke="#282c26" d="M1 41h1M3 41h1M5 43h1M3 44h2M4 45h1M7 48h1M0 49h1M2 49h1M0 50h1M13 65h1M13 68h1M14 69h1M31 70h2M10 71h1M29 71h1M31 71h1M40 71h1M29 72h1M34 73h1M24 78h1M51 82h1" />
<path stroke="#232620" d="M4 41h1M1 42h1M0 43h3M27 67h1M31 67h1M36 71h1M59 122h1M56 125h1M47 126h1M57 126h1M46 127h1M48 127h3" />
<path stroke="#2c2f29" d="M6 41h1" />
<path stroke="#2e312c" d="M7 41h1" />
<path stroke="#2f312d" d="M8 41h1" />
<path stroke="#2a2b1e" d="M11 41h1" />
<path stroke="#464f3b" d="M14 41h1" />
<path stroke="#4c513a" d="M19 41h1" />
<path stroke="#5c724a" d="M23 41h1" />
<path stroke="#525f40" d="M24 41h1" />
<path stroke="#22251f" d="M0 42h1M38 70h1M62 123h1M55 124h1M55 125h1M49 126h1M51 127h1" />
<path stroke="#252822" d="M2 42h1M4 42h1M0 44h1M1 46h1M6 48h1M3 49h1M14 50h1M20 59h1M22 62h1M14 64h1M14 66h1M12 67h1M30 67h1M39 71h1M31 72h1M31 73h1M54 124h1M52 125h1M54 125h1" />
<path stroke="#272b25" d="M3 42h1M0 45h1M10 48h2M14 67h1M14 70h1M35 71h1M54 81h1M52 82h1M52 124h1M64 124h1" />
<path stroke="#2a2e27" d="M5 42h1M29 68h1M34 70h1M34 71h1M38 71h1M33 80h1M33 82h1M27 90h1M31 90h1M39 90h1M42 90h1M27 92h1M53 95h1M51 101h1M58 104h1M55 106h1M58 106h1M53 107h1" />
<path stroke="#2d302a" d="M6 42h1M10 45h1M35 72h3M53 81h1" />
<path stroke="#30332d" d="M7 42h1M7 43h2M7 46h1M10 46h1M5 47h1M38 72h1M35 73h1M38 73h1" />
<path stroke="#2f322d" d="M8 42h1" />
<path stroke="#30322e" d="M10 42h1" />
<path stroke="#212320" d="M12 42h1" />
<path stroke="#282a27" d="M13 42h1M16 45h1" />
<path stroke="#454d3a" d="M14 42h1" />
<path stroke="#474935" d="M16 42h1" />
<path stroke="#2e312b" d="M6 43h1M5 44h3M9 44h1M9 47h1M10 49h1M36 73h1M22 80h1M52 81h1" />
<path stroke="#2c302a" d="M9 43h1" />
<path stroke="#353933" d="M10 43h1M13 47h1M9 52h1M41 71h1M37 74h1M5 78h1M36 78h1M38 78h1M19 79h1M26 79h1M53 83h1M34 87h1M34 88h1M36 88h1M48 90h1M59 90h1M52 103h1M59 109h1" />
<path stroke="#1e211b" d="M11 43h1M11 45h1M14 51h1M0 52h1M0 53h1M17 53h1M1 60h1M27 62h1M7 64h1M5 65h1M9 68h1M5 69h2M5 70h1M16 71h1M0 72h1M2 73h1M12 74h1M18 74h1M20 74h1M14 75h1M33 75h1M3 76h1M42 76h1M11 77h2M31 77h1M22 78h1M46 78h1M28 79h1M31 79h1M11 80h1M14 80h1M16 80h1M44 81h1M0 82h1M11 82h1M27 82h1M45 83h1M57 83h1M63 83h1M59 84h1M63 84h1M0 85h1M47 85h1M54 87h1M63 89h1M28 103h1M36 103h1M5 104h1M27 104h1M32 104h2M37 104h1M10 109h1M16 109h1M20 109h1M25 109h1M48 109h1M8 110h3M13 110h1M22 110h1M24 110h1M6 111h1M8 111h2M11 111h1M13 111h2M16 111h1M18 111h1M20 111h1M32 111h1M0 112h1M4 112h1M13 112h1M15 112h1M20 112h1M29 112h2M41 112h1M62 112h2M6 113h1M20 113h2M26 113h1M30 113h1M58 113h1M7 114h1M32 114h1M37 114h1M40 114h1M29 115h1M40 115h2M32 116h2M40 116h1M37 119h1M37 120h1M37 121h1M36 125h1M37 126h1" />
<path stroke="#30322f" d="M13 43h1" />
<path stroke="#394038" d="M14 43h1" />
<path stroke="#425242" d="M15 43h1" />
<path stroke="#485d48" d="M16 43h1M18 43h1M22 51h1" />
<path stroke="#445644" d="M17 43h1" />
<path stroke="#465946" d="M19 43h1" />
<path stroke="#445544" d="M20 43h1" />
<path stroke="#242721" d="M1 44h1M1 45h1M0 46h1M12 47h1M2 48h1M4 49h1M22 63h1M29 67h1M32 69h1M56 82h1M50 124h1M53 125h1" />
<path stroke="#262923" d="M2 44h1M5 48h1M18 60h1M13 66h1M17 69h1M55 81h1M51 124h1M53 124h1" />
<path stroke="#30342e" d="M8 44h1" />
<path stroke="#323530" d="M10 44h1M14 47h1M15 48h2" />
<path stroke="#1b1e19" d="M11 44h1M12 46h1M21 55h1M28 61h1M29 65h1M39 70h1M43 72h1M49 73h1M44 74h1M46 74h1M49 75h1M37 123h1M37 124h2" />
<path stroke="#141812" d="M12 44h1M17 58h1M20 60h1M18 63h1M24 65h1M51 72h1M22 114h1M12 120h1M25 121h1M26 122h1" />
<path stroke="#21221f" d="M15 44h1" />
<path stroke="#202020" d="M16 44h1" />
<path stroke="#212121" d="M17 44h1" />
<path stroke="#303030" d="M21 44h1" />
<path stroke="#242424" d="M22 44h1" />
<path stroke="#232720" d="M2 45h1M1 47h1M3 47h1M1 48h1M3 48h1M1 49h1M6 50h1M2 51h1M0 55h1M1 56h1M3 56h1M2 57h1M1 59h1M7 59h1M11 60h1M15 61h1M11 63h1M1 64h1M14 65h1M0 66h1M16 67h1M12 68h1M11 69h1M10 73h1M29 73h1M4 76h1M43 78h1M29 80h1M29 81h1M56 81h1M30 82h3M12 83h1M30 83h1M18 84h1M37 84h1M18 85h1M31 85h1M53 85h1M62 85h1M31 86h1M6 87h1M5 88h3M26 88h1M28 88h1M45 88h1M63 88h1M28 89h1M47 89h1M16 91h2M30 91h1M28 93h1M31 93h1M35 93h1M41 93h1M18 94h1M28 94h1M13 95h1M24 95h1M28 95h1M35 95h1M26 96h1M35 96h1M51 97h1M33 102h1M5 103h1M35 103h1M10 104h2M31 104h1M14 105h1M17 106h1M20 107h1M23 107h1M27 108h1M40 108h1M50 108h1M2 109h1M31 109h1M37 109h1M50 109h1M60 109h1M33 110h1M38 110h1M40 111h2M50 111h2M53 112h1M61 112h1M47 123h1M48 124h1" />
<path stroke="#22261f" d="M3 45h1M2 46h2M1 50h1M7 51h1M10 55h1M1 57h1M10 59h1M3 60h1M0 61h1M22 61h1M6 62h1M0 65h1M15 67h1M0 69h1M11 70h1M2 71h1M13 71h1M30 71h1M8 73h1M0 74h1M22 75h1M41 75h1M6 76h1M41 76h1M41 77h1M41 78h1M45 78h1M32 79h1M1 80h1M19 81h1M31 81h1M15 82h1M28 83h1M61 85h1M54 86h1M61 86h1M30 87h1M13 89h1M13 90h1M19 91h1M61 93h1M24 94h1M20 95h1M23 95h1M24 96h1M19 97h2M23 97h1M25 97h1M16 99h1M27 101h1M2 103h1M4 103h1M62 103h1M1 104h1M8 104h1M62 104h1M28 108h1M37 108h1M39 108h1M29 109h1M12 110h1M35 110h1M39 110h2M48 110h1M50 110h1M34 111h2M37 111h1M42 111h1M51 112h1M51 123h1" />
<path stroke="#2b2f28" d="M5 45h1M8 45h1M4 46h1M7 49h1M12 49h1M7 54h1M6 59h1M14 63h1M39 72h1M7 73h1M3 75h1M38 75h1M34 80h1M18 82h1M32 83h1M54 83h1M12 86h1M20 86h1M25 89h1M30 89h1M49 89h1M32 90h1M18 91h1M23 91h2M17 93h1M15 94h1M17 94h1M48 94h1M59 94h1M56 95h1M54 96h1M59 98h1M36 99h1M19 104h1M28 105h1M55 107h1M52 108h1M53 110h1M59 111h2" />
<path stroke="#2f322c" d="M6 45h1M6 47h1M8 47h1M8 49h1M15 51h1M53 82h1" />
<path stroke="#31342e" d="M7 45h1" />
<path stroke="#2c3029" d="M9 45h1M0 48h1M6 49h1M9 58h1M11 58h1M8 68h1M8 70h1M4 74h1M35 81h1M1 83h1M32 85h1M15 87h1M14 89h1M26 89h1M18 90h1M26 90h1M12 91h1M14 92h1M37 92h1M18 93h1M26 93h1M36 93h1M42 93h1M60 93h1M57 94h1M60 96h1M57 99h1M61 99h1M58 100h1M36 101h1M57 102h1M32 103h1M56 104h1M54 105h1M56 105h1M62 108h1M57 110h1" />
<path stroke="#151813" d="M12 45h1M16 49h1M24 59h1M26 64h2M51 73h1M51 75h1M57 77h1" />
<path stroke="#20241e" d="M13 45h1M12 51h1M12 53h1M1 55h2M1 58h1M1 61h1M8 61h1M5 63h1M9 64h1M1 67h1M1 68h1M9 69h1M10 70h1M5 71h1M12 72h2M9 74h1M19 75h1M5 76h1M40 76h1M43 76h1M13 77h1M22 77h1M40 77h1M19 78h1M29 79h1M46 79h1M19 80h1M23 81h1M45 81h1M12 82h1M58 83h1M12 84h1M17 84h1M15 85h1M1 86h1M11 86h1M14 86h1M17 86h1M53 86h1M62 86h1M49 88h1M10 91h1M3 103h1M2 104h1M14 107h1M18 107h1M50 107h1M13 108h1M16 108h1M0 109h1M4 109h3M9 109h1M11 109h1M26 109h1M0 110h2M4 110h4M11 110h1M16 110h1M30 110h1M32 110h1M44 110h3M49 110h1M12 111h1M21 111h1M24 111h1M33 111h1M44 111h2M48 111h1M2 112h1M22 112h1M28 112h1M43 112h1M46 112h3M5 113h1M28 113h2M57 113h1M26 114h1M31 114h1M34 114h1M38 114h1M35 115h1M48 122h2M47 124h1M40 126h1M44 126h2M40 127h1M42 127h4" />
<path stroke="#343633" d="M15 45h1" />
<path stroke="#383e38" d="M17 45h1M20 46h1" />
<path stroke="#0d0d0d" d="M18 45h1M58 73h1M58 74h1M61 74h1M59 75h1" />
<path stroke="#272727" d="M19 45h1" />
<path stroke="#313131" d="M20 45h1M22 46h1" />
<path stroke="#2e2e2e" d="M21 45h1M23 46h1M23 47h1M22 50h1M23 51h1" />
<path stroke="#252525" d="M22 45h1M30 58h1" />
<path stroke="#32352f" d="M5 46h1M7 50h1M4 66h1M35 76h1M4 77h1M4 79h1M9 79h1M19 82h1M64 82h1M50 83h1M45 85h1M57 93h1" />
<path stroke="#2d312a" d="M6 46h1M8 46h2M10 47h1M4 48h1M13 48h1M15 50h1M9 53h1M9 54h1M2 67h1M8 72h1M9 73h1M3 74h1M35 74h1M4 75h1M9 75h2M10 77h1M34 79h1M35 80h1M23 82h1M38 82h1M47 82h1M47 83h1M55 83h1M32 84h1M16 85h1M37 85h1M31 87h1M51 87h1M12 88h1M30 88h1M58 88h1M15 90h1M17 90h1M24 90h1M48 91h1M61 91h1M12 92h1M17 92h1M30 92h1M60 92h1M21 93h1M27 93h1M58 94h1M12 95h1M56 97h1M53 101h1M58 101h1M56 102h1M54 104h1M53 105h1M55 105h1M54 106h1M63 106h1M53 108h1M57 108h1M54 109h1M62 109h1M55 110h1" />
<path stroke="#1d211b" d="M11 46h1M21 57h1M19 60h1M22 64h1M15 65h1M30 66h1M35 67h1M31 68h1M15 69h1M42 74h1M52 76h1M23 77h1M23 78h1M26 110h2M26 111h2M24 112h2M24 113h2M47 113h1M45 114h1M16 117h1M46 117h1M47 118h1M36 120h1M41 121h2M44 121h2M61 121h1M40 122h1M43 122h1M56 122h1M40 123h1M54 123h1M33 125h1M35 125h1M40 125h1M47 125h1M51 126h1M57 127h3" />
<path stroke="#1d201a" d="M13 46h2M20 57h1M20 58h1M28 62h1M34 66h1M45 74h1M49 74h1M52 74h1M29 75h1M46 75h1M59 78h1M46 113h1M46 114h1M44 116h1M45 124h1M37 125h1" />
<path stroke="#425241" d="M15 46h1M35 64h1" />
<path stroke="#313230" d="M16 46h1" />
<path stroke="#3f4b3f" d="M17 46h1M21 48h1" />
<path stroke="#333333" d="M21 46h1M18 47h3" />
<path stroke="#1f231d" d="M0 47h1M2 47h1M12 52h1M2 54h1M6 54h1M0 57h1M0 60h1M9 62h1M16 63h1M0 64h1M8 64h1M16 64h1M9 66h1M0 70h1M13 70h1M15 71h1M5 73h1M32 73h1M5 74h1M13 74h1M39 74h1M20 75h1M32 75h1M9 76h1M30 76h1M30 80h1M44 80h1M0 81h1M56 83h1M55 85h1M9 87h1M62 87h1M8 91h2M45 94h1M6 103h1M38 103h1M15 106h1M51 106h1M15 107h1M17 107h1M19 107h1M21 108h1M24 108h2M14 109h1M27 109h1M3 110h1M14 110h1M23 110h1M15 111h1M25 111h1M30 111h1M36 111h1M46 111h1M1 112h1M17 112h1M32 113h1M50 113h1M5 114h1M27 114h2M41 116h1M45 122h1M47 122h1M44 123h1M44 124h1M42 125h1" />
<path stroke="#2a2e28" d="M4 47h1M9 48h1M7 52h1M7 53h1M7 55h2M5 60h1M12 63h1M4 65h1M14 68h1M3 71h1M7 71h1M11 71h1M7 72h1M9 72h1M38 74h1M20 81h1M51 81h1M45 87h1M60 87h1M54 88h1M60 88h1M36 102h1M33 103h2M63 109h1" />
<path stroke="#323630" d="M7 47h1" />
<path stroke="#272a24" d="M11 47h1M9 49h1M17 60h1M13 67h1M32 71h1" />
<path stroke="#353833" d="M15 47h1" />
<path stroke="#343833" d="M16 47h1M36 65h1" />
<path stroke="#333432" d="M17 47h1" />
<path stroke="#343734" d="M21 47h1" />
<path stroke="#353835" d="M22 47h1" />
<path stroke="#566045" d="M48 47h1M52 59h1M60 61h1M63 61h1M61 63h1M55 64h1M60 64h1" />
<path stroke="#20241d" d="M8 48h1M12 48h1M11 49h1M0 51h1M19 59h1M22 60h1M13 69h1M30 70h1M29 74h1M42 77h1M43 81h1M41 82h1M18 87h1M11 88h1M43 89h1M30 93h1M13 94h1M22 94h1M15 95h2M22 95h1M17 96h1M28 96h1M30 96h1M21 97h1M29 97h1M30 98h1M24 100h1M62 100h1M24 101h1M23 104h1M29 104h1M10 105h2M13 105h1M46 106h1M60 106h1M12 107h1M6 108h1M23 112h1M27 112h1M40 112h1M49 112h2M23 113h1M16 116h1M57 122h1M45 123h1M41 124h2M43 125h2" />
<path stroke="#353934" d="M17 48h1" />
<path stroke="#333433" d="M18 48h1" />
<path stroke="#3a413a" d="M19 48h1" />
<path stroke="#3c463c" d="M20 48h1" />
<path stroke="#415041" d="M22 48h1" />
<path stroke="#425142" d="M23 48h1" />
<path stroke="#536141" d="M24 48h1" />
<path stroke="#21251e" d="M5 49h1M2 50h1M3 51h1M1 54h1M6 55h1M0 56h1M0 58h1M5 58h1M0 59h1M6 60h1M16 60h1M6 64h1M6 65h1M1 66h1M15 66h1M1 69h1M12 69h1M29 69h1M17 70h1M6 71h1M32 72h1M6 73h1M11 73h1M40 74h1M42 75h1M31 76h1M43 77h1M33 78h1M41 79h1M43 79h1M28 80h1M31 80h1M40 80h1M45 80h1M12 81h1M28 81h1M30 81h1M22 82h1M42 82h1M14 83h1M22 83h1M41 83h2M28 84h1M31 84h1M53 84h1M12 85h1M25 85h1M28 85h1M41 85h1M15 86h1M56 86h1M16 87h2M63 87h1M52 88h1M11 89h1M44 89h1M63 90h1M25 91h1M29 91h1M11 92h1M24 92h2M29 92h1M37 93h1M23 94h1M25 94h1M36 94h1M47 94h1M29 95h1M29 96h1M36 96h1M16 98h1M18 98h1M24 98h1M14 99h1M18 99h1M26 99h1M30 99h1M21 100h1M26 100h1M23 101h1M30 102h1M31 103h1M6 104h1M25 104h1M31 105h1M61 105h1M18 106h1M11 107h1M22 107h1M49 107h1M38 108h1M41 108h1M21 109h2M28 109h1M30 109h1M38 109h1M40 109h1M42 109h1M44 109h1M49 109h1M18 110h4M34 110h1M43 110h1M47 110h1M23 111h1M43 111h1M47 111h1M49 111h1M64 111h1M3 112h1M21 112h1M39 112h1M42 112h1M45 112h1M52 112h1M4 113h1M8 113h1M9 114h1M35 114h2M41 122h1M46 123h1M49 123h1M52 123h1M43 124h1M49 124h1M45 125h2M51 125h1" />
<path stroke="#171b14" d="M13 49h1M12 55h1M9 57h1M13 59h1M18 59h1M20 61h1M10 62h1M18 62h1M21 62h1M21 63h1M18 64h1M21 65h1M8 67h2M24 67h1M17 68h1M23 68h1M25 69h1M17 73h1M22 73h1M16 74h2M16 76h1M57 79h1M23 80h1M6 81h1M7 82h1M26 82h1M39 83h1M6 84h1M26 84h1M23 85h1M54 85h1M8 86h1M13 86h1M1 87h1M13 87h1M57 87h1M13 88h1M15 88h1M18 88h1M1 90h1M28 90h1M34 93h1M9 95h1M11 95h1M64 95h1M10 96h1M33 96h1M34 97h1M64 97h1M9 98h2M45 98h1M38 99h1M46 99h1M64 100h1M4 102h1M21 102h1M25 102h2M37 102h1M11 103h1M29 103h1M0 105h2M36 105h1M3 106h1M36 106h1M38 106h2M41 106h1M42 107h1M44 107h1M12 112h1M26 115h2M61 115h1M26 116h1M60 116h1M25 117h1M5 118h1M16 118h1M37 118h1M21 119h1M23 119h1M30 119h1M39 119h2M62 119h1M22 120h1M27 120h1M29 120h1M27 121h1" />
<path stroke="#161a13" d="M14 49h1M18 57h1M18 58h1M17 59h1M21 60h1M17 63h1M20 65h1M16 68h1M25 73h1M25 74h1M24 76h3M51 84h1M26 85h1M9 94h2M34 94h1M32 96h1M50 96h1M9 97h1M11 97h2M28 97h1M48 97h1M8 99h1M37 99h1M12 100h1M14 100h1M24 102h1M10 103h1M14 103h1M19 103h1M47 103h1M42 104h1M39 105h1M46 105h1M1 106h1M42 106h2M40 107h2M43 107h1M21 114h1M20 115h1M35 118h2M10 119h1M13 119h2M26 121h1M28 121h3M28 122h1M27 123h1M24 124h1" />
<path stroke="#262a24" d="M15 49h1M37 71h1" />
<path stroke="#131610" d="M17 49h1M47 72h2M48 74h1M50 74h1M56 77h1M54 78h1M63 80h1" />
<path stroke="#1b1b1b" d="M19 49h1M20 50h1M25 51h1M26 53h1" />
<path stroke="#111111" d="M21 49h1" />
<path stroke="#252922" d="M3 50h1M5 50h1M6 51h1M3 52h1M4 55h1M3 57h1M5 57h1M2 58h1M7 58h2M8 59h1M3 61h1M1 63h1M3 64h1M1 65h1M9 65h1M7 66h1M3 69h1M10 69h1M2 70h1M12 71h1M14 72h1M4 73h1M0 75h1M34 75h1M7 76h1M32 81h1M49 82h1M58 82h1M17 83h1M48 83h1M1 84h1M48 85h1M16 86h1M0 87h1M8 87h1M21 87h1M4 88h1M32 91h1M21 94h1M26 94h1M55 94h1M22 96h1M23 98h1M51 100h1M56 100h1M59 103h1M9 104h1M13 104h1M22 104h1M60 104h1M15 105h1M30 105h1M19 106h1M59 106h1M61 106h1M33 107h2M36 107h1M59 107h1M26 108h1M55 108h1M61 108h1M36 109h1M51 109h1M15 110h1M37 110h1M54 112h2M59 112h2M48 123h1" />
<path stroke="#262a23" d="M4 50h1M1 51h1M1 52h1M6 57h1M3 58h1M3 59h1M2 60h1M7 61h1M9 61h1M2 62h2M2 64h1M3 65h1M12 65h1M4 68h1M10 68h1M4 69h1M1 70h1M4 70h1M4 72h1M6 72h1M6 74h1M34 74h1M20 77h1M16 83h1M18 83h1M23 83h1M33 83h1M59 83h1M23 84h1M25 84h1M61 84h1M29 85h1M35 85h1M47 87h1M50 87h1M29 88h1M55 88h1M29 89h1M31 91h1M23 93h1M27 95h1M31 98h1M51 98h1M31 99h1M35 99h1M35 100h1M51 102h2M7 104h1M15 104h1M16 105h1M59 105h2M62 106h1M35 107h1M51 107h1M30 108h1M34 108h1M60 108h1M33 109h3M64 109h1M36 110h1M64 110h1M52 111h1M55 111h2M58 112h1" />
<path stroke="#3d493b" d="M8 50h1M21 81h1" />
<path stroke="#282b25" d="M9 50h1M1 53h2M5 53h1M3 54h1M9 59h1M2 61h1M2 63h1M4 63h1M11 64h2M7 65h1M12 66h1M3 67h1M2 69h1M3 70h1M4 71h1M9 71h1M14 71h1M3 73h1M1 74h1M0 76h2M8 76h1M34 78h1M33 79h1M16 82h1M61 83h1M47 84h1M56 84h1M55 86h1M7 87h1M23 105h2M20 106h7M28 106h4M53 106h1M25 107h1M31 107h1M33 108h1M63 110h1M53 111h2M61 111h2M50 123h1" />
<path stroke="#333731" d="M10 50h1M10 51h2M8 52h1M15 52h1M8 53h1M8 54h1M3 66h1M37 73h1M36 76h1M35 78h1M3 79h1M5 79h1M25 81h1M19 83h1M49 84h1M47 86h1M51 89h1M64 106h1" />
<path stroke="#31352e" d="M11 50h1M11 52h1M6 66h1M35 75h2M18 77h1M37 77h1M37 78h1M37 80h1M35 82h2M20 83h1M36 83h1M38 84h1M55 84h1M43 86h1M31 88h1M57 88h1M16 89h1M18 89h1M23 89h1M40 90h1M58 90h1M22 92h1M54 97h1M60 99h1M57 100h1M61 100h1M61 101h1M53 102h1M55 103h2M54 110h1" />
<path stroke="#242821" d="M12 50h1M2 52h1M3 53h1M5 54h1M11 57h1M2 59h1M0 62h1M5 62h1M3 63h1M4 64h1M10 64h1M0 67h1M3 68h1M1 71h1M8 71h1M2 76h1M45 77h1M45 79h1M32 80h1M31 83h1M35 84h1M17 85h1M20 87h1M36 89h1M46 90h1M11 91h1M36 92h1M25 93h1M25 95h2M52 95h1M52 96h1M22 98h1M31 100h1M62 101h1M12 104h1M63 104h2M52 106h1M21 107h1M37 107h1M35 108h2M49 108h1M1 109h1M51 110h1M39 111h1M56 112h2" />
<path stroke="#1e221c" d="M13 50h1M17 52h1M15 64h1M16 66h1M26 67h1M30 68h1M26 70h1M30 72h1M41 74h1M43 74h1M51 77h1M51 78h2M28 110h1M26 112h1M48 113h2M44 114h1M17 116h1M38 121h3M59 121h1M42 122h1M44 122h1M63 122h1M39 124h2M39 125h1M41 125h1M50 125h1M57 125h1M32 126h1M50 126h1M52 126h1M54 126h1M59 126h1M53 127h3M61 127h1" />
<path stroke="#151913" d="M16 50h1M14 52h1M13 58h4M14 59h1M21 61h1M14 62h2M17 62h1M20 63h1M23 64h1M18 65h2M22 66h1M5 67h1M21 68h1M24 71h1M17 72h1M24 72h1M13 73h1M26 74h1M26 75h1M21 77h1M24 77h1M33 77h2M17 78h2M25 78h2M17 79h1M5 81h1M8 81h2M9 82h1M9 83h1M24 83h1M62 83h1M2 84h1M8 84h1M6 85h1M44 85h1M44 86h1M52 86h1M58 86h2M10 92h1M45 97h1M37 100h1M2 102h1M38 102h1M38 105h1M9 112h3M0 113h1M9 113h1M15 113h1M17 113h1M2 115h1M17 115h1M19 117h1M24 117h1M27 117h1M8 118h2M18 118h1M23 118h1M31 119h2M19 120h1M26 120h1M30 120h1M27 122h1M26 123h1" />
<path stroke="#232622" d="M18 50h1M34 65h1" />
<path stroke="#2d2d2d" d="M23 50h1" />
<path stroke="#1b1f18" d="M4 51h1M10 56h2M6 61h1M12 62h1M9 63h1M7 68h1M24 68h1M9 70h1M10 72h1M15 72h1M19 72h2M22 72h1M0 73h1M15 73h1M2 74h1M19 74h1M23 74h1M12 75h1M17 75h1M30 75h1M11 76h2M44 76h1M14 77h1M16 77h1M19 77h1M39 77h1M44 77h1M11 78h2M20 78h1M28 78h1M27 79h1M2 80h1M12 80h1M27 80h1M39 80h1M17 81h1M27 81h1M45 82h1M62 82h1M11 83h1M27 83h1M40 83h1M43 83h1M45 84h1M4 85h1M19 85h2M42 85h1M59 85h1M6 86h1M57 86h1M14 87h1M46 87h1M64 87h1M3 88h1M21 88h1M23 88h1M51 88h1M0 89h1M10 90h1M64 91h1M13 93h1M39 93h1M63 93h1M38 94h1M40 94h1M46 94h1M63 94h1M45 95h1M13 96h1M16 97h1M27 97h1M32 97h1M13 98h1M15 98h1M62 98h1M11 99h2M19 99h1M34 99h1M62 99h1M18 100h2M21 101h1M27 102h1M64 102h1M17 103h1M24 103h1M26 103h1M30 103h1M0 104h1M34 104h1M2 105h2M35 105h1M4 106h1M6 106h1M1 107h1M3 107h1M7 107h2M9 108h2M46 109h1M2 110h1M0 111h2M10 111h1M19 111h1M5 112h1M14 112h1M19 112h1M36 112h1M64 112h1M3 113h1M19 113h1M31 113h1M55 113h1M4 114h1M8 114h1M12 114h1M19 114h1M33 114h1M50 114h1M52 114h4M57 114h1M60 114h1M62 114h1M13 115h1M50 115h1M54 115h1M57 115h1M62 115h1M10 116h1M12 116h4M31 116h1M35 116h3M39 116h1M54 116h1M57 116h1M2 117h2M33 117h1M35 117h2M53 117h1M56 117h1M60 117h1M32 118h1M54 118h1M56 118h1M58 118h2M61 118h1M49 119h1M52 119h1M54 119h1M56 119h1M60 119h2M47 120h1M49 120h1M51 120h1M53 120h1M59 120h1M49 121h1M51 121h1M53 121h2M53 122h1" />
<path stroke="#1f221c" d="M5 51h1M6 52h1M0 54h1M2 56h1M5 56h1M17 56h1M23 60h1M11 61h1M24 61h1M0 63h1M10 63h1M5 64h1M28 66h2M11 67h1M0 68h1M37 68h1M6 70h1M15 70h1M36 70h1M40 70h1M0 71h1M17 71h1M33 71h1M40 72h1M33 74h1M13 75h1M23 75h1M31 75h1M43 75h1M34 76h1M39 76h1M30 77h1M44 78h1M44 79h1M11 81h1M48 82h1M63 82h1M0 83h1M11 85h1M8 88h1M10 88h1M44 88h1M50 88h1M64 88h1M10 89h1M11 90h1M7 91h1M44 94h1M32 105h1M16 106h1M4 107h1M15 108h1M7 109h2M19 109h1M45 109h1M17 110h1M25 110h1M2 111h1M17 111h1M22 111h1M31 111h1M16 112h1M18 112h1M31 112h1M34 112h1M44 112h1M27 113h1M33 113h1M39 113h1M41 113h1M51 113h2M10 114h1M39 114h1M42 114h1M31 115h1M33 115h1M48 119h1M38 120h1M58 120h1M55 121h1M57 121h2M60 121h1M46 122h1M64 123h1M34 126h1M36 126h1M52 127h1M60 127h1" />
<path stroke="#30342d" d="M8 51h1M10 53h2M15 54h1M5 55h1M9 55h1M8 62h1M36 74h1M10 76h1M38 77h1M0 80h1M34 81h1M37 81h1M19 84h1M34 84h1M42 87h1M52 87h1M59 88h1M24 89h1M44 90h1M26 91h1M54 99h1M52 100h1M59 100h1M57 101h1M55 102h1M58 103h1M55 104h1M54 107h1M57 107h1M63 108h1" />
<path stroke="#2e322b" d="M9 51h1M5 52h1M10 52h1M11 59h1M7 62h1M8 69h1M11 72h1M3 77h1M16 81h1M22 81h1M50 81h1M17 82h1M20 82h1M25 83h1M38 83h1M51 83h1M33 86h1M64 86h1M56 88h1M15 89h1M48 89h1M50 89h1M12 90h1M23 90h1M41 90h1M15 91h1M55 91h1M15 92h2M18 92h1M31 92h1M34 92h1M16 93h1M20 93h1M16 94h1M58 95h2M56 96h3M58 97h4M54 98h1M60 98h1M52 99h1M59 99h1M59 102h1M57 103h1M52 105h1M64 105h1M62 107h1M58 108h1M55 109h1M56 110h1" />
<path stroke="#1d211a" d="M13 51h1M13 52h1M6 53h1M9 56h1M15 60h1M11 66h1M1 75h2M16 75h1M18 75h1M21 75h1M32 76h1M29 77h1M15 81h1M64 83h1M14 84h1M14 85h1M27 85h1M23 86h1M49 87h1M9 88h1M41 94h1M47 95h1M62 95h1M15 99h1M20 99h3M20 100h1M30 100h1M28 102h1M34 102h1M4 104h1M38 104h1M33 105h1M34 106h1M5 107h1M10 107h1M13 107h1M16 107h1M4 108h2M12 108h1M14 108h1M17 108h3M22 108h1M48 108h1M3 109h1M15 109h1M29 110h1M31 110h1M5 111h1M7 111h1M32 112h1M35 112h1M34 113h1M53 113h2M56 113h1M29 114h2M41 114h1M64 115h1M63 116h1M38 117h1M57 120h1" />
<path stroke="#1a1d17" d="M16 51h1M16 61h1M23 61h1M25 63h1M33 66h1M26 68h1M34 68h1M16 69h1M33 69h1M24 74h1M28 74h1M47 114h1M1 115h1M47 115h1M45 116h1M12 118h1M30 118h1M41 118h1M43 119h1M45 119h1M28 120h1M35 120h1M35 121h1M46 121h1M35 123h1M57 123h1M60 125h1" />
<path stroke="#191c16" d="M17 51h1M19 57h1M19 58h1M21 59h1M19 62h2M15 63h1M24 63h1M17 64h1M25 64h1M35 69h1M28 72h1M44 75h1M57 81h1M64 81h1M57 82h1M2 113h1M23 114h1M48 114h1M44 115h1M19 116h1M46 116h2M40 117h1M42 117h1M29 118h1M40 118h1M45 118h1M27 119h1M34 119h2M41 119h2M44 119h1M64 119h1M44 120h1M46 120h1M31 121h1M34 121h1M36 121h1M37 122h1M39 122h1M33 124h1M62 124h1M30 125h1M30 126h1M61 126h1" />
<path stroke="#3a4339" d="M18 51h1" />
<path stroke="#2c2e2a" d="M19 51h1M31 60h2M31 61h1M35 65h1" />
<path stroke="#101010" d="M21 51h1M52 71h1M56 73h1M56 74h1M62 74h1M58 75h1" />
<path stroke="#181c15" d="M4 52h1M14 53h1M16 57h1M4 59h1M4 60h1M13 60h1M8 63h1M19 63h1M20 64h1M24 64h1M22 65h1M10 66h1M15 68h1M25 68h1M28 69h1M16 73h1M18 73h2M21 73h1M23 73h1M24 75h1M28 75h1M15 76h1M17 76h1M19 76h2M23 76h1M28 76h1M13 78h2M16 78h1M7 80h2M58 81h1M6 83h1M46 83h1M0 84h1M3 84h2M11 84h1M2 85h2M7 85h1M62 88h1M38 100h1M42 100h1M38 101h1M35 104h1M64 113h1M11 114h1M15 115h1M18 115h2M28 115h1M48 115h2M59 115h2M0 116h2M5 116h1M55 116h1M58 116h2M61 116h1M4 117h1M6 117h1M26 117h1M32 117h1M49 117h2M62 117h1M64 117h1M6 118h2M14 118h2M24 118h2M34 118h1M50 118h2M11 119h2M22 119h1M24 119h1M28 119h2M33 119h1M21 120h1M34 120h1M42 120h2M45 120h1M52 120h1M36 122h1M38 122h1M54 122h1" />
<path stroke="#333630" d="M16 52h1M15 53h1M5 66h1M7 75h1M37 76h1M2 77h1M35 77h2M1 78h2M6 78h1M45 86h1M51 90h1M54 91h1M54 93h1M63 107h1M58 109h1" />
<path stroke="#425340" d="M18 52h1M20 54h1M15 56h1" />
<path stroke="#475d46" d="M19 52h1" />
<path stroke="#363a35" d="M20 52h1" />
<path stroke="#20211e" d="M22 52h1M23 55h1" />
<path stroke="#2f2f2f" d="M23 52h1" />
<path stroke="#1c1c1c" d="M25 52h1M25 53h1M27 54h1M27 55h1M63 73h1" />
<path stroke="#161a14" d="M4 53h1M4 54h1M13 54h1M13 55h1M6 56h1M13 57h3M17 57h1M4 61h1M6 68h1M18 72h1M23 72h1M21 76h1M8 77h1M7 81h1M24 81h1M14 82h1M7 83h2M7 84h1M50 84h1M8 85h2M2 86h1M49 86h2M10 87h1M44 95h1M41 100h1M37 101h1M39 103h1M37 105h1M2 106h1M39 107h1M6 112h1M16 113h1M24 114h1M64 114h1M27 116h2M30 116h1M9 117h1M10 118h1M28 118h1M33 118h1M38 118h1M20 119h1M20 120h1" />
<path stroke="#1c2019" d="M13 53h1M17 54h1M11 55h1M4 57h1M6 58h1M12 61h1M1 62h1M4 67h1M10 67h1M5 68h1M5 72h1M21 72h1M8 74h1M22 74h1M32 74h1M15 75h1M40 75h1M13 76h1M32 77h1M21 78h1M29 78h2M32 78h1M30 79h1M46 80h1M46 81h1M43 82h2M46 82h1M44 83h1M1 85h1M63 85h1M0 86h1M51 86h1M19 87h1M53 87h1M25 88h1M61 88h1M64 89h1M62 90h1M6 91h1M63 92h1M11 93h1M11 94h1M49 95h2M14 96h1M20 96h1M14 97h1M62 97h1M17 98h1M32 98h1M55 98h1M0 99h1M17 99h1M29 99h1M16 100h1M29 100h1M63 100h1M22 101h1M46 101h1M64 101h1M29 102h1M7 103h2M21 103h1M37 103h1M3 104h1M26 104h1M28 104h1M5 105h1M8 105h1M34 105h1M42 105h2M5 106h1M13 106h1M44 106h1M48 106h1M2 107h1M6 107h1M0 108h4M11 108h1M20 108h1M23 108h1M47 108h1M12 109h2M17 109h2M23 109h1M47 109h1M4 111h1M29 111h1M33 112h1M7 113h1M35 113h2M40 113h1M42 113h3M59 113h4M6 114h1M25 114h1M51 114h1M56 114h1M8 115h1M10 115h1M12 115h1M30 115h1M32 115h1M34 115h1M36 115h4M63 115h1M11 116h1M34 116h1M38 116h1M64 116h1M37 117h1M39 117h1M48 118h1M63 118h2M38 119h1M53 119h1M59 119h1M54 120h3M52 121h1M56 121h1M46 124h1" />
<path stroke="#4e6b4c" d="M16 53h1M57 89h1M42 91h1" />
<path stroke="#496148" d="M18 53h1" />
<path stroke="#4b654a" d="M19 53h1" />
<path stroke="#577352" d="M20 53h1" />
<path stroke="#0f110e" d="M21 53h1M51 71h1" />
<path stroke="#0e100d" d="M22 53h1M57 75h1" />
<path stroke="#2e302d" d="M23 53h1" />
<path stroke="#292d27" d="M11 54h1M5 59h1M5 61h1M13 61h1M10 65h1M29 70h1M34 72h1M5 75h1M5 77h1M15 84h1M54 84h1M54 95h1M29 105h1" />
<path stroke="#1a1e17" d="M12 54h1M14 55h1M17 55h1M7 56h1M4 58h1M12 59h1M2 72h1M12 73h1M14 73h1M14 74h1M21 74h1M39 75h1M18 76h1M22 76h1M29 76h1M33 76h1M9 77h1M31 78h1M44 84h1M7 86h1M44 87h1M20 91h1M39 94h1M63 96h1M18 97h1M12 98h1M25 98h1M33 99h1M33 100h2M63 102h1M25 103h1M38 107h1M24 109h1M9 115h1M11 115h1M2 116h1M51 116h1M56 116h1M1 117h1M8 117h1M55 117h1M49 118h1M55 118h1M60 118h1M51 119h1M55 119h1M48 120h1M50 120h1M60 120h1M50 121h1M51 122h2M55 122h1" />
<path stroke="#141711" d="M14 54h1M14 56h1M16 59h1M7 63h1M23 67h1M22 68h1M23 69h1M36 69h2M16 70h1M23 71h1M24 73h1M6 77h1M26 77h1M55 78h1M12 79h1M15 79h2M53 79h1M56 79h1M10 80h1M20 80h1M4 81h1M10 83h1M10 85h1M9 92h1M46 96h1M7 102h1M14 113h1M17 114h1M22 115h3M7 116h1M9 116h1M25 116h1M29 116h1M13 117h1M20 117h2M29 117h1M11 118h1M19 118h3M27 118h1M25 119h1M18 120h1M64 120h1M18 121h3" />
<path stroke="#3a4338" d="M16 54h1M19 54h1M7 79h2M38 79h1M60 83h1M39 85h1M36 86h1M33 89h1M35 91h1M45 91h1M47 91h1M50 91h1" />
<path stroke="#547150" d="M18 54h1M59 89h1M55 92h1" />
<path stroke="#121410" d="M21 54h1M44 70h1M54 75h1M56 76h1" />
<path stroke="#3c483a" d="M15 55h1M59 92h1" />
<path stroke="#5f7b54" d="M16 55h1M37 90h1M57 92h1" />
<path stroke="#5a7652" d="M18 55h1" />
<path stroke="#40503e" d="M19 55h1M53 89h1M39 92h1M46 93h1M48 93h1" />
<path stroke="#363c34" d="M20 55h1" />
<path stroke="#151812" d="M4 56h1M10 57h1M15 59h1M23 62h1M21 66h1M21 67h1M33 68h1M25 71h1M16 72h1M57 78h1M11 79h1M54 79h2M5 80h1M9 80h1M10 81h1M26 81h1M9 84h2M62 84h1M64 84h1M46 85h1M49 85h1M10 86h1M45 96h1M8 112h1M25 115h1M6 116h1M10 117h1M28 117h1M22 118h1M26 118h1M29 123h1M32 123h1M27 124h1M63 125h1M63 126h1M31 127h1M33 127h1" />
<path stroke="#191d16" d="M8 56h1M10 58h1M12 58h1M12 60h1M14 60h1M4 62h1M11 62h1M6 67h2M25 67h1M24 69h1M20 73h1M11 74h1M15 74h1M11 75h1M14 76h1M15 77h1M17 77h1M28 77h1M15 78h1M18 79h1M39 79h1M6 80h1M15 80h1M26 80h1M14 81h1M63 81h1M8 82h1M2 83h2M5 84h1M27 84h1M42 84h1M5 85h1M4 86h2M28 86h1M63 86h1M28 87h1M61 87h1M14 88h1M16 88h1M1 89h1M42 89h1M4 90h1M28 91h1M33 92h1M46 95h1M55 95h1M17 97h1M63 97h1M11 98h1M14 98h1M26 98h1M1 99h1M10 99h1M40 99h1M46 100h1M34 101h1M27 103h1M36 104h1M41 104h1M4 105h1M6 105h1M8 106h2M11 106h2M35 106h1M37 106h1M46 107h1M42 108h1M46 108h1M3 111h1M18 113h1M63 113h1M3 114h1M58 114h2M61 114h1M63 114h1M6 115h2M14 115h1M51 115h3M55 115h2M58 115h1M3 116h2M49 116h2M52 116h2M62 116h1M5 117h1M7 117h1M30 117h1M34 117h1M51 117h2M54 117h1M57 117h3M61 117h1M63 117h1M39 118h1M52 118h2M57 118h1M62 118h1M50 119h1M57 119h2M47 121h2M50 122h1" />
<path stroke="#131710" d="M12 56h1M12 57h1M6 63h1M19 68h1M24 70h2M20 71h1M27 77h1M27 78h1M47 78h1M3 80h2M2 81h2M13 84h1M39 84h1M13 85h1M51 85h2M9 86h1M58 87h1M0 90h1M7 92h1M33 93h1M1 94h1M33 95h1M38 95h1M40 97h1M49 97h1M55 97h1M37 98h1M40 98h1M64 98h1M7 99h1M9 99h1M42 99h1M64 99h1M48 100h1M20 101h1M5 102h1M8 102h1M15 102h1M18 102h2M40 102h1M43 102h1M48 102h1M43 103h1M7 112h1M18 114h1M24 116h1M23 117h1M17 122h1" />
<path stroke="#10140d" d="M13 56h1M13 62h1M20 69h2M21 70h1M19 71h1M21 71h1M14 79h1M13 80h1M10 82h1M46 84h1M22 85h1M3 87h1M2 89h1M7 89h2M9 90h1M2 91h1M3 92h2M6 92h1M8 92h1M2 93h3M6 93h1M8 94h1M1 95h1M5 95h1M7 95h1M32 95h1M37 95h1M39 95h1M43 95h1M2 96h1M6 96h1M42 96h2M1 97h2M37 97h1M39 97h1M2 98h6M2 99h3M39 99h1M41 99h1M10 100h1M39 100h1M45 100h1M49 100h1M4 101h1M15 101h1M41 101h2M45 101h1M12 102h1M42 102h1M45 102h1M40 103h1M43 104h1M48 104h1M14 114h1M3 115h1" />
<path stroke="#597552" d="M16 56h1" />
<path stroke="#637e56" d="M18 56h1" />
<path stroke="#3b4539" d="M19 56h1M38 86h1M39 87h1" />
<path stroke="#41513f" d="M20 56h1M59 82h1" />
<path stroke="#3d4a3c" d="M21 56h1M10 78h1" />
<path stroke="#11140e" d="M22 56h1M18 61h1M19 66h2M27 68h1M45 71h1M48 73h1M27 74h1M27 75h1M47 75h1M54 76h1M60 78h1M59 79h1M59 80h2M61 81h1M2 114h1M16 119h1M16 120h1M3 121h1M6 121h1M19 122h3M20 123h1" />
<path stroke="#272b24" d="M8 57h1M8 60h1M10 61h1M13 64h1M8 66h1M8 75h1M18 81h1M25 82h1M30 86h1M32 86h1M4 87h1M22 87h1M46 89h1M27 94h1M35 98h1M62 102h1M27 106h1M33 106h1M24 107h1M26 107h5M32 107h1M29 108h1M31 108h2M32 109h1M59 110h2M62 110h1M57 111h1" />
<path stroke="#181b15" d="M22 57h1M25 65h1M26 66h1M51 76h1M58 78h1M39 81h1M3 82h1M6 82h1M4 83h2M40 84h1M19 88h1M22 88h1M3 90h1M64 90h1M62 91h1M62 92h1M64 93h1M10 95h1M63 95h1M27 96h1M38 96h1M10 97h1M46 97h1M25 99h1M17 100h1M22 102h1M15 103h1M18 103h1M7 105h1M49 106h1M45 107h1M43 108h2M63 119h1M32 121h1M63 121h1M31 122h2M29 124h2M32 124h1M58 124h2M64 125h1" />
<path stroke="#1f1f1f" d="M29 57h1" />
<path stroke="#555f44" d="M62 57h1M57 60h1" />
<path stroke="#1b1e18" d="M21 58h1M22 59h1M16 62h1M21 64h1M17 65h1M17 66h1M25 66h1M26 69h1M28 70h1M26 71h1M28 71h1M33 72h1M28 73h1M30 73h1M31 74h1M25 75h1M46 77h1M1 113h1M22 113h1M45 113h1M49 114h1M0 115h1M45 115h1M43 116h1M48 116h1M14 117h2M17 117h2M31 117h1M41 117h1M45 117h1M48 117h1M13 118h1M31 118h1M42 118h3M46 118h1M36 119h1M46 119h1M38 123h2" />
<path stroke="#1c201a" d="M22 58h1M36 68h1M46 76h1M59 123h2M34 125h1M58 125h1" />
<path stroke="#11130f" d="M25 58h1M45 69h2M42 70h2M50 71h1" />
<path stroke="#1e1f1c" d="M27 58h1" />
<path stroke="#222421" d="M29 58h1" />
<path stroke="#51553f" d="M51 58h1M62 66h1" />
<path stroke="#818f5d" d="M53 58h1" />
<path stroke="#6e8156" d="M54 58h1" />
<path stroke="#131711" d="M23 59h1M23 63h1M18 66h1M23 66h1M19 67h1M38 69h2M27 71h1M47 71h2M26 73h1M47 73h1M50 75h1M48 76h1M53 77h1M50 78h1M53 78h1M52 79h1M61 79h3M54 80h3M58 80h1M62 81h1M21 115h1M0 117h1M17 118h1M26 119h1M10 120h2M23 120h3M31 120h1M62 120h2M10 121h1M23 121h2M64 121h1M22 122h4M21 123h3M25 123h1M30 127h1" />
<path stroke="#181b16" d="M25 59h1M25 62h1M26 63h2M46 71h1M45 73h2M52 73h1M35 127h1" />
<path stroke="#252724" d="M28 59h1" />
<path stroke="#2b2d2a" d="M29 59h1M29 60h1" />
<path stroke="#282828" d="M31 59h1" />
<path stroke="#637750" d="M45 59h1" />
<path stroke="#5c6d4c" d="M53 59h1" />
<path stroke="#1e201c" d="M24 60h1M40 66h1M36 67h1M39 68h1M38 127h1" />
<path stroke="#27291b" d="M34 60h1" />
<path stroke="#2e2f21" d="M35 60h1" />
<path stroke="#3f3d33" d="M37 60h1M43 65h1" />
<path stroke="#75885a" d="M38 60h1" />
<path stroke="#819360" d="M39 60h1" />
<path stroke="#5b6b4b" d="M53 60h1" />
<path stroke="#121610" d="M17 61h1M19 61h1M23 65h1M24 66h1M27 69h1M27 70h1M25 72h1M27 72h1M27 73h1M41 73h1M50 76h1M25 77h1M52 77h1M60 79h1M57 80h1M62 80h1M20 116h1M15 120h1M21 121h1" />
<path stroke="#222420" d="M27 61h1M33 61h1M38 67h1" />
<path stroke="#3b3d33" d="M34 61h1" />
<path stroke="#4d5c41" d="M37 61h1" />
<path stroke="#55694a" d="M38 61h1M41 62h1M41 63h1" />
<path stroke="#505f46" d="M39 61h1" />
<path stroke="#5c7450" d="M40 61h1M39 62h1" />
<path stroke="#74875a" d="M41 61h1" />
<path stroke="#5e704d" d="M64 61h1M58 64h1" />
<path stroke="#1a1e18" d="M24 62h1M27 66h1M31 66h1M35 68h1M37 70h1M49 77h1M48 78h1M34 123h1M58 123h1M31 124h1M34 124h2M59 125h1M63 127h2" />
<path stroke="#2e302c" d="M31 62h1" />
<path stroke="#394138" d="M32 62h1M37 65h1" />
<path stroke="#343733" d="M33 62h1" />
<path stroke="#5a7653" d="M34 62h1" />
<path stroke="#678055" d="M35 62h2" />
<path stroke="#718958" d="M37 62h1" />
<path stroke="#617c52" d="M38 62h1" />
<path stroke="#454839" d="M40 62h1" />
<path stroke="#546649" d="M42 62h1" />
<path stroke="#404134" d="M43 62h1" />
<path stroke="#586547" d="M61 62h1M47 64h1" />
<path stroke="#545c43" d="M62 62h1M64 62h1" />
<path stroke="#778f5f" d="M28 63h1" />
<path stroke="#758c5e" d="M29 63h3" />
<path stroke="#758c5f" d="M32 63h1M35 63h1" />
<path stroke="#768e5f" d="M33 63h2" />
<path stroke="#728b5d" d="M36 63h1" />
<path stroke="#778e5c" d="M37 63h1" />
<path stroke="#7a905c" d="M38 63h2" />
<path stroke="#7d8f5e" d="M40 63h1" />
<path stroke="#576b4c" d="M42 63h1M45 64h1" />
<path stroke="#48503d" d="M43 63h1" />
<path stroke="#322f26" d="M44 63h1" />
<path stroke="#2c2a20" d="M45 63h1M47 67h1" />
<path stroke="#1c1f19" d="M19 64h1M16 65h1M17 67h1M12 70h1M33 73h1M40 73h1M30 74h1M28 111h1M20 114h1M43 114h1M42 115h2M46 115h1M18 116h1M42 116h1M43 117h2M47 117h1M47 119h1M39 120h3M43 121h1M41 123h3M53 123h1M55 123h1M48 125h2" />
<path stroke="#435541" d="M29 64h1M61 89h1M40 92h2M51 94h1" />
<path stroke="#445642" d="M30 64h1M42 92h1" />
<path stroke="#475c46" d="M31 64h1M55 82h1" />
<path stroke="#455a44" d="M32 64h1" />
<path stroke="#425342" d="M33 64h1M36 64h1" />
<path stroke="#404d3f" d="M34 64h1M38 65h1" />
<path stroke="#485e47" d="M37 64h1" />
<path stroke="#55704d" d="M38 64h1" />
<path stroke="#5e7952" d="M39 64h1" />
<path stroke="#5c774f" d="M40 64h1" />
<path stroke="#516047" d="M41 64h1M44 66h1M46 66h1" />
<path stroke="#586f4d" d="M42 64h1" />
<path stroke="#5f7651" d="M43 64h2" />
<path stroke="#526347" d="M46 64h1" />
<path stroke="#596548" d="M54 64h1" />
<path stroke="#5d6f4d" d="M59 64h1" />
<path stroke="#6f8256" d="M64 64h1" />
<path stroke="#1a1d18" d="M28 65h1M30 65h1M49 71h1M49 72h1M34 127h1" />
<path stroke="#20231d" d="M33 65h1M32 67h1M34 67h1M30 69h1M45 76h1M62 77h1M49 78h1M60 122h2M61 123h1M63 123h1M56 124h1M31 125h2M33 126h1M35 126h1M38 126h2M41 126h3M55 126h1M58 126h1" />
<path stroke="#3b443a" d="M39 65h1" />
<path stroke="#434f3c" d="M40 65h1" />
<path stroke="#454f3a" d="M41 65h1" />
<path stroke="#474e3c" d="M42 65h1" />
<path stroke="#3e3c33" d="M44 65h1" />
<path stroke="#3f3e33" d="M45 65h1" />
<path stroke="#424236" d="M46 65h1" />
<path stroke="#3a382e" d="M47 65h1" />
<path stroke="#171a14" d="M32 66h1M33 67h1M28 68h1M34 69h1M48 77h1M32 120h2M61 120h1M30 122h1M35 122h1M28 123h1M31 123h1M33 123h1M28 124h1M60 124h2M61 125h1" />
<path stroke="#141713" d="M39 66h1M63 76h1M60 77h1" />
<path stroke="#393c31" d="M42 66h1" />
<path stroke="#4a543f" d="M43 66h1" />
<path stroke="#546849" d="M45 66h1" />
<path stroke="#4f5c44" d="M47 66h1" />
<path stroke="#48513d" d="M48 66h1" />
<path stroke="#12150f" d="M18 67h1M42 71h1M26 72h1M50 72h1M39 73h1M47 74h1M48 75h1M27 76h1M62 78h1M58 79h1M64 79h1M64 80h1M59 81h1M13 120h1M9 121h1M15 121h1M22 121h1M24 123h1" />
<path stroke="#12160f" d="M20 67h1M22 67h1M20 68h1M18 71h1M24 82h1M3 86h1M46 86h1M59 87h1M9 89h1M5 90h1M9 93h1M32 93h1M55 96h1M48 98h1M1 100h1M11 100h1M40 100h1M18 101h2M40 101h1M1 102h1M3 102h1M6 102h1M9 102h2M13 102h1M16 102h1M20 102h1M39 102h1M44 102h1M44 103h1M44 104h1M49 104h1M47 105h3M10 113h2M13 113h1M15 114h2M22 116h2M22 117h1M9 119h1M16 121h2" />
<path stroke="#21241e" d="M28 67h1M32 68h1M31 69h1M33 70h1M58 122h1M62 122h1M64 122h1M46 126h1M48 126h1M56 126h1M47 127h1" />
<path stroke="#1f211d" d="M37 67h1M40 67h2M43 67h1M38 68h1M41 70h1M37 127h1" />
<path stroke="#26241a" d="M45 67h1" />
<path stroke="#211f16" d="M46 67h1" />
<path stroke="#302e24" d="M48 67h1" />
<path stroke="#333027" d="M49 67h1" />
<path stroke="#10130d" d="M18 68h1M53 76h1M55 76h1M54 77h1M61 78h1M64 78h1M15 119h1M17 119h1M9 120h1M14 120h1M1 121h2M5 121h1M7 121h2M11 121h4M23 124h1M25 124h1" />
<path stroke="#28251c" d="M46 68h1M49 68h1" />
<path stroke="#2a281f" d="M47 68h1" />
<path stroke="#2d2b21" d="M48 68h1" />
<path stroke="#0f130c" d="M18 69h1M6 90h2M3 91h1M2 92h1M32 92h1M5 93h1M32 94h1M37 94h1M4 95h1M7 96h1M42 98h1M6 99h1M2 100h1M50 100h1M13 101h2M12 117h1M1 119h1M8 119h1" />
<path stroke="#0e120b" d="M19 69h1M18 70h2M22 70h1M13 79h1M24 80h1M48 80h1M13 81h1M4 89h3M8 90h1M0 92h1M5 92h1M0 93h1M4 94h4M3 95h1M3 96h1M44 96h1M3 97h1M41 97h1M44 97h1M50 97h1M5 99h1M6 100h1M8 100h1M44 100h1M47 100h1M2 101h1M5 101h4M43 101h1M47 102h1M41 103h1M0 114h2M4 115h2M8 116h1M11 117h1M0 118h1M3 118h1M2 119h6M0 120h2M3 120h4M0 121h1M4 121h1M2 122h13M6 123h1M8 123h8M17 123h3M16 124h3M26 124h1M20 125h1" />
<path stroke="#11150e" d="M22 69h1M20 70h1M23 70h1M22 71h1M7 77h1M60 81h1M13 82h1M13 83h1M50 85h1M4 91h2M7 93h2M10 93h1M2 95h1M6 95h1M8 95h1M1 96h1M4 96h1M9 96h1M37 96h1M39 96h1M47 96h1M7 97h1M42 97h1M47 97h1M1 98h1M49 98h1M45 99h1M49 99h1M3 101h1M16 101h2M39 101h1M49 101h2M0 102h1M11 102h1M41 102h1M49 102h1M42 103h1M45 103h1M12 113h1M13 114h1M16 115h1M21 116h1M4 118h1M0 119h1M18 119h2M17 120h1M16 122h1M18 122h1" />
<path stroke="#0e100c" d="M42 69h1M53 74h1M55 75h1M63 77h1" />
<path stroke="#0f110d" d="M43 69h2M54 74h1M53 75h1" />
<path stroke="#10120e" d="M47 69h1M47 70h1" />
<path stroke="#1a180e" d="M48 69h2" />
<path stroke="#18160c" d="M50 69h1" />
<path stroke="#1e180c" d="M53 69h1M62 69h1M53 70h2M57 70h1M64 70h1M53 71h1M61 71h1M61 72h1" />
<path stroke="#121511" d="M45 70h1M56 75h1" />
<path stroke="#131612" d="M46 70h1M48 70h1M57 76h1M59 77h1" />
<path stroke="#1d1b11" d="M50 70h1" />
<path stroke="#31352f" d="M41 72h1" />
<path stroke="#11150f" d="M42 72h1M43 73h1M47 77h1M61 80h1" />
<path stroke="#060606" d="M53 72h1" />
<path stroke="#0a0a0a" d="M54 72h1M54 73h1M60 73h2" />
<path stroke="#090909" d="M55 72h1M59 74h1" />
<path stroke="#0f0f0f" d="M56 72h1" />
<path stroke="#0f130d" d="M42 73h1M47 76h1M51 79h1M53 80h1M28 127h2" />
<path stroke="#0e110c" d="M50 73h1" />
<path stroke="#0d0f0b" d="M53 73h1M55 74h1" />
<path stroke="#080808" d="M55 73h1M57 73h1M57 74h1M60 74h1" />
<path stroke="#0b0b0b" d="M59 73h1M62 73h1M60 75h1" />
<path stroke="#2f332c" d="M6 75h1M38 76h1M0 77h1M0 78h1M35 79h1M37 79h1M21 80h1M37 82h1M34 83h1M22 84h1M33 85h1M19 92h2M20 94h1M56 98h2M61 98h1M55 99h1M60 100h1M54 103h1M60 103h1M54 108h1M56 108h1" />
<path stroke="#353a33" d="M37 75h1M1 77h1M4 78h1M38 85h1M56 85h2M34 86h1M55 87h1M48 88h1M32 89h1M35 89h1M47 90h1M49 90h1M60 94h1M60 95h1M54 100h1M56 101h1" />
<path stroke="#1b1f19" d="M49 76h1M52 83h1M62 121h1M36 123h1M56 123h1M36 124h1M57 124h1M63 124h1M31 126h1M53 126h1M60 126h1M56 127h1M62 127h1" />
<path stroke="#111310" d="M58 76h1M62 76h1" />
<path stroke="#0c0e0b" d="M59 76h1" />
<path stroke="#10140e" d="M50 77h1M29 125h1M28 126h2" />
<path stroke="#0f120d" d="M55 77h1" />
<path stroke="#0c0e0a" d="M64 77h1" />
<path stroke="#363b34" d="M3 78h1M7 78h1M1 79h1M6 79h1M58 84h1M53 91h1M46 92h1" />
<path stroke="#383f36" d="M8 78h1M42 86h1M42 88h2M50 90h1M43 93h1M53 97h1M53 98h1M64 108h1" />
<path stroke="#363d34" d="M9 78h1M2 79h1M58 85h1M52 89h1M52 90h1M38 92h1M55 93h1M49 94h1M53 99h1M61 103h1" />
<path stroke="#181c16" d="M39 78h1M2 82h1M4 82h2M43 84h1M19 86h1M24 86h1M27 86h1M24 87h4M17 88h1M20 88h1M24 88h1M13 91h1M62 93h1M12 96h1M34 96h1M64 96h1M13 97h1M33 97h1M33 98h2M63 98h1M63 99h1M13 100h1M54 101h1M63 101h1M9 103h1M12 103h1M20 103h1M64 103h1M40 104h1M40 105h1M44 105h2M0 106h1M7 106h1M10 106h1M0 107h1M45 108h1" />
<path stroke="#1f231c" d="M40 78h1M41 80h2M41 81h1M41 84h1M26 86h1M11 87h1M53 88h1M62 89h1M63 91h1M28 92h1M64 92h1M29 93h1M29 94h1M42 94h1M62 94h1M18 95h1M16 96h1M19 96h1M30 97h1M36 97h1M29 98h1M27 99h2M22 100h1M25 100h1M27 100h1M28 101h1M33 101h1M0 103h1M16 103h1M21 104h1M39 104h1M57 104h1M47 107h1M7 108h2" />
<path stroke="#1e221b" d="M42 78h1M40 79h1M42 79h1M43 80h1M40 81h1M40 82h1M25 86h1M23 87h1M48 87h1M38 93h1M40 93h1M30 94h1M43 94h1M17 95h1M30 95h1M36 95h1M48 95h1M15 96h1M51 96h1M62 96h1M15 97h1M28 98h1M23 99h1M23 100h1M28 100h1M25 101h1M46 102h1M22 103h2M46 103h1M63 103h1M24 104h1M9 105h1M41 105h1M14 106h1M45 106h1M47 106h1M9 107h1M37 112h2M37 113h2" />
<path stroke="#161913" d="M56 78h1M52 84h1M33 121h1M29 122h1M33 122h2M30 123h1M62 125h1M62 126h1M64 126h1M32 127h1" />
<path stroke="#394137" d="M0 79h1M25 80h1M60 82h1M47 92h1" />
<path stroke="#3f4e3e" d="M20 79h1M18 80h1" />
<path stroke="#3e4d3d" d="M21 79h1M49 93h1" />
<path stroke="#3e4c3d" d="M22 79h2M36 87h1M34 89h1M44 93h1M50 93h1" />
<path stroke="#425240" d="M24 79h1M36 91h1M43 92h1" />
<path stroke="#455843" d="M25 79h1" />
<path stroke="#32362f" d="M36 79h1M32 87h1M17 89h1M19 93h1M61 95h1M53 96h1M57 97h1M52 101h1M59 101h1M56 107h1M56 109h2" />
<path stroke="#0d110a" d="M47 79h2M47 80h1M51 80h2M3 89h1M43 97h1M0 98h1M41 98h1M43 98h2M43 99h1M3 100h3M44 101h1M47 101h1M1 118h2M0 122h2M1 123h5M7 123h1M16 123h1M2 124h2M8 124h1M15 124h1M19 124h4M17 125h1M22 125h1" />
<path stroke="#0c0f09" d="M49 79h1M11 124h1M11 126h1M24 126h2" />
<path stroke="#0e110b" d="M50 79h1M13 124h2M25 125h4" />
<path stroke="#3b4439" d="M17 80h1M21 84h1M41 86h1M45 92h1" />
<path stroke="#333730" d="M36 80h1M36 81h1M21 83h1M36 84h1M36 85h1M41 87h1M22 89h1M31 89h1M40 89h2M22 90h1M60 101h1" />
<path stroke="#394237" d="M38 80h1M64 85h1M35 86h1M48 86h1M60 86h1M38 87h1M38 88h2M39 89h1M40 91h1M53 103h1" />
<path stroke="#0c100a" d="M49 80h1M0 95h1M0 96h1" />
<path stroke="#0d100a" d="M50 80h1M26 126h2M25 127h2" />
<path stroke="#292d26" d="M33 81h1M37 83h1M30 84h1M29 86h1M12 87h1M29 90h2M43 90h1M45 90h1M14 91h1M33 91h1M15 93h1M24 93h1M58 93h1M14 94h1M31 96h1M61 96h1M31 97h1M35 97h1M52 97h1M52 98h1M58 99h1M32 101h1M35 101h1M32 102h1M58 102h1M51 103h1M17 104h2M20 104h1M59 104h1M61 104h1M18 105h1M22 105h1M57 105h2M63 105h1M57 106h1M53 109h1" />
<path stroke="#373e35" d="M38 81h1M39 86h1M33 87h1M32 88h1M38 90h1M51 104h1M64 107h1" />
<path stroke="#21251f" d="M42 81h1M28 82h2M29 83h1M43 85h1M18 86h1M5 87h1M25 90h1M23 92h1M19 94h1M35 94h1M14 95h1M19 95h1M21 95h1M51 95h1M18 96h1M21 96h1M23 96h1M25 96h1M22 97h1M24 97h1M26 97h1M19 98h2M32 99h1M26 101h1M29 101h3M31 102h1M1 103h1M30 104h1M12 105h1M51 105h1M62 105h1M48 107h1M60 107h2M39 109h1M41 109h1M43 109h1M41 110h2M38 111h1M41 127h1" />
<path stroke="#2b2f29" d="M34 82h1M33 84h1M30 85h1M43 87h1M46 88h2M12 89h1M14 90h1M16 90h1M19 90h3M21 91h1M34 91h1M61 92h1M12 93h1M14 93h1M22 93h1M12 94h1M61 94h1M57 95h1M58 98h1M36 100h1M55 101h1M56 106h1M58 107h1M59 108h1" />
<path stroke="#141811" d="M39 82h1M26 83h1M24 84h1M24 85h1M2 87h1M1 93h1M64 94h1M11 96h1M49 96h1M38 98h1M13 99h1M48 99h1M0 100h1M14 102h1M17 102h1M23 102h1M50 102h1M13 103h1M48 103h2M46 104h1M50 104h1M40 106h1M50 106h1" />
<path stroke="#3c483b" d="M54 82h1" />
<path stroke="#343831" d="M35 83h1M20 84h1M34 85h1M33 88h1M19 89h3M22 91h1M53 93h1M56 99h1M55 100h1M54 102h1M60 102h2M52 104h1" />
<path stroke="#282c25" d="M29 84h1M21 86h2M29 87h1M27 88h1M27 89h1M45 89h1M27 91h1M21 92h1M26 92h1M35 92h1M59 93h1M31 94h1M31 95h1M59 96h1M21 98h1M27 98h1M36 98h1M51 99h1M32 100h1M14 104h1M16 104h1M17 105h1M19 105h3M52 109h1M52 110h1" />
<path stroke="#3c463a" d="M57 84h1M60 84h1M60 85h1M37 86h1M37 87h1M40 87h1M40 88h1M46 91h1" />
<path stroke="#0e120c" d="M21 85h1M0 91h1M2 94h2M40 95h1M42 95h1M5 96h1M8 96h1M40 96h2M48 96h1M4 97h3M8 97h1M39 98h1M50 98h1M50 99h1M7 100h1M9 100h1M43 100h1M0 101h2M9 101h4M45 104h1M47 104h1" />
<path stroke="#353832" d="M40 85h1M40 86h1M35 88h1M37 88h1M53 104h1" />
<path stroke="#384036" d="M35 87h1M33 90h1M51 93h1M53 100h1" />
<path stroke="#151912" d="M0 88h3M2 90h1M1 91h1M1 92h1M13 92h1M33 94h1M34 95h1M38 97h1M8 98h1M46 98h1M24 99h1M15 100h1M48 101h1M50 103h1M50 105h1" />
<path stroke="#4a6248" d="M41 88h1M57 90h1M48 92h1" />
<path stroke="#3f4e3d" d="M37 89h1M34 90h1M37 91h1" />
<path stroke="#3e4a3c" d="M38 89h1M44 92h1" />
<path stroke="#53714f" d="M54 89h1" />
<path stroke="#4e6a4c" d="M55 89h1M56 90h1M59 91h1" />
<path stroke="#455943" d="M56 89h1M60 89h1M53 90h1" />
<path stroke="#5d7853" d="M58 89h1" />
<path stroke="#3e4b3c" d="M35 90h1M38 91h2M52 93h1" />
<path stroke="#496147" d="M36 90h1M44 91h1M51 91h1M52 94h1" />
<path stroke="#4c674a" d="M54 90h1" />
<path stroke="#4d684b" d="M55 90h1M58 91h1M53 92h1" />
<path stroke="#4b6649" d="M60 90h1" />
<path stroke="#4a6448" d="M61 90h1M60 91h1" />
<path stroke="#475c45" d="M41 91h1M52 91h1M52 92h1M47 93h1" />
<path stroke="#485f46" d="M43 91h1" />
<path stroke="#4d674b" d="M49 91h1" />
<path stroke="#435441" d="M56 91h1M45 93h1" />
<path stroke="#4b6549" d="M57 91h1" />
<path stroke="#577351" d="M49 92h1" />
<path stroke="#728b5c" d="M50 92h1" />
<path stroke="#688358" d="M51 92h1" />
<path stroke="#506d4e" d="M54 92h1" />
<path stroke="#657f56" d="M56 92h1" />
<path stroke="#506f4e" d="M58 92h1" />
<path stroke="#627d55" d="M56 93h1" />
<path stroke="#0c1009" d="M0 94h1M41 95h1M47 98h1M44 99h1M47 99h1M18 125h1M21 125h1M24 125h1" />
<path stroke="#404f3e" d="M50 94h1" />
<path stroke="#486047" d="M53 94h1" />
<path stroke="#0b0f09" d="M0 97h1" />
<path stroke="#0f120c" d="M2 120h1M7 120h2M15 122h1" />
<path stroke="#0b0f08" d="M0 123h1M5 124h3M9 124h2M0 125h5M6 125h2M14 125h3M19 125h1M23 125h1M14 126h4M20 126h3M13 127h1" />
<path stroke="#0a0e08" d="M0 124h2M4 124h1M5 125h1M18 126h2M14 127h7" />
<path stroke="#0b0e08" d="M12 124h1M9 125h5M0 126h3M4 126h6M12 126h1M23 126h1M5 127h1M7 127h6M21 127h4M27 127h1" />
<path stroke="#0a0d07" d="M8 125h1M3 126h1M10 126h1M13 126h1M0 127h5M6 127h1" />
<path stroke="#1c1f1a" d="M38 125h1" />
</svg>