<svg xmlns="http://www.w3.org/2000/svg" viewBox="0 -0.5 32 64" shape-rendering="crispEdges">
<metadata>Made with Pixels to Svg https://codepen.io/shshaw/pen/XbxvNj</metadata>
<path stroke="#b9b88d" d="M15 2h1" />
<path stroke="#a9b36a" d="M15 3h1M16 6h1M16 7h1M17 9h1M17 10h2M17 11h1M17 12h2M17 13h2M18 14h1M18 15h2M18 16h2M18 17h2M18 18h3M18 19h3M18 20h3M18 21h5M19 22h3M19 23h4M18 24h5M19 25h4M19 26h5M19 27h6M22 28h3" />
<path stroke="#a2a167" d="M16 3h1M14 4h1" />
<path stroke="#bcc180" d="M15 4h1" />
<path stroke="#b1b773" d="M16 4h1M13 9h1M7 27h1" />
<path stroke="#b0b672" d="M14 5h1M21 18h1" />
<path stroke="#bbc07e" d="M15 5h1M15 6h1M15 7h1M14 15h1M14 16h1M14 17h1M14 18h1M14 19h1M13 21h1M13 22h2M13 23h2M13 24h2M13 25h2M13 26h2M13 27h1" />
<path stroke="#b2b874" d="M16 5h1M13 8h1M19 14h1M20 17h1M22 22h1M18 26h1" />
<path stroke="#b1b671" d="M14 6h1M8 23h1" />
<path stroke="#a1a066" d="M17 6h1M18 8h1M12 10h1M19 10h1M20 12h1M11 13h1M21 14h1M10 16h1M22 16h1M9 18h1M23 18h1M9 19h1M24 20h1M8 21h1M8 22h1M25 22h1M7 23h1M7 24h1M26 24h1M6 25h1M6 26h1M27 26h1M6 27h1M5 28h1M28 28h1M5 29h1M4 30h2" />
<path stroke="#a09e65" d="M13 7h1" />
<path stroke="#c2c68f" d="M14 7h1M9 22h1" />
<path stroke="#b0b56f" d="M17 7h1" />
<path stroke="#c2c68b" d="M14 8h1M12 14h1M13 15h1M11 16h3M11 17h1M13 18h1M13 19h1M13 20h1M10 21h1M10 22h1M10 24h3M9 25h1M11 25h2M8 26h4M9 27h1M12 27h1M8 28h2M8 29h1" />
<path stroke="#babf7d" d="M15 8h1M15 9h1" />
<path stroke="#aab36b" d="M16 8h1" />
<path stroke="#b1b670" d="M17 8h1" />
<path stroke="#c6c292" d="M14 9h1" />
<path stroke="#b0b56e" d="M16 9h1M16 10h1M17 16h1M17 17h1M18 25h1M6 29h1" />
<path stroke="#a5aa70" d="M18 9h1" />
<path stroke="#c2c68c" d="M13 10h1M13 12h1M13 13h1M12 17h2M11 18h1M11 22h1M9 23h2M10 27h1M7 28h1M10 28h1M7 29h1M9 29h1M7 30h1" />
<path stroke="#c4c792" d="M14 10h1M11 19h1" />
<path stroke="#b7bb7a" d="M15 10h1M15 11h1M13 55h1M12 56h1M8 57h1M15 57h1M17 58h1M17 61h1M12 62h1" />
<path stroke="#b1b673" d="M12 11h1M12 12h1M19 12h1M11 15h1M20 15h1M20 16h1M10 17h1M9 20h1M9 21h1M23 23h1M8 24h1M7 26h1M24 26h1M6 30h1" />
<path stroke="#c7c197" d="M13 11h1" />
<path stroke="#bec284" d="M14 11h1" />
<path stroke="#b3b975" d="M16 11h1M16 13h1M17 23h1" />
<path stroke="#b2b774" d="M18 11h1" />
<path stroke="#9c9f6e" d="M19 11h1" />
<path stroke="#bec283" d="M14 12h1" />
<path stroke="#b4b978" d="M15 12h2M16 15h1M16 20h1M15 21h1M16 22h1" />
<path stroke="#c2c68d" d="M12 13h1M12 18h1M11 21h1" />
<path stroke="#bcc181" d="M14 13h1" />
<path stroke="#b5ba79" d="M15 13h1M15 15h1M15 16h1M16 19h1M15 20h1M17 21h1M17 22h1M16 23h1M15 24h1M16 25h1M16 26h1M8 54h2M8 55h5M8 56h1M10 56h2M13 56h3M17 56h1M7 57h1M9 57h6M16 57h1M18 57h2M6 58h3M10 58h2M13 58h4M19 58h1M6 59h2M9 59h8M5 60h4M10 60h2M13 60h3M17 60h3M5 61h3M9 61h7M18 61h1M4 62h5M10 62h2M13 62h2M16 62h1M18 62h1M4 63h16" />
<path stroke="#adb46d" d="M19 13h1" />
<path stroke="#9c9f70" d="M20 13h1M21 15h1M24 21h1M27 29h1" />
<path stroke="#b1b772" d="M11 14h1" />
<path stroke="#c3c590" d="M13 14h1" />
<path stroke="#bbbf7e" d="M14 14h1" />
<path stroke="#b5ba78" d="M15 14h1M16 16h1M15 26h1M17 27h1" />
<path stroke="#b3b875" d="M16 14h1M17 19h1" />
<path stroke="#acb36f" d="M17 14h1" />
<path stroke="#9b9e6c" d="M20 14h1M21 16h1M22 18h1M23 19h1M23 20h1M23 21h1M23 22h2M24 24h2M24 25h2M25 26h1M26 27h2M27 28h1M28 29h1M29 30h1" />
<path stroke="#c5c392" d="M12 15h1" />
<path stroke="#adb46c" d="M17 15h1" />
<path stroke="#b4ba78" d="M15 17h2M17 20h1" />
<path stroke="#9b9e6d" d="M21 17h1M22 19h1M25 23h1M26 25h1M25 27h1" />
<path stroke="#9b9e6e" d="M22 17h1M26 28h1M29 31h1" />
<path stroke="#afb572" d="M10 18h1M22 20h1" />
<path stroke="#b3b976" d="M15 18h1M17 18h1M15 22h1M17 25h1M18 27h1" />
<path stroke="#b4b977" d="M16 18h1M15 19h1M15 23h1M16 24h2M15 25h1M23 25h1" />
<path stroke="#c4c793" d="M10 19h1" />
<path stroke="#c3c78f" d="M12 19h1M12 20h1M8 25h1" />
<path stroke="#aeb471" d="M21 19h1" />
<path stroke="#9f9d63" d="M8 20h1" />
<path stroke="#c3c68d" d="M10 20h1M11 27h1" />
<path stroke="#c4c791" d="M11 20h1M11 23h2" />
<path stroke="#c0c487" d="M14 20h1" />
<path stroke="#acb370" d="M21 20h1" />
<path stroke="#c3c790" d="M12 21h1" />
<path stroke="#bcc07f" d="M14 21h1" />
<path stroke="#b2b875" d="M16 21h1M17 26h1" />
<path stroke="#c3c58d" d="M12 22h1" />
<path stroke="#aeb46d" d="M18 22h1" />
<path stroke="#acb46c" d="M18 23h1" />
<path stroke="#9c9f6f" d="M24 23h1M26 26h1" />
<path stroke="#c2c68e" d="M9 24h1M8 27h1" />
<path stroke="#a9b36b" d="M23 24h1" />
<path stroke="#a8a96d" d="M7 25h1" />
<path stroke="#c5c894" d="M10 25h1" />
<path stroke="#c6c296" d="M12 26h1" />
<path stroke="#c3be85" d="M14 27h1" />
<path stroke="#b7b778" d="M15 27h1" />
<path stroke="#b7ba7a" d="M16 27h1" />
<path stroke="#a9b16b" d="M6 28h1" />
<path stroke="#c2c690" d="M11 28h1" />
<path stroke="#d0a176" d="M12 28h1" />
<path stroke="#d09c71" d="M13 28h1M16 28h1M12 29h13M11 30h16M10 31h1M18 31h4M9 32h2M12 32h1M16 32h1M18 32h4M23 32h1M27 32h1M12 33h1M16 33h1M23 33h1M27 33h1M8 34h3M12 34h1M16 34h1M18 34h2M21 34h1M23 34h1M27 34h1M8 35h3M18 35h2M8 36h12M24 36h5M8 37h12M24 37h4M8 38h12M24 38h4M8 39h20M8 40h20M8 41h9M25 41h2M8 42h18M9 43h16M9 44h15M11 45h13" />
<path stroke="#d29a6f" d="M14 28h1M17 28h1M9 31h1M7 38h1M18 46h1" />
<path stroke="#d19b70" d="M15 28h1M7 39h1M17 46h1" />
<path stroke="#d09b70" d="M18 28h1" />
<path stroke="#d29a6e" d="M19 28h3M11 29h1M25 29h2M27 30h1M7 34h1M29 34h1M7 35h1M7 36h1M7 37h1M8 43h1M19 46h3" />
<path stroke="#a0a46f" d="M25 28h1" />
<path stroke="#cea277" d="M10 29h1M5 33h1" />
<path stroke="#d1a177" d="M8 30h1M6 33h2M6 34h1M6 35h1M6 36h1" />
<path stroke="#cfa277" d="M9 30h1M5 34h1" />
<path stroke="#d19b6f" d="M10 30h1M29 33h1M7 40h1M10 45h1" />
<path stroke="#b8a170" d="M28 30h1" />
<path stroke="#000000" d="M3 31h2M11 31h7M22 31h7M2 32h1M4 32h5M11 32h1M17 32h1M22 32h1M28 32h3M8 33h4M17 33h6M28 33h1M11 34h1M17 34h1M22 34h1M28 34h1M11 35h7M22 35h7" />
<path stroke="#cba678" d="M5 31h1" />
<path stroke="#d0a177" d="M6 31h3" />
<path stroke="#c79365" d="M3 32h1M2 33h2M1 34h1M4 34h1M20 34h1M3 35h2M2 36h4M20 36h1M3 37h3M4 38h2M29 38h1M4 39h3M29 39h1M5 40h1M28 40h1M5 41h2M28 41h1M5 42h2M27 42h2M6 43h1M27 43h1M6 44h2M25 44h3M7 45h1M25 45h3M7 46h2M24 46h3M9 47h2M14 47h1M22 47h5M9 48h17M12 49h2M15 49h1M17 49h8M17 50h5" />
<path stroke="#f7f7f7" d="M13 32h3M24 32h3M13 33h1M15 33h1M24 33h1M26 33h1M13 34h3M24 34h3" />
<path stroke="#cb986c" d="M4 33h1M20 37h1" />
<path stroke="#211917" d="M14 33h1M25 33h1" />
<path stroke="#b4825d" d="M30 33h1M2 34h2M30 34h1M2 35h1M30 35h1M30 36h1" />
<path stroke="#c18d61" d="M1 35h1M2 37h1M28 43h1M6 45h1M27 46h1M16 49h1M26 49h1" />
<path stroke="#c79868" d="M5 35h1" />
<path stroke="#cd9a6f" d="M20 35h1M15 46h1" />
<path stroke="#af825b" d="M21 35h1M5 45h1M6 47h1" />
<path stroke="#ce9c71" d="M29 35h1M28 37h1M7 42h1M24 44h1M9 45h1M9 46h2M12 46h1" />
<path stroke="#c09471" d="M1 36h1" />
<path stroke="#b4845e" d="M21 36h1M24 51h1M10 53h2M13 53h1M25 53h1M10 54h2M13 54h1M17 54h2M20 54h1M23 54h1M16 55h2" />
<path stroke="#a97951" d="M22 36h1" />
<path stroke="#cf9c71" d="M23 36h1M8 44h1M11 46h1" />
<path stroke="#ca966a" d="M29 36h1M18 47h1" />
<path stroke="#ca9669" d="M6 37h1" />
<path stroke="#b18861" d="M21 37h1" />
<path stroke="#aa7850" d="M22 37h1" />
<path stroke="#ab7e57" d="M23 37h1" />
<path stroke="#ca9a6c" d="M29 37h1" />
<path stroke="#c6905f" d="M3 38h1M16 50h1" />
<path stroke="#cd9b70" d="M6 38h1M14 46h1M13 47h1" />
<path stroke="#ac885f" d="M20 38h1" />
<path stroke="#a97c55" d="M21 38h1" />
<path stroke="#a87b53" d="M22 38h1" />
<path stroke="#ad815a" d="M23 38h1M9 51h1" />
<path stroke="#cc9d70" d="M28 38h1" />
<path stroke="#c79566" d="M28 39h1M14 49h1" />
<path stroke="#bc8a62" d="M4 40h1M29 41h1" />
<path stroke="#ca976a" d="M6 40h1M12 47h1" />
<path stroke="#be8b62" d="M29 40h1M4 41h1M26 48h1" />
<path stroke="#cd9d70" d="M7 41h1" />
<path stroke="#70280b" d="M17 41h1" />
<path stroke="#661d02" d="M18 41h1" />
<path stroke="#651b01" d="M19 41h6" />
<path stroke="#c79466" d="M27 41h1M15 47h1" />
<path stroke="#bf8c61" d="M4 42h1M5 43h1" />
<path stroke="#cc9a6e" d="M26 42h1M20 47h1" />
<path stroke="#cc986a" d="M7 43h1" />
<path stroke="#ce9d72" d="M25 43h1" />
<path stroke="#cd986c" d="M26 43h1" />
<path stroke="#b58560" d="M5 44h1" />
<path stroke="#ba8963" d="M28 44h1" />
<path stroke="#cb986b" d="M8 45h1M22 46h1" />
<path stroke="#cd9e70" d="M24 45h1" />
<path stroke="#b3815b" d="M6 46h1" />
<path stroke="#cf9b70" d="M13 46h1" />
<path stroke="#cc996e" d="M16 46h1" />
<path stroke="#cc976a" d="M23 46h1" />
<path stroke="#c6905e" d="M7 47h1M10 49h2M25 49h1" />
<path stroke="#c6905d" d="M8 47h1" />
<path stroke="#c79d6b" d="M11 47h1" />
<path stroke="#c89467" d="M16 47h1" />
<path stroke="#d09a6e" d="M17 47h1" />
<path stroke="#cc9e70" d="M19 47h1" />
<path stroke="#c89466" d="M21 47h1" />
<path stroke="#b27d57" d="M27 47h1M11 51h1M13 52h1M15 52h3M22 52h1M24 52h2" />
<path stroke="#b88762" d="M6 48h1" />
<path stroke="#ae805a" d="M7 48h1" />
<path stroke="#c69161" d="M8 48h1" />
<path stroke="#b2805a" d="M7 49h1" />
<path stroke="#c48a55" d="M8 49h2M11 50h2M14 50h1M22 50h3M17 51h2M21 51h1" />
<path stroke="#b27f5a" d="M7 50h1" />
<path stroke="#b08059" d="M8 50h1" />
<path stroke="#c08147" d="M9 50h2M14 51h2M22 51h1" />
<path stroke="#bf834c" d="M13 50h1" />
<path stroke="#c48b56" d="M15 50h1" />
<path stroke="#c58e5b" d="M25 50h1" />
<path stroke="#b1845f" d="M7 51h1" />
<path stroke="#b3805a" d="M8 51h1M20 52h1M23 52h1" />
<path stroke="#b2835c" d="M10 51h1" />
<path stroke="#c08857" d="M12 51h1" />
<path stroke="#c08957" d="M13 51h1" />
<path stroke="#c38853" d="M16 51h1" />
<path stroke="#c28852" d="M19 51h2" />
<path stroke="#c0854e" d="M23 51h1" />
<path stroke="#b68661" d="M25 51h1" />
<path stroke="#b3835d" d="M7 52h1M21 54h1" />
<path stroke="#b0855e" d="M8 52h1" />
<path stroke="#af825c" d="M9 52h1" />
<path stroke="#b1835c" d="M10 52h1" />
<path stroke="#b1815a" d="M11 52h1" />
<path stroke="#b0805a" d="M12 52h1" />
<path stroke="#b37f59" d="M14 52h1" />
<path stroke="#b27e58" d="M18 52h2M21 52h1M16 53h2" />
<path stroke="#9b9c63" d="M7 53h1M6 55h1M27 56h1M5 57h1M27 57h1M4 58h1M28 58h1M4 59h1M29 59h1M3 60h1M29 60h1M2 61h2M29 61h2M2 62h1M30 62h1M1 63h2M30 63h1" />
<path stroke="#b0875f" d="M8 53h1" />
<path stroke="#b2855f" d="M9 53h1M14 54h1" />
<path stroke="#b08760" d="M12 53h1" />
<path stroke="#ad875f" d="M14 53h1" />
<path stroke="#b1865f" d="M15 53h1" />
<path stroke="#b0825c" d="M18 53h1" />
<path stroke="#af8760" d="M19 53h1" />
<path stroke="#ad8860" d="M20 53h1M19 54h1" />
<path stroke="#ae835c" d="M21 53h1" />
<path stroke="#b3845e" d="M22 53h1M15 55h1" />
<path stroke="#ae8860" d="M23 53h1M24 54h1" />
<path stroke="#ad8960" d="M24 53h1" />
<path stroke="#a5a96b" d="M7 54h1M5 59h1M4 60h1" />
<path stroke="#ae865f" d="M12 54h1" />
<path stroke="#b0865f" d="M15 54h1" />
<path stroke="#b2865f" d="M16 54h1" />
<path stroke="#b3855e" d="M22 54h1" />
<path stroke="#b0865e" d="M25 54h1" />
<path stroke="#adb371" d="M7 55h1M19 56h1M3 63h1" />
<path stroke="#b5b277" d="M14 55h1" />
<path stroke="#b5845e" d="M18 55h1" />
<path stroke="#aca36d" d="M19 55h1" />
<path stroke="#a3a468" d="M20 55h1M22 55h3M20 56h6M20 57h7M20 58h7M20 59h7M20 60h8M21 61h7M21 62h8M21 63h8" />
<path stroke="#a4a669" d="M21 55h1" />
<path stroke="#aeae7a" d="M25 55h1" />
<path stroke="#a0a066" d="M26 55h1M5 58h1" />
<path stroke="#a8aa6d" d="M6 56h1M3 62h1" />
<path stroke="#b6bb7b" d="M7 56h1M18 58h1" />
<path stroke="#b6bc7e" d="M9 56h1M9 62h1" />
<path stroke="#b7bc7b" d="M16 56h1M8 59h1M12 60h1" />
<path stroke="#b5bb7c" d="M18 56h1M9 58h1" />
<path stroke="#a4a571" d="M26 56h1M27 58h1M28 61h1" />
<path stroke="#a9ab6e" d="M6 57h1M20 62h1" />
<path stroke="#b8bc7b" d="M17 57h1M17 62h1" />
<path stroke="#b6bb7a" d="M12 58h1M8 61h1M19 61h1M15 62h1M19 62h1" />
<path stroke="#b9bd7c" d="M17 59h1" />
<path stroke="#b5bb7b" d="M18 59h1" />
<path stroke="#bac086" d="M19 59h1" />
<path stroke="#a4a570" d="M27 59h1" />
<path stroke="#969a67" d="M28 59h1" />
<path stroke="#b6bc7d" d="M9 60h1" />
<path stroke="#b6ba79" d="M16 60h1" />
<path stroke="#9a9c63" d="M28 60h1" />
<path stroke="#acb271" d="M4 61h1" />
<path stroke="#b5ba7a" d="M16 61h1" />
<path stroke="#a5a86b" d="M20 61h1" />
<path stroke="#989b65" d="M29 62h1" />
<path stroke="#aaac70" d="M20 63h1" />
<path stroke="#9b9d65" d="M29 63h1" />
</svg>